ISO-10303-21;
HEADER;
/* Generated by software containing ST-Developer
 * from STEP Tools, Inc. (www.steptools.com) 
 */

FILE_DESCRIPTION(
/* description */ (''),
/* implementation_level */ '2;1');

FILE_NAME(
/* name */ 'base2.step',
/* time_stamp */ '2026-08-18T23:41:00+05:30',
/* author */ (''),
/* organization */ (''),
/* preprocessor_version */ 'ST-DEVELOPER v20.1',
/* originating_system */ 'Autodesk Translation Framework v15.8.0.0',
/* authorisation */ '');

FILE_SCHEMA (('AUTOMOTIVE_DESIGN { 1 0 10303 214 3 1 1 }'));
ENDSEC;

DATA;
#10=MECHANICAL_DESIGN_GEOMETRIC_PRESENTATION_REPRESENTATION('',(#17),#1475);
#11=ITEM_DEFINED_TRANSFORMATION($,$,#923,#983);
#12=(
REPRESENTATION_RELATIONSHIP($,$,#1485,#1484)
REPRESENTATION_RELATIONSHIP_WITH_TRANSFORMATION(#11)
SHAPE_REPRESENTATION_RELATIONSHIP()
);
#13=CONTEXT_DEPENDENT_SHAPE_REPRESENTATION(#12,#1483);
#14=NEXT_ASSEMBLY_USAGE_OCCURRENCE('base:1','base:1','base:1',#1487,#1488,
'base:1');
#15=SHAPE_REPRESENTATION_RELATIONSHIP('SRR','None',#1485,#16);
#16=ADVANCED_BREP_SHAPE_REPRESENTATION('',(#18),#1474);
#17=STYLED_ITEM('',(#1498),#18);
#18=MANIFOLD_SOLID_BREP('Body5',#921);
#19=FACE_BOUND('',#136,.T.);
#20=FACE_BOUND('',#137,.T.);
#21=FACE_BOUND('',#138,.T.);
#22=FACE_BOUND('',#139,.T.);
#23=FACE_BOUND('',#140,.T.);
#24=FACE_BOUND('',#141,.T.);
#25=FACE_BOUND('',#145,.T.);
#26=FACE_BOUND('',#146,.T.);
#27=FACE_BOUND('',#147,.T.);
#28=FACE_BOUND('',#152,.T.);
#29=FACE_BOUND('',#153,.T.);
#30=FACE_BOUND('',#154,.T.);
#31=FACE_BOUND('',#158,.T.);
#32=FACE_BOUND('',#159,.T.);
#33=FACE_BOUND('',#160,.T.);
#34=FACE_BOUND('',#161,.T.);
#35=FACE_BOUND('',#162,.T.);
#36=FACE_BOUND('',#163,.T.);
#37=FACE_BOUND('',#164,.T.);
#38=FACE_BOUND('',#165,.T.);
#39=FACE_BOUND('',#166,.T.);
#40=CIRCLE('',#949,1.5);
#41=CIRCLE('',#950,1.5);
#42=CIRCLE('',#952,1.5);
#43=CIRCLE('',#953,1.5);
#44=CIRCLE('',#954,1.5);
#45=CIRCLE('',#955,1.5);
#46=CIRCLE('',#957,1.5);
#47=CIRCLE('',#958,1.5);
#48=CIRCLE('',#960,1.5);
#49=CIRCLE('',#961,1.5);
#50=CIRCLE('',#962,1.5);
#51=CIRCLE('',#963,1.5);
#52=CIRCLE('',#965,1.5);
#53=CIRCLE('',#966,1.5);
#54=CIRCLE('',#967,1.5);
#55=CIRCLE('',#968,1.5);
#56=CIRCLE('',#970,1.5);
#57=CIRCLE('',#971,1.5);
#58=CYLINDRICAL_SURFACE('',#948,1.5);
#59=CYLINDRICAL_SURFACE('',#951,1.5);
#60=CYLINDRICAL_SURFACE('',#956,1.5);
#61=CYLINDRICAL_SURFACE('',#959,1.5);
#62=CYLINDRICAL_SURFACE('',#964,1.5);
#63=CYLINDRICAL_SURFACE('',#969,1.5);
#64=FACE_OUTER_BOUND('',#105,.T.);
#65=FACE_OUTER_BOUND('',#106,.T.);
#66=FACE_OUTER_BOUND('',#107,.T.);
#67=FACE_OUTER_BOUND('',#108,.T.);
#68=FACE_OUTER_BOUND('',#109,.T.);
#69=FACE_OUTER_BOUND('',#110,.T.);
#70=FACE_OUTER_BOUND('',#111,.T.);
#71=FACE_OUTER_BOUND('',#112,.T.);
#72=FACE_OUTER_BOUND('',#113,.T.);
#73=FACE_OUTER_BOUND('',#114,.T.);
#74=FACE_OUTER_BOUND('',#115,.T.);
#75=FACE_OUTER_BOUND('',#116,.T.);
#76=FACE_OUTER_BOUND('',#117,.T.);
#77=FACE_OUTER_BOUND('',#118,.T.);
#78=FACE_OUTER_BOUND('',#119,.T.);
#79=FACE_OUTER_BOUND('',#120,.T.);
#80=FACE_OUTER_BOUND('',#121,.T.);
#81=FACE_OUTER_BOUND('',#122,.T.);
#82=FACE_OUTER_BOUND('',#123,.T.);
#83=FACE_OUTER_BOUND('',#124,.T.);
#84=FACE_OUTER_BOUND('',#125,.T.);
#85=FACE_OUTER_BOUND('',#126,.T.);
#86=FACE_OUTER_BOUND('',#127,.T.);
#87=FACE_OUTER_BOUND('',#128,.T.);
#88=FACE_OUTER_BOUND('',#129,.T.);
#89=FACE_OUTER_BOUND('',#130,.T.);
#90=FACE_OUTER_BOUND('',#131,.T.);
#91=FACE_OUTER_BOUND('',#132,.T.);
#92=FACE_OUTER_BOUND('',#133,.T.);
#93=FACE_OUTER_BOUND('',#134,.T.);
#94=FACE_OUTER_BOUND('',#135,.T.);
#95=FACE_OUTER_BOUND('',#142,.T.);
#96=FACE_OUTER_BOUND('',#143,.T.);
#97=FACE_OUTER_BOUND('',#144,.T.);
#98=FACE_OUTER_BOUND('',#148,.T.);
#99=FACE_OUTER_BOUND('',#149,.T.);
#100=FACE_OUTER_BOUND('',#150,.T.);
#101=FACE_OUTER_BOUND('',#151,.T.);
#102=FACE_OUTER_BOUND('',#155,.T.);
#103=FACE_OUTER_BOUND('',#156,.T.);
#104=FACE_OUTER_BOUND('',#157,.T.);
#105=EDGE_LOOP('',(#593,#594,#595,#596));
#106=EDGE_LOOP('',(#597,#598,#599,#600));
#107=EDGE_LOOP('',(#601,#602,#603,#604));
#108=EDGE_LOOP('',(#605,#606,#607,#608));
#109=EDGE_LOOP('',(#609,#610,#611,#612));
#110=EDGE_LOOP('',(#613,#614,#615,#616));
#111=EDGE_LOOP('',(#617,#618,#619,#620));
#112=EDGE_LOOP('',(#621,#622,#623,#624));
#113=EDGE_LOOP('',(#625,#626,#627,#628));
#114=EDGE_LOOP('',(#629,#630,#631,#632));
#115=EDGE_LOOP('',(#633,#634,#635,#636));
#116=EDGE_LOOP('',(#637,#638,#639,#640));
#117=EDGE_LOOP('',(#641,#642,#643,#644));
#118=EDGE_LOOP('',(#645,#646,#647,#648));
#119=EDGE_LOOP('',(#649,#650,#651,#652));
#120=EDGE_LOOP('',(#653,#654,#655,#656));
#121=EDGE_LOOP('',(#657,#658,#659,#660));
#122=EDGE_LOOP('',(#661,#662,#663,#664));
#123=EDGE_LOOP('',(#665,#666,#667,#668));
#124=EDGE_LOOP('',(#669,#670,#671,#672));
#125=EDGE_LOOP('',(#673,#674,#675,#676));
#126=EDGE_LOOP('',(#677,#678,#679,#680));
#127=EDGE_LOOP('',(#681,#682,#683,#684));
#128=EDGE_LOOP('',(#685,#686,#687,#688));
#129=EDGE_LOOP('',(#689,#690,#691,#692));
#130=EDGE_LOOP('',(#693,#694,#695,#696,#697,#698));
#131=EDGE_LOOP('',(#699,#700,#701,#702));
#132=EDGE_LOOP('',(#703,#704,#705,#706,#707,#708));
#133=EDGE_LOOP('',(#709,#710,#711,#712,#713,#714));
#134=EDGE_LOOP('',(#715,#716,#717,#718));
#135=EDGE_LOOP('',(#719,#720,#721,#722,#723,#724,#725,#726,#727,#728,#729,
#730,#731));
#136=EDGE_LOOP('',(#732,#733,#734,#735));
#137=EDGE_LOOP('',(#736,#737,#738,#739));
#138=EDGE_LOOP('',(#740,#741,#742,#743));
#139=EDGE_LOOP('',(#744,#745,#746,#747));
#140=EDGE_LOOP('',(#748,#749,#750,#751));
#141=EDGE_LOOP('',(#752,#753,#754,#755));
#142=EDGE_LOOP('',(#756,#757,#758,#759));
#143=EDGE_LOOP('',(#760,#761,#762,#763,#764,#765,#766,#767,#768));
#144=EDGE_LOOP('',(#769,#770,#771,#772));
#145=EDGE_LOOP('',(#773));
#146=EDGE_LOOP('',(#774));
#147=EDGE_LOOP('',(#775));
#148=EDGE_LOOP('',(#776,#777,#778,#779));
#149=EDGE_LOOP('',(#780,#781,#782,#783,#784,#785,#786,#787,#788,#789));
#150=EDGE_LOOP('',(#790,#791,#792,#793));
#151=EDGE_LOOP('',(#794,#795,#796,#797));
#152=EDGE_LOOP('',(#798));
#153=EDGE_LOOP('',(#799));
#154=EDGE_LOOP('',(#800));
#155=EDGE_LOOP('',(#801,#802,#803,#804));
#156=EDGE_LOOP('',(#805,#806,#807,#808,#809,#810,#811,#812,#813));
#157=EDGE_LOOP('',(#814,#815,#816,#817));
#158=EDGE_LOOP('',(#818));
#159=EDGE_LOOP('',(#819));
#160=EDGE_LOOP('',(#820));
#161=EDGE_LOOP('',(#821,#822,#823,#824));
#162=EDGE_LOOP('',(#825,#826,#827,#828));
#163=EDGE_LOOP('',(#829,#830,#831,#832));
#164=EDGE_LOOP('',(#833,#834,#835,#836));
#165=EDGE_LOOP('',(#837,#838,#839,#840));
#166=EDGE_LOOP('',(#841,#842,#843,#844));
#167=LINE('',#1221,#275);
#168=LINE('',#1223,#276);
#169=LINE('',#1225,#277);
#170=LINE('',#1226,#278);
#171=LINE('',#1229,#279);
#172=LINE('',#1231,#280);
#173=LINE('',#1232,#281);
#174=LINE('',#1235,#282);
#175=LINE('',#1237,#283);
#176=LINE('',#1238,#284);
#177=LINE('',#1240,#285);
#178=LINE('',#1241,#286);
#179=LINE('',#1245,#287);
#180=LINE('',#1247,#288);
#181=LINE('',#1249,#289);
#182=LINE('',#1250,#290);
#183=LINE('',#1253,#291);
#184=LINE('',#1255,#292);
#185=LINE('',#1256,#293);
#186=LINE('',#1259,#294);
#187=LINE('',#1261,#295);
#188=LINE('',#1262,#296);
#189=LINE('',#1264,#297);
#190=LINE('',#1265,#298);
#191=LINE('',#1269,#299);
#192=LINE('',#1271,#300);
#193=LINE('',#1273,#301);
#194=LINE('',#1274,#302);
#195=LINE('',#1277,#303);
#196=LINE('',#1279,#304);
#197=LINE('',#1280,#305);
#198=LINE('',#1283,#306);
#199=LINE('',#1285,#307);
#200=LINE('',#1286,#308);
#201=LINE('',#1288,#309);
#202=LINE('',#1289,#310);
#203=LINE('',#1293,#311);
#204=LINE('',#1295,#312);
#205=LINE('',#1297,#313);
#206=LINE('',#1298,#314);
#207=LINE('',#1301,#315);
#208=LINE('',#1303,#316);
#209=LINE('',#1304,#317);
#210=LINE('',#1307,#318);
#211=LINE('',#1309,#319);
#212=LINE('',#1310,#320);
#213=LINE('',#1312,#321);
#214=LINE('',#1313,#322);
#215=LINE('',#1317,#323);
#216=LINE('',#1319,#324);
#217=LINE('',#1321,#325);
#218=LINE('',#1322,#326);
#219=LINE('',#1325,#327);
#220=LINE('',#1327,#328);
#221=LINE('',#1328,#329);
#222=LINE('',#1331,#330);
#223=LINE('',#1333,#331);
#224=LINE('',#1334,#332);
#225=LINE('',#1336,#333);
#226=LINE('',#1337,#334);
#227=LINE('',#1341,#335);
#228=LINE('',#1343,#336);
#229=LINE('',#1345,#337);
#230=LINE('',#1346,#338);
#231=LINE('',#1349,#339);
#232=LINE('',#1351,#340);
#233=LINE('',#1352,#341);
#234=LINE('',#1355,#342);
#235=LINE('',#1357,#343);
#236=LINE('',#1358,#344);
#237=LINE('',#1360,#345);
#238=LINE('',#1361,#346);
#239=LINE('',#1366,#347);
#240=LINE('',#1376,#348);
#241=LINE('',#1382,#349);
#242=LINE('',#1392,#350);
#243=LINE('',#1402,#351);
#244=LINE('',#1408,#352);
#245=LINE('',#1411,#353);
#246=LINE('',#1413,#354);
#247=LINE('',#1415,#355);
#248=LINE('',#1417,#356);
#249=LINE('',#1419,#357);
#250=LINE('',#1420,#358);
#251=LINE('',#1421,#359);
#252=LINE('',#1425,#360);
#253=LINE('',#1427,#361);
#254=LINE('',#1429,#362);
#255=LINE('',#1430,#363);
#256=LINE('',#1433,#364);
#257=LINE('',#1435,#365);
#258=LINE('',#1436,#366);
#259=LINE('',#1438,#367);
#260=LINE('',#1440,#368);
#261=LINE('',#1442,#369);
#262=LINE('',#1443,#370);
#263=LINE('',#1446,#371);
#264=LINE('',#1447,#372);
#265=LINE('',#1450,#373);
#266=LINE('',#1451,#374);
#267=LINE('',#1453,#375);
#268=LINE('',#1456,#376);
#269=LINE('',#1458,#377);
#270=LINE('',#1459,#378);
#271=LINE('',#1462,#379);
#272=LINE('',#1463,#380);
#273=LINE('',#1465,#381);
#274=LINE('',#1467,#382);
#275=VECTOR('',#990,10.);
#276=VECTOR('',#991,10.);
#277=VECTOR('',#992,10.);
#278=VECTOR('',#993,10.);
#279=VECTOR('',#996,10.);
#280=VECTOR('',#997,10.);
#281=VECTOR('',#998,10.);
#282=VECTOR('',#1001,10.);
#283=VECTOR('',#1002,10.);
#284=VECTOR('',#1003,10.);
#285=VECTOR('',#1006,10.);
#286=VECTOR('',#1007,10.);
#287=VECTOR('',#1010,10.);
#288=VECTOR('',#1011,10.);
#289=VECTOR('',#1012,10.);
#290=VECTOR('',#1013,10.);
#291=VECTOR('',#1016,10.);
#292=VECTOR('',#1017,10.);
#293=VECTOR('',#1018,10.);
#294=VECTOR('',#1021,10.);
#295=VECTOR('',#1022,10.);
#296=VECTOR('',#1023,10.);
#297=VECTOR('',#1026,10.);
#298=VECTOR('',#1027,10.);
#299=VECTOR('',#1030,10.);
#300=VECTOR('',#1031,10.);
#301=VECTOR('',#1032,10.);
#302=VECTOR('',#1033,10.);
#303=VECTOR('',#1036,10.);
#304=VECTOR('',#1037,10.);
#305=VECTOR('',#1038,10.);
#306=VECTOR('',#1041,10.);
#307=VECTOR('',#1042,10.);
#308=VECTOR('',#1043,10.);
#309=VECTOR('',#1046,10.);
#310=VECTOR('',#1047,10.);
#311=VECTOR('',#1050,10.);
#312=VECTOR('',#1051,10.);
#313=VECTOR('',#1052,10.);
#314=VECTOR('',#1053,10.);
#315=VECTOR('',#1056,10.);
#316=VECTOR('',#1057,10.);
#317=VECTOR('',#1058,10.);
#318=VECTOR('',#1061,10.);
#319=VECTOR('',#1062,10.);
#320=VECTOR('',#1063,10.);
#321=VECTOR('',#1066,10.);
#322=VECTOR('',#1067,10.);
#323=VECTOR('',#1070,10.);
#324=VECTOR('',#1071,10.);
#325=VECTOR('',#1072,10.);
#326=VECTOR('',#1073,10.);
#327=VECTOR('',#1076,10.);
#328=VECTOR('',#1077,10.);
#329=VECTOR('',#1078,10.);
#330=VECTOR('',#1081,10.);
#331=VECTOR('',#1082,10.);
#332=VECTOR('',#1083,10.);
#333=VECTOR('',#1086,10.);
#334=VECTOR('',#1087,10.);
#335=VECTOR('',#1090,10.);
#336=VECTOR('',#1091,10.);
#337=VECTOR('',#1092,10.);
#338=VECTOR('',#1093,10.);
#339=VECTOR('',#1096,10.);
#340=VECTOR('',#1097,10.);
#341=VECTOR('',#1098,10.);
#342=VECTOR('',#1101,10.);
#343=VECTOR('',#1102,10.);
#344=VECTOR('',#1103,10.);
#345=VECTOR('',#1106,10.);
#346=VECTOR('',#1107,10.);
#347=VECTOR('',#1112,1.5);
#348=VECTOR('',#1123,1.5);
#349=VECTOR('',#1130,1.5);
#350=VECTOR('',#1141,1.5);
#351=VECTOR('',#1152,1.5);
#352=VECTOR('',#1159,1.5);
#353=VECTOR('',#1164,10.);
#354=VECTOR('',#1165,10.);
#355=VECTOR('',#1166,10.);
#356=VECTOR('',#1167,10.);
#357=VECTOR('',#1168,10.);
#358=VECTOR('',#1169,10.);
#359=VECTOR('',#1170,10.);
#360=VECTOR('',#1173,10.);
#361=VECTOR('',#1174,10.);
#362=VECTOR('',#1175,10.);
#363=VECTOR('',#1176,10.);
#364=VECTOR('',#1179,10.);
#365=VECTOR('',#1180,10.);
#366=VECTOR('',#1181,10.);
#367=VECTOR('',#1182,10.);
#368=VECTOR('',#1183,10.);
#369=VECTOR('',#1184,10.);
#370=VECTOR('',#1185,10.);
#371=VECTOR('',#1188,10.);
#372=VECTOR('',#1189,10.);
#373=VECTOR('',#1192,10.);
#374=VECTOR('',#1193,10.);
#375=VECTOR('',#1196,10.);
#376=VECTOR('',#1199,10.);
#377=VECTOR('',#1200,10.);
#378=VECTOR('',#1201,10.);
#379=VECTOR('',#1204,10.);
#380=VECTOR('',#1205,10.);
#381=VECTOR('',#1208,10.);
#382=VECTOR('',#1211,10.);
#383=VERTEX_POINT('',#1219);
#384=VERTEX_POINT('',#1220);
#385=VERTEX_POINT('',#1222);
#386=VERTEX_POINT('',#1224);
#387=VERTEX_POINT('',#1228);
#388=VERTEX_POINT('',#1230);
#389=VERTEX_POINT('',#1234);
#390=VERTEX_POINT('',#1236);
#391=VERTEX_POINT('',#1243);
#392=VERTEX_POINT('',#1244);
#393=VERTEX_POINT('',#1246);
#394=VERTEX_POINT('',#1248);
#395=VERTEX_POINT('',#1252);
#396=VERTEX_POINT('',#1254);
#397=VERTEX_POINT('',#1258);
#398=VERTEX_POINT('',#1260);
#399=VERTEX_POINT('',#1267);
#400=VERTEX_POINT('',#1268);
#401=VERTEX_POINT('',#1270);
#402=VERTEX_POINT('',#1272);
#403=VERTEX_POINT('',#1276);
#404=VERTEX_POINT('',#1278);
#405=VERTEX_POINT('',#1282);
#406=VERTEX_POINT('',#1284);
#407=VERTEX_POINT('',#1291);
#408=VERTEX_POINT('',#1292);
#409=VERTEX_POINT('',#1294);
#410=VERTEX_POINT('',#1296);
#411=VERTEX_POINT('',#1300);
#412=VERTEX_POINT('',#1302);
#413=VERTEX_POINT('',#1306);
#414=VERTEX_POINT('',#1308);
#415=VERTEX_POINT('',#1315);
#416=VERTEX_POINT('',#1316);
#417=VERTEX_POINT('',#1318);
#418=VERTEX_POINT('',#1320);
#419=VERTEX_POINT('',#1324);
#420=VERTEX_POINT('',#1326);
#421=VERTEX_POINT('',#1330);
#422=VERTEX_POINT('',#1332);
#423=VERTEX_POINT('',#1339);
#424=VERTEX_POINT('',#1340);
#425=VERTEX_POINT('',#1342);
#426=VERTEX_POINT('',#1344);
#427=VERTEX_POINT('',#1348);
#428=VERTEX_POINT('',#1350);
#429=VERTEX_POINT('',#1354);
#430=VERTEX_POINT('',#1356);
#431=VERTEX_POINT('',#1363);
#432=VERTEX_POINT('',#1365);
#433=VERTEX_POINT('',#1369);
#434=VERTEX_POINT('',#1370);
#435=VERTEX_POINT('',#1372);
#436=VERTEX_POINT('',#1375);
#437=VERTEX_POINT('',#1379);
#438=VERTEX_POINT('',#1381);
#439=VERTEX_POINT('',#1385);
#440=VERTEX_POINT('',#1386);
#441=VERTEX_POINT('',#1388);
#442=VERTEX_POINT('',#1391);
#443=VERTEX_POINT('',#1395);
#444=VERTEX_POINT('',#1396);
#445=VERTEX_POINT('',#1398);
#446=VERTEX_POINT('',#1401);
#447=VERTEX_POINT('',#1405);
#448=VERTEX_POINT('',#1407);
#449=VERTEX_POINT('',#1412);
#450=VERTEX_POINT('',#1414);
#451=VERTEX_POINT('',#1416);
#452=VERTEX_POINT('',#1418);
#453=VERTEX_POINT('',#1423);
#454=VERTEX_POINT('',#1424);
#455=VERTEX_POINT('',#1426);
#456=VERTEX_POINT('',#1428);
#457=VERTEX_POINT('',#1432);
#458=VERTEX_POINT('',#1434);
#459=VERTEX_POINT('',#1437);
#460=VERTEX_POINT('',#1439);
#461=VERTEX_POINT('',#1441);
#462=VERTEX_POINT('',#1445);
#463=VERTEX_POINT('',#1449);
#464=VERTEX_POINT('',#1455);
#465=VERTEX_POINT('',#1457);
#466=VERTEX_POINT('',#1461);
#467=EDGE_CURVE('',#383,#384,#167,.T.);
#468=EDGE_CURVE('',#383,#385,#168,.T.);
#469=EDGE_CURVE('',#386,#385,#169,.T.);
#470=EDGE_CURVE('',#384,#386,#170,.T.);
#471=EDGE_CURVE('',#387,#383,#171,.T.);
#472=EDGE_CURVE('',#387,#388,#172,.T.);
#473=EDGE_CURVE('',#385,#388,#173,.T.);
#474=EDGE_CURVE('',#389,#387,#174,.T.);
#475=EDGE_CURVE('',#389,#390,#175,.T.);
#476=EDGE_CURVE('',#388,#390,#176,.T.);
#477=EDGE_CURVE('',#384,#389,#177,.T.);
#478=EDGE_CURVE('',#390,#386,#178,.T.);
#479=EDGE_CURVE('',#391,#392,#179,.T.);
#480=EDGE_CURVE('',#391,#393,#180,.T.);
#481=EDGE_CURVE('',#394,#393,#181,.T.);
#482=EDGE_CURVE('',#392,#394,#182,.T.);
#483=EDGE_CURVE('',#395,#391,#183,.T.);
#484=EDGE_CURVE('',#395,#396,#184,.T.);
#485=EDGE_CURVE('',#393,#396,#185,.T.);
#486=EDGE_CURVE('',#397,#395,#186,.T.);
#487=EDGE_CURVE('',#397,#398,#187,.T.);
#488=EDGE_CURVE('',#396,#398,#188,.T.);
#489=EDGE_CURVE('',#392,#397,#189,.T.);
#490=EDGE_CURVE('',#398,#394,#190,.T.);
#491=EDGE_CURVE('',#399,#400,#191,.T.);
#492=EDGE_CURVE('',#399,#401,#192,.T.);
#493=EDGE_CURVE('',#402,#401,#193,.T.);
#494=EDGE_CURVE('',#400,#402,#194,.T.);
#495=EDGE_CURVE('',#403,#399,#195,.T.);
#496=EDGE_CURVE('',#403,#404,#196,.T.);
#497=EDGE_CURVE('',#401,#404,#197,.T.);
#498=EDGE_CURVE('',#405,#403,#198,.T.);
#499=EDGE_CURVE('',#405,#406,#199,.T.);
#500=EDGE_CURVE('',#404,#406,#200,.T.);
#501=EDGE_CURVE('',#400,#405,#201,.T.);
#502=EDGE_CURVE('',#406,#402,#202,.T.);
#503=EDGE_CURVE('',#407,#408,#203,.T.);
#504=EDGE_CURVE('',#407,#409,#204,.T.);
#505=EDGE_CURVE('',#410,#409,#205,.T.);
#506=EDGE_CURVE('',#408,#410,#206,.T.);
#507=EDGE_CURVE('',#411,#407,#207,.T.);
#508=EDGE_CURVE('',#411,#412,#208,.T.);
#509=EDGE_CURVE('',#409,#412,#209,.T.);
#510=EDGE_CURVE('',#413,#411,#210,.T.);
#511=EDGE_CURVE('',#413,#414,#211,.T.);
#512=EDGE_CURVE('',#412,#414,#212,.T.);
#513=EDGE_CURVE('',#408,#413,#213,.T.);
#514=EDGE_CURVE('',#414,#410,#214,.T.);
#515=EDGE_CURVE('',#415,#416,#215,.T.);
#516=EDGE_CURVE('',#415,#417,#216,.T.);
#517=EDGE_CURVE('',#418,#417,#217,.T.);
#518=EDGE_CURVE('',#416,#418,#218,.T.);
#519=EDGE_CURVE('',#419,#415,#219,.T.);
#520=EDGE_CURVE('',#419,#420,#220,.T.);
#521=EDGE_CURVE('',#417,#420,#221,.T.);
#522=EDGE_CURVE('',#421,#419,#222,.T.);
#523=EDGE_CURVE('',#421,#422,#223,.T.);
#524=EDGE_CURVE('',#420,#422,#224,.T.);
#525=EDGE_CURVE('',#416,#421,#225,.T.);
#526=EDGE_CURVE('',#422,#418,#226,.T.);
#527=EDGE_CURVE('',#423,#424,#227,.T.);
#528=EDGE_CURVE('',#423,#425,#228,.T.);
#529=EDGE_CURVE('',#426,#425,#229,.T.);
#530=EDGE_CURVE('',#424,#426,#230,.T.);
#531=EDGE_CURVE('',#427,#423,#231,.T.);
#532=EDGE_CURVE('',#427,#428,#232,.T.);
#533=EDGE_CURVE('',#425,#428,#233,.T.);
#534=EDGE_CURVE('',#429,#427,#234,.T.);
#535=EDGE_CURVE('',#429,#430,#235,.T.);
#536=EDGE_CURVE('',#428,#430,#236,.T.);
#537=EDGE_CURVE('',#424,#429,#237,.T.);
#538=EDGE_CURVE('',#430,#426,#238,.T.);
#539=EDGE_CURVE('',#431,#431,#40,.T.);
#540=EDGE_CURVE('',#431,#432,#239,.T.);
#541=EDGE_CURVE('',#432,#432,#41,.T.);
#542=EDGE_CURVE('',#433,#434,#42,.T.);
#543=EDGE_CURVE('',#435,#433,#43,.T.);
#544=EDGE_CURVE('',#434,#435,#44,.T.);
#545=EDGE_CURVE('',#434,#436,#240,.T.);
#546=EDGE_CURVE('',#436,#436,#45,.T.);
#547=EDGE_CURVE('',#437,#437,#46,.T.);
#548=EDGE_CURVE('',#437,#438,#241,.T.);
#549=EDGE_CURVE('',#438,#438,#47,.T.);
#550=EDGE_CURVE('',#439,#440,#48,.T.);
#551=EDGE_CURVE('',#441,#439,#49,.T.);
#552=EDGE_CURVE('',#440,#441,#50,.T.);
#553=EDGE_CURVE('',#440,#442,#242,.T.);
#554=EDGE_CURVE('',#442,#442,#51,.T.);
#555=EDGE_CURVE('',#443,#444,#52,.T.);
#556=EDGE_CURVE('',#445,#443,#53,.T.);
#557=EDGE_CURVE('',#444,#445,#54,.T.);
#558=EDGE_CURVE('',#444,#446,#243,.T.);
#559=EDGE_CURVE('',#446,#446,#55,.T.);
#560=EDGE_CURVE('',#447,#447,#56,.T.);
#561=EDGE_CURVE('',#447,#448,#244,.T.);
#562=EDGE_CURVE('',#448,#448,#57,.T.);
#563=EDGE_CURVE('',#435,#443,#245,.T.);
#564=EDGE_CURVE('',#445,#449,#246,.T.);
#565=EDGE_CURVE('',#450,#449,#247,.T.);
#566=EDGE_CURVE('',#450,#451,#248,.T.);
#567=EDGE_CURVE('',#452,#451,#249,.T.);
#568=EDGE_CURVE('',#452,#439,#250,.T.);
#569=EDGE_CURVE('',#441,#433,#251,.T.);
#570=EDGE_CURVE('',#453,#454,#252,.T.);
#571=EDGE_CURVE('',#455,#453,#253,.T.);
#572=EDGE_CURVE('',#456,#455,#254,.T.);
#573=EDGE_CURVE('',#454,#456,#255,.T.);
#574=EDGE_CURVE('',#454,#457,#256,.T.);
#575=EDGE_CURVE('',#457,#458,#257,.T.);
#576=EDGE_CURVE('',#452,#458,#258,.T.);
#577=EDGE_CURVE('',#451,#459,#259,.T.);
#578=EDGE_CURVE('',#459,#460,#260,.T.);
#579=EDGE_CURVE('',#461,#460,#261,.T.);
#580=EDGE_CURVE('',#461,#453,#262,.T.);
#581=EDGE_CURVE('',#462,#456,#263,.T.);
#582=EDGE_CURVE('',#457,#462,#264,.T.);
#583=EDGE_CURVE('',#463,#462,#265,.T.);
#584=EDGE_CURVE('',#458,#463,#266,.T.);
#585=EDGE_CURVE('',#449,#463,#267,.T.);
#586=EDGE_CURVE('',#460,#464,#268,.T.);
#587=EDGE_CURVE('',#465,#464,#269,.T.);
#588=EDGE_CURVE('',#461,#465,#270,.T.);
#589=EDGE_CURVE('',#459,#466,#271,.T.);
#590=EDGE_CURVE('',#464,#466,#272,.T.);
#591=EDGE_CURVE('',#466,#450,#273,.T.);
#592=EDGE_CURVE('',#455,#465,#274,.T.);
#593=ORIENTED_EDGE('',*,*,#467,.F.);
#594=ORIENTED_EDGE('',*,*,#468,.T.);
#595=ORIENTED_EDGE('',*,*,#469,.F.);
#596=ORIENTED_EDGE('',*,*,#470,.F.);
#597=ORIENTED_EDGE('',*,*,#471,.F.);
#598=ORIENTED_EDGE('',*,*,#472,.T.);
#599=ORIENTED_EDGE('',*,*,#473,.F.);
#600=ORIENTED_EDGE('',*,*,#468,.F.);
#601=ORIENTED_EDGE('',*,*,#474,.F.);
#602=ORIENTED_EDGE('',*,*,#475,.T.);
#603=ORIENTED_EDGE('',*,*,#476,.F.);
#604=ORIENTED_EDGE('',*,*,#472,.F.);
#605=ORIENTED_EDGE('',*,*,#477,.F.);
#606=ORIENTED_EDGE('',*,*,#470,.T.);
#607=ORIENTED_EDGE('',*,*,#478,.F.);
#608=ORIENTED_EDGE('',*,*,#475,.F.);
#609=ORIENTED_EDGE('',*,*,#479,.F.);
#610=ORIENTED_EDGE('',*,*,#480,.T.);
#611=ORIENTED_EDGE('',*,*,#481,.F.);
#612=ORIENTED_EDGE('',*,*,#482,.F.);
#613=ORIENTED_EDGE('',*,*,#483,.F.);
#614=ORIENTED_EDGE('',*,*,#484,.T.);
#615=ORIENTED_EDGE('',*,*,#485,.F.);
#616=ORIENTED_EDGE('',*,*,#480,.F.);
#617=ORIENTED_EDGE('',*,*,#486,.F.);
#618=ORIENTED_EDGE('',*,*,#487,.T.);
#619=ORIENTED_EDGE('',*,*,#488,.F.);
#620=ORIENTED_EDGE('',*,*,#484,.F.);
#621=ORIENTED_EDGE('',*,*,#489,.F.);
#622=ORIENTED_EDGE('',*,*,#482,.T.);
#623=ORIENTED_EDGE('',*,*,#490,.F.);
#624=ORIENTED_EDGE('',*,*,#487,.F.);
#625=ORIENTED_EDGE('',*,*,#491,.F.);
#626=ORIENTED_EDGE('',*,*,#492,.T.);
#627=ORIENTED_EDGE('',*,*,#493,.F.);
#628=ORIENTED_EDGE('',*,*,#494,.F.);
#629=ORIENTED_EDGE('',*,*,#495,.F.);
#630=ORIENTED_EDGE('',*,*,#496,.T.);
#631=ORIENTED_EDGE('',*,*,#497,.F.);
#632=ORIENTED_EDGE('',*,*,#492,.F.);
#633=ORIENTED_EDGE('',*,*,#498,.F.);
#634=ORIENTED_EDGE('',*,*,#499,.T.);
#635=ORIENTED_EDGE('',*,*,#500,.F.);
#636=ORIENTED_EDGE('',*,*,#496,.F.);
#637=ORIENTED_EDGE('',*,*,#501,.F.);
#638=ORIENTED_EDGE('',*,*,#494,.T.);
#639=ORIENTED_EDGE('',*,*,#502,.F.);
#640=ORIENTED_EDGE('',*,*,#499,.F.);
#641=ORIENTED_EDGE('',*,*,#503,.F.);
#642=ORIENTED_EDGE('',*,*,#504,.T.);
#643=ORIENTED_EDGE('',*,*,#505,.F.);
#644=ORIENTED_EDGE('',*,*,#506,.F.);
#645=ORIENTED_EDGE('',*,*,#507,.F.);
#646=ORIENTED_EDGE('',*,*,#508,.T.);
#647=ORIENTED_EDGE('',*,*,#509,.F.);
#648=ORIENTED_EDGE('',*,*,#504,.F.);
#649=ORIENTED_EDGE('',*,*,#510,.F.);
#650=ORIENTED_EDGE('',*,*,#511,.T.);
#651=ORIENTED_EDGE('',*,*,#512,.F.);
#652=ORIENTED_EDGE('',*,*,#508,.F.);
#653=ORIENTED_EDGE('',*,*,#513,.F.);
#654=ORIENTED_EDGE('',*,*,#506,.T.);
#655=ORIENTED_EDGE('',*,*,#514,.F.);
#656=ORIENTED_EDGE('',*,*,#511,.F.);
#657=ORIENTED_EDGE('',*,*,#515,.F.);
#658=ORIENTED_EDGE('',*,*,#516,.T.);
#659=ORIENTED_EDGE('',*,*,#517,.F.);
#660=ORIENTED_EDGE('',*,*,#518,.F.);
#661=ORIENTED_EDGE('',*,*,#519,.F.);
#662=ORIENTED_EDGE('',*,*,#520,.T.);
#663=ORIENTED_EDGE('',*,*,#521,.F.);
#664=ORIENTED_EDGE('',*,*,#516,.F.);
#665=ORIENTED_EDGE('',*,*,#522,.F.);
#666=ORIENTED_EDGE('',*,*,#523,.T.);
#667=ORIENTED_EDGE('',*,*,#524,.F.);
#668=ORIENTED_EDGE('',*,*,#520,.F.);
#669=ORIENTED_EDGE('',*,*,#525,.F.);
#670=ORIENTED_EDGE('',*,*,#518,.T.);
#671=ORIENTED_EDGE('',*,*,#526,.F.);
#672=ORIENTED_EDGE('',*,*,#523,.F.);
#673=ORIENTED_EDGE('',*,*,#527,.F.);
#674=ORIENTED_EDGE('',*,*,#528,.T.);
#675=ORIENTED_EDGE('',*,*,#529,.F.);
#676=ORIENTED_EDGE('',*,*,#530,.F.);
#677=ORIENTED_EDGE('',*,*,#531,.F.);
#678=ORIENTED_EDGE('',*,*,#532,.T.);
#679=ORIENTED_EDGE('',*,*,#533,.F.);
#680=ORIENTED_EDGE('',*,*,#528,.F.);
#681=ORIENTED_EDGE('',*,*,#534,.F.);
#682=ORIENTED_EDGE('',*,*,#535,.T.);
#683=ORIENTED_EDGE('',*,*,#536,.F.);
#684=ORIENTED_EDGE('',*,*,#532,.F.);
#685=ORIENTED_EDGE('',*,*,#537,.F.);
#686=ORIENTED_EDGE('',*,*,#530,.T.);
#687=ORIENTED_EDGE('',*,*,#538,.F.);
#688=ORIENTED_EDGE('',*,*,#535,.F.);
#689=ORIENTED_EDGE('',*,*,#539,.F.);
#690=ORIENTED_EDGE('',*,*,#540,.T.);
#691=ORIENTED_EDGE('',*,*,#541,.F.);
#692=ORIENTED_EDGE('',*,*,#540,.F.);
#693=ORIENTED_EDGE('',*,*,#542,.F.);
#694=ORIENTED_EDGE('',*,*,#543,.F.);
#695=ORIENTED_EDGE('',*,*,#544,.F.);
#696=ORIENTED_EDGE('',*,*,#545,.T.);
#697=ORIENTED_EDGE('',*,*,#546,.F.);
#698=ORIENTED_EDGE('',*,*,#545,.F.);
#699=ORIENTED_EDGE('',*,*,#547,.F.);
#700=ORIENTED_EDGE('',*,*,#548,.T.);
#701=ORIENTED_EDGE('',*,*,#549,.F.);
#702=ORIENTED_EDGE('',*,*,#548,.F.);
#703=ORIENTED_EDGE('',*,*,#550,.F.);
#704=ORIENTED_EDGE('',*,*,#551,.F.);
#705=ORIENTED_EDGE('',*,*,#552,.F.);
#706=ORIENTED_EDGE('',*,*,#553,.T.);
#707=ORIENTED_EDGE('',*,*,#554,.F.);
#708=ORIENTED_EDGE('',*,*,#553,.F.);
#709=ORIENTED_EDGE('',*,*,#555,.F.);
#710=ORIENTED_EDGE('',*,*,#556,.F.);
#711=ORIENTED_EDGE('',*,*,#557,.F.);
#712=ORIENTED_EDGE('',*,*,#558,.T.);
#713=ORIENTED_EDGE('',*,*,#559,.F.);
#714=ORIENTED_EDGE('',*,*,#558,.F.);
#715=ORIENTED_EDGE('',*,*,#560,.F.);
#716=ORIENTED_EDGE('',*,*,#561,.T.);
#717=ORIENTED_EDGE('',*,*,#562,.F.);
#718=ORIENTED_EDGE('',*,*,#561,.F.);
#719=ORIENTED_EDGE('',*,*,#542,.T.);
#720=ORIENTED_EDGE('',*,*,#544,.T.);
#721=ORIENTED_EDGE('',*,*,#563,.T.);
#722=ORIENTED_EDGE('',*,*,#555,.T.);
#723=ORIENTED_EDGE('',*,*,#557,.T.);
#724=ORIENTED_EDGE('',*,*,#564,.T.);
#725=ORIENTED_EDGE('',*,*,#565,.F.);
#726=ORIENTED_EDGE('',*,*,#566,.T.);
#727=ORIENTED_EDGE('',*,*,#567,.F.);
#728=ORIENTED_EDGE('',*,*,#568,.T.);
#729=ORIENTED_EDGE('',*,*,#550,.T.);
#730=ORIENTED_EDGE('',*,*,#552,.T.);
#731=ORIENTED_EDGE('',*,*,#569,.T.);
#732=ORIENTED_EDGE('',*,*,#529,.T.);
#733=ORIENTED_EDGE('',*,*,#533,.T.);
#734=ORIENTED_EDGE('',*,*,#536,.T.);
#735=ORIENTED_EDGE('',*,*,#538,.T.);
#736=ORIENTED_EDGE('',*,*,#517,.T.);
#737=ORIENTED_EDGE('',*,*,#521,.T.);
#738=ORIENTED_EDGE('',*,*,#524,.T.);
#739=ORIENTED_EDGE('',*,*,#526,.T.);
#740=ORIENTED_EDGE('',*,*,#505,.T.);
#741=ORIENTED_EDGE('',*,*,#509,.T.);
#742=ORIENTED_EDGE('',*,*,#512,.T.);
#743=ORIENTED_EDGE('',*,*,#514,.T.);
#744=ORIENTED_EDGE('',*,*,#493,.T.);
#745=ORIENTED_EDGE('',*,*,#497,.T.);
#746=ORIENTED_EDGE('',*,*,#500,.T.);
#747=ORIENTED_EDGE('',*,*,#502,.T.);
#748=ORIENTED_EDGE('',*,*,#481,.T.);
#749=ORIENTED_EDGE('',*,*,#485,.T.);
#750=ORIENTED_EDGE('',*,*,#488,.T.);
#751=ORIENTED_EDGE('',*,*,#490,.T.);
#752=ORIENTED_EDGE('',*,*,#469,.T.);
#753=ORIENTED_EDGE('',*,*,#473,.T.);
#754=ORIENTED_EDGE('',*,*,#476,.T.);
#755=ORIENTED_EDGE('',*,*,#478,.T.);
#756=ORIENTED_EDGE('',*,*,#570,.F.);
#757=ORIENTED_EDGE('',*,*,#571,.F.);
#758=ORIENTED_EDGE('',*,*,#572,.F.);
#759=ORIENTED_EDGE('',*,*,#573,.F.);
#760=ORIENTED_EDGE('',*,*,#570,.T.);
#761=ORIENTED_EDGE('',*,*,#574,.T.);
#762=ORIENTED_EDGE('',*,*,#575,.T.);
#763=ORIENTED_EDGE('',*,*,#576,.F.);
#764=ORIENTED_EDGE('',*,*,#567,.T.);
#765=ORIENTED_EDGE('',*,*,#577,.T.);
#766=ORIENTED_EDGE('',*,*,#578,.T.);
#767=ORIENTED_EDGE('',*,*,#579,.F.);
#768=ORIENTED_EDGE('',*,*,#580,.T.);
#769=ORIENTED_EDGE('',*,*,#574,.F.);
#770=ORIENTED_EDGE('',*,*,#573,.T.);
#771=ORIENTED_EDGE('',*,*,#581,.F.);
#772=ORIENTED_EDGE('',*,*,#582,.F.);
#773=ORIENTED_EDGE('',*,*,#546,.T.);
#774=ORIENTED_EDGE('',*,*,#554,.T.);
#775=ORIENTED_EDGE('',*,*,#559,.T.);
#776=ORIENTED_EDGE('',*,*,#575,.F.);
#777=ORIENTED_EDGE('',*,*,#582,.T.);
#778=ORIENTED_EDGE('',*,*,#583,.F.);
#779=ORIENTED_EDGE('',*,*,#584,.F.);
#780=ORIENTED_EDGE('',*,*,#543,.T.);
#781=ORIENTED_EDGE('',*,*,#569,.F.);
#782=ORIENTED_EDGE('',*,*,#551,.T.);
#783=ORIENTED_EDGE('',*,*,#568,.F.);
#784=ORIENTED_EDGE('',*,*,#576,.T.);
#785=ORIENTED_EDGE('',*,*,#584,.T.);
#786=ORIENTED_EDGE('',*,*,#585,.F.);
#787=ORIENTED_EDGE('',*,*,#564,.F.);
#788=ORIENTED_EDGE('',*,*,#556,.T.);
#789=ORIENTED_EDGE('',*,*,#563,.F.);
#790=ORIENTED_EDGE('',*,*,#579,.T.);
#791=ORIENTED_EDGE('',*,*,#586,.T.);
#792=ORIENTED_EDGE('',*,*,#587,.F.);
#793=ORIENTED_EDGE('',*,*,#588,.F.);
#794=ORIENTED_EDGE('',*,*,#578,.F.);
#795=ORIENTED_EDGE('',*,*,#589,.T.);
#796=ORIENTED_EDGE('',*,*,#590,.F.);
#797=ORIENTED_EDGE('',*,*,#586,.F.);
#798=ORIENTED_EDGE('',*,*,#539,.T.);
#799=ORIENTED_EDGE('',*,*,#547,.T.);
#800=ORIENTED_EDGE('',*,*,#560,.T.);
#801=ORIENTED_EDGE('',*,*,#577,.F.);
#802=ORIENTED_EDGE('',*,*,#566,.F.);
#803=ORIENTED_EDGE('',*,*,#591,.F.);
#804=ORIENTED_EDGE('',*,*,#589,.F.);
#805=ORIENTED_EDGE('',*,*,#572,.T.);
#806=ORIENTED_EDGE('',*,*,#592,.T.);
#807=ORIENTED_EDGE('',*,*,#587,.T.);
#808=ORIENTED_EDGE('',*,*,#590,.T.);
#809=ORIENTED_EDGE('',*,*,#591,.T.);
#810=ORIENTED_EDGE('',*,*,#565,.T.);
#811=ORIENTED_EDGE('',*,*,#585,.T.);
#812=ORIENTED_EDGE('',*,*,#583,.T.);
#813=ORIENTED_EDGE('',*,*,#581,.T.);
#814=ORIENTED_EDGE('',*,*,#571,.T.);
#815=ORIENTED_EDGE('',*,*,#580,.F.);
#816=ORIENTED_EDGE('',*,*,#588,.T.);
#817=ORIENTED_EDGE('',*,*,#592,.F.);
#818=ORIENTED_EDGE('',*,*,#562,.T.);
#819=ORIENTED_EDGE('',*,*,#549,.T.);
#820=ORIENTED_EDGE('',*,*,#541,.T.);
#821=ORIENTED_EDGE('',*,*,#527,.T.);
#822=ORIENTED_EDGE('',*,*,#537,.T.);
#823=ORIENTED_EDGE('',*,*,#534,.T.);
#824=ORIENTED_EDGE('',*,*,#531,.T.);
#825=ORIENTED_EDGE('',*,*,#515,.T.);
#826=ORIENTED_EDGE('',*,*,#525,.T.);
#827=ORIENTED_EDGE('',*,*,#522,.T.);
#828=ORIENTED_EDGE('',*,*,#519,.T.);
#829=ORIENTED_EDGE('',*,*,#503,.T.);
#830=ORIENTED_EDGE('',*,*,#513,.T.);
#831=ORIENTED_EDGE('',*,*,#510,.T.);
#832=ORIENTED_EDGE('',*,*,#507,.T.);
#833=ORIENTED_EDGE('',*,*,#491,.T.);
#834=ORIENTED_EDGE('',*,*,#501,.T.);
#835=ORIENTED_EDGE('',*,*,#498,.T.);
#836=ORIENTED_EDGE('',*,*,#495,.T.);
#837=ORIENTED_EDGE('',*,*,#479,.T.);
#838=ORIENTED_EDGE('',*,*,#489,.T.);
#839=ORIENTED_EDGE('',*,*,#486,.T.);
#840=ORIENTED_EDGE('',*,*,#483,.T.);
#841=ORIENTED_EDGE('',*,*,#467,.T.);
#842=ORIENTED_EDGE('',*,*,#477,.T.);
#843=ORIENTED_EDGE('',*,*,#474,.T.);
#844=ORIENTED_EDGE('',*,*,#471,.T.);
#845=PLANE('',#924);
#846=PLANE('',#925);
#847=PLANE('',#926);
#848=PLANE('',#927);
#849=PLANE('',#928);
#850=PLANE('',#929);
#851=PLANE('',#930);
#852=PLANE('',#931);
#853=PLANE('',#932);
#854=PLANE('',#933);
#855=PLANE('',#934);
#856=PLANE('',#935);
#857=PLANE('',#936);
#858=PLANE('',#937);
#859=PLANE('',#938);
#860=PLANE('',#939);
#861=PLANE('',#940);
#862=PLANE('',#941);
#863=PLANE('',#942);
#864=PLANE('',#943);
#865=PLANE('',#944);
#866=PLANE('',#945);
#867=PLANE('',#946);
#868=PLANE('',#947);
#869=PLANE('',#972);
#870=PLANE('',#973);
#871=PLANE('',#974);
#872=PLANE('',#975);
#873=PLANE('',#976);
#874=PLANE('',#977);
#875=PLANE('',#978);
#876=PLANE('',#979);
#877=PLANE('',#980);
#878=PLANE('',#981);
#879=PLANE('',#982);
#880=ADVANCED_FACE('',(#64),#845,.F.);
#881=ADVANCED_FACE('',(#65),#846,.F.);
#882=ADVANCED_FACE('',(#66),#847,.F.);
#883=ADVANCED_FACE('',(#67),#848,.F.);
#884=ADVANCED_FACE('',(#68),#849,.F.);
#885=ADVANCED_FACE('',(#69),#850,.F.);
#886=ADVANCED_FACE('',(#70),#851,.F.);
#887=ADVANCED_FACE('',(#71),#852,.F.);
#888=ADVANCED_FACE('',(#72),#853,.F.);
#889=ADVANCED_FACE('',(#73),#854,.F.);
#890=ADVANCED_FACE('',(#74),#855,.F.);
#891=ADVANCED_FACE('',(#75),#856,.F.);
#892=ADVANCED_FACE('',(#76),#857,.F.);
#893=ADVANCED_FACE('',(#77),#858,.F.);
#894=ADVANCED_FACE('',(#78),#859,.F.);
#895=ADVANCED_FACE('',(#79),#860,.F.);
#896=ADVANCED_FACE('',(#80),#861,.F.);
#897=ADVANCED_FACE('',(#81),#862,.F.);
#898=ADVANCED_FACE('',(#82),#863,.F.);
#899=ADVANCED_FACE('',(#83),#864,.F.);
#900=ADVANCED_FACE('',(#84),#865,.F.);
#901=ADVANCED_FACE('',(#85),#866,.F.);
#902=ADVANCED_FACE('',(#86),#867,.F.);
#903=ADVANCED_FACE('',(#87),#868,.F.);
#904=ADVANCED_FACE('',(#88),#58,.F.);
#905=ADVANCED_FACE('',(#89),#59,.F.);
#906=ADVANCED_FACE('',(#90),#60,.F.);
#907=ADVANCED_FACE('',(#91),#61,.F.);
#908=ADVANCED_FACE('',(#92),#62,.F.);
#909=ADVANCED_FACE('',(#93),#63,.F.);
#910=ADVANCED_FACE('',(#94,#19,#20,#21,#22,#23,#24),#869,.T.);
#911=ADVANCED_FACE('',(#95),#870,.F.);
#912=ADVANCED_FACE('',(#96),#871,.T.);
#913=ADVANCED_FACE('',(#97,#25,#26,#27),#872,.T.);
#914=ADVANCED_FACE('',(#98),#873,.T.);
#915=ADVANCED_FACE('',(#99),#874,.T.);
#916=ADVANCED_FACE('',(#100),#875,.T.);
#917=ADVANCED_FACE('',(#101,#28,#29,#30),#876,.F.);
#918=ADVANCED_FACE('',(#102),#877,.F.);
#919=ADVANCED_FACE('',(#103),#878,.T.);
#920=ADVANCED_FACE('',(#104,#31,#32,#33,#34,#35,#36,#37,#38,#39),#879,.T.);
#921=CLOSED_SHELL('',(#880,#881,#882,#883,#884,#885,#886,#887,#888,#889,
#890,#891,#892,#893,#894,#895,#896,#897,#898,#899,#900,#901,#902,#903,#904,
#905,#906,#907,#908,#909,#910,#911,#912,#913,#914,#915,#916,#917,#918,#919,
#920));
#922=AXIS2_PLACEMENT_3D('',#1216,#984,#985);
#923=AXIS2_PLACEMENT_3D('',#1217,#986,#987);
#924=AXIS2_PLACEMENT_3D('',#1218,#988,#989);
#925=AXIS2_PLACEMENT_3D('',#1227,#994,#995);
#926=AXIS2_PLACEMENT_3D('',#1233,#999,#1000);
#927=AXIS2_PLACEMENT_3D('',#1239,#1004,#1005);
#928=AXIS2_PLACEMENT_3D('',#1242,#1008,#1009);
#929=AXIS2_PLACEMENT_3D('',#1251,#1014,#1015);
#930=AXIS2_PLACEMENT_3D('',#1257,#1019,#1020);
#931=AXIS2_PLACEMENT_3D('',#1263,#1024,#1025);
#932=AXIS2_PLACEMENT_3D('',#1266,#1028,#1029);
#933=AXIS2_PLACEMENT_3D('',#1275,#1034,#1035);
#934=AXIS2_PLACEMENT_3D('',#1281,#1039,#1040);
#935=AXIS2_PLACEMENT_3D('',#1287,#1044,#1045);
#936=AXIS2_PLACEMENT_3D('',#1290,#1048,#1049);
#937=AXIS2_PLACEMENT_3D('',#1299,#1054,#1055);
#938=AXIS2_PLACEMENT_3D('',#1305,#1059,#1060);
#939=AXIS2_PLACEMENT_3D('',#1311,#1064,#1065);
#940=AXIS2_PLACEMENT_3D('',#1314,#1068,#1069);
#941=AXIS2_PLACEMENT_3D('',#1323,#1074,#1075);
#942=AXIS2_PLACEMENT_3D('',#1329,#1079,#1080);
#943=AXIS2_PLACEMENT_3D('',#1335,#1084,#1085);
#944=AXIS2_PLACEMENT_3D('',#1338,#1088,#1089);
#945=AXIS2_PLACEMENT_3D('',#1347,#1094,#1095);
#946=AXIS2_PLACEMENT_3D('',#1353,#1099,#1100);
#947=AXIS2_PLACEMENT_3D('',#1359,#1104,#1105);
#948=AXIS2_PLACEMENT_3D('',#1362,#1108,#1109);
#949=AXIS2_PLACEMENT_3D('',#1364,#1110,#1111);
#950=AXIS2_PLACEMENT_3D('',#1367,#1113,#1114);
#951=AXIS2_PLACEMENT_3D('',#1368,#1115,#1116);
#952=AXIS2_PLACEMENT_3D('',#1371,#1117,#1118);
#953=AXIS2_PLACEMENT_3D('',#1373,#1119,#1120);
#954=AXIS2_PLACEMENT_3D('',#1374,#1121,#1122);
#955=AXIS2_PLACEMENT_3D('',#1377,#1124,#1125);
#956=AXIS2_PLACEMENT_3D('',#1378,#1126,#1127);
#957=AXIS2_PLACEMENT_3D('',#1380,#1128,#1129);
#958=AXIS2_PLACEMENT_3D('',#1383,#1131,#1132);
#959=AXIS2_PLACEMENT_3D('',#1384,#1133,#1134);
#960=AXIS2_PLACEMENT_3D('',#1387,#1135,#1136);
#961=AXIS2_PLACEMENT_3D('',#1389,#1137,#1138);
#962=AXIS2_PLACEMENT_3D('',#1390,#1139,#1140);
#963=AXIS2_PLACEMENT_3D('',#1393,#1142,#1143);
#964=AXIS2_PLACEMENT_3D('',#1394,#1144,#1145);
#965=AXIS2_PLACEMENT_3D('',#1397,#1146,#1147);
#966=AXIS2_PLACEMENT_3D('',#1399,#1148,#1149);
#967=AXIS2_PLACEMENT_3D('',#1400,#1150,#1151);
#968=AXIS2_PLACEMENT_3D('',#1403,#1153,#1154);
#969=AXIS2_PLACEMENT_3D('',#1404,#1155,#1156);
#970=AXIS2_PLACEMENT_3D('',#1406,#1157,#1158);
#971=AXIS2_PLACEMENT_3D('',#1409,#1160,#1161);
#972=AXIS2_PLACEMENT_3D('',#1410,#1162,#1163);
#973=AXIS2_PLACEMENT_3D('',#1422,#1171,#1172);
#974=AXIS2_PLACEMENT_3D('',#1431,#1177,#1178);
#975=AXIS2_PLACEMENT_3D('',#1444,#1186,#1187);
#976=AXIS2_PLACEMENT_3D('',#1448,#1190,#1191);
#977=AXIS2_PLACEMENT_3D('',#1452,#1194,#1195);
#978=AXIS2_PLACEMENT_3D('',#1454,#1197,#1198);
#979=AXIS2_PLACEMENT_3D('',#1460,#1202,#1203);
#980=AXIS2_PLACEMENT_3D('',#1464,#1206,#1207);
#981=AXIS2_PLACEMENT_3D('',#1466,#1209,#1210);
#982=AXIS2_PLACEMENT_3D('',#1468,#1212,#1213);
#983=AXIS2_PLACEMENT_3D('',#1469,#1214,#1215);
#984=DIRECTION('axis',(0.,0.,1.));
#985=DIRECTION('refdir',(1.,0.,0.));
#986=DIRECTION('axis',(0.,0.,1.));
#987=DIRECTION('refdir',(1.,0.,0.));
#988=DIRECTION('center_axis',(0.,1.,0.));
#989=DIRECTION('ref_axis',(-1.,0.,0.));
#990=DIRECTION('',(-1.,0.,0.));
#991=DIRECTION('',(0.,0.,1.));
#992=DIRECTION('',(1.,0.,0.));
#993=DIRECTION('',(0.,0.,1.));
#994=DIRECTION('center_axis',(1.,9.57088814332031E-17,0.));
#995=DIRECTION('ref_axis',(-9.57088814332031E-17,1.,0.));
#996=DIRECTION('',(-9.57088814332031E-17,1.,0.));
#997=DIRECTION('',(0.,0.,1.));
#998=DIRECTION('',(9.57088814332031E-17,-1.,0.));
#999=DIRECTION('center_axis',(0.,-1.,0.));
#1000=DIRECTION('ref_axis',(1.,0.,0.));
#1001=DIRECTION('',(1.,0.,0.));
#1002=DIRECTION('',(0.,0.,1.));
#1003=DIRECTION('',(-1.,0.,0.));
#1004=DIRECTION('center_axis',(-1.,-9.57088814332031E-17,0.));
#1005=DIRECTION('ref_axis',(9.57088814332031E-17,-1.,0.));
#1006=DIRECTION('',(9.57088814332031E-17,-1.,0.));
#1007=DIRECTION('',(-9.57088814332031E-17,1.,0.));
#1008=DIRECTION('center_axis',(0.,-1.,0.));
#1009=DIRECTION('ref_axis',(1.,0.,0.));
#1010=DIRECTION('',(1.,0.,0.));
#1011=DIRECTION('',(0.,0.,1.));
#1012=DIRECTION('',(-1.,0.,0.));
#1013=DIRECTION('',(0.,0.,1.));
#1014=DIRECTION('center_axis',(-1.,0.,0.));
#1015=DIRECTION('ref_axis',(0.,-1.,0.));
#1016=DIRECTION('',(0.,-1.,0.));
#1017=DIRECTION('',(0.,0.,1.));
#1018=DIRECTION('',(0.,1.,0.));
#1019=DIRECTION('center_axis',(0.,1.,0.));
#1020=DIRECTION('ref_axis',(-1.,0.,0.));
#1021=DIRECTION('',(-1.,0.,0.));
#1022=DIRECTION('',(0.,0.,1.));
#1023=DIRECTION('',(1.,0.,0.));
#1024=DIRECTION('center_axis',(1.,0.,0.));
#1025=DIRECTION('ref_axis',(0.,1.,0.));
#1026=DIRECTION('',(0.,1.,0.));
#1027=DIRECTION('',(0.,-1.,0.));
#1028=DIRECTION('center_axis',(0.,1.,0.));
#1029=DIRECTION('ref_axis',(-1.,0.,0.));
#1030=DIRECTION('',(-1.,0.,0.));
#1031=DIRECTION('',(0.,0.,1.));
#1032=DIRECTION('',(1.,0.,0.));
#1033=DIRECTION('',(0.,0.,1.));
#1034=DIRECTION('center_axis',(1.,0.,0.));
#1035=DIRECTION('ref_axis',(0.,1.,0.));
#1036=DIRECTION('',(0.,1.,0.));
#1037=DIRECTION('',(0.,0.,1.));
#1038=DIRECTION('',(0.,-1.,0.));
#1039=DIRECTION('center_axis',(0.,-1.,0.));
#1040=DIRECTION('ref_axis',(1.,0.,0.));
#1041=DIRECTION('',(1.,0.,0.));
#1042=DIRECTION('',(0.,0.,1.));
#1043=DIRECTION('',(-1.,0.,0.));
#1044=DIRECTION('center_axis',(-1.,0.,0.));
#1045=DIRECTION('ref_axis',(0.,-1.,0.));
#1046=DIRECTION('',(0.,-1.,0.));
#1047=DIRECTION('',(0.,1.,0.));
#1048=DIRECTION('center_axis',(0.,-1.,0.));
#1049=DIRECTION('ref_axis',(1.,0.,0.));
#1050=DIRECTION('',(1.,0.,0.));
#1051=DIRECTION('',(0.,0.,1.));
#1052=DIRECTION('',(-1.,0.,0.));
#1053=DIRECTION('',(0.,0.,1.));
#1054=DIRECTION('center_axis',(-1.,0.,0.));
#1055=DIRECTION('ref_axis',(0.,-1.,0.));
#1056=DIRECTION('',(0.,-1.,0.));
#1057=DIRECTION('',(0.,0.,1.));
#1058=DIRECTION('',(0.,1.,0.));
#1059=DIRECTION('center_axis',(0.,1.,0.));
#1060=DIRECTION('ref_axis',(-1.,0.,0.));
#1061=DIRECTION('',(-1.,0.,0.));
#1062=DIRECTION('',(0.,0.,1.));
#1063=DIRECTION('',(1.,0.,0.));
#1064=DIRECTION('center_axis',(1.,0.,0.));
#1065=DIRECTION('ref_axis',(0.,1.,0.));
#1066=DIRECTION('',(0.,1.,0.));
#1067=DIRECTION('',(0.,-1.,0.));
#1068=DIRECTION('center_axis',(0.,1.,0.));
#1069=DIRECTION('ref_axis',(-1.,0.,0.));
#1070=DIRECTION('',(-1.,0.,0.));
#1071=DIRECTION('',(0.,0.,1.));
#1072=DIRECTION('',(1.,0.,0.));
#1073=DIRECTION('',(0.,0.,1.));
#1074=DIRECTION('center_axis',(1.,0.,0.));
#1075=DIRECTION('ref_axis',(0.,1.,0.));
#1076=DIRECTION('',(0.,1.,0.));
#1077=DIRECTION('',(0.,0.,1.));
#1078=DIRECTION('',(0.,-1.,0.));
#1079=DIRECTION('center_axis',(0.,-1.,0.));
#1080=DIRECTION('ref_axis',(1.,0.,0.));
#1081=DIRECTION('',(1.,0.,0.));
#1082=DIRECTION('',(0.,0.,1.));
#1083=DIRECTION('',(-1.,0.,0.));
#1084=DIRECTION('center_axis',(-1.,0.,0.));
#1085=DIRECTION('ref_axis',(0.,-1.,0.));
#1086=DIRECTION('',(0.,-1.,0.));
#1087=DIRECTION('',(0.,1.,0.));
#1088=DIRECTION('center_axis',(0.,-1.,0.));
#1089=DIRECTION('ref_axis',(1.,0.,0.));
#1090=DIRECTION('',(1.,0.,0.));
#1091=DIRECTION('',(0.,0.,1.));
#1092=DIRECTION('',(-1.,0.,0.));
#1093=DIRECTION('',(0.,0.,1.));
#1094=DIRECTION('center_axis',(-1.,0.,0.));
#1095=DIRECTION('ref_axis',(0.,-1.,0.));
#1096=DIRECTION('',(0.,-1.,0.));
#1097=DIRECTION('',(0.,0.,1.));
#1098=DIRECTION('',(0.,1.,0.));
#1099=DIRECTION('center_axis',(0.,1.,0.));
#1100=DIRECTION('ref_axis',(-1.,0.,0.));
#1101=DIRECTION('',(-1.,0.,0.));
#1102=DIRECTION('',(0.,0.,1.));
#1103=DIRECTION('',(1.,0.,0.));
#1104=DIRECTION('center_axis',(1.,0.,0.));
#1105=DIRECTION('ref_axis',(0.,1.,0.));
#1106=DIRECTION('',(0.,1.,0.));
#1107=DIRECTION('',(0.,-1.,0.));
#1108=DIRECTION('center_axis',(0.,0.,-1.));
#1109=DIRECTION('ref_axis',(-1.,0.,0.));
#1110=DIRECTION('center_axis',(-1.78813932105726E-9,0.,-1.));
#1111=DIRECTION('ref_axis',(-1.,0.,1.78813932105726E-9));
#1112=DIRECTION('',(0.,0.,-1.));
#1113=DIRECTION('center_axis',(0.,0.,1.));
#1114=DIRECTION('ref_axis',(-1.,0.,0.));
#1115=DIRECTION('center_axis',(0.,0.,-1.));
#1116=DIRECTION('ref_axis',(-1.,0.,0.));
#1117=DIRECTION('center_axis',(0.,0.,-1.));
#1118=DIRECTION('ref_axis',(-1.,0.,0.));
#1119=DIRECTION('center_axis',(-3.57627864211452E-9,0.,-1.));
#1120=DIRECTION('ref_axis',(-1.,0.,3.57627864211452E-9));
#1121=DIRECTION('center_axis',(0.,0.,-1.));
#1122=DIRECTION('ref_axis',(-1.,0.,0.));
#1123=DIRECTION('',(0.,0.,-1.));
#1124=DIRECTION('center_axis',(1.78813932105726E-9,0.,1.));
#1125=DIRECTION('ref_axis',(-1.,0.,1.78813932105726E-9));
#1126=DIRECTION('center_axis',(0.,0.,-1.));
#1127=DIRECTION('ref_axis',(-1.,0.,0.));
#1128=DIRECTION('center_axis',(-1.78813932105726E-9,0.,-1.));
#1129=DIRECTION('ref_axis',(-1.,0.,1.78813932105726E-9));
#1130=DIRECTION('',(0.,0.,-1.));
#1131=DIRECTION('center_axis',(0.,0.,1.));
#1132=DIRECTION('ref_axis',(-1.,0.,0.));
#1133=DIRECTION('center_axis',(0.,0.,-1.));
#1134=DIRECTION('ref_axis',(-1.,0.,0.));
#1135=DIRECTION('center_axis',(0.,0.,-1.));
#1136=DIRECTION('ref_axis',(-1.,0.,0.));
#1137=DIRECTION('center_axis',(-3.57627864211452E-9,0.,-1.));
#1138=DIRECTION('ref_axis',(-1.,0.,3.57627864211452E-9));
#1139=DIRECTION('center_axis',(0.,0.,-1.));
#1140=DIRECTION('ref_axis',(-1.,0.,0.));
#1141=DIRECTION('',(0.,0.,-1.));
#1142=DIRECTION('center_axis',(1.78813932105726E-9,0.,1.));
#1143=DIRECTION('ref_axis',(-1.,0.,1.78813932105726E-9));
#1144=DIRECTION('center_axis',(0.,0.,-1.));
#1145=DIRECTION('ref_axis',(-1.,0.,0.));
#1146=DIRECTION('center_axis',(0.,0.,-1.));
#1147=DIRECTION('ref_axis',(-1.,0.,0.));
#1148=DIRECTION('center_axis',(-3.57627864211452E-9,0.,-1.));
#1149=DIRECTION('ref_axis',(-1.,0.,3.57627864211452E-9));
#1150=DIRECTION('center_axis',(0.,0.,-1.));
#1151=DIRECTION('ref_axis',(-1.,0.,0.));
#1152=DIRECTION('',(0.,0.,-1.));
#1153=DIRECTION('center_axis',(1.78813932105726E-9,0.,1.));
#1154=DIRECTION('ref_axis',(-1.,0.,1.78813932105726E-9));
#1155=DIRECTION('center_axis',(0.,0.,-1.));
#1156=DIRECTION('ref_axis',(-1.,0.,0.));
#1157=DIRECTION('center_axis',(-1.78813932105726E-9,0.,-1.));
#1158=DIRECTION('ref_axis',(-1.,0.,1.78813932105726E-9));
#1159=DIRECTION('',(0.,0.,-1.));
#1160=DIRECTION('center_axis',(0.,0.,1.));
#1161=DIRECTION('ref_axis',(-1.,0.,0.));
#1162=DIRECTION('center_axis',(0.,0.,1.));
#1163=DIRECTION('ref_axis',(-1.,0.,0.));
#1164=DIRECTION('',(0.,-1.,0.));
#1165=DIRECTION('',(0.,-1.,0.));
#1166=DIRECTION('',(-1.,0.,0.));
#1167=DIRECTION('',(0.,1.,0.));
#1168=DIRECTION('',(1.,0.,0.));
#1169=DIRECTION('',(0.,-1.,0.));
#1170=DIRECTION('',(0.,-1.,0.));
#1171=DIRECTION('center_axis',(1.,0.,0.));
#1172=DIRECTION('ref_axis',(0.,0.,1.));
#1173=DIRECTION('',(0.,0.,1.));
#1174=DIRECTION('',(0.,1.,0.));
#1175=DIRECTION('',(0.,0.,-1.));
#1176=DIRECTION('',(0.,-1.,0.));
#1177=DIRECTION('center_axis',(0.,1.,0.));
#1178=DIRECTION('ref_axis',(-1.,0.,0.));
#1179=DIRECTION('',(-1.,0.,1.78813932105726E-9));
#1180=DIRECTION('',(0.,0.,1.));
#1181=DIRECTION('',(-1.,0.,3.57627864211452E-9));
#1182=DIRECTION('',(0.,0.,-1.));
#1183=DIRECTION('',(1.,0.,-1.78813932105726E-9));
#1184=DIRECTION('',(0.,0.,1.));
#1185=DIRECTION('',(-1.,0.,0.));
#1186=DIRECTION('center_axis',(-1.78813932105726E-9,0.,-1.));
#1187=DIRECTION('ref_axis',(1.,0.,-1.78813932105726E-9));
#1188=DIRECTION('',(1.,0.,-1.78813932105726E-9));
#1189=DIRECTION('',(0.,-1.,0.));
#1190=DIRECTION('center_axis',(-1.,0.,0.));
#1191=DIRECTION('ref_axis',(0.,0.,-1.));
#1192=DIRECTION('',(0.,0.,-1.));
#1193=DIRECTION('',(0.,-1.,0.));
#1194=DIRECTION('center_axis',(3.57627864211452E-9,0.,1.));
#1195=DIRECTION('ref_axis',(-1.,0.,3.57627864211452E-9));
#1196=DIRECTION('',(-1.,0.,3.57627864211452E-9));
#1197=DIRECTION('center_axis',(1.,0.,0.));
#1198=DIRECTION('ref_axis',(0.,0.,1.));
#1199=DIRECTION('',(0.,-1.,0.));
#1200=DIRECTION('',(0.,0.,1.));
#1201=DIRECTION('',(0.,-1.,0.));
#1202=DIRECTION('center_axis',(-1.78813932105726E-9,0.,-1.));
#1203=DIRECTION('ref_axis',(1.,0.,-1.78813932105726E-9));
#1204=DIRECTION('',(0.,-1.,0.));
#1205=DIRECTION('',(-1.,0.,1.78813932105726E-9));
#1206=DIRECTION('center_axis',(-1.,0.,0.));
#1207=DIRECTION('ref_axis',(0.,0.,-1.));
#1208=DIRECTION('',(0.,0.,1.));
#1209=DIRECTION('center_axis',(0.,-1.,0.));
#1210=DIRECTION('ref_axis',(0.,0.,-1.));
#1211=DIRECTION('',(1.,0.,0.));
#1212=DIRECTION('center_axis',(0.,0.,-1.));
#1213=DIRECTION('ref_axis',(1.,0.,0.));
#1214=DIRECTION('',(0.,0.,1.));
#1215=DIRECTION('',(1.,0.,0.));
#1216=CARTESIAN_POINT('',(0.,0.,0.));
#1217=CARTESIAN_POINT('',(0.,0.,0.));
#1218=CARTESIAN_POINT('Origin',(2.89977478529985,30.3999740395355,0.));
#1219=CARTESIAN_POINT('',(2.89977478529985,30.3999740395355,0.));
#1220=CARTESIAN_POINT('',(-2.88806347557441,30.3999740395355,0.));
#1221=CARTESIAN_POINT('',(-123.55011260735,30.3999740395355,0.));
#1222=CARTESIAN_POINT('',(2.89977478529985,30.3999740395355,3.));
#1223=CARTESIAN_POINT('',(2.89977478529985,30.3999740395355,0.));
#1224=CARTESIAN_POINT('',(-2.88806347557441,30.3999740395355,3.));
#1225=CARTESIAN_POINT('',(126.44988739265,30.3999740395355,3.));
#1226=CARTESIAN_POINT('',(-2.88806347557441,30.3999740395355,0.));
#1227=CARTESIAN_POINT('Origin',(2.89977478529985,24.5999740395355,0.));
#1228=CARTESIAN_POINT('',(2.89977478529985,24.5999740395355,0.));
#1229=CARTESIAN_POINT('',(2.89977478529984,29.7999870197678,0.));
#1230=CARTESIAN_POINT('',(2.89977478529985,24.5999740395355,3.));
#1231=CARTESIAN_POINT('',(2.89977478529985,24.5999740395355,0.));
#1232=CARTESIAN_POINT('',(2.89977478529984,29.7999870197677,3.));
#1233=CARTESIAN_POINT('Origin',(-2.88806347557441,24.5999740395355,0.));
#1234=CARTESIAN_POINT('',(-2.88806347557441,24.5999740395355,0.));
#1235=CARTESIAN_POINT('',(-126.444031737787,24.5999740395355,0.));
#1236=CARTESIAN_POINT('',(-2.88806347557441,24.5999740395355,3.));
#1237=CARTESIAN_POINT('',(-2.88806347557441,24.5999740395355,0.));
#1238=CARTESIAN_POINT('',(123.555968262213,24.5999740395355,3.));
#1239=CARTESIAN_POINT('Origin',(-2.88806347557441,30.3999740395355,0.));
#1240=CARTESIAN_POINT('',(-2.8880634755744,32.6999870197678,0.));
#1241=CARTESIAN_POINT('',(-2.8880634755744,32.6999870197677,3.));
#1242=CARTESIAN_POINT('Origin',(62.9335510974528,-30.4,0.));
#1243=CARTESIAN_POINT('',(62.9335510974528,-30.4,0.));
#1244=CARTESIAN_POINT('',(68.7213893583271,-30.4,0.));
#1245=CARTESIAN_POINT('',(-93.5332244512735,-30.4,0.));
#1246=CARTESIAN_POINT('',(62.9335510974528,-30.4,3.));
#1247=CARTESIAN_POINT('',(62.9335510974528,-30.4,0.));
#1248=CARTESIAN_POINT('',(68.7213893583271,-30.4,3.));
#1249=CARTESIAN_POINT('',(156.466775548726,-30.4,3.));
#1250=CARTESIAN_POINT('',(68.7213893583271,-30.4,0.));
#1251=CARTESIAN_POINT('Origin',(62.9335510974528,-24.6,0.));
#1252=CARTESIAN_POINT('',(62.9335510974528,-24.6,0.));
#1253=CARTESIAN_POINT('',(62.9335510974528,5.2,0.));
#1254=CARTESIAN_POINT('',(62.9335510974528,-24.6,3.));
#1255=CARTESIAN_POINT('',(62.9335510974528,-24.6,0.));
#1256=CARTESIAN_POINT('',(62.9335510974528,5.2,3.));
#1257=CARTESIAN_POINT('Origin',(68.7213893583271,-24.6,0.));
#1258=CARTESIAN_POINT('',(68.7213893583271,-24.6,0.));
#1259=CARTESIAN_POINT('',(-90.6393053208364,-24.6,0.));
#1260=CARTESIAN_POINT('',(68.7213893583271,-24.6,3.));
#1261=CARTESIAN_POINT('',(68.7213893583271,-24.6,0.));
#1262=CARTESIAN_POINT('',(159.360694679164,-24.6,3.));
#1263=CARTESIAN_POINT('Origin',(68.7213893583271,-30.4,0.));
#1264=CARTESIAN_POINT('',(68.7213893583271,2.3,0.));
#1265=CARTESIAN_POINT('',(68.7213893583271,2.3,3.));
#1266=CARTESIAN_POINT('Origin',(-62.9335585480334,30.3999740395355,0.));
#1267=CARTESIAN_POINT('',(-62.9335585480334,30.3999740395355,0.));
#1268=CARTESIAN_POINT('',(-68.7213968089078,30.3999740395355,0.));
#1269=CARTESIAN_POINT('',(-156.466779274017,30.3999740395355,0.));
#1270=CARTESIAN_POINT('',(-62.9335585480334,30.3999740395355,3.));
#1271=CARTESIAN_POINT('',(-62.9335585480334,30.3999740395355,0.));
#1272=CARTESIAN_POINT('',(-68.7213968089078,30.3999740395355,3.));
#1273=CARTESIAN_POINT('',(93.5332207259833,30.3999740395355,3.));
#1274=CARTESIAN_POINT('',(-68.7213968089078,30.3999740395355,0.));
#1275=CARTESIAN_POINT('Origin',(-62.9335585480334,24.5999740395355,0.));
#1276=CARTESIAN_POINT('',(-62.9335585480334,24.5999740395355,0.));
#1277=CARTESIAN_POINT('',(-62.9335585480334,29.7999870197678,0.));
#1278=CARTESIAN_POINT('',(-62.9335585480334,24.5999740395355,3.));
#1279=CARTESIAN_POINT('',(-62.9335585480334,24.5999740395355,0.));
#1280=CARTESIAN_POINT('',(-62.9335585480334,29.7999870197678,3.));
#1281=CARTESIAN_POINT('Origin',(-68.7213968089078,24.5999740395355,0.));
#1282=CARTESIAN_POINT('',(-68.7213968089078,24.5999740395355,0.));
#1283=CARTESIAN_POINT('',(-159.360698404454,24.5999740395355,0.));
#1284=CARTESIAN_POINT('',(-68.7213968089078,24.5999740395355,3.));
#1285=CARTESIAN_POINT('',(-68.7213968089078,24.5999740395355,0.));
#1286=CARTESIAN_POINT('',(90.6393015955461,24.5999740395355,3.));
#1287=CARTESIAN_POINT('Origin',(-68.7213968089078,30.3999740395355,0.));
#1288=CARTESIAN_POINT('',(-68.7213968089078,32.6999870197678,0.));
#1289=CARTESIAN_POINT('',(-68.7213968089078,32.6999870197678,3.));
#1290=CARTESIAN_POINT('Origin',(-2.89978223588053,-30.4,0.));
#1291=CARTESIAN_POINT('',(-2.89978223588053,-30.4,0.));
#1292=CARTESIAN_POINT('',(2.88805602499374,-30.4,0.));
#1293=CARTESIAN_POINT('',(-126.44989111794,-30.4,0.));
#1294=CARTESIAN_POINT('',(-2.89978223588053,-30.4,3.));
#1295=CARTESIAN_POINT('',(-2.89978223588053,-30.4,0.));
#1296=CARTESIAN_POINT('',(2.88805602499374,-30.4,3.));
#1297=CARTESIAN_POINT('',(123.55010888206,-30.4,3.));
#1298=CARTESIAN_POINT('',(2.88805602499374,-30.4,0.));
#1299=CARTESIAN_POINT('Origin',(-2.89978223588053,-24.6,0.));
#1300=CARTESIAN_POINT('',(-2.89978223588053,-24.6,0.));
#1301=CARTESIAN_POINT('',(-2.89978223588054,5.2,0.));
#1302=CARTESIAN_POINT('',(-2.89978223588053,-24.6,3.));
#1303=CARTESIAN_POINT('',(-2.89978223588053,-24.6,0.));
#1304=CARTESIAN_POINT('',(-2.89978223588054,5.2,3.));
#1305=CARTESIAN_POINT('Origin',(2.88805602499374,-24.6,0.));
#1306=CARTESIAN_POINT('',(2.88805602499374,-24.6,0.));
#1307=CARTESIAN_POINT('',(-123.555971987503,-24.6,0.));
#1308=CARTESIAN_POINT('',(2.88805602499374,-24.6,3.));
#1309=CARTESIAN_POINT('',(2.88805602499374,-24.6,0.));
#1310=CARTESIAN_POINT('',(126.444028012497,-24.6,3.));
#1311=CARTESIAN_POINT('Origin',(2.88805602499374,-30.4,0.));
#1312=CARTESIAN_POINT('',(2.88805602499373,2.3,0.));
#1313=CARTESIAN_POINT('',(2.88805602499373,2.3,3.));
#1314=CARTESIAN_POINT('Origin',(68.7331081186332,30.3999740395355,0.));
#1315=CARTESIAN_POINT('',(68.7331081186332,30.3999740395355,0.));
#1316=CARTESIAN_POINT('',(62.945269857759,30.3999740395355,0.));
#1317=CARTESIAN_POINT('',(-90.6334459406833,30.3999740395355,0.));
#1318=CARTESIAN_POINT('',(68.7331081186332,30.3999740395355,3.));
#1319=CARTESIAN_POINT('',(68.7331081186332,30.3999740395355,0.));
#1320=CARTESIAN_POINT('',(62.945269857759,30.3999740395355,3.));
#1321=CARTESIAN_POINT('',(159.366554059317,30.3999740395355,3.));
#1322=CARTESIAN_POINT('',(62.945269857759,30.3999740395355,0.));
#1323=CARTESIAN_POINT('Origin',(68.7331081186332,24.5999740395355,0.));
#1324=CARTESIAN_POINT('',(68.7331081186332,24.5999740395355,0.));
#1325=CARTESIAN_POINT('',(68.7331081186332,29.7999870197677,0.));
#1326=CARTESIAN_POINT('',(68.7331081186332,24.5999740395355,3.));
#1327=CARTESIAN_POINT('',(68.7331081186332,24.5999740395355,0.));
#1328=CARTESIAN_POINT('',(68.7331081186332,29.7999870197677,3.));
#1329=CARTESIAN_POINT('Origin',(62.945269857759,24.5999740395355,0.));
#1330=CARTESIAN_POINT('',(62.945269857759,24.5999740395355,0.));
#1331=CARTESIAN_POINT('',(-93.5273650711204,24.5999740395355,0.));
#1332=CARTESIAN_POINT('',(62.945269857759,24.5999740395355,3.));
#1333=CARTESIAN_POINT('',(62.945269857759,24.5999740395355,0.));
#1334=CARTESIAN_POINT('',(156.472634928879,24.5999740395355,3.));
#1335=CARTESIAN_POINT('Origin',(62.945269857759,30.3999740395355,0.));
#1336=CARTESIAN_POINT('',(62.945269857759,32.6999870197677,0.));
#1337=CARTESIAN_POINT('',(62.945269857759,32.6999870197677,3.));
#1338=CARTESIAN_POINT('Origin',(-68.7331155692139,-30.4,0.));
#1339=CARTESIAN_POINT('',(-68.7331155692139,-30.4,0.));
#1340=CARTESIAN_POINT('',(-62.9452773083396,-30.4,0.));
#1341=CARTESIAN_POINT('',(-159.366557784607,-30.4,0.));
#1342=CARTESIAN_POINT('',(-68.7331155692139,-30.4,3.));
#1343=CARTESIAN_POINT('',(-68.7331155692139,-30.4,0.));
#1344=CARTESIAN_POINT('',(-62.9452773083396,-30.4,3.));
#1345=CARTESIAN_POINT('',(90.6334422153931,-30.4,3.));
#1346=CARTESIAN_POINT('',(-62.9452773083396,-30.4,0.));
#1347=CARTESIAN_POINT('Origin',(-68.7331155692139,-24.6,0.));
#1348=CARTESIAN_POINT('',(-68.7331155692139,-24.6,0.));
#1349=CARTESIAN_POINT('',(-68.7331155692139,5.2,0.));
#1350=CARTESIAN_POINT('',(-68.7331155692139,-24.6,3.));
#1351=CARTESIAN_POINT('',(-68.7331155692139,-24.6,0.));
#1352=CARTESIAN_POINT('',(-68.7331155692139,5.2,3.));
#1353=CARTESIAN_POINT('Origin',(-62.9452773083396,-24.6,0.));
#1354=CARTESIAN_POINT('',(-62.9452773083396,-24.6,0.));
#1355=CARTESIAN_POINT('',(-156.47263865417,-24.6,0.));
#1356=CARTESIAN_POINT('',(-62.9452773083396,-24.6,3.));
#1357=CARTESIAN_POINT('',(-62.9452773083396,-24.6,0.));
#1358=CARTESIAN_POINT('',(93.5273613458302,-24.6,3.));
#1359=CARTESIAN_POINT('Origin',(-62.9452773083396,-30.4,0.));
#1360=CARTESIAN_POINT('',(-62.9452773083396,2.3,0.));
#1361=CARTESIAN_POINT('',(-62.9452773083396,2.3,3.));
#1362=CARTESIAN_POINT('Origin',(83.3485416088669,-20.,3.));
#1363=CARTESIAN_POINT('',(84.8485416088669,-20.,1.50000000778101));
#1364=CARTESIAN_POINT('Origin',(83.3485416088669,-20.,1.50000001046322));
#1365=CARTESIAN_POINT('',(84.8485416088669,-20.,0.));
#1366=CARTESIAN_POINT('',(84.8485416088669,-20.,3.));
#1367=CARTESIAN_POINT('Origin',(83.3485416088669,-20.,0.));
#1368=CARTESIAN_POINT('Origin',(-83.3333333333334,-4.44089209850063E-15,
3.));
#1369=CARTESIAN_POINT('',(-83.3333333333334,1.5,3.));
#1370=CARTESIAN_POINT('',(-81.8333333333334,-4.62458911837273E-15,3.00000002622604));
#1371=CARTESIAN_POINT('Origin',(-83.3333333333334,-4.44089209850063E-15,
3.));
#1372=CARTESIAN_POINT('',(-83.3333333333334,-1.50000000000001,3.));
#1373=CARTESIAN_POINT('Origin',(-83.3333333333334,-4.44089209850063E-15,
3.00000002086162));
#1374=CARTESIAN_POINT('Origin',(-83.3333333333334,-4.44089209850063E-15,
3.));
#1375=CARTESIAN_POINT('',(-81.8333333333334,-4.25719507862852E-15,1.5000000077486));
#1376=CARTESIAN_POINT('',(-81.8333333333334,-4.62458911837273E-15,3.));
#1377=CARTESIAN_POINT('Origin',(-83.3333333333334,-4.44089209850063E-15,
1.50000001043081));
#1378=CARTESIAN_POINT('Origin',(83.3485416088669,0.,3.));
#1379=CARTESIAN_POINT('',(84.8485416088669,-1.83697019872103E-16,1.50000000778101));
#1380=CARTESIAN_POINT('Origin',(83.3485416088669,0.,1.50000001046322));
#1381=CARTESIAN_POINT('',(84.8485416088669,1.83697019872103E-16,0.));
#1382=CARTESIAN_POINT('',(84.8485416088669,-1.83697019872103E-16,3.));
#1383=CARTESIAN_POINT('Origin',(83.3485416088669,0.,0.));
#1384=CARTESIAN_POINT('Origin',(-83.3333333333334,20.,3.));
#1385=CARTESIAN_POINT('',(-83.3333333333334,21.5,3.));
#1386=CARTESIAN_POINT('',(-81.8333333333334,20.,3.00000002622604));
#1387=CARTESIAN_POINT('Origin',(-83.3333333333334,20.,3.));
#1388=CARTESIAN_POINT('',(-83.3333333333334,18.5,3.));
#1389=CARTESIAN_POINT('Origin',(-83.3333333333334,20.,3.00000002086162));
#1390=CARTESIAN_POINT('Origin',(-83.3333333333334,20.,3.));
#1391=CARTESIAN_POINT('',(-81.8333333333334,20.,1.5000000077486));
#1392=CARTESIAN_POINT('',(-81.8333333333334,20.,3.));
#1393=CARTESIAN_POINT('Origin',(-83.3333333333334,20.,1.50000001043081));
#1394=CARTESIAN_POINT('Origin',(-83.3333333333334,-20.,3.));
#1395=CARTESIAN_POINT('',(-83.3333333333334,-18.5,3.));
#1396=CARTESIAN_POINT('',(-81.8333333333334,-20.,3.00000002622604));
#1397=CARTESIAN_POINT('Origin',(-83.3333333333334,-20.,3.));
#1398=CARTESIAN_POINT('',(-83.3333333333334,-21.5,3.));
#1399=CARTESIAN_POINT('Origin',(-83.3333333333334,-20.,3.00000002086162));
#1400=CARTESIAN_POINT('Origin',(-83.3333333333334,-20.,3.));
#1401=CARTESIAN_POINT('',(-81.8333333333334,-20.,1.5000000077486));
#1402=CARTESIAN_POINT('',(-81.8333333333334,-20.,3.));
#1403=CARTESIAN_POINT('Origin',(-83.3333333333334,-20.,1.50000001043081));
#1404=CARTESIAN_POINT('Origin',(83.3485416088669,20.,3.));
#1405=CARTESIAN_POINT('',(84.8485416088669,20.,1.50000000778101));
#1406=CARTESIAN_POINT('Origin',(83.3485416088669,20.,1.50000001046322));
#1407=CARTESIAN_POINT('',(84.8485416088669,20.,0.));
#1408=CARTESIAN_POINT('',(84.8485416088669,20.,3.));
#1409=CARTESIAN_POINT('Origin',(83.3485416088669,20.,0.));
#1410=CARTESIAN_POINT('Origin',(250.,35.,3.));
#1411=CARTESIAN_POINT('',(-83.3333333333334,17.5,3.));
#1412=CARTESIAN_POINT('',(-83.3333333333334,-35.,3.));
#1413=CARTESIAN_POINT('',(-83.3333333333334,17.5,3.));
#1414=CARTESIAN_POINT('',(76.6999986588955,-35.,3.00000004470348));
#1415=CARTESIAN_POINT('',(-250.,-35.,3.));
#1416=CARTESIAN_POINT('',(76.6999986588955,35.,3.00000004470348));
#1417=CARTESIAN_POINT('',(76.6999986588955,35.,3.));
#1418=CARTESIAN_POINT('',(-83.3333333333334,35.,3.));
#1419=CARTESIAN_POINT('',(-250.,35.,3.));
#1420=CARTESIAN_POINT('',(-83.3333333333334,17.5,3.));
#1421=CARTESIAN_POINT('',(-83.3333333333334,17.5,3.));
#1422=CARTESIAN_POINT('Origin',(-77.50000115484,35.,0.));
#1423=CARTESIAN_POINT('',(-77.50000115484,35.,0.));
#1424=CARTESIAN_POINT('',(-77.50000115484,35.,1.5));
#1425=CARTESIAN_POINT('',(-77.50000115484,35.,0.75));
#1426=CARTESIAN_POINT('',(-77.50000115484,-35.,0.));
#1427=CARTESIAN_POINT('',(-77.50000115484,35.,0.));
#1428=CARTESIAN_POINT('',(-77.50000115484,-35.,1.5));
#1429=CARTESIAN_POINT('',(-77.50000115484,-35.,0.75));
#1430=CARTESIAN_POINT('',(-77.50000115484,35.,1.5));
#1431=CARTESIAN_POINT('Origin',(7.105427357601E-14,35.,1.5));
#1432=CARTESIAN_POINT('',(-90.0000013411045,35.,1.50000002235174));
#1433=CARTESIAN_POINT('',(-77.50000115484,35.,1.5));
#1434=CARTESIAN_POINT('',(-90.0000013411045,35.,3.00000004470348));
#1435=CARTESIAN_POINT('',(-90.0000013411045,35.,0.));
#1436=CARTESIAN_POINT('',(-77.50000115484,35.,3.));
#1437=CARTESIAN_POINT('',(76.6999986588955,35.,1.50000002235174));
#1438=CARTESIAN_POINT('',(76.6999986588955,35.,2.25000002235174));
#1439=CARTESIAN_POINT('',(89.19999884516,35.,1.5));
#1440=CARTESIAN_POINT('',(38.3499993294478,35.,1.50000009092688));
#1441=CARTESIAN_POINT('',(89.19999884516,35.,0.));
#1442=CARTESIAN_POINT('',(89.19999884516,35.,0.));
#1443=CARTESIAN_POINT('',(250.,35.,0.));
#1444=CARTESIAN_POINT('Origin',(-90.0000013411045,35.,1.50000002235174));
#1445=CARTESIAN_POINT('',(-90.0000013411045,-35.,1.50000002235174));
#1446=CARTESIAN_POINT('',(-38.75000057742,-35.,1.4999999307096));
#1447=CARTESIAN_POINT('',(-90.0000013411045,35.,1.50000002235174));
#1448=CARTESIAN_POINT('Origin',(-90.0000013411045,35.,3.00000004470348));
#1449=CARTESIAN_POINT('',(-90.0000013411045,-35.,3.00000004470348));
#1450=CARTESIAN_POINT('',(-90.0000013411045,-35.,0.));
#1451=CARTESIAN_POINT('',(-90.0000013411045,35.,3.00000004470348));
#1452=CARTESIAN_POINT('Origin',(-83.3333333333334,35.,3.00000002086162));
#1453=CARTESIAN_POINT('',(-77.50000115484,-35.,3.));
#1454=CARTESIAN_POINT('Origin',(89.19999884516,35.,0.));
#1455=CARTESIAN_POINT('',(89.19999884516,-35.,1.5));
#1456=CARTESIAN_POINT('',(89.19999884516,35.,1.5));
#1457=CARTESIAN_POINT('',(89.19999884516,-35.,0.));
#1458=CARTESIAN_POINT('',(89.19999884516,-35.,0.));
#1459=CARTESIAN_POINT('',(89.19999884516,35.,0.));
#1460=CARTESIAN_POINT('Origin',(76.6999986588955,35.,1.50000002235174));
#1461=CARTESIAN_POINT('',(76.6999986588955,-35.,1.50000002235174));
#1462=CARTESIAN_POINT('',(76.6999986588955,35.,1.50000002235174));
#1463=CARTESIAN_POINT('',(38.3499993294478,-35.,1.50000009092688));
#1464=CARTESIAN_POINT('Origin',(76.6999986588955,35.,3.00000004470348));
#1465=CARTESIAN_POINT('',(76.6999986588955,-35.,2.25000002235174));
#1466=CARTESIAN_POINT('Origin',(7.105427357601E-14,-35.,1.5));
#1467=CARTESIAN_POINT('',(250.,-35.,0.));
#1468=CARTESIAN_POINT('Origin',(-250.,35.,0.));
#1469=CARTESIAN_POINT('',(0.,0.,0.));
#1470=UNCERTAINTY_MEASURE_WITH_UNIT(LENGTH_MEASURE(0.01),#1476,
'DISTANCE_ACCURACY_VALUE',
'Maximum model space distance between geometric entities at asserted c
onnectivities');
#1471=UNCERTAINTY_MEASURE_WITH_UNIT(LENGTH_MEASURE(0.01),#1476,
'DISTANCE_ACCURACY_VALUE',
'Maximum model space distance between geometric entities at asserted c
onnectivities');
#1472=UNCERTAINTY_MEASURE_WITH_UNIT(LENGTH_MEASURE(0.01),#1476,
'DISTANCE_ACCURACY_VALUE',
'Maximum model space distance between geometric entities at asserted c
onnectivities');
#1473=(
GEOMETRIC_REPRESENTATION_CONTEXT(3)
GLOBAL_UNCERTAINTY_ASSIGNED_CONTEXT((#1470))
GLOBAL_UNIT_ASSIGNED_CONTEXT((#1476,#1477,#1478))
REPRESENTATION_CONTEXT('','3D')
);
#1474=(
GEOMETRIC_REPRESENTATION_CONTEXT(3)
GLOBAL_UNCERTAINTY_ASSIGNED_CONTEXT((#1471))
GLOBAL_UNIT_ASSIGNED_CONTEXT((#1476,#1477,#1478))
REPRESENTATION_CONTEXT('','3D')
);
#1475=(
GEOMETRIC_REPRESENTATION_CONTEXT(3)
GLOBAL_UNCERTAINTY_ASSIGNED_CONTEXT((#1472))
GLOBAL_UNIT_ASSIGNED_CONTEXT((#1476,#1477,#1478))
REPRESENTATION_CONTEXT('','3D')
);
#1476=(
LENGTH_UNIT()
NAMED_UNIT(*)
SI_UNIT(.MILLI.,.METRE.)
);
#1477=(
NAMED_UNIT(*)
PLANE_ANGLE_UNIT()
SI_UNIT($,.RADIAN.)
);
#1478=(
NAMED_UNIT(*)
SI_UNIT($,.STERADIAN.)
SOLID_ANGLE_UNIT()
);
#1479=SHAPE_DEFINITION_REPRESENTATION(#1481,#1484);
#1480=SHAPE_DEFINITION_REPRESENTATION(#1482,#1485);
#1481=PRODUCT_DEFINITION_SHAPE('',$,#1487);
#1482=PRODUCT_DEFINITION_SHAPE('',$,#1488);
#1483=PRODUCT_DEFINITION_SHAPE($,$,#14);
#1484=SHAPE_REPRESENTATION('',(#922,#983),#1473);
#1485=SHAPE_REPRESENTATION('',(#923),#1474);
#1486=PRODUCT_DEFINITION_CONTEXT('part definition',#1494,'design');
#1487=PRODUCT_DEFINITION('Bridge','Bridge v23',#1489,#1486);
#1488=PRODUCT_DEFINITION('base','base',#1490,#1486);
#1489=PRODUCT_DEFINITION_FORMATION('',$,#1496);
#1490=PRODUCT_DEFINITION_FORMATION('',$,#1497);
#1491=PRODUCT_RELATED_PRODUCT_CATEGORY('Bridge v23','Bridge v23',(#1496));
#1492=PRODUCT_RELATED_PRODUCT_CATEGORY('base','base',(#1497));
#1493=APPLICATION_PROTOCOL_DEFINITION('international standard',
'automotive_design',2009,#1494);
#1494=APPLICATION_CONTEXT(
'Core Data for Automotive Mechanical Design Process');
#1495=PRODUCT_CONTEXT('part definition',#1494,'mechanical');
#1496=PRODUCT('Bridge','Bridge v23',$,(#1495));
#1497=PRODUCT('base','base',$,(#1495));
#1498=PRESENTATION_STYLE_ASSIGNMENT((#1499));
#1499=SURFACE_STYLE_USAGE(.BOTH.,#1500);
#1500=SURFACE_SIDE_STYLE('',(#1501));
#1501=SURFACE_STYLE_FILL_AREA(#1502);
#1502=FILL_AREA_STYLE('Steel - Satin',(#1503));
#1503=FILL_AREA_STYLE_COLOUR('Steel - Satin',#1504);
#1504=COLOUR_RGB('Steel - Satin',0.627450980392157,0.627450980392157,0.627450980392157);
ENDSEC;
END-ISO-10303-21;
