ISO-10303-21;
HEADER;
/* Generated by software containing ST-Developer
 * from STEP Tools, Inc. (www.steptools.com) 
 */

FILE_DESCRIPTION(
/* description */ (''),
/* implementation_level */ '2;1');

FILE_NAME(
/* name */ 'Base1.step',
/* time_stamp */ '2026-08-18T23:40:38+05:30',
/* author */ (''),
/* organization */ (''),
/* preprocessor_version */ 'ST-DEVELOPER v20.1',
/* originating_system */ 'Autodesk Translation Framework v15.8.0.0',
/* authorisation */ '');

FILE_SCHEMA (('AUTOMOTIVE_DESIGN { 1 0 10303 214 3 1 1 }'));
ENDSEC;

DATA;
#10=MECHANICAL_DESIGN_GEOMETRIC_PRESENTATION_REPRESENTATION('',(#17),#1254);
#11=ITEM_DEFINED_TRANSFORMATION($,$,#774,#833);
#12=(
REPRESENTATION_RELATIONSHIP($,$,#1264,#1263)
REPRESENTATION_RELATIONSHIP_WITH_TRANSFORMATION(#11)
SHAPE_REPRESENTATION_RELATIONSHIP()
);
#13=CONTEXT_DEPENDENT_SHAPE_REPRESENTATION(#12,#1262);
#14=NEXT_ASSEMBLY_USAGE_OCCURRENCE('base:1','base:1','base:1',#1266,#1267,
'base:1');
#15=SHAPE_REPRESENTATION_RELATIONSHIP('SRR','None',#1264,#16);
#16=ADVANCED_BREP_SHAPE_REPRESENTATION('',(#18),#1253);
#17=STYLED_ITEM('',(#1277),#18);
#18=MANIFOLD_SOLID_BREP('Body4',#772);
#19=FACE_BOUND('',#127,.T.);
#20=FACE_BOUND('',#128,.T.);
#21=FACE_BOUND('',#129,.T.);
#22=FACE_BOUND('',#130,.T.);
#23=FACE_BOUND('',#131,.T.);
#24=FACE_BOUND('',#132,.T.);
#25=FACE_BOUND('',#133,.T.);
#26=FACE_BOUND('',#134,.T.);
#27=FACE_BOUND('',#135,.T.);
#28=FACE_BOUND('',#136,.T.);
#29=FACE_BOUND('',#140,.T.);
#30=FACE_BOUND('',#141,.T.);
#31=FACE_BOUND('',#142,.T.);
#32=FACE_BOUND('',#147,.T.);
#33=FACE_BOUND('',#148,.T.);
#34=FACE_BOUND('',#149,.T.);
#35=FACE_BOUND('',#150,.T.);
#36=FACE_BOUND('',#151,.T.);
#37=FACE_BOUND('',#152,.T.);
#38=FACE_BOUND('',#153,.T.);
#39=FACE_BOUND('',#154,.T.);
#40=FACE_BOUND('',#155,.T.);
#41=FACE_BOUND('',#156,.T.);
#42=PLANE('',#793);
#43=PLANE('',#794);
#44=PLANE('',#795);
#45=PLANE('',#796);
#46=PLANE('',#797);
#47=PLANE('',#798);
#48=PLANE('',#799);
#49=PLANE('',#800);
#50=PLANE('',#801);
#51=PLANE('',#802);
#52=PLANE('',#803);
#53=PLANE('',#804);
#54=PLANE('',#805);
#55=PLANE('',#806);
#56=PLANE('',#807);
#57=PLANE('',#808);
#58=PLANE('',#824);
#59=PLANE('',#825);
#60=PLANE('',#826);
#61=PLANE('',#827);
#62=PLANE('',#828);
#63=PLANE('',#829);
#64=PLANE('',#830);
#65=PLANE('',#831);
#66=PLANE('',#832);
#67=FACE_OUTER_BOUND('',#101,.T.);
#68=FACE_OUTER_BOUND('',#102,.T.);
#69=FACE_OUTER_BOUND('',#103,.T.);
#70=FACE_OUTER_BOUND('',#104,.T.);
#71=FACE_OUTER_BOUND('',#105,.T.);
#72=FACE_OUTER_BOUND('',#106,.T.);
#73=FACE_OUTER_BOUND('',#107,.T.);
#74=FACE_OUTER_BOUND('',#108,.T.);
#75=FACE_OUTER_BOUND('',#109,.T.);
#76=FACE_OUTER_BOUND('',#110,.T.);
#77=FACE_OUTER_BOUND('',#111,.T.);
#78=FACE_OUTER_BOUND('',#112,.T.);
#79=FACE_OUTER_BOUND('',#113,.T.);
#80=FACE_OUTER_BOUND('',#114,.T.);
#81=FACE_OUTER_BOUND('',#115,.T.);
#82=FACE_OUTER_BOUND('',#116,.T.);
#83=FACE_OUTER_BOUND('',#117,.T.);
#84=FACE_OUTER_BOUND('',#118,.T.);
#85=FACE_OUTER_BOUND('',#119,.T.);
#86=FACE_OUTER_BOUND('',#120,.T.);
#87=FACE_OUTER_BOUND('',#121,.T.);
#88=FACE_OUTER_BOUND('',#122,.T.);
#89=FACE_OUTER_BOUND('',#123,.T.);
#90=FACE_OUTER_BOUND('',#124,.T.);
#91=FACE_OUTER_BOUND('',#125,.T.);
#92=FACE_OUTER_BOUND('',#126,.T.);
#93=FACE_OUTER_BOUND('',#137,.T.);
#94=FACE_OUTER_BOUND('',#138,.T.);
#95=FACE_OUTER_BOUND('',#139,.T.);
#96=FACE_OUTER_BOUND('',#143,.T.);
#97=FACE_OUTER_BOUND('',#144,.T.);
#98=FACE_OUTER_BOUND('',#145,.T.);
#99=FACE_OUTER_BOUND('',#146,.T.);
#100=FACE_OUTER_BOUND('',#157,.T.);
#101=EDGE_LOOP('',(#519,#520,#521,#522));
#102=EDGE_LOOP('',(#523,#524,#525,#526));
#103=EDGE_LOOP('',(#527,#528,#529,#530));
#104=EDGE_LOOP('',(#531,#532,#533,#534));
#105=EDGE_LOOP('',(#535,#536,#537,#538));
#106=EDGE_LOOP('',(#539,#540,#541,#542));
#107=EDGE_LOOP('',(#543,#544,#545,#546));
#108=EDGE_LOOP('',(#547,#548,#549,#550));
#109=EDGE_LOOP('',(#551,#552,#553,#554));
#110=EDGE_LOOP('',(#555,#556,#557,#558));
#111=EDGE_LOOP('',(#559,#560,#561,#562));
#112=EDGE_LOOP('',(#563,#564,#565,#566));
#113=EDGE_LOOP('',(#567,#568,#569,#570));
#114=EDGE_LOOP('',(#571,#572,#573,#574));
#115=EDGE_LOOP('',(#575,#576,#577,#578));
#116=EDGE_LOOP('',(#579,#580,#581,#582));
#117=EDGE_LOOP('',(#583,#584,#585,#586));
#118=EDGE_LOOP('',(#587,#588,#589,#590));
#119=EDGE_LOOP('',(#591,#592,#593,#594));
#120=EDGE_LOOP('',(#595,#596,#597,#598));
#121=EDGE_LOOP('',(#599,#600,#601,#602));
#122=EDGE_LOOP('',(#603,#604,#605,#606));
#123=EDGE_LOOP('',(#607,#608,#609,#610,#611,#612));
#124=EDGE_LOOP('',(#613,#614,#615,#616,#617,#618));
#125=EDGE_LOOP('',(#619,#620,#621,#622,#623,#624));
#126=EDGE_LOOP('',(#625,#626,#627,#628,#629,#630,#631,#632,#633,#634,#635,
#636,#637));
#127=EDGE_LOOP('',(#638,#639,#640,#641));
#128=EDGE_LOOP('',(#642,#643,#644,#645));
#129=EDGE_LOOP('',(#646,#647,#648,#649));
#130=EDGE_LOOP('',(#650,#651,#652,#653));
#131=EDGE_LOOP('',(#654));
#132=EDGE_LOOP('',(#655));
#133=EDGE_LOOP('',(#656));
#134=EDGE_LOOP('',(#657));
#135=EDGE_LOOP('',(#658));
#136=EDGE_LOOP('',(#659));
#137=EDGE_LOOP('',(#660,#661,#662,#663));
#138=EDGE_LOOP('',(#664,#665,#666,#667,#668,#669,#670,#671,#672,#673));
#139=EDGE_LOOP('',(#674,#675,#676,#677));
#140=EDGE_LOOP('',(#678));
#141=EDGE_LOOP('',(#679));
#142=EDGE_LOOP('',(#680));
#143=EDGE_LOOP('',(#681,#682,#683,#684));
#144=EDGE_LOOP('',(#685,#686,#687,#688,#689,#690,#691));
#145=EDGE_LOOP('',(#692,#693,#694,#695,#696,#697,#698));
#146=EDGE_LOOP('',(#699,#700,#701,#702));
#147=EDGE_LOOP('',(#703,#704,#705,#706));
#148=EDGE_LOOP('',(#707,#708,#709,#710));
#149=EDGE_LOOP('',(#711,#712,#713,#714));
#150=EDGE_LOOP('',(#715,#716,#717,#718));
#151=EDGE_LOOP('',(#719));
#152=EDGE_LOOP('',(#720));
#153=EDGE_LOOP('',(#721));
#154=EDGE_LOOP('',(#722));
#155=EDGE_LOOP('',(#723));
#156=EDGE_LOOP('',(#724));
#157=EDGE_LOOP('',(#725,#726,#727,#728));
#158=LINE('',#1043,#239);
#159=LINE('',#1049,#240);
#160=LINE('',#1055,#241);
#161=LINE('',#1061,#242);
#162=LINE('',#1067,#243);
#163=LINE('',#1073,#244);
#164=LINE('',#1078,#245);
#165=LINE('',#1080,#246);
#166=LINE('',#1082,#247);
#167=LINE('',#1083,#248);
#168=LINE('',#1086,#249);
#169=LINE('',#1088,#250);
#170=LINE('',#1089,#251);
#171=LINE('',#1092,#252);
#172=LINE('',#1094,#253);
#173=LINE('',#1095,#254);
#174=LINE('',#1097,#255);
#175=LINE('',#1098,#256);
#176=LINE('',#1102,#257);
#177=LINE('',#1104,#258);
#178=LINE('',#1106,#259);
#179=LINE('',#1107,#260);
#180=LINE('',#1110,#261);
#181=LINE('',#1112,#262);
#182=LINE('',#1113,#263);
#183=LINE('',#1116,#264);
#184=LINE('',#1118,#265);
#185=LINE('',#1119,#266);
#186=LINE('',#1121,#267);
#187=LINE('',#1122,#268);
#188=LINE('',#1126,#269);
#189=LINE('',#1128,#270);
#190=LINE('',#1130,#271);
#191=LINE('',#1131,#272);
#192=LINE('',#1134,#273);
#193=LINE('',#1136,#274);
#194=LINE('',#1137,#275);
#195=LINE('',#1140,#276);
#196=LINE('',#1142,#277);
#197=LINE('',#1143,#278);
#198=LINE('',#1145,#279);
#199=LINE('',#1146,#280);
#200=LINE('',#1150,#281);
#201=LINE('',#1152,#282);
#202=LINE('',#1154,#283);
#203=LINE('',#1155,#284);
#204=LINE('',#1158,#285);
#205=LINE('',#1160,#286);
#206=LINE('',#1161,#287);
#207=LINE('',#1164,#288);
#208=LINE('',#1166,#289);
#209=LINE('',#1167,#290);
#210=LINE('',#1169,#291);
#211=LINE('',#1170,#292);
#212=LINE('',#1179,#293);
#213=LINE('',#1189,#294);
#214=LINE('',#1199,#295);
#215=LINE('',#1203,#296);
#216=LINE('',#1205,#297);
#217=LINE('',#1207,#298);
#218=LINE('',#1209,#299);
#219=LINE('',#1210,#300);
#220=LINE('',#1211,#301);
#221=LINE('',#1212,#302);
#222=LINE('',#1216,#303);
#223=LINE('',#1218,#304);
#224=LINE('',#1220,#305);
#225=LINE('',#1221,#306);
#226=LINE('',#1223,#307);
#227=LINE('',#1224,#308);
#228=LINE('',#1227,#309);
#229=LINE('',#1229,#310);
#230=LINE('',#1230,#311);
#231=LINE('',#1233,#312);
#232=LINE('',#1235,#313);
#233=LINE('',#1236,#314);
#234=LINE('',#1239,#315);
#235=LINE('',#1240,#316);
#236=LINE('',#1243,#317);
#237=LINE('',#1244,#318);
#238=LINE('',#1246,#319);
#239=VECTOR('',#842,1.49999999999999);
#240=VECTOR('',#849,1.49999999999999);
#241=VECTOR('',#856,1.49999999999999);
#242=VECTOR('',#863,1.49999999999999);
#243=VECTOR('',#870,1.49999999999999);
#244=VECTOR('',#877,1.49999999999999);
#245=VECTOR('',#882,10.);
#246=VECTOR('',#883,10.);
#247=VECTOR('',#884,10.);
#248=VECTOR('',#885,10.);
#249=VECTOR('',#888,10.);
#250=VECTOR('',#889,10.);
#251=VECTOR('',#890,10.);
#252=VECTOR('',#893,10.);
#253=VECTOR('',#894,10.);
#254=VECTOR('',#895,10.);
#255=VECTOR('',#898,10.);
#256=VECTOR('',#899,10.);
#257=VECTOR('',#902,10.);
#258=VECTOR('',#903,10.);
#259=VECTOR('',#904,10.);
#260=VECTOR('',#905,10.);
#261=VECTOR('',#908,10.);
#262=VECTOR('',#909,10.);
#263=VECTOR('',#910,10.);
#264=VECTOR('',#913,10.);
#265=VECTOR('',#914,10.);
#266=VECTOR('',#915,10.);
#267=VECTOR('',#918,10.);
#268=VECTOR('',#919,10.);
#269=VECTOR('',#922,10.);
#270=VECTOR('',#923,10.);
#271=VECTOR('',#924,10.);
#272=VECTOR('',#925,10.);
#273=VECTOR('',#928,10.);
#274=VECTOR('',#929,10.);
#275=VECTOR('',#930,10.);
#276=VECTOR('',#933,10.);
#277=VECTOR('',#934,10.);
#278=VECTOR('',#935,10.);
#279=VECTOR('',#938,10.);
#280=VECTOR('',#939,10.);
#281=VECTOR('',#942,10.);
#282=VECTOR('',#943,10.);
#283=VECTOR('',#944,10.);
#284=VECTOR('',#945,10.);
#285=VECTOR('',#948,10.);
#286=VECTOR('',#949,10.);
#287=VECTOR('',#950,10.);
#288=VECTOR('',#953,10.);
#289=VECTOR('',#954,10.);
#290=VECTOR('',#955,10.);
#291=VECTOR('',#958,10.);
#292=VECTOR('',#959,10.);
#293=VECTOR('',#968,1.5);
#294=VECTOR('',#979,1.5);
#295=VECTOR('',#990,1.5);
#296=VECTOR('',#995,10.);
#297=VECTOR('',#996,10.);
#298=VECTOR('',#997,10.);
#299=VECTOR('',#998,10.);
#300=VECTOR('',#999,10.);
#301=VECTOR('',#1000,10.);
#302=VECTOR('',#1001,10.);
#303=VECTOR('',#1004,10.);
#304=VECTOR('',#1005,10.);
#305=VECTOR('',#1006,10.);
#306=VECTOR('',#1007,10.);
#307=VECTOR('',#1010,10.);
#308=VECTOR('',#1011,10.);
#309=VECTOR('',#1014,10.);
#310=VECTOR('',#1015,10.);
#311=VECTOR('',#1016,10.);
#312=VECTOR('',#1019,10.);
#313=VECTOR('',#1020,10.);
#314=VECTOR('',#1021,10.);
#315=VECTOR('',#1024,10.);
#316=VECTOR('',#1025,10.);
#317=VECTOR('',#1028,10.);
#318=VECTOR('',#1029,10.);
#319=VECTOR('',#1032,10.);
#320=CIRCLE('',#776,1.49999999999999);
#321=CIRCLE('',#777,1.49999999999999);
#322=CIRCLE('',#779,1.49999999999999);
#323=CIRCLE('',#780,1.49999999999999);
#324=CIRCLE('',#782,1.49999999999999);
#325=CIRCLE('',#783,1.49999999999999);
#326=CIRCLE('',#785,1.49999999999999);
#327=CIRCLE('',#786,1.49999999999999);
#328=CIRCLE('',#788,1.49999999999999);
#329=CIRCLE('',#789,1.49999999999999);
#330=CIRCLE('',#791,1.49999999999999);
#331=CIRCLE('',#792,1.49999999999999);
#332=CIRCLE('',#810,1.5);
#333=CIRCLE('',#811,1.5);
#334=CIRCLE('',#812,1.5);
#335=CIRCLE('',#813,1.5);
#336=CIRCLE('',#815,1.5);
#337=CIRCLE('',#816,1.5);
#338=CIRCLE('',#817,1.5);
#339=CIRCLE('',#818,1.5);
#340=CIRCLE('',#820,1.5);
#341=CIRCLE('',#821,1.5);
#342=CIRCLE('',#822,1.5);
#343=CIRCLE('',#823,1.5);
#344=VERTEX_POINT('',#1040);
#345=VERTEX_POINT('',#1042);
#346=VERTEX_POINT('',#1046);
#347=VERTEX_POINT('',#1048);
#348=VERTEX_POINT('',#1052);
#349=VERTEX_POINT('',#1054);
#350=VERTEX_POINT('',#1058);
#351=VERTEX_POINT('',#1060);
#352=VERTEX_POINT('',#1064);
#353=VERTEX_POINT('',#1066);
#354=VERTEX_POINT('',#1070);
#355=VERTEX_POINT('',#1072);
#356=VERTEX_POINT('',#1076);
#357=VERTEX_POINT('',#1077);
#358=VERTEX_POINT('',#1079);
#359=VERTEX_POINT('',#1081);
#360=VERTEX_POINT('',#1085);
#361=VERTEX_POINT('',#1087);
#362=VERTEX_POINT('',#1091);
#363=VERTEX_POINT('',#1093);
#364=VERTEX_POINT('',#1100);
#365=VERTEX_POINT('',#1101);
#366=VERTEX_POINT('',#1103);
#367=VERTEX_POINT('',#1105);
#368=VERTEX_POINT('',#1109);
#369=VERTEX_POINT('',#1111);
#370=VERTEX_POINT('',#1115);
#371=VERTEX_POINT('',#1117);
#372=VERTEX_POINT('',#1124);
#373=VERTEX_POINT('',#1125);
#374=VERTEX_POINT('',#1127);
#375=VERTEX_POINT('',#1129);
#376=VERTEX_POINT('',#1133);
#377=VERTEX_POINT('',#1135);
#378=VERTEX_POINT('',#1139);
#379=VERTEX_POINT('',#1141);
#380=VERTEX_POINT('',#1148);
#381=VERTEX_POINT('',#1149);
#382=VERTEX_POINT('',#1151);
#383=VERTEX_POINT('',#1153);
#384=VERTEX_POINT('',#1157);
#385=VERTEX_POINT('',#1159);
#386=VERTEX_POINT('',#1163);
#387=VERTEX_POINT('',#1165);
#388=VERTEX_POINT('',#1172);
#389=VERTEX_POINT('',#1173);
#390=VERTEX_POINT('',#1175);
#391=VERTEX_POINT('',#1178);
#392=VERTEX_POINT('',#1182);
#393=VERTEX_POINT('',#1183);
#394=VERTEX_POINT('',#1185);
#395=VERTEX_POINT('',#1188);
#396=VERTEX_POINT('',#1192);
#397=VERTEX_POINT('',#1193);
#398=VERTEX_POINT('',#1195);
#399=VERTEX_POINT('',#1198);
#400=VERTEX_POINT('',#1202);
#401=VERTEX_POINT('',#1204);
#402=VERTEX_POINT('',#1206);
#403=VERTEX_POINT('',#1208);
#404=VERTEX_POINT('',#1214);
#405=VERTEX_POINT('',#1215);
#406=VERTEX_POINT('',#1217);
#407=VERTEX_POINT('',#1219);
#408=VERTEX_POINT('',#1226);
#409=VERTEX_POINT('',#1228);
#410=VERTEX_POINT('',#1232);
#411=VERTEX_POINT('',#1234);
#412=VERTEX_POINT('',#1238);
#413=VERTEX_POINT('',#1242);
#414=EDGE_CURVE('',#344,#344,#320,.T.);
#415=EDGE_CURVE('',#344,#345,#158,.T.);
#416=EDGE_CURVE('',#345,#345,#321,.T.);
#417=EDGE_CURVE('',#346,#346,#322,.T.);
#418=EDGE_CURVE('',#346,#347,#159,.T.);
#419=EDGE_CURVE('',#347,#347,#323,.T.);
#420=EDGE_CURVE('',#348,#348,#324,.T.);
#421=EDGE_CURVE('',#348,#349,#160,.T.);
#422=EDGE_CURVE('',#349,#349,#325,.T.);
#423=EDGE_CURVE('',#350,#350,#326,.T.);
#424=EDGE_CURVE('',#350,#351,#161,.T.);
#425=EDGE_CURVE('',#351,#351,#327,.T.);
#426=EDGE_CURVE('',#352,#352,#328,.T.);
#427=EDGE_CURVE('',#352,#353,#162,.T.);
#428=EDGE_CURVE('',#353,#353,#329,.T.);
#429=EDGE_CURVE('',#354,#354,#330,.T.);
#430=EDGE_CURVE('',#354,#355,#163,.T.);
#431=EDGE_CURVE('',#355,#355,#331,.T.);
#432=EDGE_CURVE('',#356,#357,#164,.T.);
#433=EDGE_CURVE('',#356,#358,#165,.T.);
#434=EDGE_CURVE('',#359,#358,#166,.T.);
#435=EDGE_CURVE('',#357,#359,#167,.T.);
#436=EDGE_CURVE('',#360,#356,#168,.T.);
#437=EDGE_CURVE('',#360,#361,#169,.T.);
#438=EDGE_CURVE('',#358,#361,#170,.T.);
#439=EDGE_CURVE('',#362,#360,#171,.T.);
#440=EDGE_CURVE('',#362,#363,#172,.T.);
#441=EDGE_CURVE('',#361,#363,#173,.T.);
#442=EDGE_CURVE('',#357,#362,#174,.T.);
#443=EDGE_CURVE('',#363,#359,#175,.T.);
#444=EDGE_CURVE('',#364,#365,#176,.T.);
#445=EDGE_CURVE('',#364,#366,#177,.T.);
#446=EDGE_CURVE('',#367,#366,#178,.T.);
#447=EDGE_CURVE('',#365,#367,#179,.T.);
#448=EDGE_CURVE('',#368,#364,#180,.T.);
#449=EDGE_CURVE('',#368,#369,#181,.T.);
#450=EDGE_CURVE('',#366,#369,#182,.T.);
#451=EDGE_CURVE('',#370,#368,#183,.T.);
#452=EDGE_CURVE('',#370,#371,#184,.T.);
#453=EDGE_CURVE('',#369,#371,#185,.T.);
#454=EDGE_CURVE('',#365,#370,#186,.T.);
#455=EDGE_CURVE('',#371,#367,#187,.T.);
#456=EDGE_CURVE('',#372,#373,#188,.T.);
#457=EDGE_CURVE('',#372,#374,#189,.T.);
#458=EDGE_CURVE('',#375,#374,#190,.T.);
#459=EDGE_CURVE('',#373,#375,#191,.T.);
#460=EDGE_CURVE('',#376,#372,#192,.T.);
#461=EDGE_CURVE('',#376,#377,#193,.T.);
#462=EDGE_CURVE('',#374,#377,#194,.T.);
#463=EDGE_CURVE('',#378,#376,#195,.T.);
#464=EDGE_CURVE('',#378,#379,#196,.T.);
#465=EDGE_CURVE('',#377,#379,#197,.T.);
#466=EDGE_CURVE('',#373,#378,#198,.T.);
#467=EDGE_CURVE('',#379,#375,#199,.T.);
#468=EDGE_CURVE('',#380,#381,#200,.T.);
#469=EDGE_CURVE('',#380,#382,#201,.T.);
#470=EDGE_CURVE('',#383,#382,#202,.T.);
#471=EDGE_CURVE('',#381,#383,#203,.T.);
#472=EDGE_CURVE('',#384,#380,#204,.T.);
#473=EDGE_CURVE('',#384,#385,#205,.T.);
#474=EDGE_CURVE('',#382,#385,#206,.T.);
#475=EDGE_CURVE('',#386,#384,#207,.T.);
#476=EDGE_CURVE('',#386,#387,#208,.T.);
#477=EDGE_CURVE('',#385,#387,#209,.T.);
#478=EDGE_CURVE('',#381,#386,#210,.T.);
#479=EDGE_CURVE('',#387,#383,#211,.T.);
#480=EDGE_CURVE('',#388,#389,#332,.T.);
#481=EDGE_CURVE('',#390,#388,#333,.T.);
#482=EDGE_CURVE('',#389,#390,#334,.T.);
#483=EDGE_CURVE('',#389,#391,#212,.T.);
#484=EDGE_CURVE('',#391,#391,#335,.T.);
#485=EDGE_CURVE('',#392,#393,#336,.T.);
#486=EDGE_CURVE('',#394,#392,#337,.T.);
#487=EDGE_CURVE('',#393,#394,#338,.T.);
#488=EDGE_CURVE('',#393,#395,#213,.T.);
#489=EDGE_CURVE('',#395,#395,#339,.T.);
#490=EDGE_CURVE('',#396,#397,#340,.T.);
#491=EDGE_CURVE('',#398,#396,#341,.T.);
#492=EDGE_CURVE('',#397,#398,#342,.T.);
#493=EDGE_CURVE('',#397,#399,#214,.T.);
#494=EDGE_CURVE('',#399,#399,#343,.T.);
#495=EDGE_CURVE('',#390,#400,#215,.T.);
#496=EDGE_CURVE('',#401,#400,#216,.T.);
#497=EDGE_CURVE('',#402,#401,#217,.T.);
#498=EDGE_CURVE('',#403,#402,#218,.T.);
#499=EDGE_CURVE('',#403,#396,#219,.T.);
#500=EDGE_CURVE('',#398,#392,#220,.T.);
#501=EDGE_CURVE('',#394,#388,#221,.T.);
#502=EDGE_CURVE('',#404,#405,#222,.T.);
#503=EDGE_CURVE('',#404,#406,#223,.T.);
#504=EDGE_CURVE('',#407,#406,#224,.T.);
#505=EDGE_CURVE('',#405,#407,#225,.T.);
#506=EDGE_CURVE('',#403,#405,#226,.T.);
#507=EDGE_CURVE('',#400,#407,#227,.T.);
#508=EDGE_CURVE('',#408,#404,#228,.T.);
#509=EDGE_CURVE('',#408,#409,#229,.T.);
#510=EDGE_CURVE('',#406,#409,#230,.T.);
#511=EDGE_CURVE('',#410,#408,#231,.T.);
#512=EDGE_CURVE('',#411,#410,#232,.T.);
#513=EDGE_CURVE('',#409,#411,#233,.T.);
#514=EDGE_CURVE('',#402,#412,#234,.T.);
#515=EDGE_CURVE('',#412,#410,#235,.T.);
#516=EDGE_CURVE('',#411,#413,#236,.T.);
#517=EDGE_CURVE('',#413,#401,#237,.T.);
#518=EDGE_CURVE('',#412,#413,#238,.T.);
#519=ORIENTED_EDGE('',*,*,#414,.F.);
#520=ORIENTED_EDGE('',*,*,#415,.T.);
#521=ORIENTED_EDGE('',*,*,#416,.F.);
#522=ORIENTED_EDGE('',*,*,#415,.F.);
#523=ORIENTED_EDGE('',*,*,#417,.F.);
#524=ORIENTED_EDGE('',*,*,#418,.T.);
#525=ORIENTED_EDGE('',*,*,#419,.F.);
#526=ORIENTED_EDGE('',*,*,#418,.F.);
#527=ORIENTED_EDGE('',*,*,#420,.F.);
#528=ORIENTED_EDGE('',*,*,#421,.T.);
#529=ORIENTED_EDGE('',*,*,#422,.F.);
#530=ORIENTED_EDGE('',*,*,#421,.F.);
#531=ORIENTED_EDGE('',*,*,#423,.F.);
#532=ORIENTED_EDGE('',*,*,#424,.T.);
#533=ORIENTED_EDGE('',*,*,#425,.F.);
#534=ORIENTED_EDGE('',*,*,#424,.F.);
#535=ORIENTED_EDGE('',*,*,#426,.F.);
#536=ORIENTED_EDGE('',*,*,#427,.T.);
#537=ORIENTED_EDGE('',*,*,#428,.F.);
#538=ORIENTED_EDGE('',*,*,#427,.F.);
#539=ORIENTED_EDGE('',*,*,#429,.F.);
#540=ORIENTED_EDGE('',*,*,#430,.T.);
#541=ORIENTED_EDGE('',*,*,#431,.F.);
#542=ORIENTED_EDGE('',*,*,#430,.F.);
#543=ORIENTED_EDGE('',*,*,#432,.F.);
#544=ORIENTED_EDGE('',*,*,#433,.T.);
#545=ORIENTED_EDGE('',*,*,#434,.F.);
#546=ORIENTED_EDGE('',*,*,#435,.F.);
#547=ORIENTED_EDGE('',*,*,#436,.F.);
#548=ORIENTED_EDGE('',*,*,#437,.T.);
#549=ORIENTED_EDGE('',*,*,#438,.F.);
#550=ORIENTED_EDGE('',*,*,#433,.F.);
#551=ORIENTED_EDGE('',*,*,#439,.F.);
#552=ORIENTED_EDGE('',*,*,#440,.T.);
#553=ORIENTED_EDGE('',*,*,#441,.F.);
#554=ORIENTED_EDGE('',*,*,#437,.F.);
#555=ORIENTED_EDGE('',*,*,#442,.F.);
#556=ORIENTED_EDGE('',*,*,#435,.T.);
#557=ORIENTED_EDGE('',*,*,#443,.F.);
#558=ORIENTED_EDGE('',*,*,#440,.F.);
#559=ORIENTED_EDGE('',*,*,#444,.F.);
#560=ORIENTED_EDGE('',*,*,#445,.T.);
#561=ORIENTED_EDGE('',*,*,#446,.F.);
#562=ORIENTED_EDGE('',*,*,#447,.F.);
#563=ORIENTED_EDGE('',*,*,#448,.F.);
#564=ORIENTED_EDGE('',*,*,#449,.T.);
#565=ORIENTED_EDGE('',*,*,#450,.F.);
#566=ORIENTED_EDGE('',*,*,#445,.F.);
#567=ORIENTED_EDGE('',*,*,#451,.F.);
#568=ORIENTED_EDGE('',*,*,#452,.T.);
#569=ORIENTED_EDGE('',*,*,#453,.F.);
#570=ORIENTED_EDGE('',*,*,#449,.F.);
#571=ORIENTED_EDGE('',*,*,#454,.F.);
#572=ORIENTED_EDGE('',*,*,#447,.T.);
#573=ORIENTED_EDGE('',*,*,#455,.F.);
#574=ORIENTED_EDGE('',*,*,#452,.F.);
#575=ORIENTED_EDGE('',*,*,#456,.F.);
#576=ORIENTED_EDGE('',*,*,#457,.T.);
#577=ORIENTED_EDGE('',*,*,#458,.F.);
#578=ORIENTED_EDGE('',*,*,#459,.F.);
#579=ORIENTED_EDGE('',*,*,#460,.F.);
#580=ORIENTED_EDGE('',*,*,#461,.T.);
#581=ORIENTED_EDGE('',*,*,#462,.F.);
#582=ORIENTED_EDGE('',*,*,#457,.F.);
#583=ORIENTED_EDGE('',*,*,#463,.F.);
#584=ORIENTED_EDGE('',*,*,#464,.T.);
#585=ORIENTED_EDGE('',*,*,#465,.F.);
#586=ORIENTED_EDGE('',*,*,#461,.F.);
#587=ORIENTED_EDGE('',*,*,#466,.F.);
#588=ORIENTED_EDGE('',*,*,#459,.T.);
#589=ORIENTED_EDGE('',*,*,#467,.F.);
#590=ORIENTED_EDGE('',*,*,#464,.F.);
#591=ORIENTED_EDGE('',*,*,#468,.F.);
#592=ORIENTED_EDGE('',*,*,#469,.T.);
#593=ORIENTED_EDGE('',*,*,#470,.F.);
#594=ORIENTED_EDGE('',*,*,#471,.F.);
#595=ORIENTED_EDGE('',*,*,#472,.F.);
#596=ORIENTED_EDGE('',*,*,#473,.T.);
#597=ORIENTED_EDGE('',*,*,#474,.F.);
#598=ORIENTED_EDGE('',*,*,#469,.F.);
#599=ORIENTED_EDGE('',*,*,#475,.F.);
#600=ORIENTED_EDGE('',*,*,#476,.T.);
#601=ORIENTED_EDGE('',*,*,#477,.F.);
#602=ORIENTED_EDGE('',*,*,#473,.F.);
#603=ORIENTED_EDGE('',*,*,#478,.F.);
#604=ORIENTED_EDGE('',*,*,#471,.T.);
#605=ORIENTED_EDGE('',*,*,#479,.F.);
#606=ORIENTED_EDGE('',*,*,#476,.F.);
#607=ORIENTED_EDGE('',*,*,#480,.F.);
#608=ORIENTED_EDGE('',*,*,#481,.F.);
#609=ORIENTED_EDGE('',*,*,#482,.F.);
#610=ORIENTED_EDGE('',*,*,#483,.T.);
#611=ORIENTED_EDGE('',*,*,#484,.F.);
#612=ORIENTED_EDGE('',*,*,#483,.F.);
#613=ORIENTED_EDGE('',*,*,#485,.F.);
#614=ORIENTED_EDGE('',*,*,#486,.F.);
#615=ORIENTED_EDGE('',*,*,#487,.F.);
#616=ORIENTED_EDGE('',*,*,#488,.T.);
#617=ORIENTED_EDGE('',*,*,#489,.F.);
#618=ORIENTED_EDGE('',*,*,#488,.F.);
#619=ORIENTED_EDGE('',*,*,#490,.F.);
#620=ORIENTED_EDGE('',*,*,#491,.F.);
#621=ORIENTED_EDGE('',*,*,#492,.F.);
#622=ORIENTED_EDGE('',*,*,#493,.T.);
#623=ORIENTED_EDGE('',*,*,#494,.F.);
#624=ORIENTED_EDGE('',*,*,#493,.F.);
#625=ORIENTED_EDGE('',*,*,#480,.T.);
#626=ORIENTED_EDGE('',*,*,#482,.T.);
#627=ORIENTED_EDGE('',*,*,#495,.T.);
#628=ORIENTED_EDGE('',*,*,#496,.F.);
#629=ORIENTED_EDGE('',*,*,#497,.F.);
#630=ORIENTED_EDGE('',*,*,#498,.F.);
#631=ORIENTED_EDGE('',*,*,#499,.T.);
#632=ORIENTED_EDGE('',*,*,#490,.T.);
#633=ORIENTED_EDGE('',*,*,#492,.T.);
#634=ORIENTED_EDGE('',*,*,#500,.T.);
#635=ORIENTED_EDGE('',*,*,#485,.T.);
#636=ORIENTED_EDGE('',*,*,#487,.T.);
#637=ORIENTED_EDGE('',*,*,#501,.T.);
#638=ORIENTED_EDGE('',*,*,#470,.T.);
#639=ORIENTED_EDGE('',*,*,#474,.T.);
#640=ORIENTED_EDGE('',*,*,#477,.T.);
#641=ORIENTED_EDGE('',*,*,#479,.T.);
#642=ORIENTED_EDGE('',*,*,#458,.T.);
#643=ORIENTED_EDGE('',*,*,#462,.T.);
#644=ORIENTED_EDGE('',*,*,#465,.T.);
#645=ORIENTED_EDGE('',*,*,#467,.T.);
#646=ORIENTED_EDGE('',*,*,#446,.T.);
#647=ORIENTED_EDGE('',*,*,#450,.T.);
#648=ORIENTED_EDGE('',*,*,#453,.T.);
#649=ORIENTED_EDGE('',*,*,#455,.T.);
#650=ORIENTED_EDGE('',*,*,#434,.T.);
#651=ORIENTED_EDGE('',*,*,#438,.T.);
#652=ORIENTED_EDGE('',*,*,#441,.T.);
#653=ORIENTED_EDGE('',*,*,#443,.T.);
#654=ORIENTED_EDGE('',*,*,#431,.T.);
#655=ORIENTED_EDGE('',*,*,#428,.T.);
#656=ORIENTED_EDGE('',*,*,#425,.T.);
#657=ORIENTED_EDGE('',*,*,#422,.T.);
#658=ORIENTED_EDGE('',*,*,#419,.T.);
#659=ORIENTED_EDGE('',*,*,#416,.T.);
#660=ORIENTED_EDGE('',*,*,#502,.F.);
#661=ORIENTED_EDGE('',*,*,#503,.T.);
#662=ORIENTED_EDGE('',*,*,#504,.F.);
#663=ORIENTED_EDGE('',*,*,#505,.F.);
#664=ORIENTED_EDGE('',*,*,#481,.T.);
#665=ORIENTED_EDGE('',*,*,#501,.F.);
#666=ORIENTED_EDGE('',*,*,#486,.T.);
#667=ORIENTED_EDGE('',*,*,#500,.F.);
#668=ORIENTED_EDGE('',*,*,#491,.T.);
#669=ORIENTED_EDGE('',*,*,#499,.F.);
#670=ORIENTED_EDGE('',*,*,#506,.T.);
#671=ORIENTED_EDGE('',*,*,#505,.T.);
#672=ORIENTED_EDGE('',*,*,#507,.F.);
#673=ORIENTED_EDGE('',*,*,#495,.F.);
#674=ORIENTED_EDGE('',*,*,#508,.F.);
#675=ORIENTED_EDGE('',*,*,#509,.T.);
#676=ORIENTED_EDGE('',*,*,#510,.F.);
#677=ORIENTED_EDGE('',*,*,#503,.F.);
#678=ORIENTED_EDGE('',*,*,#484,.T.);
#679=ORIENTED_EDGE('',*,*,#489,.T.);
#680=ORIENTED_EDGE('',*,*,#494,.T.);
#681=ORIENTED_EDGE('',*,*,#511,.F.);
#682=ORIENTED_EDGE('',*,*,#512,.F.);
#683=ORIENTED_EDGE('',*,*,#513,.F.);
#684=ORIENTED_EDGE('',*,*,#509,.F.);
#685=ORIENTED_EDGE('',*,*,#511,.T.);
#686=ORIENTED_EDGE('',*,*,#508,.T.);
#687=ORIENTED_EDGE('',*,*,#502,.T.);
#688=ORIENTED_EDGE('',*,*,#506,.F.);
#689=ORIENTED_EDGE('',*,*,#498,.T.);
#690=ORIENTED_EDGE('',*,*,#514,.T.);
#691=ORIENTED_EDGE('',*,*,#515,.T.);
#692=ORIENTED_EDGE('',*,*,#513,.T.);
#693=ORIENTED_EDGE('',*,*,#516,.T.);
#694=ORIENTED_EDGE('',*,*,#517,.T.);
#695=ORIENTED_EDGE('',*,*,#496,.T.);
#696=ORIENTED_EDGE('',*,*,#507,.T.);
#697=ORIENTED_EDGE('',*,*,#504,.T.);
#698=ORIENTED_EDGE('',*,*,#510,.T.);
#699=ORIENTED_EDGE('',*,*,#512,.T.);
#700=ORIENTED_EDGE('',*,*,#515,.F.);
#701=ORIENTED_EDGE('',*,*,#518,.T.);
#702=ORIENTED_EDGE('',*,*,#516,.F.);
#703=ORIENTED_EDGE('',*,*,#468,.T.);
#704=ORIENTED_EDGE('',*,*,#478,.T.);
#705=ORIENTED_EDGE('',*,*,#475,.T.);
#706=ORIENTED_EDGE('',*,*,#472,.T.);
#707=ORIENTED_EDGE('',*,*,#456,.T.);
#708=ORIENTED_EDGE('',*,*,#466,.T.);
#709=ORIENTED_EDGE('',*,*,#463,.T.);
#710=ORIENTED_EDGE('',*,*,#460,.T.);
#711=ORIENTED_EDGE('',*,*,#444,.T.);
#712=ORIENTED_EDGE('',*,*,#454,.T.);
#713=ORIENTED_EDGE('',*,*,#451,.T.);
#714=ORIENTED_EDGE('',*,*,#448,.T.);
#715=ORIENTED_EDGE('',*,*,#432,.T.);
#716=ORIENTED_EDGE('',*,*,#442,.T.);
#717=ORIENTED_EDGE('',*,*,#439,.T.);
#718=ORIENTED_EDGE('',*,*,#436,.T.);
#719=ORIENTED_EDGE('',*,*,#429,.T.);
#720=ORIENTED_EDGE('',*,*,#426,.T.);
#721=ORIENTED_EDGE('',*,*,#423,.T.);
#722=ORIENTED_EDGE('',*,*,#420,.T.);
#723=ORIENTED_EDGE('',*,*,#417,.T.);
#724=ORIENTED_EDGE('',*,*,#414,.T.);
#725=ORIENTED_EDGE('',*,*,#514,.F.);
#726=ORIENTED_EDGE('',*,*,#497,.T.);
#727=ORIENTED_EDGE('',*,*,#517,.F.);
#728=ORIENTED_EDGE('',*,*,#518,.F.);
#729=CYLINDRICAL_SURFACE('',#775,1.49999999999999);
#730=CYLINDRICAL_SURFACE('',#778,1.49999999999999);
#731=CYLINDRICAL_SURFACE('',#781,1.49999999999999);
#732=CYLINDRICAL_SURFACE('',#784,1.49999999999999);
#733=CYLINDRICAL_SURFACE('',#787,1.49999999999999);
#734=CYLINDRICAL_SURFACE('',#790,1.49999999999999);
#735=CYLINDRICAL_SURFACE('',#809,1.5);
#736=CYLINDRICAL_SURFACE('',#814,1.5);
#737=CYLINDRICAL_SURFACE('',#819,1.5);
#738=ADVANCED_FACE('',(#67),#729,.F.);
#739=ADVANCED_FACE('',(#68),#730,.F.);
#740=ADVANCED_FACE('',(#69),#731,.F.);
#741=ADVANCED_FACE('',(#70),#732,.F.);
#742=ADVANCED_FACE('',(#71),#733,.F.);
#743=ADVANCED_FACE('',(#72),#734,.F.);
#744=ADVANCED_FACE('',(#73),#42,.F.);
#745=ADVANCED_FACE('',(#74),#43,.F.);
#746=ADVANCED_FACE('',(#75),#44,.F.);
#747=ADVANCED_FACE('',(#76),#45,.F.);
#748=ADVANCED_FACE('',(#77),#46,.F.);
#749=ADVANCED_FACE('',(#78),#47,.F.);
#750=ADVANCED_FACE('',(#79),#48,.F.);
#751=ADVANCED_FACE('',(#80),#49,.F.);
#752=ADVANCED_FACE('',(#81),#50,.F.);
#753=ADVANCED_FACE('',(#82),#51,.F.);
#754=ADVANCED_FACE('',(#83),#52,.F.);
#755=ADVANCED_FACE('',(#84),#53,.F.);
#756=ADVANCED_FACE('',(#85),#54,.F.);
#757=ADVANCED_FACE('',(#86),#55,.F.);
#758=ADVANCED_FACE('',(#87),#56,.F.);
#759=ADVANCED_FACE('',(#88),#57,.F.);
#760=ADVANCED_FACE('',(#89),#735,.F.);
#761=ADVANCED_FACE('',(#90),#736,.F.);
#762=ADVANCED_FACE('',(#91),#737,.F.);
#763=ADVANCED_FACE('',(#92,#19,#20,#21,#22,#23,#24,#25,#26,#27,#28),#58,
 .T.);
#764=ADVANCED_FACE('',(#93),#59,.T.);
#765=ADVANCED_FACE('',(#94),#60,.T.);
#766=ADVANCED_FACE('',(#95,#29,#30,#31),#61,.F.);
#767=ADVANCED_FACE('',(#96),#62,.F.);
#768=ADVANCED_FACE('',(#97),#63,.T.);
#769=ADVANCED_FACE('',(#98),#64,.T.);
#770=ADVANCED_FACE('',(#99,#32,#33,#34,#35,#36,#37,#38,#39,#40,#41),#65,
 .T.);
#771=ADVANCED_FACE('',(#100),#66,.T.);
#772=CLOSED_SHELL('',(#738,#739,#740,#741,#742,#743,#744,#745,#746,#747,
#748,#749,#750,#751,#752,#753,#754,#755,#756,#757,#758,#759,#760,#761,#762,
#763,#764,#765,#766,#767,#768,#769,#770,#771));
#773=AXIS2_PLACEMENT_3D('',#1037,#834,#835);
#774=AXIS2_PLACEMENT_3D('',#1038,#836,#837);
#775=AXIS2_PLACEMENT_3D('',#1039,#838,#839);
#776=AXIS2_PLACEMENT_3D('',#1041,#840,#841);
#777=AXIS2_PLACEMENT_3D('',#1044,#843,#844);
#778=AXIS2_PLACEMENT_3D('',#1045,#845,#846);
#779=AXIS2_PLACEMENT_3D('',#1047,#847,#848);
#780=AXIS2_PLACEMENT_3D('',#1050,#850,#851);
#781=AXIS2_PLACEMENT_3D('',#1051,#852,#853);
#782=AXIS2_PLACEMENT_3D('',#1053,#854,#855);
#783=AXIS2_PLACEMENT_3D('',#1056,#857,#858);
#784=AXIS2_PLACEMENT_3D('',#1057,#859,#860);
#785=AXIS2_PLACEMENT_3D('',#1059,#861,#862);
#786=AXIS2_PLACEMENT_3D('',#1062,#864,#865);
#787=AXIS2_PLACEMENT_3D('',#1063,#866,#867);
#788=AXIS2_PLACEMENT_3D('',#1065,#868,#869);
#789=AXIS2_PLACEMENT_3D('',#1068,#871,#872);
#790=AXIS2_PLACEMENT_3D('',#1069,#873,#874);
#791=AXIS2_PLACEMENT_3D('',#1071,#875,#876);
#792=AXIS2_PLACEMENT_3D('',#1074,#878,#879);
#793=AXIS2_PLACEMENT_3D('',#1075,#880,#881);
#794=AXIS2_PLACEMENT_3D('',#1084,#886,#887);
#795=AXIS2_PLACEMENT_3D('',#1090,#891,#892);
#796=AXIS2_PLACEMENT_3D('',#1096,#896,#897);
#797=AXIS2_PLACEMENT_3D('',#1099,#900,#901);
#798=AXIS2_PLACEMENT_3D('',#1108,#906,#907);
#799=AXIS2_PLACEMENT_3D('',#1114,#911,#912);
#800=AXIS2_PLACEMENT_3D('',#1120,#916,#917);
#801=AXIS2_PLACEMENT_3D('',#1123,#920,#921);
#802=AXIS2_PLACEMENT_3D('',#1132,#926,#927);
#803=AXIS2_PLACEMENT_3D('',#1138,#931,#932);
#804=AXIS2_PLACEMENT_3D('',#1144,#936,#937);
#805=AXIS2_PLACEMENT_3D('',#1147,#940,#941);
#806=AXIS2_PLACEMENT_3D('',#1156,#946,#947);
#807=AXIS2_PLACEMENT_3D('',#1162,#951,#952);
#808=AXIS2_PLACEMENT_3D('',#1168,#956,#957);
#809=AXIS2_PLACEMENT_3D('',#1171,#960,#961);
#810=AXIS2_PLACEMENT_3D('',#1174,#962,#963);
#811=AXIS2_PLACEMENT_3D('',#1176,#964,#965);
#812=AXIS2_PLACEMENT_3D('',#1177,#966,#967);
#813=AXIS2_PLACEMENT_3D('',#1180,#969,#970);
#814=AXIS2_PLACEMENT_3D('',#1181,#971,#972);
#815=AXIS2_PLACEMENT_3D('',#1184,#973,#974);
#816=AXIS2_PLACEMENT_3D('',#1186,#975,#976);
#817=AXIS2_PLACEMENT_3D('',#1187,#977,#978);
#818=AXIS2_PLACEMENT_3D('',#1190,#980,#981);
#819=AXIS2_PLACEMENT_3D('',#1191,#982,#983);
#820=AXIS2_PLACEMENT_3D('',#1194,#984,#985);
#821=AXIS2_PLACEMENT_3D('',#1196,#986,#987);
#822=AXIS2_PLACEMENT_3D('',#1197,#988,#989);
#823=AXIS2_PLACEMENT_3D('',#1200,#991,#992);
#824=AXIS2_PLACEMENT_3D('',#1201,#993,#994);
#825=AXIS2_PLACEMENT_3D('',#1213,#1002,#1003);
#826=AXIS2_PLACEMENT_3D('',#1222,#1008,#1009);
#827=AXIS2_PLACEMENT_3D('',#1225,#1012,#1013);
#828=AXIS2_PLACEMENT_3D('',#1231,#1017,#1018);
#829=AXIS2_PLACEMENT_3D('',#1237,#1022,#1023);
#830=AXIS2_PLACEMENT_3D('',#1241,#1026,#1027);
#831=AXIS2_PLACEMENT_3D('',#1245,#1030,#1031);
#832=AXIS2_PLACEMENT_3D('',#1247,#1033,#1034);
#833=AXIS2_PLACEMENT_3D('',#1248,#1035,#1036);
#834=DIRECTION('axis',(0.,0.,1.));
#835=DIRECTION('refdir',(1.,0.,0.));
#836=DIRECTION('axis',(0.,0.,1.));
#837=DIRECTION('refdir',(1.,0.,0.));
#838=DIRECTION('center_axis',(0.,0.,1.));
#839=DIRECTION('ref_axis',(-1.,0.,0.));
#840=DIRECTION('center_axis',(0.,0.,1.));
#841=DIRECTION('ref_axis',(-1.,0.,0.));
#842=DIRECTION('',(0.,0.,1.));
#843=DIRECTION('center_axis',(0.,0.,-1.));
#844=DIRECTION('ref_axis',(-1.,0.,0.));
#845=DIRECTION('center_axis',(0.,0.,1.));
#846=DIRECTION('ref_axis',(-1.,0.,0.));
#847=DIRECTION('center_axis',(0.,0.,1.));
#848=DIRECTION('ref_axis',(-1.,0.,0.));
#849=DIRECTION('',(0.,0.,1.));
#850=DIRECTION('center_axis',(0.,0.,-1.));
#851=DIRECTION('ref_axis',(-1.,0.,0.));
#852=DIRECTION('center_axis',(0.,0.,1.));
#853=DIRECTION('ref_axis',(-1.,0.,0.));
#854=DIRECTION('center_axis',(0.,0.,1.));
#855=DIRECTION('ref_axis',(-1.,0.,0.));
#856=DIRECTION('',(0.,0.,1.));
#857=DIRECTION('center_axis',(0.,0.,-1.));
#858=DIRECTION('ref_axis',(-1.,0.,0.));
#859=DIRECTION('center_axis',(0.,0.,1.));
#860=DIRECTION('ref_axis',(-1.,0.,0.));
#861=DIRECTION('center_axis',(0.,0.,1.));
#862=DIRECTION('ref_axis',(-1.,0.,0.));
#863=DIRECTION('',(0.,0.,1.));
#864=DIRECTION('center_axis',(0.,0.,-1.));
#865=DIRECTION('ref_axis',(-1.,0.,0.));
#866=DIRECTION('center_axis',(0.,0.,1.));
#867=DIRECTION('ref_axis',(-1.,0.,0.));
#868=DIRECTION('center_axis',(0.,0.,1.));
#869=DIRECTION('ref_axis',(-1.,0.,0.));
#870=DIRECTION('',(0.,0.,1.));
#871=DIRECTION('center_axis',(0.,0.,-1.));
#872=DIRECTION('ref_axis',(-1.,0.,0.));
#873=DIRECTION('center_axis',(0.,0.,1.));
#874=DIRECTION('ref_axis',(-1.,0.,0.));
#875=DIRECTION('center_axis',(0.,0.,1.));
#876=DIRECTION('ref_axis',(-1.,0.,0.));
#877=DIRECTION('',(0.,0.,1.));
#878=DIRECTION('center_axis',(0.,0.,-1.));
#879=DIRECTION('ref_axis',(-1.,0.,0.));
#880=DIRECTION('center_axis',(0.,1.,0.));
#881=DIRECTION('ref_axis',(-1.,0.,0.));
#882=DIRECTION('',(-1.,0.,0.));
#883=DIRECTION('',(0.,0.,1.));
#884=DIRECTION('',(1.,0.,0.));
#885=DIRECTION('',(0.,0.,1.));
#886=DIRECTION('center_axis',(1.,0.,0.));
#887=DIRECTION('ref_axis',(0.,1.,0.));
#888=DIRECTION('',(0.,1.,0.));
#889=DIRECTION('',(0.,0.,1.));
#890=DIRECTION('',(0.,-1.,0.));
#891=DIRECTION('center_axis',(0.,-1.,0.));
#892=DIRECTION('ref_axis',(1.,0.,0.));
#893=DIRECTION('',(1.,0.,0.));
#894=DIRECTION('',(0.,0.,1.));
#895=DIRECTION('',(-1.,0.,0.));
#896=DIRECTION('center_axis',(-1.,0.,0.));
#897=DIRECTION('ref_axis',(0.,-1.,0.));
#898=DIRECTION('',(0.,-1.,0.));
#899=DIRECTION('',(0.,1.,0.));
#900=DIRECTION('center_axis',(0.,-1.,0.));
#901=DIRECTION('ref_axis',(1.,0.,0.));
#902=DIRECTION('',(1.,0.,0.));
#903=DIRECTION('',(0.,0.,1.));
#904=DIRECTION('',(-1.,0.,0.));
#905=DIRECTION('',(0.,0.,1.));
#906=DIRECTION('center_axis',(-1.,0.,0.));
#907=DIRECTION('ref_axis',(0.,-1.,0.));
#908=DIRECTION('',(0.,-1.,0.));
#909=DIRECTION('',(0.,0.,1.));
#910=DIRECTION('',(0.,1.,0.));
#911=DIRECTION('center_axis',(0.,1.,0.));
#912=DIRECTION('ref_axis',(-1.,0.,0.));
#913=DIRECTION('',(-1.,0.,0.));
#914=DIRECTION('',(0.,0.,1.));
#915=DIRECTION('',(1.,0.,0.));
#916=DIRECTION('center_axis',(1.,0.,0.));
#917=DIRECTION('ref_axis',(0.,1.,0.));
#918=DIRECTION('',(0.,1.,0.));
#919=DIRECTION('',(0.,-1.,0.));
#920=DIRECTION('center_axis',(0.,-1.,0.));
#921=DIRECTION('ref_axis',(1.,0.,0.));
#922=DIRECTION('',(1.,0.,0.));
#923=DIRECTION('',(0.,0.,1.));
#924=DIRECTION('',(-1.,0.,0.));
#925=DIRECTION('',(0.,0.,1.));
#926=DIRECTION('center_axis',(-1.,0.,0.));
#927=DIRECTION('ref_axis',(0.,-1.,0.));
#928=DIRECTION('',(0.,-1.,0.));
#929=DIRECTION('',(0.,0.,1.));
#930=DIRECTION('',(0.,1.,0.));
#931=DIRECTION('center_axis',(0.,1.,0.));
#932=DIRECTION('ref_axis',(-1.,0.,0.));
#933=DIRECTION('',(-1.,0.,0.));
#934=DIRECTION('',(0.,0.,1.));
#935=DIRECTION('',(1.,0.,0.));
#936=DIRECTION('center_axis',(1.,0.,0.));
#937=DIRECTION('ref_axis',(0.,1.,0.));
#938=DIRECTION('',(0.,1.,0.));
#939=DIRECTION('',(0.,-1.,0.));
#940=DIRECTION('center_axis',(7.67279923580629E-16,1.,0.));
#941=DIRECTION('ref_axis',(-1.,7.67279923580629E-16,0.));
#942=DIRECTION('',(-1.,7.67279923580629E-16,0.));
#943=DIRECTION('',(0.,0.,1.));
#944=DIRECTION('',(1.,-7.67279923580629E-16,0.));
#945=DIRECTION('',(0.,0.,1.));
#946=DIRECTION('center_axis',(1.,0.,0.));
#947=DIRECTION('ref_axis',(0.,1.,0.));
#948=DIRECTION('',(0.,1.,0.));
#949=DIRECTION('',(0.,0.,1.));
#950=DIRECTION('',(0.,-1.,0.));
#951=DIRECTION('center_axis',(-7.67279923580629E-16,-1.,0.));
#952=DIRECTION('ref_axis',(1.,-7.67279923580629E-16,0.));
#953=DIRECTION('',(1.,-7.67279923580629E-16,0.));
#954=DIRECTION('',(0.,0.,1.));
#955=DIRECTION('',(-1.,7.67279923580629E-16,0.));
#956=DIRECTION('center_axis',(-1.,0.,0.));
#957=DIRECTION('ref_axis',(0.,-1.,0.));
#958=DIRECTION('',(0.,-1.,0.));
#959=DIRECTION('',(0.,1.,0.));
#960=DIRECTION('center_axis',(0.,0.,-1.));
#961=DIRECTION('ref_axis',(-1.,0.,0.));
#962=DIRECTION('center_axis',(0.,0.,-1.));
#963=DIRECTION('ref_axis',(-1.,0.,0.));
#964=DIRECTION('center_axis',(-3.57627864211452E-9,0.,-1.));
#965=DIRECTION('ref_axis',(-1.,0.,3.57627864211452E-9));
#966=DIRECTION('center_axis',(0.,0.,-1.));
#967=DIRECTION('ref_axis',(-1.,0.,0.));
#968=DIRECTION('',(0.,0.,-1.));
#969=DIRECTION('center_axis',(1.78813932105726E-9,0.,1.));
#970=DIRECTION('ref_axis',(-1.,0.,1.78813932105726E-9));
#971=DIRECTION('center_axis',(0.,0.,-1.));
#972=DIRECTION('ref_axis',(-1.,0.,0.));
#973=DIRECTION('center_axis',(0.,0.,-1.));
#974=DIRECTION('ref_axis',(-1.,0.,0.));
#975=DIRECTION('center_axis',(-3.57627864211452E-9,0.,-1.));
#976=DIRECTION('ref_axis',(-1.,0.,3.57627864211452E-9));
#977=DIRECTION('center_axis',(0.,0.,-1.));
#978=DIRECTION('ref_axis',(-1.,0.,0.));
#979=DIRECTION('',(0.,0.,-1.));
#980=DIRECTION('center_axis',(1.78813932105726E-9,0.,1.));
#981=DIRECTION('ref_axis',(-1.,0.,1.78813932105726E-9));
#982=DIRECTION('center_axis',(0.,0.,-1.));
#983=DIRECTION('ref_axis',(-1.,0.,0.));
#984=DIRECTION('center_axis',(0.,0.,-1.));
#985=DIRECTION('ref_axis',(-1.,0.,0.));
#986=DIRECTION('center_axis',(-3.57627864211452E-9,0.,-1.));
#987=DIRECTION('ref_axis',(-1.,0.,3.57627864211452E-9));
#988=DIRECTION('center_axis',(0.,0.,-1.));
#989=DIRECTION('ref_axis',(-1.,0.,0.));
#990=DIRECTION('',(0.,0.,-1.));
#991=DIRECTION('center_axis',(1.78813932105726E-9,0.,1.));
#992=DIRECTION('ref_axis',(-1.,0.,1.78813932105726E-9));
#993=DIRECTION('center_axis',(0.,0.,1.));
#994=DIRECTION('ref_axis',(-1.,0.,0.));
#995=DIRECTION('',(0.,-1.,0.));
#996=DIRECTION('',(-1.,0.,0.));
#997=DIRECTION('',(0.,-1.,0.));
#998=DIRECTION('',(1.,0.,0.));
#999=DIRECTION('',(0.,-1.,0.));
#1000=DIRECTION('',(0.,-1.,0.));
#1001=DIRECTION('',(0.,-1.,0.));
#1002=DIRECTION('center_axis',(-1.,0.,0.));
#1003=DIRECTION('ref_axis',(0.,0.,-1.));
#1004=DIRECTION('',(0.,0.,1.));
#1005=DIRECTION('',(0.,-1.,0.));
#1006=DIRECTION('',(0.,0.,-1.));
#1007=DIRECTION('',(0.,-1.,0.));
#1008=DIRECTION('center_axis',(3.57627864211452E-9,0.,1.));
#1009=DIRECTION('ref_axis',(-1.,0.,3.57627864211452E-9));
#1010=DIRECTION('',(-1.,0.,3.57627864211452E-9));
#1011=DIRECTION('',(-1.,0.,3.57627864211452E-9));
#1012=DIRECTION('center_axis',(1.78813932105726E-9,0.,1.));
#1013=DIRECTION('ref_axis',(-1.,0.,1.78813932105726E-9));
#1014=DIRECTION('',(-1.,0.,1.78813932105726E-9));
#1015=DIRECTION('',(0.,-1.,0.));
#1016=DIRECTION('',(1.,0.,-1.78813932105726E-9));
#1017=DIRECTION('center_axis',(1.,0.,0.));
#1018=DIRECTION('ref_axis',(0.,0.,1.));
#1019=DIRECTION('',(0.,0.,1.));
#1020=DIRECTION('',(0.,1.,0.));
#1021=DIRECTION('',(0.,0.,-1.));
#1022=DIRECTION('center_axis',(0.,1.,0.));
#1023=DIRECTION('ref_axis',(-1.,0.,0.));
#1024=DIRECTION('',(0.,0.,-1.));
#1025=DIRECTION('',(-1.,0.,0.));
#1026=DIRECTION('center_axis',(0.,-1.,0.));
#1027=DIRECTION('ref_axis',(0.,0.,-1.));
#1028=DIRECTION('',(1.,0.,0.));
#1029=DIRECTION('',(0.,0.,1.));
#1030=DIRECTION('center_axis',(0.,0.,-1.));
#1031=DIRECTION('ref_axis',(1.,0.,0.));
#1032=DIRECTION('',(0.,-1.,0.));
#1033=DIRECTION('center_axis',(1.,0.,0.));
#1034=DIRECTION('ref_axis',(0.,0.,1.));
#1035=DIRECTION('',(0.,0.,1.));
#1036=DIRECTION('',(1.,0.,0.));
#1037=CARTESIAN_POINT('',(0.,0.,0.));
#1038=CARTESIAN_POINT('',(0.,0.,0.));
#1039=CARTESIAN_POINT('Origin',(235.000001639128,-17.5000002607703,-12.));
#1040=CARTESIAN_POINT('',(236.500001639128,-17.5000002607703,0.));
#1041=CARTESIAN_POINT('Origin',(235.000001639128,-17.5000002607703,0.));
#1042=CARTESIAN_POINT('',(236.500001639128,-17.5000002607703,3.));
#1043=CARTESIAN_POINT('',(236.500001639128,-17.5000002607703,-12.));
#1044=CARTESIAN_POINT('Origin',(235.000001639128,-17.5000002607703,3.));
#1045=CARTESIAN_POINT('Origin',(243.000001639128,17.4999997392297,-12.));
#1046=CARTESIAN_POINT('',(244.500001639128,17.4999997392297,0.));
#1047=CARTESIAN_POINT('Origin',(243.000001639128,17.4999997392297,0.));
#1048=CARTESIAN_POINT('',(244.500001639128,17.4999997392297,3.));
#1049=CARTESIAN_POINT('',(244.500001639128,17.4999997392297,-12.));
#1050=CARTESIAN_POINT('Origin',(243.000001639128,17.4999997392297,3.));
#1051=CARTESIAN_POINT('Origin',(227.000001639128,17.4999997392297,-12.));
#1052=CARTESIAN_POINT('',(228.500001639128,17.4999997392297,0.));
#1053=CARTESIAN_POINT('Origin',(227.000001639128,17.4999997392297,0.));
#1054=CARTESIAN_POINT('',(228.500001639128,17.4999997392297,3.));
#1055=CARTESIAN_POINT('',(228.500001639128,17.4999997392297,-12.));
#1056=CARTESIAN_POINT('Origin',(227.000001639128,17.4999997392297,3.));
#1057=CARTESIAN_POINT('Origin',(235.000001639128,17.4999997392297,-12.));
#1058=CARTESIAN_POINT('',(236.500001639128,17.4999997392297,0.));
#1059=CARTESIAN_POINT('Origin',(235.000001639128,17.4999997392297,0.));
#1060=CARTESIAN_POINT('',(236.500001639128,17.4999997392297,3.));
#1061=CARTESIAN_POINT('',(236.500001639128,17.4999997392297,-12.));
#1062=CARTESIAN_POINT('Origin',(235.000001639128,17.4999997392297,3.));
#1063=CARTESIAN_POINT('Origin',(227.000001639128,-17.5000002607703,-12.));
#1064=CARTESIAN_POINT('',(228.500001639128,-17.5000002607703,0.));
#1065=CARTESIAN_POINT('Origin',(227.000001639128,-17.5000002607703,0.));
#1066=CARTESIAN_POINT('',(228.500001639128,-17.5000002607703,3.));
#1067=CARTESIAN_POINT('',(228.500001639128,-17.5000002607703,-12.));
#1068=CARTESIAN_POINT('Origin',(227.000001639128,-17.5000002607703,3.));
#1069=CARTESIAN_POINT('Origin',(243.000001639128,-17.5000002607703,-12.));
#1070=CARTESIAN_POINT('',(244.500001639128,-17.5000002607703,0.));
#1071=CARTESIAN_POINT('Origin',(243.000001639128,-17.5000002607703,0.));
#1072=CARTESIAN_POINT('',(244.500001639128,-17.5000002607703,3.));
#1073=CARTESIAN_POINT('',(244.500001639128,-17.5000002607703,-12.));
#1074=CARTESIAN_POINT('Origin',(243.000001639128,-17.5000002607703,3.));
#1075=CARTESIAN_POINT('Origin',(134.566441451966,30.3999740395355,0.));
#1076=CARTESIAN_POINT('',(134.566441451966,30.3999740395355,0.));
#1077=CARTESIAN_POINT('',(128.778603191092,30.3999740395355,0.));
#1078=CARTESIAN_POINT('',(-57.7167792740167,30.3999740395355,0.));
#1079=CARTESIAN_POINT('',(134.566441451966,30.3999740395355,3.));
#1080=CARTESIAN_POINT('',(134.566441451966,30.3999740395355,0.));
#1081=CARTESIAN_POINT('',(128.778603191092,30.3999740395355,3.));
#1082=CARTESIAN_POINT('',(192.283220725983,30.3999740395355,3.));
#1083=CARTESIAN_POINT('',(128.778603191092,30.3999740395355,0.));
#1084=CARTESIAN_POINT('Origin',(134.566441451966,24.5999740395355,0.));
#1085=CARTESIAN_POINT('',(134.566441451966,24.5999740395355,0.));
#1086=CARTESIAN_POINT('',(134.566441451966,29.7999870197677,0.));
#1087=CARTESIAN_POINT('',(134.566441451966,24.5999740395355,3.));
#1088=CARTESIAN_POINT('',(134.566441451966,24.5999740395355,0.));
#1089=CARTESIAN_POINT('',(134.566441451966,29.7999870197677,3.));
#1090=CARTESIAN_POINT('Origin',(128.778603191092,24.5999740395355,0.));
#1091=CARTESIAN_POINT('',(128.778603191092,24.5999740395355,0.));
#1092=CARTESIAN_POINT('',(-60.6106984044538,24.5999740395355,0.));
#1093=CARTESIAN_POINT('',(128.778603191092,24.5999740395355,3.));
#1094=CARTESIAN_POINT('',(128.778603191092,24.5999740395355,0.));
#1095=CARTESIAN_POINT('',(189.389301595546,24.5999740395355,3.));
#1096=CARTESIAN_POINT('Origin',(128.778603191092,30.3999740395355,0.));
#1097=CARTESIAN_POINT('',(128.778603191092,32.6999870197677,0.));
#1098=CARTESIAN_POINT('',(128.778603191092,32.6999870197677,3.));
#1099=CARTESIAN_POINT('Origin',(194.600217764119,-30.4,0.));
#1100=CARTESIAN_POINT('',(194.600217764119,-30.4,0.));
#1101=CARTESIAN_POINT('',(200.388056024994,-30.4,0.));
#1102=CARTESIAN_POINT('',(-27.6998911179402,-30.4,0.));
#1103=CARTESIAN_POINT('',(194.600217764119,-30.4,3.));
#1104=CARTESIAN_POINT('',(194.600217764119,-30.4,0.));
#1105=CARTESIAN_POINT('',(200.388056024994,-30.4,3.));
#1106=CARTESIAN_POINT('',(222.30010888206,-30.4,3.));
#1107=CARTESIAN_POINT('',(200.388056024994,-30.4,0.));
#1108=CARTESIAN_POINT('Origin',(194.600217764119,-24.6,0.));
#1109=CARTESIAN_POINT('',(194.600217764119,-24.6,0.));
#1110=CARTESIAN_POINT('',(194.600217764119,5.2,0.));
#1111=CARTESIAN_POINT('',(194.600217764119,-24.6,3.));
#1112=CARTESIAN_POINT('',(194.600217764119,-24.6,0.));
#1113=CARTESIAN_POINT('',(194.600217764119,5.2,3.));
#1114=CARTESIAN_POINT('Origin',(200.388056024994,-24.6,0.));
#1115=CARTESIAN_POINT('',(200.388056024994,-24.6,0.));
#1116=CARTESIAN_POINT('',(-24.8059719875031,-24.6,0.));
#1117=CARTESIAN_POINT('',(200.388056024994,-24.6,3.));
#1118=CARTESIAN_POINT('',(200.388056024994,-24.6,0.));
#1119=CARTESIAN_POINT('',(225.194028012497,-24.6,3.));
#1120=CARTESIAN_POINT('Origin',(200.388056024994,-30.4,0.));
#1121=CARTESIAN_POINT('',(200.388056024994,2.3,0.));
#1122=CARTESIAN_POINT('',(200.388056024994,2.3,3.));
#1123=CARTESIAN_POINT('Origin',(128.766884430786,-30.4,0.));
#1124=CARTESIAN_POINT('',(128.766884430786,-30.4,0.));
#1125=CARTESIAN_POINT('',(134.55472269166,-30.4,0.));
#1126=CARTESIAN_POINT('',(-60.6165577846069,-30.4,0.));
#1127=CARTESIAN_POINT('',(128.766884430786,-30.4,3.));
#1128=CARTESIAN_POINT('',(128.766884430786,-30.4,0.));
#1129=CARTESIAN_POINT('',(134.55472269166,-30.4,3.));
#1130=CARTESIAN_POINT('',(189.383442215393,-30.4,3.));
#1131=CARTESIAN_POINT('',(134.55472269166,-30.4,0.));
#1132=CARTESIAN_POINT('Origin',(128.766884430786,-24.6,0.));
#1133=CARTESIAN_POINT('',(128.766884430786,-24.6,0.));
#1134=CARTESIAN_POINT('',(128.766884430786,5.2,0.));
#1135=CARTESIAN_POINT('',(128.766884430786,-24.6,3.));
#1136=CARTESIAN_POINT('',(128.766884430786,-24.6,0.));
#1137=CARTESIAN_POINT('',(128.766884430786,5.2,3.));
#1138=CARTESIAN_POINT('Origin',(134.55472269166,-24.6,0.));
#1139=CARTESIAN_POINT('',(134.55472269166,-24.6,0.));
#1140=CARTESIAN_POINT('',(-57.7226386541697,-24.6,0.));
#1141=CARTESIAN_POINT('',(134.55472269166,-24.6,3.));
#1142=CARTESIAN_POINT('',(134.55472269166,-24.6,0.));
#1143=CARTESIAN_POINT('',(192.27736134583,-24.6,3.));
#1144=CARTESIAN_POINT('Origin',(134.55472269166,-30.4,0.));
#1145=CARTESIAN_POINT('',(134.55472269166,2.3,0.));
#1146=CARTESIAN_POINT('',(134.55472269166,2.3,3.));
#1147=CARTESIAN_POINT('Origin',(200.3997747853,30.3999740395355,0.));
#1148=CARTESIAN_POINT('',(200.3997747853,30.3999740395355,0.));
#1149=CARTESIAN_POINT('',(194.611936524426,30.3999740395355,0.));
#1150=CARTESIAN_POINT('',(-24.80011260735,30.3999740395356,0.));
#1151=CARTESIAN_POINT('',(200.3997747853,30.3999740395355,3.));
#1152=CARTESIAN_POINT('',(200.3997747853,30.3999740395355,0.));
#1153=CARTESIAN_POINT('',(194.611936524426,30.3999740395355,3.));
#1154=CARTESIAN_POINT('',(225.19988739265,30.3999740395355,3.));
#1155=CARTESIAN_POINT('',(194.611936524426,30.3999740395355,0.));
#1156=CARTESIAN_POINT('Origin',(200.3997747853,24.5999740395355,0.));
#1157=CARTESIAN_POINT('',(200.3997747853,24.5999740395355,0.));
#1158=CARTESIAN_POINT('',(200.3997747853,29.7999870197677,0.));
#1159=CARTESIAN_POINT('',(200.3997747853,24.5999740395355,3.));
#1160=CARTESIAN_POINT('',(200.3997747853,24.5999740395355,0.));
#1161=CARTESIAN_POINT('',(200.3997747853,29.7999870197677,3.));
#1162=CARTESIAN_POINT('Origin',(194.611936524426,24.5999740395355,0.));
#1163=CARTESIAN_POINT('',(194.611936524426,24.5999740395355,0.));
#1164=CARTESIAN_POINT('',(-27.6940317377871,24.5999740395357,0.));
#1165=CARTESIAN_POINT('',(194.611936524426,24.5999740395355,3.));
#1166=CARTESIAN_POINT('',(194.611936524426,24.5999740395355,0.));
#1167=CARTESIAN_POINT('',(222.305968262213,24.5999740395355,3.));
#1168=CARTESIAN_POINT('Origin',(194.611936524426,30.3999740395355,0.));
#1169=CARTESIAN_POINT('',(194.611936524426,32.6999870197677,0.));
#1170=CARTESIAN_POINT('',(194.611936524426,32.6999870197677,3.));
#1171=CARTESIAN_POINT('Origin',(83.3485416088669,-20.,3.));
#1172=CARTESIAN_POINT('',(83.3666666666667,-18.5001095099042,3.));
#1173=CARTESIAN_POINT('',(84.8485416088669,-20.,3.00000002629086));
#1174=CARTESIAN_POINT('Origin',(83.3485416088669,-20.,3.));
#1175=CARTESIAN_POINT('',(83.3666666666667,-21.4998904900958,3.));
#1176=CARTESIAN_POINT('Origin',(83.3485416088669,-20.,3.00000002092644));
#1177=CARTESIAN_POINT('Origin',(83.3485416088669,-20.,3.));
#1178=CARTESIAN_POINT('',(84.8485416088669,-20.,1.50000000778101));
#1179=CARTESIAN_POINT('',(84.8485416088669,-20.,3.));
#1180=CARTESIAN_POINT('Origin',(83.3485416088669,-20.,1.50000001046322));
#1181=CARTESIAN_POINT('Origin',(83.3485416088669,0.,3.));
#1182=CARTESIAN_POINT('',(83.3666666666667,1.49989049009578,3.));
#1183=CARTESIAN_POINT('',(84.8485416088669,-1.83697019872103E-16,3.00000002629086));
#1184=CARTESIAN_POINT('Origin',(83.3485416088669,0.,3.));
#1185=CARTESIAN_POINT('',(83.3666666666667,-1.49989049009578,3.));
#1186=CARTESIAN_POINT('Origin',(83.3485416088669,0.,3.00000002092644));
#1187=CARTESIAN_POINT('Origin',(83.3485416088669,0.,3.));
#1188=CARTESIAN_POINT('',(84.8485416088669,1.83697019872103E-16,1.50000000778101));
#1189=CARTESIAN_POINT('',(84.8485416088669,-1.83697019872103E-16,3.));
#1190=CARTESIAN_POINT('Origin',(83.3485416088669,0.,1.50000001046322));
#1191=CARTESIAN_POINT('Origin',(83.3485416088669,20.,3.));
#1192=CARTESIAN_POINT('',(83.3666666666667,21.4998904900958,3.));
#1193=CARTESIAN_POINT('',(84.8485416088669,20.,3.00000002629086));
#1194=CARTESIAN_POINT('Origin',(83.3485416088669,20.,3.));
#1195=CARTESIAN_POINT('',(83.3666666666667,18.5001095099042,3.));
#1196=CARTESIAN_POINT('Origin',(83.3485416088669,20.,3.00000002092644));
#1197=CARTESIAN_POINT('Origin',(83.3485416088669,20.,3.));
#1198=CARTESIAN_POINT('',(84.8485416088669,20.,1.50000000778101));
#1199=CARTESIAN_POINT('',(84.8485416088669,20.,3.));
#1200=CARTESIAN_POINT('Origin',(83.3485416088669,20.,1.50000001046322));
#1201=CARTESIAN_POINT('Origin',(250.,35.,3.));
#1202=CARTESIAN_POINT('',(83.3666666666667,-35.,3.));
#1203=CARTESIAN_POINT('',(83.3666666666667,17.5,3.));
#1204=CARTESIAN_POINT('',(250.,-35.,3.));
#1205=CARTESIAN_POINT('',(-250.,-35.,3.));
#1206=CARTESIAN_POINT('',(250.,35.,3.));
#1207=CARTESIAN_POINT('',(250.,35.,3.));
#1208=CARTESIAN_POINT('',(83.3666666666667,35.,3.));
#1209=CARTESIAN_POINT('',(-250.,35.,3.));
#1210=CARTESIAN_POINT('',(83.3666666666667,17.5,3.));
#1211=CARTESIAN_POINT('',(83.3666666666667,17.5,3.));
#1212=CARTESIAN_POINT('',(83.3666666666667,17.5,3.));
#1213=CARTESIAN_POINT('Origin',(76.6999986588955,35.,3.00000004470348));
#1214=CARTESIAN_POINT('',(76.6999986588955,35.,1.50000002235174));
#1215=CARTESIAN_POINT('',(76.6999986588955,35.,3.00000004470348));
#1216=CARTESIAN_POINT('',(76.6999986588955,35.,0.));
#1217=CARTESIAN_POINT('',(76.6999986588955,-35.,1.50000002235174));
#1218=CARTESIAN_POINT('',(76.6999986588955,35.,1.50000002235174));
#1219=CARTESIAN_POINT('',(76.6999986588955,-35.,3.00000004470348));
#1220=CARTESIAN_POINT('',(76.6999986588955,-35.,0.));
#1221=CARTESIAN_POINT('',(76.6999986588955,35.,3.00000004470348));
#1222=CARTESIAN_POINT('Origin',(83.3666666666667,35.,3.00000002086162));
#1223=CARTESIAN_POINT('',(89.19999884516,35.,3.));
#1224=CARTESIAN_POINT('',(89.19999884516,-35.,3.));
#1225=CARTESIAN_POINT('Origin',(89.19999884516,35.,1.5));
#1226=CARTESIAN_POINT('',(89.19999884516,35.,1.5));
#1227=CARTESIAN_POINT('',(89.19999884516,35.,1.5));
#1228=CARTESIAN_POINT('',(89.19999884516,-35.,1.5));
#1229=CARTESIAN_POINT('',(89.19999884516,35.,1.5));
#1230=CARTESIAN_POINT('',(89.19999884516,-35.,1.5));
#1231=CARTESIAN_POINT('Origin',(89.19999884516,35.,0.));
#1232=CARTESIAN_POINT('',(89.19999884516,35.,0.));
#1233=CARTESIAN_POINT('',(89.19999884516,35.,0.75));
#1234=CARTESIAN_POINT('',(89.19999884516,-35.,0.));
#1235=CARTESIAN_POINT('',(89.19999884516,35.,0.));
#1236=CARTESIAN_POINT('',(89.19999884516,-35.,0.75));
#1237=CARTESIAN_POINT('Origin',(7.105427357601E-14,35.,1.5));
#1238=CARTESIAN_POINT('',(250.,35.,0.));
#1239=CARTESIAN_POINT('',(250.,35.,3.));
#1240=CARTESIAN_POINT('',(250.,35.,0.));
#1241=CARTESIAN_POINT('Origin',(7.105427357601E-14,-35.,1.5));
#1242=CARTESIAN_POINT('',(250.,-35.,0.));
#1243=CARTESIAN_POINT('',(250.,-35.,0.));
#1244=CARTESIAN_POINT('',(250.,-35.,3.));
#1245=CARTESIAN_POINT('Origin',(-250.,35.,0.));
#1246=CARTESIAN_POINT('',(250.,35.,0.));
#1247=CARTESIAN_POINT('Origin',(250.,35.,0.));
#1248=CARTESIAN_POINT('',(0.,0.,0.));
#1249=UNCERTAINTY_MEASURE_WITH_UNIT(LENGTH_MEASURE(0.01),#1255,
'DISTANCE_ACCURACY_VALUE',
'Maximum model space distance between geometric entities at asserted c
onnectivities');
#1250=UNCERTAINTY_MEASURE_WITH_UNIT(LENGTH_MEASURE(0.01),#1255,
'DISTANCE_ACCURACY_VALUE',
'Maximum model space distance between geometric entities at asserted c
onnectivities');
#1251=UNCERTAINTY_MEASURE_WITH_UNIT(LENGTH_MEASURE(0.01),#1255,
'DISTANCE_ACCURACY_VALUE',
'Maximum model space distance between geometric entities at asserted c
onnectivities');
#1252=(
GEOMETRIC_REPRESENTATION_CONTEXT(3)
GLOBAL_UNCERTAINTY_ASSIGNED_CONTEXT((#1249))
GLOBAL_UNIT_ASSIGNED_CONTEXT((#1255,#1256,#1257))
REPRESENTATION_CONTEXT('','3D')
);
#1253=(
GEOMETRIC_REPRESENTATION_CONTEXT(3)
GLOBAL_UNCERTAINTY_ASSIGNED_CONTEXT((#1250))
GLOBAL_UNIT_ASSIGNED_CONTEXT((#1255,#1256,#1257))
REPRESENTATION_CONTEXT('','3D')
);
#1254=(
GEOMETRIC_REPRESENTATION_CONTEXT(3)
GLOBAL_UNCERTAINTY_ASSIGNED_CONTEXT((#1251))
GLOBAL_UNIT_ASSIGNED_CONTEXT((#1255,#1256,#1257))
REPRESENTATION_CONTEXT('','3D')
);
#1255=(
LENGTH_UNIT()
NAMED_UNIT(*)
SI_UNIT(.MILLI.,.METRE.)
);
#1256=(
NAMED_UNIT(*)
PLANE_ANGLE_UNIT()
SI_UNIT($,.RADIAN.)
);
#1257=(
NAMED_UNIT(*)
SI_UNIT($,.STERADIAN.)
SOLID_ANGLE_UNIT()
);
#1258=SHAPE_DEFINITION_REPRESENTATION(#1260,#1263);
#1259=SHAPE_DEFINITION_REPRESENTATION(#1261,#1264);
#1260=PRODUCT_DEFINITION_SHAPE('',$,#1266);
#1261=PRODUCT_DEFINITION_SHAPE('',$,#1267);
#1262=PRODUCT_DEFINITION_SHAPE($,$,#14);
#1263=SHAPE_REPRESENTATION('',(#773,#833),#1252);
#1264=SHAPE_REPRESENTATION('',(#774),#1253);
#1265=PRODUCT_DEFINITION_CONTEXT('part definition',#1273,'design');
#1266=PRODUCT_DEFINITION('Bridge','Bridge v23',#1268,#1265);
#1267=PRODUCT_DEFINITION('base','base',#1269,#1265);
#1268=PRODUCT_DEFINITION_FORMATION('',$,#1275);
#1269=PRODUCT_DEFINITION_FORMATION('',$,#1276);
#1270=PRODUCT_RELATED_PRODUCT_CATEGORY('Bridge v23','Bridge v23',(#1275));
#1271=PRODUCT_RELATED_PRODUCT_CATEGORY('base','base',(#1276));
#1272=APPLICATION_PROTOCOL_DEFINITION('international standard',
'automotive_design',2009,#1273);
#1273=APPLICATION_CONTEXT(
'Core Data for Automotive Mechanical Design Process');
#1274=PRODUCT_CONTEXT('part definition',#1273,'mechanical');
#1275=PRODUCT('Bridge','Bridge v23',$,(#1274));
#1276=PRODUCT('base','base',$,(#1274));
#1277=PRESENTATION_STYLE_ASSIGNMENT((#1278));
#1278=SURFACE_STYLE_USAGE(.BOTH.,#1279);
#1279=SURFACE_SIDE_STYLE('',(#1280));
#1280=SURFACE_STYLE_FILL_AREA(#1281);
#1281=FILL_AREA_STYLE('Steel - Satin',(#1282));
#1282=FILL_AREA_STYLE_COLOUR('Steel - Satin',#1283);
#1283=COLOUR_RGB('Steel - Satin',0.627450980392157,0.627450980392157,0.627450980392157);
ENDSEC;
END-ISO-10303-21;
