ISO-10303-21;
HEADER;
/* Generated by software containing ST-Developer
 * from STEP Tools, Inc. (www.steptools.com) 
 */

FILE_DESCRIPTION(
/* description */ (''),
/* implementation_level */ '2;1');

FILE_NAME(
/* name */ 'base3.step',
/* time_stamp */ '2026-08-18T23:40:48+05:30',
/* author */ (''),
/* organization */ (''),
/* preprocessor_version */ 'ST-DEVELOPER v20.1',
/* originating_system */ 'Autodesk Translation Framework v15.8.0.0',
/* authorisation */ '');

FILE_SCHEMA (('AUTOMOTIVE_DESIGN { 1 0 10303 214 3 1 1 }'));
ENDSEC;

DATA;
#10=MECHANICAL_DESIGN_GEOMETRIC_PRESENTATION_REPRESENTATION('',(#17),#1146);
#11=ITEM_DEFINED_TRANSFORMATION($,$,#714,#766);
#12=(
REPRESENTATION_RELATIONSHIP($,$,#1156,#1155)
REPRESENTATION_RELATIONSHIP_WITH_TRANSFORMATION(#11)
SHAPE_REPRESENTATION_RELATIONSHIP()
);
#13=CONTEXT_DEPENDENT_SHAPE_REPRESENTATION(#12,#1154);
#14=NEXT_ASSEMBLY_USAGE_OCCURRENCE('base:1','base:1','base:1',#1158,#1159,
'base:1');
#15=SHAPE_REPRESENTATION_RELATIONSHIP('SRR','None',#1156,#16);
#16=ADVANCED_BREP_SHAPE_REPRESENTATION('',(#18),#1145);
#17=STYLED_ITEM('',(#1169),#18);
#18=MANIFOLD_SOLID_BREP('Body2',#712);
#19=FACE_BOUND('',#130,.T.);
#20=FACE_BOUND('',#131,.T.);
#21=FACE_BOUND('',#132,.T.);
#22=FACE_BOUND('',#135,.T.);
#23=FACE_BOUND('',#136,.T.);
#24=FACE_BOUND('',#137,.T.);
#25=FACE_BOUND('',#138,.T.);
#26=FACE_BOUND('',#139,.T.);
#27=FACE_BOUND('',#140,.T.);
#28=FACE_BOUND('',#141,.T.);
#29=FACE_BOUND('',#142,.T.);
#30=FACE_BOUND('',#143,.T.);
#31=FACE_BOUND('',#144,.T.);
#32=FACE_BOUND('',#148,.T.);
#33=FACE_BOUND('',#149,.T.);
#34=FACE_BOUND('',#150,.T.);
#35=FACE_BOUND('',#151,.T.);
#36=FACE_BOUND('',#152,.T.);
#37=FACE_BOUND('',#153,.T.);
#38=FACE_BOUND('',#154,.T.);
#39=FACE_BOUND('',#155,.T.);
#40=FACE_BOUND('',#156,.T.);
#41=FACE_BOUND('',#157,.T.);
#42=FACE_BOUND('',#158,.T.);
#43=FACE_BOUND('',#159,.T.);
#44=FACE_BOUND('',#160,.T.);
#45=PLANE('',#733);
#46=PLANE('',#734);
#47=PLANE('',#735);
#48=PLANE('',#736);
#49=PLANE('',#737);
#50=PLANE('',#738);
#51=PLANE('',#739);
#52=PLANE('',#740);
#53=PLANE('',#741);
#54=PLANE('',#742);
#55=PLANE('',#743);
#56=PLANE('',#744);
#57=PLANE('',#745);
#58=PLANE('',#746);
#59=PLANE('',#747);
#60=PLANE('',#748);
#61=PLANE('',#758);
#62=PLANE('',#759);
#63=PLANE('',#760);
#64=PLANE('',#761);
#65=PLANE('',#762);
#66=PLANE('',#763);
#67=PLANE('',#764);
#68=PLANE('',#765);
#69=FACE_OUTER_BOUND('',#102,.T.);
#70=FACE_OUTER_BOUND('',#103,.T.);
#71=FACE_OUTER_BOUND('',#104,.T.);
#72=FACE_OUTER_BOUND('',#105,.T.);
#73=FACE_OUTER_BOUND('',#106,.T.);
#74=FACE_OUTER_BOUND('',#107,.T.);
#75=FACE_OUTER_BOUND('',#108,.T.);
#76=FACE_OUTER_BOUND('',#109,.T.);
#77=FACE_OUTER_BOUND('',#110,.T.);
#78=FACE_OUTER_BOUND('',#111,.T.);
#79=FACE_OUTER_BOUND('',#112,.T.);
#80=FACE_OUTER_BOUND('',#113,.T.);
#81=FACE_OUTER_BOUND('',#114,.T.);
#82=FACE_OUTER_BOUND('',#115,.T.);
#83=FACE_OUTER_BOUND('',#116,.T.);
#84=FACE_OUTER_BOUND('',#117,.T.);
#85=FACE_OUTER_BOUND('',#118,.T.);
#86=FACE_OUTER_BOUND('',#119,.T.);
#87=FACE_OUTER_BOUND('',#120,.T.);
#88=FACE_OUTER_BOUND('',#121,.T.);
#89=FACE_OUTER_BOUND('',#122,.T.);
#90=FACE_OUTER_BOUND('',#123,.T.);
#91=FACE_OUTER_BOUND('',#124,.T.);
#92=FACE_OUTER_BOUND('',#125,.T.);
#93=FACE_OUTER_BOUND('',#126,.T.);
#94=FACE_OUTER_BOUND('',#127,.T.);
#95=FACE_OUTER_BOUND('',#128,.T.);
#96=FACE_OUTER_BOUND('',#129,.T.);
#97=FACE_OUTER_BOUND('',#133,.T.);
#98=FACE_OUTER_BOUND('',#134,.T.);
#99=FACE_OUTER_BOUND('',#145,.T.);
#100=FACE_OUTER_BOUND('',#146,.T.);
#101=FACE_OUTER_BOUND('',#147,.T.);
#102=EDGE_LOOP('',(#484,#485,#486,#487));
#103=EDGE_LOOP('',(#488,#489,#490,#491));
#104=EDGE_LOOP('',(#492,#493,#494,#495));
#105=EDGE_LOOP('',(#496,#497,#498,#499));
#106=EDGE_LOOP('',(#500,#501,#502,#503));
#107=EDGE_LOOP('',(#504,#505,#506,#507));
#108=EDGE_LOOP('',(#508,#509,#510,#511));
#109=EDGE_LOOP('',(#512,#513,#514,#515));
#110=EDGE_LOOP('',(#516,#517,#518,#519));
#111=EDGE_LOOP('',(#520,#521,#522,#523));
#112=EDGE_LOOP('',(#524,#525,#526,#527));
#113=EDGE_LOOP('',(#528,#529,#530,#531));
#114=EDGE_LOOP('',(#532,#533,#534,#535));
#115=EDGE_LOOP('',(#536,#537,#538,#539));
#116=EDGE_LOOP('',(#540,#541,#542,#543));
#117=EDGE_LOOP('',(#544,#545,#546,#547));
#118=EDGE_LOOP('',(#548,#549,#550,#551));
#119=EDGE_LOOP('',(#552,#553,#554,#555));
#120=EDGE_LOOP('',(#556,#557,#558,#559));
#121=EDGE_LOOP('',(#560,#561,#562,#563));
#122=EDGE_LOOP('',(#564,#565,#566,#567));
#123=EDGE_LOOP('',(#568,#569,#570,#571));
#124=EDGE_LOOP('',(#572,#573,#574,#575));
#125=EDGE_LOOP('',(#576,#577,#578,#579));
#126=EDGE_LOOP('',(#580,#581,#582,#583));
#127=EDGE_LOOP('',(#584,#585,#586,#587));
#128=EDGE_LOOP('',(#588,#589,#590,#591,#592,#593));
#129=EDGE_LOOP('',(#594,#595,#596,#597));
#130=EDGE_LOOP('',(#598));
#131=EDGE_LOOP('',(#599));
#132=EDGE_LOOP('',(#600));
#133=EDGE_LOOP('',(#601,#602,#603,#604));
#134=EDGE_LOOP('',(#605,#606,#607,#608));
#135=EDGE_LOOP('',(#609,#610,#611,#612));
#136=EDGE_LOOP('',(#613,#614,#615,#616));
#137=EDGE_LOOP('',(#617,#618,#619,#620));
#138=EDGE_LOOP('',(#621,#622,#623,#624));
#139=EDGE_LOOP('',(#625));
#140=EDGE_LOOP('',(#626));
#141=EDGE_LOOP('',(#627));
#142=EDGE_LOOP('',(#628));
#143=EDGE_LOOP('',(#629));
#144=EDGE_LOOP('',(#630));
#145=EDGE_LOOP('',(#631,#632,#633,#634));
#146=EDGE_LOOP('',(#635,#636,#637,#638,#639,#640));
#147=EDGE_LOOP('',(#641,#642,#643,#644));
#148=EDGE_LOOP('',(#645,#646,#647,#648));
#149=EDGE_LOOP('',(#649,#650,#651,#652));
#150=EDGE_LOOP('',(#653,#654,#655,#656));
#151=EDGE_LOOP('',(#657,#658,#659,#660));
#152=EDGE_LOOP('',(#661));
#153=EDGE_LOOP('',(#662));
#154=EDGE_LOOP('',(#663));
#155=EDGE_LOOP('',(#664));
#156=EDGE_LOOP('',(#665));
#157=EDGE_LOOP('',(#666));
#158=EDGE_LOOP('',(#667));
#159=EDGE_LOOP('',(#668));
#160=EDGE_LOOP('',(#669));
#161=LINE('',#956,#236);
#162=LINE('',#962,#237);
#163=LINE('',#968,#238);
#164=LINE('',#974,#239);
#165=LINE('',#980,#240);
#166=LINE('',#986,#241);
#167=LINE('',#991,#242);
#168=LINE('',#993,#243);
#169=LINE('',#995,#244);
#170=LINE('',#996,#245);
#171=LINE('',#999,#246);
#172=LINE('',#1001,#247);
#173=LINE('',#1002,#248);
#174=LINE('',#1005,#249);
#175=LINE('',#1007,#250);
#176=LINE('',#1008,#251);
#177=LINE('',#1010,#252);
#178=LINE('',#1011,#253);
#179=LINE('',#1015,#254);
#180=LINE('',#1017,#255);
#181=LINE('',#1019,#256);
#182=LINE('',#1020,#257);
#183=LINE('',#1023,#258);
#184=LINE('',#1025,#259);
#185=LINE('',#1026,#260);
#186=LINE('',#1029,#261);
#187=LINE('',#1031,#262);
#188=LINE('',#1032,#263);
#189=LINE('',#1034,#264);
#190=LINE('',#1035,#265);
#191=LINE('',#1039,#266);
#192=LINE('',#1041,#267);
#193=LINE('',#1043,#268);
#194=LINE('',#1044,#269);
#195=LINE('',#1047,#270);
#196=LINE('',#1049,#271);
#197=LINE('',#1050,#272);
#198=LINE('',#1053,#273);
#199=LINE('',#1055,#274);
#200=LINE('',#1056,#275);
#201=LINE('',#1058,#276);
#202=LINE('',#1059,#277);
#203=LINE('',#1063,#278);
#204=LINE('',#1065,#279);
#205=LINE('',#1067,#280);
#206=LINE('',#1068,#281);
#207=LINE('',#1071,#282);
#208=LINE('',#1073,#283);
#209=LINE('',#1074,#284);
#210=LINE('',#1077,#285);
#211=LINE('',#1079,#286);
#212=LINE('',#1080,#287);
#213=LINE('',#1082,#288);
#214=LINE('',#1083,#289);
#215=LINE('',#1088,#290);
#216=LINE('',#1094,#291);
#217=LINE('',#1100,#292);
#218=LINE('',#1105,#293);
#219=LINE('',#1107,#294);
#220=LINE('',#1109,#295);
#221=LINE('',#1110,#296);
#222=LINE('',#1113,#297);
#223=LINE('',#1115,#298);
#224=LINE('',#1117,#299);
#225=LINE('',#1119,#300);
#226=LINE('',#1120,#301);
#227=LINE('',#1123,#302);
#228=LINE('',#1124,#303);
#229=LINE('',#1127,#304);
#230=LINE('',#1128,#305);
#231=LINE('',#1131,#306);
#232=LINE('',#1132,#307);
#233=LINE('',#1135,#308);
#234=LINE('',#1136,#309);
#235=LINE('',#1138,#310);
#236=VECTOR('',#775,1.49999999999999);
#237=VECTOR('',#782,1.49999999999999);
#238=VECTOR('',#789,1.49999999999999);
#239=VECTOR('',#796,1.49999999999999);
#240=VECTOR('',#803,1.49999999999999);
#241=VECTOR('',#810,1.49999999999999);
#242=VECTOR('',#815,10.);
#243=VECTOR('',#816,10.);
#244=VECTOR('',#817,10.);
#245=VECTOR('',#818,10.);
#246=VECTOR('',#821,10.);
#247=VECTOR('',#822,10.);
#248=VECTOR('',#823,10.);
#249=VECTOR('',#826,10.);
#250=VECTOR('',#827,10.);
#251=VECTOR('',#828,10.);
#252=VECTOR('',#831,10.);
#253=VECTOR('',#832,10.);
#254=VECTOR('',#835,10.);
#255=VECTOR('',#836,10.);
#256=VECTOR('',#837,10.);
#257=VECTOR('',#838,10.);
#258=VECTOR('',#841,10.);
#259=VECTOR('',#842,10.);
#260=VECTOR('',#843,10.);
#261=VECTOR('',#846,10.);
#262=VECTOR('',#847,10.);
#263=VECTOR('',#848,10.);
#264=VECTOR('',#851,10.);
#265=VECTOR('',#852,10.);
#266=VECTOR('',#855,10.);
#267=VECTOR('',#856,10.);
#268=VECTOR('',#857,10.);
#269=VECTOR('',#858,10.);
#270=VECTOR('',#861,10.);
#271=VECTOR('',#862,10.);
#272=VECTOR('',#863,10.);
#273=VECTOR('',#866,10.);
#274=VECTOR('',#867,10.);
#275=VECTOR('',#868,10.);
#276=VECTOR('',#871,10.);
#277=VECTOR('',#872,10.);
#278=VECTOR('',#875,10.);
#279=VECTOR('',#876,10.);
#280=VECTOR('',#877,10.);
#281=VECTOR('',#878,10.);
#282=VECTOR('',#881,10.);
#283=VECTOR('',#882,10.);
#284=VECTOR('',#883,10.);
#285=VECTOR('',#886,10.);
#286=VECTOR('',#887,10.);
#287=VECTOR('',#888,10.);
#288=VECTOR('',#891,10.);
#289=VECTOR('',#892,10.);
#290=VECTOR('',#897,1.5);
#291=VECTOR('',#904,1.5);
#292=VECTOR('',#911,1.5);
#293=VECTOR('',#916,10.);
#294=VECTOR('',#917,10.);
#295=VECTOR('',#918,10.);
#296=VECTOR('',#919,10.);
#297=VECTOR('',#922,10.);
#298=VECTOR('',#923,10.);
#299=VECTOR('',#924,10.);
#300=VECTOR('',#925,10.);
#301=VECTOR('',#926,10.);
#302=VECTOR('',#929,10.);
#303=VECTOR('',#930,10.);
#304=VECTOR('',#933,10.);
#305=VECTOR('',#934,10.);
#306=VECTOR('',#937,10.);
#307=VECTOR('',#938,10.);
#308=VECTOR('',#941,10.);
#309=VECTOR('',#942,10.);
#310=VECTOR('',#945,10.);
#311=CIRCLE('',#716,1.49999999999999);
#312=CIRCLE('',#717,1.49999999999999);
#313=CIRCLE('',#719,1.49999999999999);
#314=CIRCLE('',#720,1.49999999999999);
#315=CIRCLE('',#722,1.49999999999999);
#316=CIRCLE('',#723,1.49999999999999);
#317=CIRCLE('',#725,1.49999999999999);
#318=CIRCLE('',#726,1.49999999999999);
#319=CIRCLE('',#728,1.49999999999999);
#320=CIRCLE('',#729,1.49999999999999);
#321=CIRCLE('',#731,1.49999999999999);
#322=CIRCLE('',#732,1.49999999999999);
#323=CIRCLE('',#750,1.5);
#324=CIRCLE('',#751,1.5);
#325=CIRCLE('',#753,1.5);
#326=CIRCLE('',#754,1.5);
#327=CIRCLE('',#756,1.5);
#328=CIRCLE('',#757,1.5);
#329=VERTEX_POINT('',#953);
#330=VERTEX_POINT('',#955);
#331=VERTEX_POINT('',#959);
#332=VERTEX_POINT('',#961);
#333=VERTEX_POINT('',#965);
#334=VERTEX_POINT('',#967);
#335=VERTEX_POINT('',#971);
#336=VERTEX_POINT('',#973);
#337=VERTEX_POINT('',#977);
#338=VERTEX_POINT('',#979);
#339=VERTEX_POINT('',#983);
#340=VERTEX_POINT('',#985);
#341=VERTEX_POINT('',#989);
#342=VERTEX_POINT('',#990);
#343=VERTEX_POINT('',#992);
#344=VERTEX_POINT('',#994);
#345=VERTEX_POINT('',#998);
#346=VERTEX_POINT('',#1000);
#347=VERTEX_POINT('',#1004);
#348=VERTEX_POINT('',#1006);
#349=VERTEX_POINT('',#1013);
#350=VERTEX_POINT('',#1014);
#351=VERTEX_POINT('',#1016);
#352=VERTEX_POINT('',#1018);
#353=VERTEX_POINT('',#1022);
#354=VERTEX_POINT('',#1024);
#355=VERTEX_POINT('',#1028);
#356=VERTEX_POINT('',#1030);
#357=VERTEX_POINT('',#1037);
#358=VERTEX_POINT('',#1038);
#359=VERTEX_POINT('',#1040);
#360=VERTEX_POINT('',#1042);
#361=VERTEX_POINT('',#1046);
#362=VERTEX_POINT('',#1048);
#363=VERTEX_POINT('',#1052);
#364=VERTEX_POINT('',#1054);
#365=VERTEX_POINT('',#1061);
#366=VERTEX_POINT('',#1062);
#367=VERTEX_POINT('',#1064);
#368=VERTEX_POINT('',#1066);
#369=VERTEX_POINT('',#1070);
#370=VERTEX_POINT('',#1072);
#371=VERTEX_POINT('',#1076);
#372=VERTEX_POINT('',#1078);
#373=VERTEX_POINT('',#1085);
#374=VERTEX_POINT('',#1087);
#375=VERTEX_POINT('',#1091);
#376=VERTEX_POINT('',#1093);
#377=VERTEX_POINT('',#1097);
#378=VERTEX_POINT('',#1099);
#379=VERTEX_POINT('',#1103);
#380=VERTEX_POINT('',#1104);
#381=VERTEX_POINT('',#1106);
#382=VERTEX_POINT('',#1108);
#383=VERTEX_POINT('',#1112);
#384=VERTEX_POINT('',#1114);
#385=VERTEX_POINT('',#1116);
#386=VERTEX_POINT('',#1118);
#387=VERTEX_POINT('',#1122);
#388=VERTEX_POINT('',#1126);
#389=VERTEX_POINT('',#1130);
#390=VERTEX_POINT('',#1134);
#391=EDGE_CURVE('',#329,#329,#311,.T.);
#392=EDGE_CURVE('',#329,#330,#161,.T.);
#393=EDGE_CURVE('',#330,#330,#312,.T.);
#394=EDGE_CURVE('',#331,#331,#313,.T.);
#395=EDGE_CURVE('',#331,#332,#162,.T.);
#396=EDGE_CURVE('',#332,#332,#314,.T.);
#397=EDGE_CURVE('',#333,#333,#315,.T.);
#398=EDGE_CURVE('',#333,#334,#163,.T.);
#399=EDGE_CURVE('',#334,#334,#316,.T.);
#400=EDGE_CURVE('',#335,#335,#317,.T.);
#401=EDGE_CURVE('',#335,#336,#164,.T.);
#402=EDGE_CURVE('',#336,#336,#318,.T.);
#403=EDGE_CURVE('',#337,#337,#319,.T.);
#404=EDGE_CURVE('',#337,#338,#165,.T.);
#405=EDGE_CURVE('',#338,#338,#320,.T.);
#406=EDGE_CURVE('',#339,#339,#321,.T.);
#407=EDGE_CURVE('',#339,#340,#166,.T.);
#408=EDGE_CURVE('',#340,#340,#322,.T.);
#409=EDGE_CURVE('',#341,#342,#167,.T.);
#410=EDGE_CURVE('',#341,#343,#168,.T.);
#411=EDGE_CURVE('',#344,#343,#169,.T.);
#412=EDGE_CURVE('',#342,#344,#170,.T.);
#413=EDGE_CURVE('',#345,#341,#171,.T.);
#414=EDGE_CURVE('',#345,#346,#172,.T.);
#415=EDGE_CURVE('',#343,#346,#173,.T.);
#416=EDGE_CURVE('',#347,#345,#174,.T.);
#417=EDGE_CURVE('',#347,#348,#175,.T.);
#418=EDGE_CURVE('',#346,#348,#176,.T.);
#419=EDGE_CURVE('',#342,#347,#177,.T.);
#420=EDGE_CURVE('',#348,#344,#178,.T.);
#421=EDGE_CURVE('',#349,#350,#179,.T.);
#422=EDGE_CURVE('',#349,#351,#180,.T.);
#423=EDGE_CURVE('',#352,#351,#181,.T.);
#424=EDGE_CURVE('',#350,#352,#182,.T.);
#425=EDGE_CURVE('',#353,#349,#183,.T.);
#426=EDGE_CURVE('',#353,#354,#184,.T.);
#427=EDGE_CURVE('',#351,#354,#185,.T.);
#428=EDGE_CURVE('',#355,#353,#186,.T.);
#429=EDGE_CURVE('',#355,#356,#187,.T.);
#430=EDGE_CURVE('',#354,#356,#188,.T.);
#431=EDGE_CURVE('',#350,#355,#189,.T.);
#432=EDGE_CURVE('',#356,#352,#190,.T.);
#433=EDGE_CURVE('',#357,#358,#191,.T.);
#434=EDGE_CURVE('',#357,#359,#192,.T.);
#435=EDGE_CURVE('',#360,#359,#193,.T.);
#436=EDGE_CURVE('',#358,#360,#194,.T.);
#437=EDGE_CURVE('',#361,#357,#195,.T.);
#438=EDGE_CURVE('',#361,#362,#196,.T.);
#439=EDGE_CURVE('',#359,#362,#197,.T.);
#440=EDGE_CURVE('',#363,#361,#198,.T.);
#441=EDGE_CURVE('',#363,#364,#199,.T.);
#442=EDGE_CURVE('',#362,#364,#200,.T.);
#443=EDGE_CURVE('',#358,#363,#201,.T.);
#444=EDGE_CURVE('',#364,#360,#202,.T.);
#445=EDGE_CURVE('',#365,#366,#203,.T.);
#446=EDGE_CURVE('',#365,#367,#204,.T.);
#447=EDGE_CURVE('',#368,#367,#205,.T.);
#448=EDGE_CURVE('',#366,#368,#206,.T.);
#449=EDGE_CURVE('',#369,#365,#207,.T.);
#450=EDGE_CURVE('',#369,#370,#208,.T.);
#451=EDGE_CURVE('',#367,#370,#209,.T.);
#452=EDGE_CURVE('',#371,#369,#210,.T.);
#453=EDGE_CURVE('',#371,#372,#211,.T.);
#454=EDGE_CURVE('',#370,#372,#212,.T.);
#455=EDGE_CURVE('',#366,#371,#213,.T.);
#456=EDGE_CURVE('',#372,#368,#214,.T.);
#457=EDGE_CURVE('',#373,#373,#323,.T.);
#458=EDGE_CURVE('',#373,#374,#215,.T.);
#459=EDGE_CURVE('',#374,#374,#324,.T.);
#460=EDGE_CURVE('',#375,#375,#325,.T.);
#461=EDGE_CURVE('',#375,#376,#216,.T.);
#462=EDGE_CURVE('',#376,#376,#326,.T.);
#463=EDGE_CURVE('',#377,#377,#327,.T.);
#464=EDGE_CURVE('',#377,#378,#217,.T.);
#465=EDGE_CURVE('',#378,#378,#328,.T.);
#466=EDGE_CURVE('',#379,#380,#218,.T.);
#467=EDGE_CURVE('',#381,#379,#219,.T.);
#468=EDGE_CURVE('',#382,#381,#220,.T.);
#469=EDGE_CURVE('',#380,#382,#221,.T.);
#470=EDGE_CURVE('',#380,#383,#222,.T.);
#471=EDGE_CURVE('',#384,#383,#223,.T.);
#472=EDGE_CURVE('',#384,#385,#224,.T.);
#473=EDGE_CURVE('',#385,#386,#225,.T.);
#474=EDGE_CURVE('',#386,#379,#226,.T.);
#475=EDGE_CURVE('',#387,#382,#227,.T.);
#476=EDGE_CURVE('',#383,#387,#228,.T.);
#477=EDGE_CURVE('',#388,#387,#229,.T.);
#478=EDGE_CURVE('',#384,#388,#230,.T.);
#479=EDGE_CURVE('',#386,#389,#231,.T.);
#480=EDGE_CURVE('',#381,#389,#232,.T.);
#481=EDGE_CURVE('',#385,#390,#233,.T.);
#482=EDGE_CURVE('',#389,#390,#234,.T.);
#483=EDGE_CURVE('',#390,#388,#235,.T.);
#484=ORIENTED_EDGE('',*,*,#391,.F.);
#485=ORIENTED_EDGE('',*,*,#392,.T.);
#486=ORIENTED_EDGE('',*,*,#393,.F.);
#487=ORIENTED_EDGE('',*,*,#392,.F.);
#488=ORIENTED_EDGE('',*,*,#394,.F.);
#489=ORIENTED_EDGE('',*,*,#395,.T.);
#490=ORIENTED_EDGE('',*,*,#396,.F.);
#491=ORIENTED_EDGE('',*,*,#395,.F.);
#492=ORIENTED_EDGE('',*,*,#397,.F.);
#493=ORIENTED_EDGE('',*,*,#398,.T.);
#494=ORIENTED_EDGE('',*,*,#399,.F.);
#495=ORIENTED_EDGE('',*,*,#398,.F.);
#496=ORIENTED_EDGE('',*,*,#400,.F.);
#497=ORIENTED_EDGE('',*,*,#401,.T.);
#498=ORIENTED_EDGE('',*,*,#402,.F.);
#499=ORIENTED_EDGE('',*,*,#401,.F.);
#500=ORIENTED_EDGE('',*,*,#403,.F.);
#501=ORIENTED_EDGE('',*,*,#404,.T.);
#502=ORIENTED_EDGE('',*,*,#405,.F.);
#503=ORIENTED_EDGE('',*,*,#404,.F.);
#504=ORIENTED_EDGE('',*,*,#406,.F.);
#505=ORIENTED_EDGE('',*,*,#407,.T.);
#506=ORIENTED_EDGE('',*,*,#408,.F.);
#507=ORIENTED_EDGE('',*,*,#407,.F.);
#508=ORIENTED_EDGE('',*,*,#409,.F.);
#509=ORIENTED_EDGE('',*,*,#410,.T.);
#510=ORIENTED_EDGE('',*,*,#411,.F.);
#511=ORIENTED_EDGE('',*,*,#412,.F.);
#512=ORIENTED_EDGE('',*,*,#413,.F.);
#513=ORIENTED_EDGE('',*,*,#414,.T.);
#514=ORIENTED_EDGE('',*,*,#415,.F.);
#515=ORIENTED_EDGE('',*,*,#410,.F.);
#516=ORIENTED_EDGE('',*,*,#416,.F.);
#517=ORIENTED_EDGE('',*,*,#417,.T.);
#518=ORIENTED_EDGE('',*,*,#418,.F.);
#519=ORIENTED_EDGE('',*,*,#414,.F.);
#520=ORIENTED_EDGE('',*,*,#419,.F.);
#521=ORIENTED_EDGE('',*,*,#412,.T.);
#522=ORIENTED_EDGE('',*,*,#420,.F.);
#523=ORIENTED_EDGE('',*,*,#417,.F.);
#524=ORIENTED_EDGE('',*,*,#421,.F.);
#525=ORIENTED_EDGE('',*,*,#422,.T.);
#526=ORIENTED_EDGE('',*,*,#423,.F.);
#527=ORIENTED_EDGE('',*,*,#424,.F.);
#528=ORIENTED_EDGE('',*,*,#425,.F.);
#529=ORIENTED_EDGE('',*,*,#426,.T.);
#530=ORIENTED_EDGE('',*,*,#427,.F.);
#531=ORIENTED_EDGE('',*,*,#422,.F.);
#532=ORIENTED_EDGE('',*,*,#428,.F.);
#533=ORIENTED_EDGE('',*,*,#429,.T.);
#534=ORIENTED_EDGE('',*,*,#430,.F.);
#535=ORIENTED_EDGE('',*,*,#426,.F.);
#536=ORIENTED_EDGE('',*,*,#431,.F.);
#537=ORIENTED_EDGE('',*,*,#424,.T.);
#538=ORIENTED_EDGE('',*,*,#432,.F.);
#539=ORIENTED_EDGE('',*,*,#429,.F.);
#540=ORIENTED_EDGE('',*,*,#433,.F.);
#541=ORIENTED_EDGE('',*,*,#434,.T.);
#542=ORIENTED_EDGE('',*,*,#435,.F.);
#543=ORIENTED_EDGE('',*,*,#436,.F.);
#544=ORIENTED_EDGE('',*,*,#437,.F.);
#545=ORIENTED_EDGE('',*,*,#438,.T.);
#546=ORIENTED_EDGE('',*,*,#439,.F.);
#547=ORIENTED_EDGE('',*,*,#434,.F.);
#548=ORIENTED_EDGE('',*,*,#440,.F.);
#549=ORIENTED_EDGE('',*,*,#441,.T.);
#550=ORIENTED_EDGE('',*,*,#442,.F.);
#551=ORIENTED_EDGE('',*,*,#438,.F.);
#552=ORIENTED_EDGE('',*,*,#443,.F.);
#553=ORIENTED_EDGE('',*,*,#436,.T.);
#554=ORIENTED_EDGE('',*,*,#444,.F.);
#555=ORIENTED_EDGE('',*,*,#441,.F.);
#556=ORIENTED_EDGE('',*,*,#445,.F.);
#557=ORIENTED_EDGE('',*,*,#446,.T.);
#558=ORIENTED_EDGE('',*,*,#447,.F.);
#559=ORIENTED_EDGE('',*,*,#448,.F.);
#560=ORIENTED_EDGE('',*,*,#449,.F.);
#561=ORIENTED_EDGE('',*,*,#450,.T.);
#562=ORIENTED_EDGE('',*,*,#451,.F.);
#563=ORIENTED_EDGE('',*,*,#446,.F.);
#564=ORIENTED_EDGE('',*,*,#452,.F.);
#565=ORIENTED_EDGE('',*,*,#453,.T.);
#566=ORIENTED_EDGE('',*,*,#454,.F.);
#567=ORIENTED_EDGE('',*,*,#450,.F.);
#568=ORIENTED_EDGE('',*,*,#455,.F.);
#569=ORIENTED_EDGE('',*,*,#448,.T.);
#570=ORIENTED_EDGE('',*,*,#456,.F.);
#571=ORIENTED_EDGE('',*,*,#453,.F.);
#572=ORIENTED_EDGE('',*,*,#457,.F.);
#573=ORIENTED_EDGE('',*,*,#458,.T.);
#574=ORIENTED_EDGE('',*,*,#459,.F.);
#575=ORIENTED_EDGE('',*,*,#458,.F.);
#576=ORIENTED_EDGE('',*,*,#460,.F.);
#577=ORIENTED_EDGE('',*,*,#461,.T.);
#578=ORIENTED_EDGE('',*,*,#462,.F.);
#579=ORIENTED_EDGE('',*,*,#461,.F.);
#580=ORIENTED_EDGE('',*,*,#463,.F.);
#581=ORIENTED_EDGE('',*,*,#464,.T.);
#582=ORIENTED_EDGE('',*,*,#465,.F.);
#583=ORIENTED_EDGE('',*,*,#464,.F.);
#584=ORIENTED_EDGE('',*,*,#466,.F.);
#585=ORIENTED_EDGE('',*,*,#467,.F.);
#586=ORIENTED_EDGE('',*,*,#468,.F.);
#587=ORIENTED_EDGE('',*,*,#469,.F.);
#588=ORIENTED_EDGE('',*,*,#466,.T.);
#589=ORIENTED_EDGE('',*,*,#470,.T.);
#590=ORIENTED_EDGE('',*,*,#471,.F.);
#591=ORIENTED_EDGE('',*,*,#472,.T.);
#592=ORIENTED_EDGE('',*,*,#473,.T.);
#593=ORIENTED_EDGE('',*,*,#474,.T.);
#594=ORIENTED_EDGE('',*,*,#470,.F.);
#595=ORIENTED_EDGE('',*,*,#469,.T.);
#596=ORIENTED_EDGE('',*,*,#475,.F.);
#597=ORIENTED_EDGE('',*,*,#476,.F.);
#598=ORIENTED_EDGE('',*,*,#457,.T.);
#599=ORIENTED_EDGE('',*,*,#460,.T.);
#600=ORIENTED_EDGE('',*,*,#463,.T.);
#601=ORIENTED_EDGE('',*,*,#471,.T.);
#602=ORIENTED_EDGE('',*,*,#476,.T.);
#603=ORIENTED_EDGE('',*,*,#477,.F.);
#604=ORIENTED_EDGE('',*,*,#478,.F.);
#605=ORIENTED_EDGE('',*,*,#467,.T.);
#606=ORIENTED_EDGE('',*,*,#474,.F.);
#607=ORIENTED_EDGE('',*,*,#479,.T.);
#608=ORIENTED_EDGE('',*,*,#480,.F.);
#609=ORIENTED_EDGE('',*,*,#447,.T.);
#610=ORIENTED_EDGE('',*,*,#451,.T.);
#611=ORIENTED_EDGE('',*,*,#454,.T.);
#612=ORIENTED_EDGE('',*,*,#456,.T.);
#613=ORIENTED_EDGE('',*,*,#435,.T.);
#614=ORIENTED_EDGE('',*,*,#439,.T.);
#615=ORIENTED_EDGE('',*,*,#442,.T.);
#616=ORIENTED_EDGE('',*,*,#444,.T.);
#617=ORIENTED_EDGE('',*,*,#423,.T.);
#618=ORIENTED_EDGE('',*,*,#427,.T.);
#619=ORIENTED_EDGE('',*,*,#430,.T.);
#620=ORIENTED_EDGE('',*,*,#432,.T.);
#621=ORIENTED_EDGE('',*,*,#411,.T.);
#622=ORIENTED_EDGE('',*,*,#415,.T.);
#623=ORIENTED_EDGE('',*,*,#418,.T.);
#624=ORIENTED_EDGE('',*,*,#420,.T.);
#625=ORIENTED_EDGE('',*,*,#408,.T.);
#626=ORIENTED_EDGE('',*,*,#405,.T.);
#627=ORIENTED_EDGE('',*,*,#402,.T.);
#628=ORIENTED_EDGE('',*,*,#399,.T.);
#629=ORIENTED_EDGE('',*,*,#396,.T.);
#630=ORIENTED_EDGE('',*,*,#393,.T.);
#631=ORIENTED_EDGE('',*,*,#473,.F.);
#632=ORIENTED_EDGE('',*,*,#481,.T.);
#633=ORIENTED_EDGE('',*,*,#482,.F.);
#634=ORIENTED_EDGE('',*,*,#479,.F.);
#635=ORIENTED_EDGE('',*,*,#468,.T.);
#636=ORIENTED_EDGE('',*,*,#480,.T.);
#637=ORIENTED_EDGE('',*,*,#482,.T.);
#638=ORIENTED_EDGE('',*,*,#483,.T.);
#639=ORIENTED_EDGE('',*,*,#477,.T.);
#640=ORIENTED_EDGE('',*,*,#475,.T.);
#641=ORIENTED_EDGE('',*,*,#483,.F.);
#642=ORIENTED_EDGE('',*,*,#481,.F.);
#643=ORIENTED_EDGE('',*,*,#472,.F.);
#644=ORIENTED_EDGE('',*,*,#478,.T.);
#645=ORIENTED_EDGE('',*,*,#409,.T.);
#646=ORIENTED_EDGE('',*,*,#419,.T.);
#647=ORIENTED_EDGE('',*,*,#416,.T.);
#648=ORIENTED_EDGE('',*,*,#413,.T.);
#649=ORIENTED_EDGE('',*,*,#421,.T.);
#650=ORIENTED_EDGE('',*,*,#431,.T.);
#651=ORIENTED_EDGE('',*,*,#428,.T.);
#652=ORIENTED_EDGE('',*,*,#425,.T.);
#653=ORIENTED_EDGE('',*,*,#433,.T.);
#654=ORIENTED_EDGE('',*,*,#443,.T.);
#655=ORIENTED_EDGE('',*,*,#440,.T.);
#656=ORIENTED_EDGE('',*,*,#437,.T.);
#657=ORIENTED_EDGE('',*,*,#445,.T.);
#658=ORIENTED_EDGE('',*,*,#455,.T.);
#659=ORIENTED_EDGE('',*,*,#452,.T.);
#660=ORIENTED_EDGE('',*,*,#449,.T.);
#661=ORIENTED_EDGE('',*,*,#459,.T.);
#662=ORIENTED_EDGE('',*,*,#462,.T.);
#663=ORIENTED_EDGE('',*,*,#465,.T.);
#664=ORIENTED_EDGE('',*,*,#406,.T.);
#665=ORIENTED_EDGE('',*,*,#403,.T.);
#666=ORIENTED_EDGE('',*,*,#400,.T.);
#667=ORIENTED_EDGE('',*,*,#397,.T.);
#668=ORIENTED_EDGE('',*,*,#394,.T.);
#669=ORIENTED_EDGE('',*,*,#391,.T.);
#670=CYLINDRICAL_SURFACE('',#715,1.49999999999999);
#671=CYLINDRICAL_SURFACE('',#718,1.49999999999999);
#672=CYLINDRICAL_SURFACE('',#721,1.49999999999999);
#673=CYLINDRICAL_SURFACE('',#724,1.49999999999999);
#674=CYLINDRICAL_SURFACE('',#727,1.49999999999999);
#675=CYLINDRICAL_SURFACE('',#730,1.49999999999999);
#676=CYLINDRICAL_SURFACE('',#749,1.5);
#677=CYLINDRICAL_SURFACE('',#752,1.5);
#678=CYLINDRICAL_SURFACE('',#755,1.5);
#679=ADVANCED_FACE('',(#69),#670,.F.);
#680=ADVANCED_FACE('',(#70),#671,.F.);
#681=ADVANCED_FACE('',(#71),#672,.F.);
#682=ADVANCED_FACE('',(#72),#673,.F.);
#683=ADVANCED_FACE('',(#73),#674,.F.);
#684=ADVANCED_FACE('',(#74),#675,.F.);
#685=ADVANCED_FACE('',(#75),#45,.F.);
#686=ADVANCED_FACE('',(#76),#46,.F.);
#687=ADVANCED_FACE('',(#77),#47,.F.);
#688=ADVANCED_FACE('',(#78),#48,.F.);
#689=ADVANCED_FACE('',(#79),#49,.F.);
#690=ADVANCED_FACE('',(#80),#50,.F.);
#691=ADVANCED_FACE('',(#81),#51,.F.);
#692=ADVANCED_FACE('',(#82),#52,.F.);
#693=ADVANCED_FACE('',(#83),#53,.F.);
#694=ADVANCED_FACE('',(#84),#54,.F.);
#695=ADVANCED_FACE('',(#85),#55,.F.);
#696=ADVANCED_FACE('',(#86),#56,.F.);
#697=ADVANCED_FACE('',(#87),#57,.F.);
#698=ADVANCED_FACE('',(#88),#58,.F.);
#699=ADVANCED_FACE('',(#89),#59,.F.);
#700=ADVANCED_FACE('',(#90),#60,.F.);
#701=ADVANCED_FACE('',(#91),#676,.F.);
#702=ADVANCED_FACE('',(#92),#677,.F.);
#703=ADVANCED_FACE('',(#93),#678,.F.);
#704=ADVANCED_FACE('',(#94),#61,.F.);
#705=ADVANCED_FACE('',(#95),#62,.T.);
#706=ADVANCED_FACE('',(#96,#19,#20,#21),#63,.T.);
#707=ADVANCED_FACE('',(#97),#64,.T.);
#708=ADVANCED_FACE('',(#98,#22,#23,#24,#25,#26,#27,#28,#29,#30,#31),#65,
 .T.);
#709=ADVANCED_FACE('',(#99),#66,.T.);
#710=ADVANCED_FACE('',(#100),#67,.T.);
#711=ADVANCED_FACE('',(#101,#32,#33,#34,#35,#36,#37,#38,#39,#40,#41,#42,
#43,#44),#68,.T.);
#712=CLOSED_SHELL('',(#679,#680,#681,#682,#683,#684,#685,#686,#687,#688,
#689,#690,#691,#692,#693,#694,#695,#696,#697,#698,#699,#700,#701,#702,#703,
#704,#705,#706,#707,#708,#709,#710,#711));
#713=AXIS2_PLACEMENT_3D('',#950,#767,#768);
#714=AXIS2_PLACEMENT_3D('',#951,#769,#770);
#715=AXIS2_PLACEMENT_3D('',#952,#771,#772);
#716=AXIS2_PLACEMENT_3D('',#954,#773,#774);
#717=AXIS2_PLACEMENT_3D('',#957,#776,#777);
#718=AXIS2_PLACEMENT_3D('',#958,#778,#779);
#719=AXIS2_PLACEMENT_3D('',#960,#780,#781);
#720=AXIS2_PLACEMENT_3D('',#963,#783,#784);
#721=AXIS2_PLACEMENT_3D('',#964,#785,#786);
#722=AXIS2_PLACEMENT_3D('',#966,#787,#788);
#723=AXIS2_PLACEMENT_3D('',#969,#790,#791);
#724=AXIS2_PLACEMENT_3D('',#970,#792,#793);
#725=AXIS2_PLACEMENT_3D('',#972,#794,#795);
#726=AXIS2_PLACEMENT_3D('',#975,#797,#798);
#727=AXIS2_PLACEMENT_3D('',#976,#799,#800);
#728=AXIS2_PLACEMENT_3D('',#978,#801,#802);
#729=AXIS2_PLACEMENT_3D('',#981,#804,#805);
#730=AXIS2_PLACEMENT_3D('',#982,#806,#807);
#731=AXIS2_PLACEMENT_3D('',#984,#808,#809);
#732=AXIS2_PLACEMENT_3D('',#987,#811,#812);
#733=AXIS2_PLACEMENT_3D('',#988,#813,#814);
#734=AXIS2_PLACEMENT_3D('',#997,#819,#820);
#735=AXIS2_PLACEMENT_3D('',#1003,#824,#825);
#736=AXIS2_PLACEMENT_3D('',#1009,#829,#830);
#737=AXIS2_PLACEMENT_3D('',#1012,#833,#834);
#738=AXIS2_PLACEMENT_3D('',#1021,#839,#840);
#739=AXIS2_PLACEMENT_3D('',#1027,#844,#845);
#740=AXIS2_PLACEMENT_3D('',#1033,#849,#850);
#741=AXIS2_PLACEMENT_3D('',#1036,#853,#854);
#742=AXIS2_PLACEMENT_3D('',#1045,#859,#860);
#743=AXIS2_PLACEMENT_3D('',#1051,#864,#865);
#744=AXIS2_PLACEMENT_3D('',#1057,#869,#870);
#745=AXIS2_PLACEMENT_3D('',#1060,#873,#874);
#746=AXIS2_PLACEMENT_3D('',#1069,#879,#880);
#747=AXIS2_PLACEMENT_3D('',#1075,#884,#885);
#748=AXIS2_PLACEMENT_3D('',#1081,#889,#890);
#749=AXIS2_PLACEMENT_3D('',#1084,#893,#894);
#750=AXIS2_PLACEMENT_3D('',#1086,#895,#896);
#751=AXIS2_PLACEMENT_3D('',#1089,#898,#899);
#752=AXIS2_PLACEMENT_3D('',#1090,#900,#901);
#753=AXIS2_PLACEMENT_3D('',#1092,#902,#903);
#754=AXIS2_PLACEMENT_3D('',#1095,#905,#906);
#755=AXIS2_PLACEMENT_3D('',#1096,#907,#908);
#756=AXIS2_PLACEMENT_3D('',#1098,#909,#910);
#757=AXIS2_PLACEMENT_3D('',#1101,#912,#913);
#758=AXIS2_PLACEMENT_3D('',#1102,#914,#915);
#759=AXIS2_PLACEMENT_3D('',#1111,#920,#921);
#760=AXIS2_PLACEMENT_3D('',#1121,#927,#928);
#761=AXIS2_PLACEMENT_3D('',#1125,#931,#932);
#762=AXIS2_PLACEMENT_3D('',#1129,#935,#936);
#763=AXIS2_PLACEMENT_3D('',#1133,#939,#940);
#764=AXIS2_PLACEMENT_3D('',#1137,#943,#944);
#765=AXIS2_PLACEMENT_3D('',#1139,#946,#947);
#766=AXIS2_PLACEMENT_3D('',#1140,#948,#949);
#767=DIRECTION('axis',(0.,0.,1.));
#768=DIRECTION('refdir',(1.,0.,0.));
#769=DIRECTION('axis',(0.,0.,1.));
#770=DIRECTION('refdir',(1.,0.,0.));
#771=DIRECTION('center_axis',(0.,0.,1.));
#772=DIRECTION('ref_axis',(-1.,0.,0.));
#773=DIRECTION('center_axis',(0.,0.,1.));
#774=DIRECTION('ref_axis',(-1.,0.,0.));
#775=DIRECTION('',(0.,0.,1.));
#776=DIRECTION('center_axis',(0.,0.,-1.));
#777=DIRECTION('ref_axis',(-1.,0.,0.));
#778=DIRECTION('center_axis',(0.,0.,1.));
#779=DIRECTION('ref_axis',(-1.,0.,0.));
#780=DIRECTION('center_axis',(0.,0.,1.));
#781=DIRECTION('ref_axis',(-1.,0.,0.));
#782=DIRECTION('',(0.,0.,1.));
#783=DIRECTION('center_axis',(0.,0.,-1.));
#784=DIRECTION('ref_axis',(-1.,0.,0.));
#785=DIRECTION('center_axis',(0.,0.,1.));
#786=DIRECTION('ref_axis',(-1.,0.,0.));
#787=DIRECTION('center_axis',(0.,0.,1.));
#788=DIRECTION('ref_axis',(-1.,0.,0.));
#789=DIRECTION('',(0.,0.,1.));
#790=DIRECTION('center_axis',(0.,0.,-1.));
#791=DIRECTION('ref_axis',(-1.,0.,0.));
#792=DIRECTION('center_axis',(0.,0.,1.));
#793=DIRECTION('ref_axis',(-1.,0.,0.));
#794=DIRECTION('center_axis',(0.,0.,1.));
#795=DIRECTION('ref_axis',(-1.,0.,0.));
#796=DIRECTION('',(0.,0.,1.));
#797=DIRECTION('center_axis',(0.,0.,-1.));
#798=DIRECTION('ref_axis',(-1.,0.,0.));
#799=DIRECTION('center_axis',(0.,0.,1.));
#800=DIRECTION('ref_axis',(-1.,0.,0.));
#801=DIRECTION('center_axis',(0.,0.,1.));
#802=DIRECTION('ref_axis',(-1.,0.,0.));
#803=DIRECTION('',(0.,0.,1.));
#804=DIRECTION('center_axis',(0.,0.,-1.));
#805=DIRECTION('ref_axis',(-1.,0.,0.));
#806=DIRECTION('center_axis',(0.,0.,1.));
#807=DIRECTION('ref_axis',(-1.,0.,0.));
#808=DIRECTION('center_axis',(0.,0.,1.));
#809=DIRECTION('ref_axis',(-1.,0.,0.));
#810=DIRECTION('',(0.,0.,1.));
#811=DIRECTION('center_axis',(0.,0.,-1.));
#812=DIRECTION('ref_axis',(-1.,0.,0.));
#813=DIRECTION('center_axis',(0.,-1.,0.));
#814=DIRECTION('ref_axis',(1.,0.,0.));
#815=DIRECTION('',(1.,0.,0.));
#816=DIRECTION('',(0.,0.,1.));
#817=DIRECTION('',(-1.,0.,0.));
#818=DIRECTION('',(0.,0.,1.));
#819=DIRECTION('center_axis',(-1.,0.,0.));
#820=DIRECTION('ref_axis',(0.,-1.,0.));
#821=DIRECTION('',(0.,-1.,0.));
#822=DIRECTION('',(0.,0.,1.));
#823=DIRECTION('',(0.,1.,0.));
#824=DIRECTION('center_axis',(0.,1.,0.));
#825=DIRECTION('ref_axis',(-1.,0.,0.));
#826=DIRECTION('',(-1.,0.,0.));
#827=DIRECTION('',(0.,0.,1.));
#828=DIRECTION('',(1.,0.,0.));
#829=DIRECTION('center_axis',(1.,0.,0.));
#830=DIRECTION('ref_axis',(0.,1.,0.));
#831=DIRECTION('',(0.,1.,0.));
#832=DIRECTION('',(0.,-1.,0.));
#833=DIRECTION('center_axis',(-1.,0.,0.));
#834=DIRECTION('ref_axis',(0.,-1.,0.));
#835=DIRECTION('',(0.,-1.,0.));
#836=DIRECTION('',(0.,0.,1.));
#837=DIRECTION('',(0.,1.,0.));
#838=DIRECTION('',(0.,0.,1.));
#839=DIRECTION('center_axis',(0.,1.,0.));
#840=DIRECTION('ref_axis',(-1.,0.,0.));
#841=DIRECTION('',(-1.,0.,0.));
#842=DIRECTION('',(0.,0.,1.));
#843=DIRECTION('',(1.,0.,0.));
#844=DIRECTION('center_axis',(1.,0.,0.));
#845=DIRECTION('ref_axis',(0.,1.,0.));
#846=DIRECTION('',(0.,1.,0.));
#847=DIRECTION('',(0.,0.,1.));
#848=DIRECTION('',(0.,-1.,0.));
#849=DIRECTION('center_axis',(0.,-1.,0.));
#850=DIRECTION('ref_axis',(1.,0.,0.));
#851=DIRECTION('',(1.,0.,0.));
#852=DIRECTION('',(-1.,0.,0.));
#853=DIRECTION('center_axis',(0.,-1.,0.));
#854=DIRECTION('ref_axis',(1.,0.,0.));
#855=DIRECTION('',(1.,0.,0.));
#856=DIRECTION('',(0.,0.,1.));
#857=DIRECTION('',(-1.,0.,0.));
#858=DIRECTION('',(0.,0.,1.));
#859=DIRECTION('center_axis',(-1.,0.,0.));
#860=DIRECTION('ref_axis',(0.,-1.,0.));
#861=DIRECTION('',(0.,-1.,0.));
#862=DIRECTION('',(0.,0.,1.));
#863=DIRECTION('',(0.,1.,0.));
#864=DIRECTION('center_axis',(0.,1.,0.));
#865=DIRECTION('ref_axis',(-1.,0.,0.));
#866=DIRECTION('',(-1.,0.,0.));
#867=DIRECTION('',(0.,0.,1.));
#868=DIRECTION('',(1.,0.,0.));
#869=DIRECTION('center_axis',(1.,0.,0.));
#870=DIRECTION('ref_axis',(0.,1.,0.));
#871=DIRECTION('',(0.,1.,0.));
#872=DIRECTION('',(0.,-1.,0.));
#873=DIRECTION('center_axis',(-1.,0.,0.));
#874=DIRECTION('ref_axis',(0.,-1.,0.));
#875=DIRECTION('',(0.,-1.,0.));
#876=DIRECTION('',(0.,0.,1.));
#877=DIRECTION('',(0.,1.,0.));
#878=DIRECTION('',(0.,0.,1.));
#879=DIRECTION('center_axis',(7.67279923580638E-16,1.,0.));
#880=DIRECTION('ref_axis',(-1.,7.67279923580638E-16,0.));
#881=DIRECTION('',(-1.,7.67279923580638E-16,0.));
#882=DIRECTION('',(0.,0.,1.));
#883=DIRECTION('',(1.,-7.67279923580638E-16,0.));
#884=DIRECTION('center_axis',(1.,0.,0.));
#885=DIRECTION('ref_axis',(0.,1.,0.));
#886=DIRECTION('',(0.,1.,0.));
#887=DIRECTION('',(0.,0.,1.));
#888=DIRECTION('',(0.,-1.,0.));
#889=DIRECTION('center_axis',(-7.67279923580638E-16,-1.,0.));
#890=DIRECTION('ref_axis',(1.,-7.67279923580638E-16,0.));
#891=DIRECTION('',(1.,-7.67279923580638E-16,0.));
#892=DIRECTION('',(-1.,7.67279923580638E-16,0.));
#893=DIRECTION('center_axis',(0.,0.,-1.));
#894=DIRECTION('ref_axis',(-1.,0.,0.));
#895=DIRECTION('center_axis',(-1.78813932105726E-9,0.,-1.));
#896=DIRECTION('ref_axis',(-1.,0.,1.78813932105726E-9));
#897=DIRECTION('',(0.,0.,-1.));
#898=DIRECTION('center_axis',(0.,0.,1.));
#899=DIRECTION('ref_axis',(-1.,0.,0.));
#900=DIRECTION('center_axis',(0.,0.,-1.));
#901=DIRECTION('ref_axis',(-1.,0.,0.));
#902=DIRECTION('center_axis',(-1.78813932105726E-9,0.,-1.));
#903=DIRECTION('ref_axis',(-1.,0.,1.78813932105726E-9));
#904=DIRECTION('',(0.,0.,-1.));
#905=DIRECTION('center_axis',(0.,0.,1.));
#906=DIRECTION('ref_axis',(-1.,0.,0.));
#907=DIRECTION('center_axis',(0.,0.,-1.));
#908=DIRECTION('ref_axis',(-1.,0.,0.));
#909=DIRECTION('center_axis',(-1.78813932105726E-9,0.,-1.));
#910=DIRECTION('ref_axis',(-1.,0.,1.78813932105726E-9));
#911=DIRECTION('',(0.,0.,-1.));
#912=DIRECTION('center_axis',(0.,0.,1.));
#913=DIRECTION('ref_axis',(-1.,0.,0.));
#914=DIRECTION('center_axis',(-1.,0.,0.));
#915=DIRECTION('ref_axis',(0.,0.,-1.));
#916=DIRECTION('',(0.,0.,-1.));
#917=DIRECTION('',(0.,1.,0.));
#918=DIRECTION('',(0.,0.,1.));
#919=DIRECTION('',(0.,-1.,0.));
#920=DIRECTION('center_axis',(0.,1.,0.));
#921=DIRECTION('ref_axis',(-1.,0.,0.));
#922=DIRECTION('',(1.,0.,-1.78813932105726E-9));
#923=DIRECTION('',(0.,0.,1.));
#924=DIRECTION('',(-1.,0.,0.));
#925=DIRECTION('',(0.,0.,1.));
#926=DIRECTION('',(1.,0.,0.));
#927=DIRECTION('center_axis',(1.78813932105726E-9,0.,1.));
#928=DIRECTION('ref_axis',(-1.,0.,1.78813932105726E-9));
#929=DIRECTION('',(-1.,0.,1.78813932105726E-9));
#930=DIRECTION('',(0.,-1.,0.));
#931=DIRECTION('center_axis',(1.,0.,0.));
#932=DIRECTION('ref_axis',(0.,0.,1.));
#933=DIRECTION('',(0.,0.,1.));
#934=DIRECTION('',(0.,-1.,0.));
#935=DIRECTION('center_axis',(0.,0.,1.));
#936=DIRECTION('ref_axis',(-1.,0.,0.));
#937=DIRECTION('',(0.,-1.,0.));
#938=DIRECTION('',(-1.,0.,0.));
#939=DIRECTION('center_axis',(-1.,0.,0.));
#940=DIRECTION('ref_axis',(0.,0.,-1.));
#941=DIRECTION('',(0.,-1.,0.));
#942=DIRECTION('',(0.,0.,-1.));
#943=DIRECTION('center_axis',(0.,-1.,0.));
#944=DIRECTION('ref_axis',(0.,0.,-1.));
#945=DIRECTION('',(1.,0.,0.));
#946=DIRECTION('center_axis',(0.,0.,-1.));
#947=DIRECTION('ref_axis',(1.,0.,0.));
#948=DIRECTION('',(0.,0.,1.));
#949=DIRECTION('',(1.,0.,0.));
#950=CARTESIAN_POINT('',(0.,0.,0.));
#951=CARTESIAN_POINT('',(0.,0.,0.));
#952=CARTESIAN_POINT('Origin',(-242.999998360872,17.4999997392297,-12.));
#953=CARTESIAN_POINT('',(-241.499998360872,17.4999997392297,0.));
#954=CARTESIAN_POINT('Origin',(-242.999998360872,17.4999997392297,0.));
#955=CARTESIAN_POINT('',(-241.499998360872,17.4999997392297,3.));
#956=CARTESIAN_POINT('',(-241.499998360872,17.4999997392297,-12.));
#957=CARTESIAN_POINT('Origin',(-242.999998360872,17.4999997392297,3.));
#958=CARTESIAN_POINT('Origin',(-226.999998360872,-17.5000002607703,-12.));
#959=CARTESIAN_POINT('',(-225.499998360872,-17.5000002607703,0.));
#960=CARTESIAN_POINT('Origin',(-226.999998360872,-17.5000002607703,0.));
#961=CARTESIAN_POINT('',(-225.499998360872,-17.5000002607703,3.));
#962=CARTESIAN_POINT('',(-225.499998360872,-17.5000002607703,-12.));
#963=CARTESIAN_POINT('Origin',(-226.999998360872,-17.5000002607703,3.));
#964=CARTESIAN_POINT('Origin',(-242.999998360872,-17.5000002607703,-12.));
#965=CARTESIAN_POINT('',(-241.499998360872,-17.5000002607703,0.));
#966=CARTESIAN_POINT('Origin',(-242.999998360872,-17.5000002607703,0.));
#967=CARTESIAN_POINT('',(-241.499998360872,-17.5000002607703,3.));
#968=CARTESIAN_POINT('',(-241.499998360872,-17.5000002607703,-12.));
#969=CARTESIAN_POINT('Origin',(-242.999998360872,-17.5000002607703,3.));
#970=CARTESIAN_POINT('Origin',(-234.999998360872,-17.5000002607703,-12.));
#971=CARTESIAN_POINT('',(-233.499998360872,-17.5000002607703,0.));
#972=CARTESIAN_POINT('Origin',(-234.999998360872,-17.5000002607703,0.));
#973=CARTESIAN_POINT('',(-233.499998360872,-17.5000002607703,3.));
#974=CARTESIAN_POINT('',(-233.499998360872,-17.5000002607703,-12.));
#975=CARTESIAN_POINT('Origin',(-234.999998360872,-17.5000002607703,3.));
#976=CARTESIAN_POINT('Origin',(-226.999998360872,17.4999997392297,-12.));
#977=CARTESIAN_POINT('',(-225.499998360872,17.4999997392297,0.));
#978=CARTESIAN_POINT('Origin',(-226.999998360872,17.4999997392297,0.));
#979=CARTESIAN_POINT('',(-225.499998360872,17.4999997392297,3.));
#980=CARTESIAN_POINT('',(-225.499998360872,17.4999997392297,-12.));
#981=CARTESIAN_POINT('Origin',(-226.999998360872,17.4999997392297,3.));
#982=CARTESIAN_POINT('Origin',(-234.999998360872,17.4999997392297,-12.));
#983=CARTESIAN_POINT('',(-233.499998360872,17.4999997392297,0.));
#984=CARTESIAN_POINT('Origin',(-234.999998360872,17.4999997392297,0.));
#985=CARTESIAN_POINT('',(-233.499998360872,17.4999997392297,3.));
#986=CARTESIAN_POINT('',(-233.499998360872,17.4999997392297,-12.));
#987=CARTESIAN_POINT('Origin',(-234.999998360872,17.4999997392297,3.));
#988=CARTESIAN_POINT('Origin',(-134.566448902547,-30.4,0.));
#989=CARTESIAN_POINT('',(-134.566448902547,-30.4,0.));
#990=CARTESIAN_POINT('',(-128.778610641673,-30.4,0.));
#991=CARTESIAN_POINT('',(-192.283224451273,-30.4,0.));
#992=CARTESIAN_POINT('',(-134.566448902547,-30.4,3.));
#993=CARTESIAN_POINT('',(-134.566448902547,-30.4,0.));
#994=CARTESIAN_POINT('',(-128.778610641673,-30.4,3.));
#995=CARTESIAN_POINT('',(57.7167755487264,-30.4,3.));
#996=CARTESIAN_POINT('',(-128.778610641673,-30.4,0.));
#997=CARTESIAN_POINT('Origin',(-134.566448902547,-24.6,0.));
#998=CARTESIAN_POINT('',(-134.566448902547,-24.6,0.));
#999=CARTESIAN_POINT('',(-134.566448902547,5.2,0.));
#1000=CARTESIAN_POINT('',(-134.566448902547,-24.6,3.));
#1001=CARTESIAN_POINT('',(-134.566448902547,-24.6,0.));
#1002=CARTESIAN_POINT('',(-134.566448902547,5.2,3.));
#1003=CARTESIAN_POINT('Origin',(-128.778610641673,-24.6,0.));
#1004=CARTESIAN_POINT('',(-128.778610641673,-24.6,0.));
#1005=CARTESIAN_POINT('',(-189.389305320836,-24.6,0.));
#1006=CARTESIAN_POINT('',(-128.778610641673,-24.6,3.));
#1007=CARTESIAN_POINT('',(-128.778610641673,-24.6,0.));
#1008=CARTESIAN_POINT('',(60.6106946791635,-24.6,3.));
#1009=CARTESIAN_POINT('Origin',(-128.778610641673,-30.4,0.));
#1010=CARTESIAN_POINT('',(-128.778610641673,2.3,0.));
#1011=CARTESIAN_POINT('',(-128.778610641673,2.3,3.));
#1012=CARTESIAN_POINT('Origin',(-200.399782235881,-24.6,0.));
#1013=CARTESIAN_POINT('',(-200.399782235881,-24.6,0.));
#1014=CARTESIAN_POINT('',(-200.399782235881,-30.4,0.));
#1015=CARTESIAN_POINT('',(-200.399782235881,5.2,0.));
#1016=CARTESIAN_POINT('',(-200.399782235881,-24.6,3.));
#1017=CARTESIAN_POINT('',(-200.399782235881,-24.6,0.));
#1018=CARTESIAN_POINT('',(-200.399782235881,-30.4,3.));
#1019=CARTESIAN_POINT('',(-200.399782235881,5.2,3.));
#1020=CARTESIAN_POINT('',(-200.399782235881,-30.4,0.));
#1021=CARTESIAN_POINT('Origin',(-194.611943975006,-24.6,0.));
#1022=CARTESIAN_POINT('',(-194.611943975006,-24.6,0.));
#1023=CARTESIAN_POINT('',(-222.305971987503,-24.6,0.));
#1024=CARTESIAN_POINT('',(-194.611943975006,-24.6,3.));
#1025=CARTESIAN_POINT('',(-194.611943975006,-24.6,0.));
#1026=CARTESIAN_POINT('',(27.6940280124969,-24.6,3.));
#1027=CARTESIAN_POINT('Origin',(-194.611943975006,-30.4,0.));
#1028=CARTESIAN_POINT('',(-194.611943975006,-30.4,0.));
#1029=CARTESIAN_POINT('',(-194.611943975006,2.3,0.));
#1030=CARTESIAN_POINT('',(-194.611943975006,-30.4,3.));
#1031=CARTESIAN_POINT('',(-194.611943975006,-30.4,0.));
#1032=CARTESIAN_POINT('',(-194.611943975006,2.3,3.));
#1033=CARTESIAN_POINT('Origin',(-200.399782235881,-30.4,0.));
#1034=CARTESIAN_POINT('',(-225.19989111794,-30.4,0.));
#1035=CARTESIAN_POINT('',(24.8001088820597,-30.4,3.));
#1036=CARTESIAN_POINT('Origin',(-134.554730142241,24.5999740395355,0.));
#1037=CARTESIAN_POINT('',(-134.554730142241,24.5999740395355,0.));
#1038=CARTESIAN_POINT('',(-128.766891881367,24.5999740395355,0.));
#1039=CARTESIAN_POINT('',(-192.27736507112,24.5999740395355,0.));
#1040=CARTESIAN_POINT('',(-134.554730142241,24.5999740395355,3.));
#1041=CARTESIAN_POINT('',(-134.554730142241,24.5999740395355,0.));
#1042=CARTESIAN_POINT('',(-128.766891881367,24.5999740395355,3.));
#1043=CARTESIAN_POINT('',(57.7226349288795,24.5999740395355,3.));
#1044=CARTESIAN_POINT('',(-128.766891881367,24.5999740395355,0.));
#1045=CARTESIAN_POINT('Origin',(-134.554730142241,30.3999740395355,0.));
#1046=CARTESIAN_POINT('',(-134.554730142241,30.3999740395355,0.));
#1047=CARTESIAN_POINT('',(-134.554730142241,32.6999870197678,0.));
#1048=CARTESIAN_POINT('',(-134.554730142241,30.3999740395355,3.));
#1049=CARTESIAN_POINT('',(-134.554730142241,30.3999740395355,0.));
#1050=CARTESIAN_POINT('',(-134.554730142241,32.6999870197678,3.));
#1051=CARTESIAN_POINT('Origin',(-128.766891881367,30.3999740395355,0.));
#1052=CARTESIAN_POINT('',(-128.766891881367,30.3999740395355,0.));
#1053=CARTESIAN_POINT('',(-189.383445940683,30.3999740395355,0.));
#1054=CARTESIAN_POINT('',(-128.766891881367,30.3999740395355,3.));
#1055=CARTESIAN_POINT('',(-128.766891881367,30.3999740395355,0.));
#1056=CARTESIAN_POINT('',(60.6165540593166,30.3999740395355,3.));
#1057=CARTESIAN_POINT('Origin',(-128.766891881367,24.5999740395355,0.));
#1058=CARTESIAN_POINT('',(-128.766891881367,29.7999870197678,0.));
#1059=CARTESIAN_POINT('',(-128.766891881367,29.7999870197678,3.));
#1060=CARTESIAN_POINT('Origin',(-200.388063475574,30.3999740395355,0.));
#1061=CARTESIAN_POINT('',(-200.388063475574,30.3999740395355,0.));
#1062=CARTESIAN_POINT('',(-200.388063475574,24.5999740395355,0.));
#1063=CARTESIAN_POINT('',(-200.388063475574,32.6999870197678,0.));
#1064=CARTESIAN_POINT('',(-200.388063475574,30.3999740395355,3.));
#1065=CARTESIAN_POINT('',(-200.388063475574,30.3999740395355,0.));
#1066=CARTESIAN_POINT('',(-200.388063475574,24.5999740395355,3.));
#1067=CARTESIAN_POINT('',(-200.388063475574,32.6999870197678,3.));
#1068=CARTESIAN_POINT('',(-200.388063475574,24.5999740395355,0.));
#1069=CARTESIAN_POINT('Origin',(-194.6002252147,30.3999740395355,0.));
#1070=CARTESIAN_POINT('',(-194.6002252147,30.3999740395355,0.));
#1071=CARTESIAN_POINT('',(-222.30011260735,30.3999740395355,0.));
#1072=CARTESIAN_POINT('',(-194.6002252147,30.3999740395355,3.));
#1073=CARTESIAN_POINT('',(-194.6002252147,30.3999740395355,0.));
#1074=CARTESIAN_POINT('',(27.6998873926499,30.3999740395354,3.));
#1075=CARTESIAN_POINT('Origin',(-194.6002252147,24.5999740395355,0.));
#1076=CARTESIAN_POINT('',(-194.6002252147,24.5999740395355,0.));
#1077=CARTESIAN_POINT('',(-194.6002252147,29.7999870197678,0.));
#1078=CARTESIAN_POINT('',(-194.6002252147,24.5999740395355,3.));
#1079=CARTESIAN_POINT('',(-194.6002252147,24.5999740395355,0.));
#1080=CARTESIAN_POINT('',(-194.6002252147,29.7999870197678,3.));
#1081=CARTESIAN_POINT('Origin',(-200.388063475574,24.5999740395355,0.));
#1082=CARTESIAN_POINT('',(-225.194031737787,24.5999740395355,0.));
#1083=CARTESIAN_POINT('',(24.8059682622128,24.5999740395354,3.));
#1084=CARTESIAN_POINT('Origin',(-83.3333333333334,-4.44089209850063E-15,
3.));
#1085=CARTESIAN_POINT('',(-81.8333333333334,-4.62458911837273E-15,1.5000000077486));
#1086=CARTESIAN_POINT('Origin',(-83.3333333333334,-4.44089209850063E-15,
1.50000001043081));
#1087=CARTESIAN_POINT('',(-81.8333333333334,-4.25719507862852E-15,0.));
#1088=CARTESIAN_POINT('',(-81.8333333333334,-4.62458911837273E-15,3.));
#1089=CARTESIAN_POINT('Origin',(-83.3333333333334,-4.44089209850063E-15,
0.));
#1090=CARTESIAN_POINT('Origin',(-83.3333333333334,20.,3.));
#1091=CARTESIAN_POINT('',(-81.8333333333334,20.,1.5000000077486));
#1092=CARTESIAN_POINT('Origin',(-83.3333333333334,20.,1.50000001043081));
#1093=CARTESIAN_POINT('',(-81.8333333333334,20.,0.));
#1094=CARTESIAN_POINT('',(-81.8333333333334,20.,3.));
#1095=CARTESIAN_POINT('Origin',(-83.3333333333334,20.,0.));
#1096=CARTESIAN_POINT('Origin',(-83.3333333333334,-20.,3.));
#1097=CARTESIAN_POINT('',(-81.8333333333334,-20.,1.5000000077486));
#1098=CARTESIAN_POINT('Origin',(-83.3333333333334,-20.,1.50000001043081));
#1099=CARTESIAN_POINT('',(-81.8333333333334,-20.,0.));
#1100=CARTESIAN_POINT('',(-81.8333333333334,-20.,3.));
#1101=CARTESIAN_POINT('Origin',(-83.3333333333334,-20.,0.));
#1102=CARTESIAN_POINT('Origin',(-90.0000013411045,35.,3.00000004470348));
#1103=CARTESIAN_POINT('',(-90.0000013411045,35.,3.00000004470348));
#1104=CARTESIAN_POINT('',(-90.0000013411045,35.,1.50000002235174));
#1105=CARTESIAN_POINT('',(-90.0000013411045,35.,2.25000002235174));
#1106=CARTESIAN_POINT('',(-90.0000013411045,-35.,3.00000004470348));
#1107=CARTESIAN_POINT('',(-90.0000013411045,35.,3.));
#1108=CARTESIAN_POINT('',(-90.0000013411045,-35.,1.50000002235174));
#1109=CARTESIAN_POINT('',(-90.0000013411045,-35.,2.25000002235174));
#1110=CARTESIAN_POINT('',(-90.0000013411045,35.,1.50000002235174));
#1111=CARTESIAN_POINT('Origin',(7.105427357601E-14,35.,1.5));
#1112=CARTESIAN_POINT('',(-77.50000115484,35.,1.5));
#1113=CARTESIAN_POINT('',(-45.0000006705522,35.,1.49999994188547));
#1114=CARTESIAN_POINT('',(-77.50000115484,35.,0.));
#1115=CARTESIAN_POINT('',(-77.50000115484,35.,0.));
#1116=CARTESIAN_POINT('',(-250.,35.,0.));
#1117=CARTESIAN_POINT('',(250.,35.,0.));
#1118=CARTESIAN_POINT('',(-250.,35.,3.));
#1119=CARTESIAN_POINT('',(-250.,35.,0.));
#1120=CARTESIAN_POINT('',(-250.,35.,3.));
#1121=CARTESIAN_POINT('Origin',(-77.50000115484,35.,1.5));
#1122=CARTESIAN_POINT('',(-77.50000115484,-35.,1.5));
#1123=CARTESIAN_POINT('',(-45.0000006705522,-35.,1.49999994188547));
#1124=CARTESIAN_POINT('',(-77.50000115484,35.,1.5));
#1125=CARTESIAN_POINT('Origin',(-77.50000115484,35.,0.));
#1126=CARTESIAN_POINT('',(-77.50000115484,-35.,0.));
#1127=CARTESIAN_POINT('',(-77.50000115484,-35.,0.));
#1128=CARTESIAN_POINT('',(-77.50000115484,35.,0.));
#1129=CARTESIAN_POINT('Origin',(250.,35.,3.));
#1130=CARTESIAN_POINT('',(-250.,-35.,3.));
#1131=CARTESIAN_POINT('',(-250.,35.,3.));
#1132=CARTESIAN_POINT('',(-250.,-35.,3.));
#1133=CARTESIAN_POINT('Origin',(-250.,35.,3.));
#1134=CARTESIAN_POINT('',(-250.,-35.,0.));
#1135=CARTESIAN_POINT('',(-250.,35.,0.));
#1136=CARTESIAN_POINT('',(-250.,-35.,0.));
#1137=CARTESIAN_POINT('Origin',(7.105427357601E-14,-35.,1.5));
#1138=CARTESIAN_POINT('',(-77.50000115484,-35.,0.));
#1139=CARTESIAN_POINT('Origin',(-250.,35.,0.));
#1140=CARTESIAN_POINT('',(0.,0.,0.));
#1141=UNCERTAINTY_MEASURE_WITH_UNIT(LENGTH_MEASURE(0.01),#1147,
'DISTANCE_ACCURACY_VALUE',
'Maximum model space distance between geometric entities at asserted c
onnectivities');
#1142=UNCERTAINTY_MEASURE_WITH_UNIT(LENGTH_MEASURE(0.01),#1147,
'DISTANCE_ACCURACY_VALUE',
'Maximum model space distance between geometric entities at asserted c
onnectivities');
#1143=UNCERTAINTY_MEASURE_WITH_UNIT(LENGTH_MEASURE(0.01),#1147,
'DISTANCE_ACCURACY_VALUE',
'Maximum model space distance between geometric entities at asserted c
onnectivities');
#1144=(
GEOMETRIC_REPRESENTATION_CONTEXT(3)
GLOBAL_UNCERTAINTY_ASSIGNED_CONTEXT((#1141))
GLOBAL_UNIT_ASSIGNED_CONTEXT((#1147,#1148,#1149))
REPRESENTATION_CONTEXT('','3D')
);
#1145=(
GEOMETRIC_REPRESENTATION_CONTEXT(3)
GLOBAL_UNCERTAINTY_ASSIGNED_CONTEXT((#1142))
GLOBAL_UNIT_ASSIGNED_CONTEXT((#1147,#1148,#1149))
REPRESENTATION_CONTEXT('','3D')
);
#1146=(
GEOMETRIC_REPRESENTATION_CONTEXT(3)
GLOBAL_UNCERTAINTY_ASSIGNED_CONTEXT((#1143))
GLOBAL_UNIT_ASSIGNED_CONTEXT((#1147,#1148,#1149))
REPRESENTATION_CONTEXT('','3D')
);
#1147=(
LENGTH_UNIT()
NAMED_UNIT(*)
SI_UNIT(.MILLI.,.METRE.)
);
#1148=(
NAMED_UNIT(*)
PLANE_ANGLE_UNIT()
SI_UNIT($,.RADIAN.)
);
#1149=(
NAMED_UNIT(*)
SI_UNIT($,.STERADIAN.)
SOLID_ANGLE_UNIT()
);
#1150=SHAPE_DEFINITION_REPRESENTATION(#1152,#1155);
#1151=SHAPE_DEFINITION_REPRESENTATION(#1153,#1156);
#1152=PRODUCT_DEFINITION_SHAPE('',$,#1158);
#1153=PRODUCT_DEFINITION_SHAPE('',$,#1159);
#1154=PRODUCT_DEFINITION_SHAPE($,$,#14);
#1155=SHAPE_REPRESENTATION('',(#713,#766),#1144);
#1156=SHAPE_REPRESENTATION('',(#714),#1145);
#1157=PRODUCT_DEFINITION_CONTEXT('part definition',#1165,'design');
#1158=PRODUCT_DEFINITION('Bridge','Bridge v23',#1160,#1157);
#1159=PRODUCT_DEFINITION('base','base',#1161,#1157);
#1160=PRODUCT_DEFINITION_FORMATION('',$,#1167);
#1161=PRODUCT_DEFINITION_FORMATION('',$,#1168);
#1162=PRODUCT_RELATED_PRODUCT_CATEGORY('Bridge v23','Bridge v23',(#1167));
#1163=PRODUCT_RELATED_PRODUCT_CATEGORY('base','base',(#1168));
#1164=APPLICATION_PROTOCOL_DEFINITION('international standard',
'automotive_design',2009,#1165);
#1165=APPLICATION_CONTEXT(
'Core Data for Automotive Mechanical Design Process');
#1166=PRODUCT_CONTEXT('part definition',#1165,'mechanical');
#1167=PRODUCT('Bridge','Bridge v23',$,(#1166));
#1168=PRODUCT('base','base',$,(#1166));
#1169=PRESENTATION_STYLE_ASSIGNMENT((#1170));
#1170=SURFACE_STYLE_USAGE(.BOTH.,#1171);
#1171=SURFACE_SIDE_STYLE('',(#1172));
#1172=SURFACE_STYLE_FILL_AREA(#1173);
#1173=FILL_AREA_STYLE('Steel - Satin',(#1174));
#1174=FILL_AREA_STYLE_COLOUR('Steel - Satin',#1175);
#1175=COLOUR_RGB('Steel - Satin',0.627450980392157,0.627450980392157,0.627450980392157);
ENDSEC;
END-ISO-10303-21;
