ISO-10303-21;
HEADER;
/* Generated by software containing ST-Developer
 * from STEP Tools, Inc. (www.steptools.com) 
 */

FILE_DESCRIPTION(
/* description */ (''),
/* implementation_level */ '2;1');

FILE_NAME(
/* name */ 'BEAM.step',
/* time_stamp */ '2026-08-18T23:38:13+05:30',
/* author */ (''),
/* organization */ (''),
/* preprocessor_version */ 'ST-DEVELOPER v20.1',
/* originating_system */ 'Autodesk Translation Framework v15.8.0.0',
/* authorisation */ '');

FILE_SCHEMA (('AUTOMOTIVE_DESIGN { 1 0 10303 214 3 1 1 }'));
ENDSEC;

DATA;
#10=MECHANICAL_DESIGN_GEOMETRIC_PRESENTATION_REPRESENTATION('',(#17),#197);
#11=ITEM_DEFINED_TRANSFORMATION($,$,#125,#132);
#12=(
REPRESENTATION_RELATIONSHIP($,$,#208,#207)
REPRESENTATION_RELATIONSHIP_WITH_TRANSFORMATION(#11)
SHAPE_REPRESENTATION_RELATIONSHIP()
);
#13=CONTEXT_DEPENDENT_SHAPE_REPRESENTATION(#12,#206);
#14=NEXT_ASSEMBLY_USAGE_OCCURRENCE('Truss 1:1','Truss 1:1','Truss 1:1',
#210,#211,'Truss 1:1');
#15=SHAPE_REPRESENTATION_RELATIONSHIP('SRR','None',#208,#16);
#16=ADVANCED_BREP_SHAPE_REPRESENTATION('',(#18),#196);
#17=STYLED_ITEM('',(#221),#18);
#18=MANIFOLD_SOLID_BREP('Body4',#111);
#19=FACE_OUTER_BOUND('',#25,.T.);
#20=FACE_OUTER_BOUND('',#26,.T.);
#21=FACE_OUTER_BOUND('',#27,.T.);
#22=FACE_OUTER_BOUND('',#28,.T.);
#23=FACE_OUTER_BOUND('',#29,.T.);
#24=FACE_OUTER_BOUND('',#30,.T.);
#25=EDGE_LOOP('',(#75,#76,#77,#78));
#26=EDGE_LOOP('',(#79,#80,#81,#82));
#27=EDGE_LOOP('',(#83,#84,#85,#86));
#28=EDGE_LOOP('',(#87,#88,#89,#90));
#29=EDGE_LOOP('',(#91,#92,#93,#94));
#30=EDGE_LOOP('',(#95,#96,#97,#98));
#31=LINE('',#168,#43);
#32=LINE('',#170,#44);
#33=LINE('',#172,#45);
#34=LINE('',#173,#46);
#35=LINE('',#177,#47);
#36=LINE('',#179,#48);
#37=LINE('',#181,#49);
#38=LINE('',#182,#50);
#39=LINE('',#184,#51);
#40=LINE('',#185,#52);
#41=LINE('',#187,#53);
#42=LINE('',#189,#54);
#43=VECTOR('',#139,10.);
#44=VECTOR('',#140,10.);
#45=VECTOR('',#141,10.);
#46=VECTOR('',#142,10.);
#47=VECTOR('',#145,10.);
#48=VECTOR('',#146,10.);
#49=VECTOR('',#147,10.);
#50=VECTOR('',#148,10.);
#51=VECTOR('',#151,10.);
#52=VECTOR('',#152,10.);
#53=VECTOR('',#155,10.);
#54=VECTOR('',#158,10.);
#55=VERTEX_POINT('',#166);
#56=VERTEX_POINT('',#167);
#57=VERTEX_POINT('',#169);
#58=VERTEX_POINT('',#171);
#59=VERTEX_POINT('',#175);
#60=VERTEX_POINT('',#176);
#61=VERTEX_POINT('',#178);
#62=VERTEX_POINT('',#180);
#63=EDGE_CURVE('',#55,#56,#31,.T.);
#64=EDGE_CURVE('',#56,#57,#32,.T.);
#65=EDGE_CURVE('',#57,#58,#33,.T.);
#66=EDGE_CURVE('',#58,#55,#34,.T.);
#67=EDGE_CURVE('',#59,#60,#35,.T.);
#68=EDGE_CURVE('',#60,#61,#36,.T.);
#69=EDGE_CURVE('',#61,#62,#37,.T.);
#70=EDGE_CURVE('',#62,#59,#38,.T.);
#71=EDGE_CURVE('',#55,#60,#39,.T.);
#72=EDGE_CURVE('',#58,#61,#40,.T.);
#73=EDGE_CURVE('',#57,#62,#41,.T.);
#74=EDGE_CURVE('',#59,#56,#42,.T.);
#75=ORIENTED_EDGE('',*,*,#63,.T.);
#76=ORIENTED_EDGE('',*,*,#64,.T.);
#77=ORIENTED_EDGE('',*,*,#65,.T.);
#78=ORIENTED_EDGE('',*,*,#66,.T.);
#79=ORIENTED_EDGE('',*,*,#67,.T.);
#80=ORIENTED_EDGE('',*,*,#68,.T.);
#81=ORIENTED_EDGE('',*,*,#69,.T.);
#82=ORIENTED_EDGE('',*,*,#70,.T.);
#83=ORIENTED_EDGE('',*,*,#71,.F.);
#84=ORIENTED_EDGE('',*,*,#66,.F.);
#85=ORIENTED_EDGE('',*,*,#72,.T.);
#86=ORIENTED_EDGE('',*,*,#68,.F.);
#87=ORIENTED_EDGE('',*,*,#72,.F.);
#88=ORIENTED_EDGE('',*,*,#65,.F.);
#89=ORIENTED_EDGE('',*,*,#73,.T.);
#90=ORIENTED_EDGE('',*,*,#69,.F.);
#91=ORIENTED_EDGE('',*,*,#73,.F.);
#92=ORIENTED_EDGE('',*,*,#64,.F.);
#93=ORIENTED_EDGE('',*,*,#74,.F.);
#94=ORIENTED_EDGE('',*,*,#70,.F.);
#95=ORIENTED_EDGE('',*,*,#74,.T.);
#96=ORIENTED_EDGE('',*,*,#63,.F.);
#97=ORIENTED_EDGE('',*,*,#71,.T.);
#98=ORIENTED_EDGE('',*,*,#67,.F.);
#99=PLANE('',#126);
#100=PLANE('',#127);
#101=PLANE('',#128);
#102=PLANE('',#129);
#103=PLANE('',#130);
#104=PLANE('',#131);
#105=ADVANCED_FACE('',(#19),#99,.T.);
#106=ADVANCED_FACE('',(#20),#100,.T.);
#107=ADVANCED_FACE('',(#21),#101,.T.);
#108=ADVANCED_FACE('',(#22),#102,.T.);
#109=ADVANCED_FACE('',(#23),#103,.T.);
#110=ADVANCED_FACE('',(#24),#104,.T.);
#111=CLOSED_SHELL('',(#105,#106,#107,#108,#109,#110));
#112=DERIVED_UNIT_ELEMENT(#114,1.);
#113=DERIVED_UNIT_ELEMENT(#199,-3.);
#114=(
MASS_UNIT()
NAMED_UNIT(*)
SI_UNIT(.KILO.,.GRAM.)
);
#115=DERIVED_UNIT((#112,#113));
#116=MEASURE_REPRESENTATION_ITEM('density measure',
POSITIVE_RATIO_MEASURE(7850.),#115);
#117=PROPERTY_DEFINITION_REPRESENTATION(#122,#119);
#118=PROPERTY_DEFINITION_REPRESENTATION(#123,#120);
#119=REPRESENTATION('material name',(#121),#196);
#120=REPRESENTATION('density',(#116),#196);
#121=DESCRIPTIVE_REPRESENTATION_ITEM('Steel','Steel');
#122=PROPERTY_DEFINITION('material property','material name',#211);
#123=PROPERTY_DEFINITION('material property','density of part',#211);
#124=AXIS2_PLACEMENT_3D('',#163,#133,#134);
#125=AXIS2_PLACEMENT_3D('',#164,#135,#136);
#126=AXIS2_PLACEMENT_3D('',#165,#137,#138);
#127=AXIS2_PLACEMENT_3D('',#174,#143,#144);
#128=AXIS2_PLACEMENT_3D('',#183,#149,#150);
#129=AXIS2_PLACEMENT_3D('',#186,#153,#154);
#130=AXIS2_PLACEMENT_3D('',#188,#156,#157);
#131=AXIS2_PLACEMENT_3D('',#190,#159,#160);
#132=AXIS2_PLACEMENT_3D('',#191,#161,#162);
#133=DIRECTION('axis',(0.,0.,1.));
#134=DIRECTION('refdir',(1.,0.,0.));
#135=DIRECTION('axis',(0.,0.,1.));
#136=DIRECTION('refdir',(1.,0.,0.));
#137=DIRECTION('center_axis',(0.,1.,0.));
#138=DIRECTION('ref_axis',(0.,0.,1.));
#139=DIRECTION('',(0.,0.,1.));
#140=DIRECTION('',(1.,0.,0.));
#141=DIRECTION('',(0.,0.,-1.));
#142=DIRECTION('',(-1.,0.,0.));
#143=DIRECTION('center_axis',(0.,-1.,0.));
#144=DIRECTION('ref_axis',(0.,0.,-1.));
#145=DIRECTION('',(0.,0.,-1.));
#146=DIRECTION('',(1.,0.,0.));
#147=DIRECTION('',(0.,0.,1.));
#148=DIRECTION('',(-1.,0.,0.));
#149=DIRECTION('center_axis',(0.,0.,-1.));
#150=DIRECTION('ref_axis',(-1.,0.,0.));
#151=DIRECTION('',(0.,-1.,0.));
#152=DIRECTION('',(0.,-1.,0.));
#153=DIRECTION('center_axis',(1.,0.,0.));
#154=DIRECTION('ref_axis',(0.,0.,-1.));
#155=DIRECTION('',(0.,-1.,0.));
#156=DIRECTION('center_axis',(0.,0.,1.));
#157=DIRECTION('ref_axis',(1.,0.,0.));
#158=DIRECTION('',(0.,1.,0.));
#159=DIRECTION('center_axis',(-1.,0.,0.));
#160=DIRECTION('ref_axis',(0.,0.,1.));
#161=DIRECTION('',(0.,0.,1.));
#162=DIRECTION('',(1.,0.,0.));
#163=CARTESIAN_POINT('',(0.,0.,0.));
#164=CARTESIAN_POINT('',(0.,0.,0.));
#165=CARTESIAN_POINT('Origin',(65.8333333333333,35.,80.5000000447035));
#166=CARTESIAN_POINT('',(63.7333333333333,35.,78.4000000447035));
#167=CARTESIAN_POINT('',(63.7333333333333,35.,82.6000000447035));
#168=CARTESIAN_POINT('',(63.7333333333333,35.,82.6000000447035));
#169=CARTESIAN_POINT('',(67.9333333333333,35.,82.6000000447035));
#170=CARTESIAN_POINT('',(67.9333333333333,35.,82.6000000447035));
#171=CARTESIAN_POINT('',(67.9333333333333,35.,78.4000000447035));
#172=CARTESIAN_POINT('',(67.9333333333333,35.,78.4000000447035));
#173=CARTESIAN_POINT('',(63.7333333333333,35.,78.4000000447035));
#174=CARTESIAN_POINT('Origin',(65.8333333333333,-35.,80.5000000447035));
#175=CARTESIAN_POINT('',(63.7333333333333,-35.,82.6000000447035));
#176=CARTESIAN_POINT('',(63.7333333333333,-35.,78.4000000447035));
#177=CARTESIAN_POINT('',(63.7333333333333,-35.,82.6000000447035));
#178=CARTESIAN_POINT('',(67.9333333333333,-35.,78.4000000447035));
#179=CARTESIAN_POINT('',(63.7333333333333,-35.,78.4000000447035));
#180=CARTESIAN_POINT('',(67.9333333333333,-35.,82.6000000447035));
#181=CARTESIAN_POINT('',(67.9333333333333,-35.,78.4000000447035));
#182=CARTESIAN_POINT('',(67.9333333333333,-35.,82.6000000447035));
#183=CARTESIAN_POINT('Origin',(67.9333333333333,-30.,78.4000000447035));
#184=CARTESIAN_POINT('',(63.7333333333333,-30.,78.4000000447035));
#185=CARTESIAN_POINT('',(67.9333333333333,-30.,78.4000000447035));
#186=CARTESIAN_POINT('Origin',(67.9333333333333,-30.,82.6000000447035));
#187=CARTESIAN_POINT('',(67.9333333333333,-30.,82.6000000447035));
#188=CARTESIAN_POINT('Origin',(63.7333333333333,-30.,82.6000000447035));
#189=CARTESIAN_POINT('',(63.7333333333333,-30.,82.6000000447035));
#190=CARTESIAN_POINT('Origin',(63.7333333333333,-30.,78.4000000447035));
#191=CARTESIAN_POINT('',(0.,0.,0.));
#192=UNCERTAINTY_MEASURE_WITH_UNIT(LENGTH_MEASURE(0.01),#198,
'DISTANCE_ACCURACY_VALUE',
'Maximum model space distance between geometric entities at asserted c
onnectivities');
#193=UNCERTAINTY_MEASURE_WITH_UNIT(LENGTH_MEASURE(0.01),#198,
'DISTANCE_ACCURACY_VALUE',
'Maximum model space distance between geometric entities at asserted c
onnectivities');
#194=UNCERTAINTY_MEASURE_WITH_UNIT(LENGTH_MEASURE(0.01),#198,
'DISTANCE_ACCURACY_VALUE',
'Maximum model space distance between geometric entities at asserted c
onnectivities');
#195=(
GEOMETRIC_REPRESENTATION_CONTEXT(3)
GLOBAL_UNCERTAINTY_ASSIGNED_CONTEXT((#192))
GLOBAL_UNIT_ASSIGNED_CONTEXT((#198,#200,#201))
REPRESENTATION_CONTEXT('','3D')
);
#196=(
GEOMETRIC_REPRESENTATION_CONTEXT(3)
GLOBAL_UNCERTAINTY_ASSIGNED_CONTEXT((#193))
GLOBAL_UNIT_ASSIGNED_CONTEXT((#198,#200,#201))
REPRESENTATION_CONTEXT('','3D')
);
#197=(
GEOMETRIC_REPRESENTATION_CONTEXT(3)
GLOBAL_UNCERTAINTY_ASSIGNED_CONTEXT((#194))
GLOBAL_UNIT_ASSIGNED_CONTEXT((#198,#200,#201))
REPRESENTATION_CONTEXT('','3D')
);
#198=(
LENGTH_UNIT()
NAMED_UNIT(*)
SI_UNIT(.MILLI.,.METRE.)
);
#199=(
LENGTH_UNIT()
NAMED_UNIT(*)
SI_UNIT($,.METRE.)
);
#200=(
NAMED_UNIT(*)
PLANE_ANGLE_UNIT()
SI_UNIT($,.RADIAN.)
);
#201=(
NAMED_UNIT(*)
SI_UNIT($,.STERADIAN.)
SOLID_ANGLE_UNIT()
);
#202=SHAPE_DEFINITION_REPRESENTATION(#204,#207);
#203=SHAPE_DEFINITION_REPRESENTATION(#205,#208);
#204=PRODUCT_DEFINITION_SHAPE('',$,#210);
#205=PRODUCT_DEFINITION_SHAPE('',$,#211);
#206=PRODUCT_DEFINITION_SHAPE($,$,#14);
#207=SHAPE_REPRESENTATION('',(#124,#132),#195);
#208=SHAPE_REPRESENTATION('',(#125),#196);
#209=PRODUCT_DEFINITION_CONTEXT('part definition',#217,'design');
#210=PRODUCT_DEFINITION('Bridge','Bridge v23',#212,#209);
#211=PRODUCT_DEFINITION('Truss 1','Truss 1',#213,#209);
#212=PRODUCT_DEFINITION_FORMATION('',$,#219);
#213=PRODUCT_DEFINITION_FORMATION('',$,#220);
#214=PRODUCT_RELATED_PRODUCT_CATEGORY('Bridge v23','Bridge v23',(#219));
#215=PRODUCT_RELATED_PRODUCT_CATEGORY('Truss 1','Truss 1',(#220));
#216=APPLICATION_PROTOCOL_DEFINITION('international standard',
'automotive_design',2009,#217);
#217=APPLICATION_CONTEXT(
'Core Data for Automotive Mechanical Design Process');
#218=PRODUCT_CONTEXT('part definition',#217,'mechanical');
#219=PRODUCT('Bridge','Bridge v23',$,(#218));
#220=PRODUCT('Truss 1','Truss 1',$,(#218));
#221=PRESENTATION_STYLE_ASSIGNMENT((#222));
#222=SURFACE_STYLE_USAGE(.BOTH.,#223);
#223=SURFACE_SIDE_STYLE('',(#224));
#224=SURFACE_STYLE_FILL_AREA(#225);
#225=FILL_AREA_STYLE('Steel - Satin',(#226));
#226=FILL_AREA_STYLE_COLOUR('Steel - Satin',#227);
#227=COLOUR_RGB('Steel - Satin',0.627450980392157,0.627450980392157,0.627450980392157);
ENDSEC;
END-ISO-10303-21;
