ISO-10303-21;
HEADER;
/* Generated by software containing ST-Developer
 * from STEP Tools, Inc. (www.steptools.com) 
 */

FILE_DESCRIPTION(
/* description */ (''),
/* implementation_level */ '2;1');

FILE_NAME(
/* name */ 'leg.step',
/* time_stamp */ '2026-08-18T23:43:09+05:30',
/* author */ (''),
/* organization */ (''),
/* preprocessor_version */ 'ST-DEVELOPER v20.1',
/* originating_system */ 'Autodesk Translation Framework v15.8.0.0',
/* authorisation */ '');

FILE_SCHEMA (('AUTOMOTIVE_DESIGN { 1 0 10303 214 3 1 1 }'));
ENDSEC;

DATA;
#10=MECHANICAL_DESIGN_GEOMETRIC_PRESENTATION_REPRESENTATION('',(#17),#332);
#11=ITEM_DEFINED_TRANSFORMATION($,$,#200,#219);
#12=(
REPRESENTATION_RELATIONSHIP($,$,#343,#342)
REPRESENTATION_RELATIONSHIP_WITH_TRANSFORMATION(#11)
SHAPE_REPRESENTATION_RELATIONSHIP()
);
#13=CONTEXT_DEPENDENT_SHAPE_REPRESENTATION(#12,#341);
#14=NEXT_ASSEMBLY_USAGE_OCCURRENCE('Legs:1','Legs:1','Legs:1',#345,#346,
'Legs:1');
#15=SHAPE_REPRESENTATION_RELATIONSHIP('SRR','None',#343,#16);
#16=ADVANCED_BREP_SHAPE_REPRESENTATION('',(#18),#331);
#17=STYLED_ITEM('',(#356),#18);
#18=MANIFOLD_SOLID_BREP('Body2',#186);
#19=FACE_BOUND('',#55,.T.);
#20=FACE_BOUND('',#56,.T.);
#21=FACE_BOUND('',#57,.T.);
#22=PLANE('',#204);
#23=PLANE('',#208);
#24=PLANE('',#212);
#25=PLANE('',#213);
#26=PLANE('',#214);
#27=PLANE('',#215);
#28=PLANE('',#216);
#29=PLANE('',#217);
#30=PLANE('',#218);
#31=FACE_OUTER_BOUND('',#43,.T.);
#32=FACE_OUTER_BOUND('',#44,.T.);
#33=FACE_OUTER_BOUND('',#45,.T.);
#34=FACE_OUTER_BOUND('',#46,.T.);
#35=FACE_OUTER_BOUND('',#47,.T.);
#36=FACE_OUTER_BOUND('',#48,.T.);
#37=FACE_OUTER_BOUND('',#49,.T.);
#38=FACE_OUTER_BOUND('',#50,.T.);
#39=FACE_OUTER_BOUND('',#51,.T.);
#40=FACE_OUTER_BOUND('',#52,.T.);
#41=FACE_OUTER_BOUND('',#53,.T.);
#42=FACE_OUTER_BOUND('',#54,.T.);
#43=EDGE_LOOP('',(#129,#130,#131,#132));
#44=EDGE_LOOP('',(#133));
#45=EDGE_LOOP('',(#134,#135,#136,#137));
#46=EDGE_LOOP('',(#138));
#47=EDGE_LOOP('',(#139,#140,#141,#142));
#48=EDGE_LOOP('',(#143));
#49=EDGE_LOOP('',(#144,#145,#146,#147));
#50=EDGE_LOOP('',(#148,#149,#150,#151));
#51=EDGE_LOOP('',(#152,#153,#154,#155));
#52=EDGE_LOOP('',(#156,#157,#158,#159));
#53=EDGE_LOOP('',(#160,#161,#162,#163));
#54=EDGE_LOOP('',(#164,#165,#166,#167));
#55=EDGE_LOOP('',(#168));
#56=EDGE_LOOP('',(#169));
#57=EDGE_LOOP('',(#170));
#58=LINE('',#283,#73);
#59=LINE('',#290,#74);
#60=LINE('',#297,#75);
#61=LINE('',#303,#76);
#62=LINE('',#305,#77);
#63=LINE('',#307,#78);
#64=LINE('',#308,#79);
#65=LINE('',#311,#80);
#66=LINE('',#313,#81);
#67=LINE('',#314,#82);
#68=LINE('',#317,#83);
#69=LINE('',#319,#84);
#70=LINE('',#320,#85);
#71=LINE('',#322,#86);
#72=LINE('',#323,#87);
#73=VECTOR('',#228,1.49999999999999);
#74=VECTOR('',#237,1.49999999999999);
#75=VECTOR('',#246,1.49999999999999);
#76=VECTOR('',#253,10.);
#77=VECTOR('',#254,10.);
#78=VECTOR('',#255,10.);
#79=VECTOR('',#256,10.);
#80=VECTOR('',#259,10.);
#81=VECTOR('',#260,10.);
#82=VECTOR('',#261,10.);
#83=VECTOR('',#264,10.);
#84=VECTOR('',#265,10.);
#85=VECTOR('',#266,10.);
#86=VECTOR('',#269,10.);
#87=VECTOR('',#270,10.);
#88=CIRCLE('',#202,1.49999999999999);
#89=CIRCLE('',#203,1.49999999999999);
#90=CIRCLE('',#206,1.49999999999999);
#91=CIRCLE('',#207,1.49999999999999);
#92=CIRCLE('',#210,1.49999999999999);
#93=CIRCLE('',#211,1.49999999999999);
#94=VERTEX_POINT('',#280);
#95=VERTEX_POINT('',#282);
#96=VERTEX_POINT('',#287);
#97=VERTEX_POINT('',#289);
#98=VERTEX_POINT('',#294);
#99=VERTEX_POINT('',#296);
#100=VERTEX_POINT('',#301);
#101=VERTEX_POINT('',#302);
#102=VERTEX_POINT('',#304);
#103=VERTEX_POINT('',#306);
#104=VERTEX_POINT('',#310);
#105=VERTEX_POINT('',#312);
#106=VERTEX_POINT('',#316);
#107=VERTEX_POINT('',#318);
#108=EDGE_CURVE('',#94,#94,#88,.T.);
#109=EDGE_CURVE('',#94,#95,#58,.T.);
#110=EDGE_CURVE('',#95,#95,#89,.T.);
#111=EDGE_CURVE('',#96,#96,#90,.T.);
#112=EDGE_CURVE('',#96,#97,#59,.T.);
#113=EDGE_CURVE('',#97,#97,#91,.T.);
#114=EDGE_CURVE('',#98,#98,#92,.T.);
#115=EDGE_CURVE('',#98,#99,#60,.T.);
#116=EDGE_CURVE('',#99,#99,#93,.T.);
#117=EDGE_CURVE('',#100,#101,#61,.T.);
#118=EDGE_CURVE('',#101,#102,#62,.T.);
#119=EDGE_CURVE('',#103,#102,#63,.T.);
#120=EDGE_CURVE('',#100,#103,#64,.T.);
#121=EDGE_CURVE('',#104,#100,#65,.T.);
#122=EDGE_CURVE('',#105,#103,#66,.T.);
#123=EDGE_CURVE('',#104,#105,#67,.T.);
#124=EDGE_CURVE('',#106,#104,#68,.T.);
#125=EDGE_CURVE('',#107,#105,#69,.T.);
#126=EDGE_CURVE('',#106,#107,#70,.T.);
#127=EDGE_CURVE('',#101,#106,#71,.T.);
#128=EDGE_CURVE('',#102,#107,#72,.T.);
#129=ORIENTED_EDGE('',*,*,#108,.F.);
#130=ORIENTED_EDGE('',*,*,#109,.T.);
#131=ORIENTED_EDGE('',*,*,#110,.T.);
#132=ORIENTED_EDGE('',*,*,#109,.F.);
#133=ORIENTED_EDGE('',*,*,#110,.F.);
#134=ORIENTED_EDGE('',*,*,#111,.F.);
#135=ORIENTED_EDGE('',*,*,#112,.T.);
#136=ORIENTED_EDGE('',*,*,#113,.T.);
#137=ORIENTED_EDGE('',*,*,#112,.F.);
#138=ORIENTED_EDGE('',*,*,#113,.F.);
#139=ORIENTED_EDGE('',*,*,#114,.F.);
#140=ORIENTED_EDGE('',*,*,#115,.T.);
#141=ORIENTED_EDGE('',*,*,#116,.T.);
#142=ORIENTED_EDGE('',*,*,#115,.F.);
#143=ORIENTED_EDGE('',*,*,#116,.F.);
#144=ORIENTED_EDGE('',*,*,#117,.T.);
#145=ORIENTED_EDGE('',*,*,#118,.T.);
#146=ORIENTED_EDGE('',*,*,#119,.F.);
#147=ORIENTED_EDGE('',*,*,#120,.F.);
#148=ORIENTED_EDGE('',*,*,#121,.T.);
#149=ORIENTED_EDGE('',*,*,#120,.T.);
#150=ORIENTED_EDGE('',*,*,#122,.F.);
#151=ORIENTED_EDGE('',*,*,#123,.F.);
#152=ORIENTED_EDGE('',*,*,#124,.T.);
#153=ORIENTED_EDGE('',*,*,#123,.T.);
#154=ORIENTED_EDGE('',*,*,#125,.F.);
#155=ORIENTED_EDGE('',*,*,#126,.F.);
#156=ORIENTED_EDGE('',*,*,#127,.T.);
#157=ORIENTED_EDGE('',*,*,#126,.T.);
#158=ORIENTED_EDGE('',*,*,#128,.F.);
#159=ORIENTED_EDGE('',*,*,#118,.F.);
#160=ORIENTED_EDGE('',*,*,#128,.T.);
#161=ORIENTED_EDGE('',*,*,#125,.T.);
#162=ORIENTED_EDGE('',*,*,#122,.T.);
#163=ORIENTED_EDGE('',*,*,#119,.T.);
#164=ORIENTED_EDGE('',*,*,#127,.F.);
#165=ORIENTED_EDGE('',*,*,#117,.F.);
#166=ORIENTED_EDGE('',*,*,#121,.F.);
#167=ORIENTED_EDGE('',*,*,#124,.F.);
#168=ORIENTED_EDGE('',*,*,#108,.T.);
#169=ORIENTED_EDGE('',*,*,#111,.T.);
#170=ORIENTED_EDGE('',*,*,#114,.T.);
#171=CYLINDRICAL_SURFACE('',#201,1.49999999999999);
#172=CYLINDRICAL_SURFACE('',#205,1.49999999999999);
#173=CYLINDRICAL_SURFACE('',#209,1.49999999999999);
#174=ADVANCED_FACE('',(#31),#171,.F.);
#175=ADVANCED_FACE('',(#32),#22,.T.);
#176=ADVANCED_FACE('',(#33),#172,.F.);
#177=ADVANCED_FACE('',(#34),#23,.T.);
#178=ADVANCED_FACE('',(#35),#173,.F.);
#179=ADVANCED_FACE('',(#36),#24,.T.);
#180=ADVANCED_FACE('',(#37),#25,.T.);
#181=ADVANCED_FACE('',(#38),#26,.T.);
#182=ADVANCED_FACE('',(#39),#27,.T.);
#183=ADVANCED_FACE('',(#40),#28,.T.);
#184=ADVANCED_FACE('',(#41),#29,.T.);
#185=ADVANCED_FACE('',(#42,#19,#20,#21),#30,.F.);
#186=CLOSED_SHELL('',(#174,#175,#176,#177,#178,#179,#180,#181,#182,#183,
#184,#185));
#187=DERIVED_UNIT_ELEMENT(#189,1.);
#188=DERIVED_UNIT_ELEMENT(#334,-3.);
#189=(
MASS_UNIT()
NAMED_UNIT(*)
SI_UNIT(.KILO.,.GRAM.)
);
#190=DERIVED_UNIT((#187,#188));
#191=MEASURE_REPRESENTATION_ITEM('density measure',
POSITIVE_RATIO_MEASURE(7850.),#190);
#192=PROPERTY_DEFINITION_REPRESENTATION(#197,#194);
#193=PROPERTY_DEFINITION_REPRESENTATION(#198,#195);
#194=REPRESENTATION('material name',(#196),#331);
#195=REPRESENTATION('density',(#191),#331);
#196=DESCRIPTIVE_REPRESENTATION_ITEM('Steel','Steel');
#197=PROPERTY_DEFINITION('material property','material name',#346);
#198=PROPERTY_DEFINITION('material property','density of part',#346);
#199=AXIS2_PLACEMENT_3D('',#277,#220,#221);
#200=AXIS2_PLACEMENT_3D('',#278,#222,#223);
#201=AXIS2_PLACEMENT_3D('',#279,#224,#225);
#202=AXIS2_PLACEMENT_3D('',#281,#226,#227);
#203=AXIS2_PLACEMENT_3D('',#284,#229,#230);
#204=AXIS2_PLACEMENT_3D('',#285,#231,#232);
#205=AXIS2_PLACEMENT_3D('',#286,#233,#234);
#206=AXIS2_PLACEMENT_3D('',#288,#235,#236);
#207=AXIS2_PLACEMENT_3D('',#291,#238,#239);
#208=AXIS2_PLACEMENT_3D('',#292,#240,#241);
#209=AXIS2_PLACEMENT_3D('',#293,#242,#243);
#210=AXIS2_PLACEMENT_3D('',#295,#244,#245);
#211=AXIS2_PLACEMENT_3D('',#298,#247,#248);
#212=AXIS2_PLACEMENT_3D('',#299,#249,#250);
#213=AXIS2_PLACEMENT_3D('',#300,#251,#252);
#214=AXIS2_PLACEMENT_3D('',#309,#257,#258);
#215=AXIS2_PLACEMENT_3D('',#315,#262,#263);
#216=AXIS2_PLACEMENT_3D('',#321,#267,#268);
#217=AXIS2_PLACEMENT_3D('',#324,#271,#272);
#218=AXIS2_PLACEMENT_3D('',#325,#273,#274);
#219=AXIS2_PLACEMENT_3D('',#326,#275,#276);
#220=DIRECTION('axis',(0.,0.,1.));
#221=DIRECTION('refdir',(1.,0.,0.));
#222=DIRECTION('axis',(0.,0.,1.));
#223=DIRECTION('refdir',(1.,0.,0.));
#224=DIRECTION('center_axis',(0.,0.,-1.));
#225=DIRECTION('ref_axis',(-1.,0.,0.));
#226=DIRECTION('center_axis',(0.,0.,-1.));
#227=DIRECTION('ref_axis',(-1.,0.,0.));
#228=DIRECTION('',(0.,0.,-1.));
#229=DIRECTION('center_axis',(0.,0.,-1.));
#230=DIRECTION('ref_axis',(-1.,0.,0.));
#231=DIRECTION('center_axis',(0.,0.,1.));
#232=DIRECTION('ref_axis',(-1.,0.,0.));
#233=DIRECTION('center_axis',(0.,0.,-1.));
#234=DIRECTION('ref_axis',(-1.,0.,0.));
#235=DIRECTION('center_axis',(0.,0.,-1.));
#236=DIRECTION('ref_axis',(-1.,0.,0.));
#237=DIRECTION('',(0.,0.,-1.));
#238=DIRECTION('center_axis',(0.,0.,-1.));
#239=DIRECTION('ref_axis',(-1.,0.,0.));
#240=DIRECTION('center_axis',(0.,0.,1.));
#241=DIRECTION('ref_axis',(-1.,0.,0.));
#242=DIRECTION('center_axis',(0.,0.,-1.));
#243=DIRECTION('ref_axis',(-1.,0.,0.));
#244=DIRECTION('center_axis',(0.,0.,-1.));
#245=DIRECTION('ref_axis',(-1.,0.,0.));
#246=DIRECTION('',(0.,0.,-1.));
#247=DIRECTION('center_axis',(0.,0.,-1.));
#248=DIRECTION('ref_axis',(-1.,0.,0.));
#249=DIRECTION('center_axis',(0.,0.,1.));
#250=DIRECTION('ref_axis',(-1.,0.,0.));
#251=DIRECTION('center_axis',(0.,1.,0.));
#252=DIRECTION('ref_axis',(1.,0.,0.));
#253=DIRECTION('',(1.,0.,0.));
#254=DIRECTION('',(0.,0.,-1.));
#255=DIRECTION('',(1.,0.,0.));
#256=DIRECTION('',(0.,0.,-1.));
#257=DIRECTION('center_axis',(-1.,0.,0.));
#258=DIRECTION('ref_axis',(0.,1.,0.));
#259=DIRECTION('',(0.,1.,0.));
#260=DIRECTION('',(0.,1.,0.));
#261=DIRECTION('',(0.,0.,-1.));
#262=DIRECTION('center_axis',(0.,-1.,0.));
#263=DIRECTION('ref_axis',(-1.,0.,0.));
#264=DIRECTION('',(-1.,0.,0.));
#265=DIRECTION('',(-1.,0.,0.));
#266=DIRECTION('',(0.,0.,-1.));
#267=DIRECTION('center_axis',(1.,-2.8421709430404E-15,0.));
#268=DIRECTION('ref_axis',(-2.8421709430404E-15,-1.,0.));
#269=DIRECTION('',(-2.8421709430404E-15,-1.,0.));
#270=DIRECTION('',(-2.8421709430404E-15,-1.,0.));
#271=DIRECTION('center_axis',(0.,0.,-1.));
#272=DIRECTION('ref_axis',(-1.,0.,0.));
#273=DIRECTION('center_axis',(0.,0.,-1.));
#274=DIRECTION('ref_axis',(1.,0.,0.));
#275=DIRECTION('',(0.,0.,1.));
#276=DIRECTION('',(1.,0.,0.));
#277=CARTESIAN_POINT('',(0.,0.,0.));
#278=CARTESIAN_POINT('',(0.,0.,0.));
#279=CARTESIAN_POINT('Origin',(227.000001639128,-17.5000002607703,3.));
#280=CARTESIAN_POINT('',(228.500001639128,-17.5000002607703,0.));
#281=CARTESIAN_POINT('Origin',(227.000001639128,-17.5000002607703,0.));
#282=CARTESIAN_POINT('',(228.500001639128,-17.5000002607703,-12.));
#283=CARTESIAN_POINT('',(228.500001639128,-17.5000002607703,3.));
#284=CARTESIAN_POINT('Origin',(227.000001639128,-17.5000002607703,-12.));
#285=CARTESIAN_POINT('Origin',(227.000001639128,-17.5000002607703,-12.));
#286=CARTESIAN_POINT('Origin',(243.000001639128,-17.5000002607703,3.));
#287=CARTESIAN_POINT('',(244.500001639128,-17.5000002607703,0.));
#288=CARTESIAN_POINT('Origin',(243.000001639128,-17.5000002607703,0.));
#289=CARTESIAN_POINT('',(244.500001639128,-17.5000002607703,-12.));
#290=CARTESIAN_POINT('',(244.500001639128,-17.5000002607703,3.));
#291=CARTESIAN_POINT('Origin',(243.000001639128,-17.5000002607703,-12.));
#292=CARTESIAN_POINT('Origin',(243.000001639128,-17.5000002607703,-12.));
#293=CARTESIAN_POINT('Origin',(235.000001639128,-17.5000002607703,3.));
#294=CARTESIAN_POINT('',(236.500001639128,-17.5000002607703,0.));
#295=CARTESIAN_POINT('Origin',(235.000001639128,-17.5000002607703,0.));
#296=CARTESIAN_POINT('',(236.500001639128,-17.5000002607703,-12.));
#297=CARTESIAN_POINT('',(236.500001639128,-17.5000002607703,3.));
#298=CARTESIAN_POINT('Origin',(235.000001639128,-17.5000002607703,-12.));
#299=CARTESIAN_POINT('Origin',(235.000001639128,-17.5000002607703,-12.));
#300=CARTESIAN_POINT('Origin',(220.,-10.,0.));
#301=CARTESIAN_POINT('',(220.,-10.,0.));
#302=CARTESIAN_POINT('',(250.,-10.,0.));
#303=CARTESIAN_POINT('',(220.,-10.,0.));
#304=CARTESIAN_POINT('',(250.,-10.,-100.));
#305=CARTESIAN_POINT('',(250.,-10.,0.));
#306=CARTESIAN_POINT('',(220.,-10.,-100.));
#307=CARTESIAN_POINT('',(220.,-10.,-100.));
#308=CARTESIAN_POINT('',(220.,-10.,0.));
#309=CARTESIAN_POINT('Origin',(220.,-35.,0.));
#310=CARTESIAN_POINT('',(220.,-35.,0.));
#311=CARTESIAN_POINT('',(220.,-35.,0.));
#312=CARTESIAN_POINT('',(220.,-35.,-100.));
#313=CARTESIAN_POINT('',(220.,-35.,-100.));
#314=CARTESIAN_POINT('',(220.,-35.,0.));
#315=CARTESIAN_POINT('Origin',(250.,-35.,0.));
#316=CARTESIAN_POINT('',(250.,-35.,0.));
#317=CARTESIAN_POINT('',(250.,-35.,0.));
#318=CARTESIAN_POINT('',(250.,-35.,-100.));
#319=CARTESIAN_POINT('',(250.,-35.,-100.));
#320=CARTESIAN_POINT('',(250.,-35.,0.));
#321=CARTESIAN_POINT('Origin',(250.,-10.,0.));
#322=CARTESIAN_POINT('',(250.,-10.,0.));
#323=CARTESIAN_POINT('',(250.,-10.,-100.));
#324=CARTESIAN_POINT('Origin',(235.,-22.5,-100.));
#325=CARTESIAN_POINT('Origin',(235.,-22.5,0.));
#326=CARTESIAN_POINT('',(0.,0.,0.));
#327=UNCERTAINTY_MEASURE_WITH_UNIT(LENGTH_MEASURE(0.01),#333,
'DISTANCE_ACCURACY_VALUE',
'Maximum model space distance between geometric entities at asserted c
onnectivities');
#328=UNCERTAINTY_MEASURE_WITH_UNIT(LENGTH_MEASURE(0.01),#333,
'DISTANCE_ACCURACY_VALUE',
'Maximum model space distance between geometric entities at asserted c
onnectivities');
#329=UNCERTAINTY_MEASURE_WITH_UNIT(LENGTH_MEASURE(0.01),#333,
'DISTANCE_ACCURACY_VALUE',
'Maximum model space distance between geometric entities at asserted c
onnectivities');
#330=(
GEOMETRIC_REPRESENTATION_CONTEXT(3)
GLOBAL_UNCERTAINTY_ASSIGNED_CONTEXT((#327))
GLOBAL_UNIT_ASSIGNED_CONTEXT((#333,#335,#336))
REPRESENTATION_CONTEXT('','3D')
);
#331=(
GEOMETRIC_REPRESENTATION_CONTEXT(3)
GLOBAL_UNCERTAINTY_ASSIGNED_CONTEXT((#328))
GLOBAL_UNIT_ASSIGNED_CONTEXT((#333,#335,#336))
REPRESENTATION_CONTEXT('','3D')
);
#332=(
GEOMETRIC_REPRESENTATION_CONTEXT(3)
GLOBAL_UNCERTAINTY_ASSIGNED_CONTEXT((#329))
GLOBAL_UNIT_ASSIGNED_CONTEXT((#333,#335,#336))
REPRESENTATION_CONTEXT('','3D')
);
#333=(
LENGTH_UNIT()
NAMED_UNIT(*)
SI_UNIT(.MILLI.,.METRE.)
);
#334=(
LENGTH_UNIT()
NAMED_UNIT(*)
SI_UNIT($,.METRE.)
);
#335=(
NAMED_UNIT(*)
PLANE_ANGLE_UNIT()
SI_UNIT($,.RADIAN.)
);
#336=(
NAMED_UNIT(*)
SI_UNIT($,.STERADIAN.)
SOLID_ANGLE_UNIT()
);
#337=SHAPE_DEFINITION_REPRESENTATION(#339,#342);
#338=SHAPE_DEFINITION_REPRESENTATION(#340,#343);
#339=PRODUCT_DEFINITION_SHAPE('',$,#345);
#340=PRODUCT_DEFINITION_SHAPE('',$,#346);
#341=PRODUCT_DEFINITION_SHAPE($,$,#14);
#342=SHAPE_REPRESENTATION('',(#199,#219),#330);
#343=SHAPE_REPRESENTATION('',(#200),#331);
#344=PRODUCT_DEFINITION_CONTEXT('part definition',#352,'design');
#345=PRODUCT_DEFINITION('Bridge','Bridge v23',#347,#344);
#346=PRODUCT_DEFINITION('Legs','Legs',#348,#344);
#347=PRODUCT_DEFINITION_FORMATION('',$,#354);
#348=PRODUCT_DEFINITION_FORMATION('',$,#355);
#349=PRODUCT_RELATED_PRODUCT_CATEGORY('Bridge v23','Bridge v23',(#354));
#350=PRODUCT_RELATED_PRODUCT_CATEGORY('Legs','Legs',(#355));
#351=APPLICATION_PROTOCOL_DEFINITION('international standard',
'automotive_design',2009,#352);
#352=APPLICATION_CONTEXT(
'Core Data for Automotive Mechanical Design Process');
#353=PRODUCT_CONTEXT('part definition',#352,'mechanical');
#354=PRODUCT('Bridge','Bridge v23',$,(#353));
#355=PRODUCT('Legs','Legs',$,(#353));
#356=PRESENTATION_STYLE_ASSIGNMENT((#357));
#357=SURFACE_STYLE_USAGE(.BOTH.,#358);
#358=SURFACE_SIDE_STYLE('',(#359));
#359=SURFACE_STYLE_FILL_AREA(#360);
#360=FILL_AREA_STYLE('Steel - Satin',(#361));
#361=FILL_AREA_STYLE_COLOUR('Steel - Satin',#362);
#362=COLOUR_RGB('Steel - Satin',0.627450980392157,0.627450980392157,0.627450980392157);
ENDSEC;
END-ISO-10303-21;
