ISO-10303-21;
HEADER;
/* Generated by software containing ST-Developer
 * from STEP Tools, Inc. (www.steptools.com) 
 */

FILE_DESCRIPTION(
/* description */ (''),
/* implementation_level */ '2;1');

FILE_NAME(
/* name */ 'truss1.step',
/* time_stamp */ '2026-08-18T23:42:29+05:30',
/* author */ (''),
/* organization */ (''),
/* preprocessor_version */ 'ST-DEVELOPER v20.1',
/* originating_system */ 'Autodesk Translation Framework v15.8.0.0',
/* authorisation */ '');

FILE_SCHEMA (('AUTOMOTIVE_DESIGN { 1 0 10303 214 3 1 1 }'));
ENDSEC;

DATA;
#10=MECHANICAL_DESIGN_GEOMETRIC_PRESENTATION_REPRESENTATION('',(#17),#1469);
#11=ITEM_DEFINED_TRANSFORMATION($,$,#937,#984);
#12=(
REPRESENTATION_RELATIONSHIP($,$,#1480,#1479)
REPRESENTATION_RELATIONSHIP_WITH_TRANSFORMATION(#11)
SHAPE_REPRESENTATION_RELATIONSHIP()
);
#13=CONTEXT_DEPENDENT_SHAPE_REPRESENTATION(#12,#1478);
#14=NEXT_ASSEMBLY_USAGE_OCCURRENCE('Truss 1:1','Truss 1:1','Truss 1:1',
#1482,#1483,'Truss 1:1');
#15=SHAPE_REPRESENTATION_RELATIONSHIP('SRR','None',#1480,#16);
#16=ADVANCED_BREP_SHAPE_REPRESENTATION('',(#18),#1468);
#17=STYLED_ITEM('',(#1493),#18);
#18=MANIFOLD_SOLID_BREP('1',#923);
#19=FACE_BOUND('',#121,.T.);
#20=FACE_BOUND('',#126,.T.);
#21=FACE_BOUND('',#127,.T.);
#22=FACE_BOUND('',#128,.T.);
#23=FACE_BOUND('',#129,.T.);
#24=FACE_BOUND('',#154,.T.);
#25=FACE_BOUND('',#155,.T.);
#26=FACE_BOUND('',#156,.T.);
#27=PLANE('',#941);
#28=PLANE('',#942);
#29=PLANE('',#943);
#30=PLANE('',#944);
#31=PLANE('',#945);
#32=PLANE('',#946);
#33=PLANE('',#947);
#34=PLANE('',#948);
#35=PLANE('',#949);
#36=PLANE('',#950);
#37=PLANE('',#951);
#38=PLANE('',#952);
#39=PLANE('',#953);
#40=PLANE('',#954);
#41=PLANE('',#955);
#42=PLANE('',#956);
#43=PLANE('',#957);
#44=PLANE('',#958);
#45=PLANE('',#959);
#46=PLANE('',#960);
#47=PLANE('',#961);
#48=PLANE('',#962);
#49=PLANE('',#963);
#50=PLANE('',#964);
#51=PLANE('',#965);
#52=PLANE('',#966);
#53=PLANE('',#967);
#54=PLANE('',#968);
#55=PLANE('',#969);
#56=PLANE('',#970);
#57=PLANE('',#971);
#58=PLANE('',#972);
#59=PLANE('',#973);
#60=PLANE('',#974);
#61=PLANE('',#975);
#62=PLANE('',#976);
#63=PLANE('',#977);
#64=PLANE('',#978);
#65=PLANE('',#979);
#66=PLANE('',#980);
#67=PLANE('',#981);
#68=PLANE('',#982);
#69=PLANE('',#983);
#70=FACE_OUTER_BOUND('',#114,.T.);
#71=FACE_OUTER_BOUND('',#115,.T.);
#72=FACE_OUTER_BOUND('',#116,.T.);
#73=FACE_OUTER_BOUND('',#117,.T.);
#74=FACE_OUTER_BOUND('',#118,.T.);
#75=FACE_OUTER_BOUND('',#119,.T.);
#76=FACE_OUTER_BOUND('',#120,.T.);
#77=FACE_OUTER_BOUND('',#122,.T.);
#78=FACE_OUTER_BOUND('',#123,.T.);
#79=FACE_OUTER_BOUND('',#124,.T.);
#80=FACE_OUTER_BOUND('',#125,.T.);
#81=FACE_OUTER_BOUND('',#130,.T.);
#82=FACE_OUTER_BOUND('',#131,.T.);
#83=FACE_OUTER_BOUND('',#132,.T.);
#84=FACE_OUTER_BOUND('',#133,.T.);
#85=FACE_OUTER_BOUND('',#134,.T.);
#86=FACE_OUTER_BOUND('',#135,.T.);
#87=FACE_OUTER_BOUND('',#136,.T.);
#88=FACE_OUTER_BOUND('',#137,.T.);
#89=FACE_OUTER_BOUND('',#138,.T.);
#90=FACE_OUTER_BOUND('',#139,.T.);
#91=FACE_OUTER_BOUND('',#140,.T.);
#92=FACE_OUTER_BOUND('',#141,.T.);
#93=FACE_OUTER_BOUND('',#142,.T.);
#94=FACE_OUTER_BOUND('',#143,.T.);
#95=FACE_OUTER_BOUND('',#144,.T.);
#96=FACE_OUTER_BOUND('',#145,.T.);
#97=FACE_OUTER_BOUND('',#146,.T.);
#98=FACE_OUTER_BOUND('',#147,.T.);
#99=FACE_OUTER_BOUND('',#148,.T.);
#100=FACE_OUTER_BOUND('',#149,.T.);
#101=FACE_OUTER_BOUND('',#150,.T.);
#102=FACE_OUTER_BOUND('',#151,.T.);
#103=FACE_OUTER_BOUND('',#152,.T.);
#104=FACE_OUTER_BOUND('',#153,.T.);
#105=FACE_OUTER_BOUND('',#157,.T.);
#106=FACE_OUTER_BOUND('',#158,.T.);
#107=FACE_OUTER_BOUND('',#159,.T.);
#108=FACE_OUTER_BOUND('',#160,.T.);
#109=FACE_OUTER_BOUND('',#161,.T.);
#110=FACE_OUTER_BOUND('',#162,.T.);
#111=FACE_OUTER_BOUND('',#163,.T.);
#112=FACE_OUTER_BOUND('',#164,.T.);
#113=FACE_OUTER_BOUND('',#165,.T.);
#114=EDGE_LOOP('',(#626,#627,#628,#629));
#115=EDGE_LOOP('',(#630,#631,#632,#633));
#116=EDGE_LOOP('',(#634,#635,#636,#637));
#117=EDGE_LOOP('',(#638,#639,#640,#641));
#118=EDGE_LOOP('',(#642,#643,#644,#645,#646,#647));
#119=EDGE_LOOP('',(#648,#649,#650,#651,#652,#653));
#120=EDGE_LOOP('',(#654,#655,#656,#657));
#121=EDGE_LOOP('',(#658));
#122=EDGE_LOOP('',(#659,#660,#661,#662));
#123=EDGE_LOOP('',(#663,#664,#665,#666,#667,#668));
#124=EDGE_LOOP('',(#669,#670,#671,#672));
#125=EDGE_LOOP('',(#673,#674,#675,#676,#677,#678,#679,#680,#681,#682,#683,
#684,#685,#686,#687,#688,#689,#690,#691,#692,#693,#694,#695,#696));
#126=EDGE_LOOP('',(#697));
#127=EDGE_LOOP('',(#698,#699,#700,#701));
#128=EDGE_LOOP('',(#702,#703,#704,#705,#706));
#129=EDGE_LOOP('',(#707,#708,#709,#710));
#130=EDGE_LOOP('',(#711,#712,#713,#714));
#131=EDGE_LOOP('',(#715,#716,#717,#718));
#132=EDGE_LOOP('',(#719,#720,#721,#722));
#133=EDGE_LOOP('',(#723,#724,#725,#726));
#134=EDGE_LOOP('',(#727,#728,#729,#730));
#135=EDGE_LOOP('',(#731,#732,#733,#734));
#136=EDGE_LOOP('',(#735,#736,#737,#738));
#137=EDGE_LOOP('',(#739,#740,#741,#742));
#138=EDGE_LOOP('',(#743,#744,#745,#746,#747,#748));
#139=EDGE_LOOP('',(#749,#750,#751,#752));
#140=EDGE_LOOP('',(#753,#754,#755,#756));
#141=EDGE_LOOP('',(#757,#758,#759,#760));
#142=EDGE_LOOP('',(#761,#762,#763,#764));
#143=EDGE_LOOP('',(#765,#766,#767,#768));
#144=EDGE_LOOP('',(#769,#770,#771,#772));
#145=EDGE_LOOP('',(#773,#774,#775,#776));
#146=EDGE_LOOP('',(#777,#778,#779,#780));
#147=EDGE_LOOP('',(#781,#782,#783,#784));
#148=EDGE_LOOP('',(#785,#786,#787,#788));
#149=EDGE_LOOP('',(#789,#790,#791,#792));
#150=EDGE_LOOP('',(#793,#794,#795,#796));
#151=EDGE_LOOP('',(#797,#798,#799,#800));
#152=EDGE_LOOP('',(#801,#802,#803,#804));
#153=EDGE_LOOP('',(#805,#806,#807,#808,#809,#810,#811,#812,#813,#814,#815,
#816,#817,#818,#819,#820,#821,#822,#823,#824,#825,#826,#827,#828));
#154=EDGE_LOOP('',(#829,#830,#831,#832));
#155=EDGE_LOOP('',(#833,#834,#835,#836,#837));
#156=EDGE_LOOP('',(#838,#839,#840,#841));
#157=EDGE_LOOP('',(#842,#843,#844,#845));
#158=EDGE_LOOP('',(#846,#847,#848,#849));
#159=EDGE_LOOP('',(#850,#851,#852,#853));
#160=EDGE_LOOP('',(#854,#855,#856,#857));
#161=EDGE_LOOP('',(#858,#859,#860,#861));
#162=EDGE_LOOP('',(#862,#863,#864,#865));
#163=EDGE_LOOP('',(#866,#867,#868,#869));
#164=EDGE_LOOP('',(#870,#871,#872,#873));
#165=EDGE_LOOP('',(#874,#875,#876,#877));
#166=LINE('',#1213,#290);
#167=LINE('',#1218,#291);
#168=LINE('',#1220,#292);
#169=LINE('',#1222,#293);
#170=LINE('',#1223,#294);
#171=LINE('',#1226,#295);
#172=LINE('',#1228,#296);
#173=LINE('',#1229,#297);
#174=LINE('',#1232,#298);
#175=LINE('',#1234,#299);
#176=LINE('',#1235,#300);
#177=LINE('',#1238,#301);
#178=LINE('',#1240,#302);
#179=LINE('',#1241,#303);
#180=LINE('',#1244,#304);
#181=LINE('',#1246,#305);
#182=LINE('',#1247,#306);
#183=LINE('',#1251,#307);
#184=LINE('',#1253,#308);
#185=LINE('',#1255,#309);
#186=LINE('',#1256,#310);
#187=LINE('',#1259,#311);
#188=LINE('',#1261,#312);
#189=LINE('',#1262,#313);
#190=LINE('',#1265,#314);
#191=LINE('',#1267,#315);
#192=LINE('',#1269,#316);
#193=LINE('',#1270,#317);
#194=LINE('',#1273,#318);
#195=LINE('',#1274,#319);
#196=LINE('',#1276,#320);
#197=LINE('',#1278,#321);
#198=LINE('',#1280,#322);
#199=LINE('',#1282,#323);
#200=LINE('',#1284,#324);
#201=LINE('',#1286,#325);
#202=LINE('',#1288,#326);
#203=LINE('',#1290,#327);
#204=LINE('',#1292,#328);
#205=LINE('',#1294,#329);
#206=LINE('',#1296,#330);
#207=LINE('',#1298,#331);
#208=LINE('',#1300,#332);
#209=LINE('',#1302,#333);
#210=LINE('',#1304,#334);
#211=LINE('',#1306,#335);
#212=LINE('',#1308,#336);
#213=LINE('',#1310,#337);
#214=LINE('',#1311,#338);
#215=LINE('',#1314,#339);
#216=LINE('',#1316,#340);
#217=LINE('',#1318,#341);
#218=LINE('',#1319,#342);
#219=LINE('',#1322,#343);
#220=LINE('',#1324,#344);
#221=LINE('',#1326,#345);
#222=LINE('',#1328,#346);
#223=LINE('',#1329,#347);
#224=LINE('',#1332,#348);
#225=LINE('',#1334,#349);
#226=LINE('',#1336,#350);
#227=LINE('',#1337,#351);
#228=LINE('',#1341,#352);
#229=LINE('',#1342,#353);
#230=LINE('',#1343,#354);
#231=LINE('',#1346,#355);
#232=LINE('',#1347,#356);
#233=LINE('',#1350,#357);
#234=LINE('',#1351,#358);
#235=LINE('',#1353,#359);
#236=LINE('',#1357,#360);
#237=LINE('',#1358,#361);
#238=LINE('',#1359,#362);
#239=LINE('',#1362,#363);
#240=LINE('',#1363,#364);
#241=LINE('',#1366,#365);
#242=LINE('',#1367,#366);
#243=LINE('',#1369,#367);
#244=LINE('',#1371,#368);
#245=LINE('',#1374,#369);
#246=LINE('',#1376,#370);
#247=LINE('',#1377,#371);
#248=LINE('',#1380,#372);
#249=LINE('',#1381,#373);
#250=LINE('',#1384,#374);
#251=LINE('',#1386,#375);
#252=LINE('',#1387,#376);
#253=LINE('',#1390,#377);
#254=LINE('',#1391,#378);
#255=LINE('',#1394,#379);
#256=LINE('',#1396,#380);
#257=LINE('',#1397,#381);
#258=LINE('',#1400,#382);
#259=LINE('',#1401,#383);
#260=LINE('',#1404,#384);
#261=LINE('',#1405,#385);
#262=LINE('',#1408,#386);
#263=LINE('',#1409,#387);
#264=LINE('',#1412,#388);
#265=LINE('',#1413,#389);
#266=LINE('',#1416,#390);
#267=LINE('',#1418,#391);
#268=LINE('',#1419,#392);
#269=LINE('',#1421,#393);
#270=LINE('',#1424,#394);
#271=LINE('',#1425,#395);
#272=LINE('',#1428,#396);
#273=LINE('',#1430,#397);
#274=LINE('',#1431,#398);
#275=LINE('',#1433,#399);
#276=LINE('',#1436,#400);
#277=LINE('',#1438,#401);
#278=LINE('',#1439,#402);
#279=LINE('',#1440,#403);
#280=LINE('',#1442,#404);
#281=LINE('',#1443,#405);
#282=LINE('',#1445,#406);
#283=LINE('',#1447,#407);
#284=LINE('',#1448,#408);
#285=LINE('',#1450,#409);
#286=LINE('',#1452,#410);
#287=LINE('',#1455,#411);
#288=LINE('',#1457,#412);
#289=LINE('',#1461,#413);
#290=VECTOR('',#993,1.5);
#291=VECTOR('',#998,10.);
#292=VECTOR('',#999,10.);
#293=VECTOR('',#1000,10.);
#294=VECTOR('',#1001,10.);
#295=VECTOR('',#1004,10.);
#296=VECTOR('',#1005,10.);
#297=VECTOR('',#1006,10.);
#298=VECTOR('',#1009,10.);
#299=VECTOR('',#1010,10.);
#300=VECTOR('',#1011,10.);
#301=VECTOR('',#1014,10.);
#302=VECTOR('',#1015,10.);
#303=VECTOR('',#1016,10.);
#304=VECTOR('',#1019,10.);
#305=VECTOR('',#1020,10.);
#306=VECTOR('',#1021,10.);
#307=VECTOR('',#1024,10.);
#308=VECTOR('',#1025,10.);
#309=VECTOR('',#1026,10.);
#310=VECTOR('',#1027,10.);
#311=VECTOR('',#1030,10.);
#312=VECTOR('',#1031,10.);
#313=VECTOR('',#1032,10.);
#314=VECTOR('',#1035,10.);
#315=VECTOR('',#1036,10.);
#316=VECTOR('',#1037,10.);
#317=VECTOR('',#1038,10.);
#318=VECTOR('',#1041,10.);
#319=VECTOR('',#1042,10.);
#320=VECTOR('',#1045,10.);
#321=VECTOR('',#1046,10.);
#322=VECTOR('',#1047,10.);
#323=VECTOR('',#1048,10.);
#324=VECTOR('',#1049,10.);
#325=VECTOR('',#1050,10.);
#326=VECTOR('',#1051,10.);
#327=VECTOR('',#1052,10.);
#328=VECTOR('',#1053,10.);
#329=VECTOR('',#1054,10.);
#330=VECTOR('',#1055,10.);
#331=VECTOR('',#1056,10.);
#332=VECTOR('',#1057,10.);
#333=VECTOR('',#1058,10.);
#334=VECTOR('',#1059,10.);
#335=VECTOR('',#1060,10.);
#336=VECTOR('',#1061,10.);
#337=VECTOR('',#1062,10.);
#338=VECTOR('',#1063,10.);
#339=VECTOR('',#1064,10.);
#340=VECTOR('',#1065,10.);
#341=VECTOR('',#1066,10.);
#342=VECTOR('',#1067,10.);
#343=VECTOR('',#1068,10.);
#344=VECTOR('',#1069,10.);
#345=VECTOR('',#1070,10.);
#346=VECTOR('',#1071,10.);
#347=VECTOR('',#1072,10.);
#348=VECTOR('',#1073,10.);
#349=VECTOR('',#1074,10.);
#350=VECTOR('',#1075,10.);
#351=VECTOR('',#1076,10.);
#352=VECTOR('',#1079,10.);
#353=VECTOR('',#1080,10.);
#354=VECTOR('',#1081,10.);
#355=VECTOR('',#1084,10.);
#356=VECTOR('',#1085,10.);
#357=VECTOR('',#1088,10.);
#358=VECTOR('',#1089,10.);
#359=VECTOR('',#1092,10.);
#360=VECTOR('',#1095,10.);
#361=VECTOR('',#1096,10.);
#362=VECTOR('',#1097,10.);
#363=VECTOR('',#1100,10.);
#364=VECTOR('',#1101,10.);
#365=VECTOR('',#1104,10.);
#366=VECTOR('',#1105,10.);
#367=VECTOR('',#1108,10.);
#368=VECTOR('',#1111,10.);
#369=VECTOR('',#1114,10.);
#370=VECTOR('',#1115,10.);
#371=VECTOR('',#1116,10.);
#372=VECTOR('',#1119,10.);
#373=VECTOR('',#1120,10.);
#374=VECTOR('',#1123,10.);
#375=VECTOR('',#1124,10.);
#376=VECTOR('',#1125,10.);
#377=VECTOR('',#1128,10.);
#378=VECTOR('',#1129,10.);
#379=VECTOR('',#1132,10.);
#380=VECTOR('',#1133,10.);
#381=VECTOR('',#1134,10.);
#382=VECTOR('',#1137,10.);
#383=VECTOR('',#1138,10.);
#384=VECTOR('',#1141,10.);
#385=VECTOR('',#1142,10.);
#386=VECTOR('',#1145,10.);
#387=VECTOR('',#1146,10.);
#388=VECTOR('',#1149,10.);
#389=VECTOR('',#1150,10.);
#390=VECTOR('',#1153,10.);
#391=VECTOR('',#1154,10.);
#392=VECTOR('',#1155,10.);
#393=VECTOR('',#1158,10.);
#394=VECTOR('',#1161,10.);
#395=VECTOR('',#1162,10.);
#396=VECTOR('',#1165,10.);
#397=VECTOR('',#1166,10.);
#398=VECTOR('',#1167,10.);
#399=VECTOR('',#1170,10.);
#400=VECTOR('',#1173,10.);
#401=VECTOR('',#1174,10.);
#402=VECTOR('',#1175,10.);
#403=VECTOR('',#1176,10.);
#404=VECTOR('',#1177,10.);
#405=VECTOR('',#1178,10.);
#406=VECTOR('',#1179,10.);
#407=VECTOR('',#1180,10.);
#408=VECTOR('',#1181,10.);
#409=VECTOR('',#1184,10.);
#410=VECTOR('',#1187,10.);
#411=VECTOR('',#1192,10.);
#412=VECTOR('',#1195,10.);
#413=VECTOR('',#1202,10.);
#414=CIRCLE('',#939,1.5);
#415=CIRCLE('',#940,1.5);
#416=VERTEX_POINT('',#1210);
#417=VERTEX_POINT('',#1212);
#418=VERTEX_POINT('',#1216);
#419=VERTEX_POINT('',#1217);
#420=VERTEX_POINT('',#1219);
#421=VERTEX_POINT('',#1221);
#422=VERTEX_POINT('',#1225);
#423=VERTEX_POINT('',#1227);
#424=VERTEX_POINT('',#1231);
#425=VERTEX_POINT('',#1233);
#426=VERTEX_POINT('',#1237);
#427=VERTEX_POINT('',#1239);
#428=VERTEX_POINT('',#1243);
#429=VERTEX_POINT('',#1245);
#430=VERTEX_POINT('',#1249);
#431=VERTEX_POINT('',#1250);
#432=VERTEX_POINT('',#1252);
#433=VERTEX_POINT('',#1254);
#434=VERTEX_POINT('',#1258);
#435=VERTEX_POINT('',#1260);
#436=VERTEX_POINT('',#1264);
#437=VERTEX_POINT('',#1266);
#438=VERTEX_POINT('',#1268);
#439=VERTEX_POINT('',#1272);
#440=VERTEX_POINT('',#1277);
#441=VERTEX_POINT('',#1279);
#442=VERTEX_POINT('',#1281);
#443=VERTEX_POINT('',#1283);
#444=VERTEX_POINT('',#1285);
#445=VERTEX_POINT('',#1287);
#446=VERTEX_POINT('',#1289);
#447=VERTEX_POINT('',#1291);
#448=VERTEX_POINT('',#1293);
#449=VERTEX_POINT('',#1295);
#450=VERTEX_POINT('',#1297);
#451=VERTEX_POINT('',#1299);
#452=VERTEX_POINT('',#1301);
#453=VERTEX_POINT('',#1303);
#454=VERTEX_POINT('',#1305);
#455=VERTEX_POINT('',#1307);
#456=VERTEX_POINT('',#1309);
#457=VERTEX_POINT('',#1312);
#458=VERTEX_POINT('',#1313);
#459=VERTEX_POINT('',#1315);
#460=VERTEX_POINT('',#1317);
#461=VERTEX_POINT('',#1320);
#462=VERTEX_POINT('',#1321);
#463=VERTEX_POINT('',#1323);
#464=VERTEX_POINT('',#1325);
#465=VERTEX_POINT('',#1327);
#466=VERTEX_POINT('',#1330);
#467=VERTEX_POINT('',#1331);
#468=VERTEX_POINT('',#1333);
#469=VERTEX_POINT('',#1335);
#470=VERTEX_POINT('',#1339);
#471=VERTEX_POINT('',#1340);
#472=VERTEX_POINT('',#1345);
#473=VERTEX_POINT('',#1349);
#474=VERTEX_POINT('',#1355);
#475=VERTEX_POINT('',#1356);
#476=VERTEX_POINT('',#1361);
#477=VERTEX_POINT('',#1365);
#478=VERTEX_POINT('',#1373);
#479=VERTEX_POINT('',#1375);
#480=VERTEX_POINT('',#1379);
#481=VERTEX_POINT('',#1383);
#482=VERTEX_POINT('',#1385);
#483=VERTEX_POINT('',#1389);
#484=VERTEX_POINT('',#1393);
#485=VERTEX_POINT('',#1395);
#486=VERTEX_POINT('',#1399);
#487=VERTEX_POINT('',#1403);
#488=VERTEX_POINT('',#1407);
#489=VERTEX_POINT('',#1411);
#490=VERTEX_POINT('',#1415);
#491=VERTEX_POINT('',#1417);
#492=VERTEX_POINT('',#1423);
#493=VERTEX_POINT('',#1427);
#494=VERTEX_POINT('',#1429);
#495=VERTEX_POINT('',#1435);
#496=VERTEX_POINT('',#1437);
#497=VERTEX_POINT('',#1441);
#498=VERTEX_POINT('',#1444);
#499=VERTEX_POINT('',#1446);
#500=EDGE_CURVE('',#416,#416,#414,.T.);
#501=EDGE_CURVE('',#416,#417,#166,.T.);
#502=EDGE_CURVE('',#417,#417,#415,.T.);
#503=EDGE_CURVE('',#418,#419,#167,.T.);
#504=EDGE_CURVE('',#420,#418,#168,.T.);
#505=EDGE_CURVE('',#421,#420,#169,.T.);
#506=EDGE_CURVE('',#419,#421,#170,.T.);
#507=EDGE_CURVE('',#422,#418,#171,.T.);
#508=EDGE_CURVE('',#422,#423,#172,.T.);
#509=EDGE_CURVE('',#423,#420,#173,.T.);
#510=EDGE_CURVE('',#424,#422,#174,.T.);
#511=EDGE_CURVE('',#425,#424,#175,.T.);
#512=EDGE_CURVE('',#423,#425,#176,.T.);
#513=EDGE_CURVE('',#425,#426,#177,.T.);
#514=EDGE_CURVE('',#426,#427,#178,.T.);
#515=EDGE_CURVE('',#421,#427,#179,.T.);
#516=EDGE_CURVE('',#428,#419,#180,.T.);
#517=EDGE_CURVE('',#429,#428,#181,.T.);
#518=EDGE_CURVE('',#429,#424,#182,.T.);
#519=EDGE_CURVE('',#430,#431,#183,.T.);
#520=EDGE_CURVE('',#432,#430,#184,.T.);
#521=EDGE_CURVE('',#433,#432,#185,.T.);
#522=EDGE_CURVE('',#433,#431,#186,.T.);
#523=EDGE_CURVE('',#431,#434,#187,.T.);
#524=EDGE_CURVE('',#435,#433,#188,.T.);
#525=EDGE_CURVE('',#434,#435,#189,.T.);
#526=EDGE_CURVE('',#436,#432,#190,.T.);
#527=EDGE_CURVE('',#437,#436,#191,.T.);
#528=EDGE_CURVE('',#438,#437,#192,.T.);
#529=EDGE_CURVE('',#438,#435,#193,.T.);
#530=EDGE_CURVE('',#430,#439,#194,.T.);
#531=EDGE_CURVE('',#436,#439,#195,.T.);
#532=EDGE_CURVE('',#439,#428,#196,.T.);
#533=EDGE_CURVE('',#427,#440,#197,.T.);
#534=EDGE_CURVE('',#440,#441,#198,.T.);
#535=EDGE_CURVE('',#441,#442,#199,.T.);
#536=EDGE_CURVE('',#443,#442,#200,.T.);
#537=EDGE_CURVE('',#444,#443,#201,.T.);
#538=EDGE_CURVE('',#444,#445,#202,.T.);
#539=EDGE_CURVE('',#445,#446,#203,.T.);
#540=EDGE_CURVE('',#446,#447,#204,.T.);
#541=EDGE_CURVE('',#447,#448,#205,.T.);
#542=EDGE_CURVE('',#448,#449,#206,.T.);
#543=EDGE_CURVE('',#450,#449,#207,.T.);
#544=EDGE_CURVE('',#451,#450,#208,.T.);
#545=EDGE_CURVE('',#451,#452,#209,.T.);
#546=EDGE_CURVE('',#452,#453,#210,.T.);
#547=EDGE_CURVE('',#453,#454,#211,.T.);
#548=EDGE_CURVE('',#454,#455,#212,.T.);
#549=EDGE_CURVE('',#455,#456,#213,.T.);
#550=EDGE_CURVE('',#456,#437,#214,.T.);
#551=EDGE_CURVE('',#457,#458,#215,.T.);
#552=EDGE_CURVE('',#458,#459,#216,.T.);
#553=EDGE_CURVE('',#459,#460,#217,.T.);
#554=EDGE_CURVE('',#460,#457,#218,.T.);
#555=EDGE_CURVE('',#461,#462,#219,.T.);
#556=EDGE_CURVE('',#462,#463,#220,.T.);
#557=EDGE_CURVE('',#463,#464,#221,.T.);
#558=EDGE_CURVE('',#464,#465,#222,.T.);
#559=EDGE_CURVE('',#465,#461,#223,.T.);
#560=EDGE_CURVE('',#466,#467,#224,.T.);
#561=EDGE_CURVE('',#467,#468,#225,.T.);
#562=EDGE_CURVE('',#468,#469,#226,.T.);
#563=EDGE_CURVE('',#469,#466,#227,.T.);
#564=EDGE_CURVE('',#470,#471,#228,.T.);
#565=EDGE_CURVE('',#469,#470,#229,.T.);
#566=EDGE_CURVE('',#468,#471,#230,.T.);
#567=EDGE_CURVE('',#471,#472,#231,.T.);
#568=EDGE_CURVE('',#467,#472,#232,.T.);
#569=EDGE_CURVE('',#472,#473,#233,.T.);
#570=EDGE_CURVE('',#466,#473,#234,.T.);
#571=EDGE_CURVE('',#473,#470,#235,.T.);
#572=EDGE_CURVE('',#474,#475,#236,.T.);
#573=EDGE_CURVE('',#460,#474,#237,.T.);
#574=EDGE_CURVE('',#459,#475,#238,.T.);
#575=EDGE_CURVE('',#475,#476,#239,.T.);
#576=EDGE_CURVE('',#458,#476,#240,.T.);
#577=EDGE_CURVE('',#476,#477,#241,.T.);
#578=EDGE_CURVE('',#457,#477,#242,.T.);
#579=EDGE_CURVE('',#477,#474,#243,.T.);
#580=EDGE_CURVE('',#434,#429,#244,.T.);
#581=EDGE_CURVE('',#478,#464,#245,.T.);
#582=EDGE_CURVE('',#479,#478,#246,.T.);
#583=EDGE_CURVE('',#465,#479,#247,.T.);
#584=EDGE_CURVE('',#479,#480,#248,.T.);
#585=EDGE_CURVE('',#480,#461,#249,.T.);
#586=EDGE_CURVE('',#481,#452,#250,.T.);
#587=EDGE_CURVE('',#482,#481,#251,.T.);
#588=EDGE_CURVE('',#453,#482,#252,.T.);
#589=EDGE_CURVE('',#482,#483,#253,.T.);
#590=EDGE_CURVE('',#483,#454,#254,.T.);
#591=EDGE_CURVE('',#484,#446,#255,.T.);
#592=EDGE_CURVE('',#485,#484,#256,.T.);
#593=EDGE_CURVE('',#447,#485,#257,.T.);
#594=EDGE_CURVE('',#485,#486,#258,.T.);
#595=EDGE_CURVE('',#486,#448,#259,.T.);
#596=EDGE_CURVE('',#487,#426,#260,.T.);
#597=EDGE_CURVE('',#440,#487,#261,.T.);
#598=EDGE_CURVE('',#487,#488,#262,.T.);
#599=EDGE_CURVE('',#488,#441,#263,.T.);
#600=EDGE_CURVE('',#486,#489,#264,.T.);
#601=EDGE_CURVE('',#449,#489,#265,.T.);
#602=EDGE_CURVE('',#490,#451,#266,.T.);
#603=EDGE_CURVE('',#491,#450,#267,.T.);
#604=EDGE_CURVE('',#490,#491,#268,.T.);
#605=EDGE_CURVE('',#489,#491,#269,.T.);
#606=EDGE_CURVE('',#488,#492,#270,.T.);
#607=EDGE_CURVE('',#442,#492,#271,.T.);
#608=EDGE_CURVE('',#493,#444,#272,.T.);
#609=EDGE_CURVE('',#494,#443,#273,.T.);
#610=EDGE_CURVE('',#493,#494,#274,.T.);
#611=EDGE_CURVE('',#492,#494,#275,.T.);
#612=EDGE_CURVE('',#495,#438,#276,.T.);
#613=EDGE_CURVE('',#496,#495,#277,.T.);
#614=EDGE_CURVE('',#483,#496,#278,.T.);
#615=EDGE_CURVE('',#490,#481,#279,.T.);
#616=EDGE_CURVE('',#497,#484,#280,.T.);
#617=EDGE_CURVE('',#493,#497,#281,.T.);
#618=EDGE_CURVE('',#480,#498,#282,.T.);
#619=EDGE_CURVE('',#499,#478,#283,.T.);
#620=EDGE_CURVE('',#498,#499,#284,.T.);
#621=EDGE_CURVE('',#498,#462,#285,.T.);
#622=EDGE_CURVE('',#499,#463,#286,.T.);
#623=EDGE_CURVE('',#495,#456,#287,.T.);
#624=EDGE_CURVE('',#496,#455,#288,.T.);
#625=EDGE_CURVE('',#497,#445,#289,.T.);
#626=ORIENTED_EDGE('',*,*,#500,.F.);
#627=ORIENTED_EDGE('',*,*,#501,.T.);
#628=ORIENTED_EDGE('',*,*,#502,.F.);
#629=ORIENTED_EDGE('',*,*,#501,.F.);
#630=ORIENTED_EDGE('',*,*,#503,.F.);
#631=ORIENTED_EDGE('',*,*,#504,.F.);
#632=ORIENTED_EDGE('',*,*,#505,.F.);
#633=ORIENTED_EDGE('',*,*,#506,.F.);
#634=ORIENTED_EDGE('',*,*,#507,.F.);
#635=ORIENTED_EDGE('',*,*,#508,.T.);
#636=ORIENTED_EDGE('',*,*,#509,.T.);
#637=ORIENTED_EDGE('',*,*,#504,.T.);
#638=ORIENTED_EDGE('',*,*,#510,.F.);
#639=ORIENTED_EDGE('',*,*,#511,.F.);
#640=ORIENTED_EDGE('',*,*,#512,.F.);
#641=ORIENTED_EDGE('',*,*,#508,.F.);
#642=ORIENTED_EDGE('',*,*,#509,.F.);
#643=ORIENTED_EDGE('',*,*,#512,.T.);
#644=ORIENTED_EDGE('',*,*,#513,.T.);
#645=ORIENTED_EDGE('',*,*,#514,.T.);
#646=ORIENTED_EDGE('',*,*,#515,.F.);
#647=ORIENTED_EDGE('',*,*,#505,.T.);
#648=ORIENTED_EDGE('',*,*,#510,.T.);
#649=ORIENTED_EDGE('',*,*,#507,.T.);
#650=ORIENTED_EDGE('',*,*,#503,.T.);
#651=ORIENTED_EDGE('',*,*,#516,.F.);
#652=ORIENTED_EDGE('',*,*,#517,.F.);
#653=ORIENTED_EDGE('',*,*,#518,.T.);
#654=ORIENTED_EDGE('',*,*,#519,.F.);
#655=ORIENTED_EDGE('',*,*,#520,.F.);
#656=ORIENTED_EDGE('',*,*,#521,.F.);
#657=ORIENTED_EDGE('',*,*,#522,.T.);
#658=ORIENTED_EDGE('',*,*,#502,.T.);
#659=ORIENTED_EDGE('',*,*,#523,.F.);
#660=ORIENTED_EDGE('',*,*,#522,.F.);
#661=ORIENTED_EDGE('',*,*,#524,.F.);
#662=ORIENTED_EDGE('',*,*,#525,.F.);
#663=ORIENTED_EDGE('',*,*,#524,.T.);
#664=ORIENTED_EDGE('',*,*,#521,.T.);
#665=ORIENTED_EDGE('',*,*,#526,.F.);
#666=ORIENTED_EDGE('',*,*,#527,.F.);
#667=ORIENTED_EDGE('',*,*,#528,.F.);
#668=ORIENTED_EDGE('',*,*,#529,.T.);
#669=ORIENTED_EDGE('',*,*,#530,.T.);
#670=ORIENTED_EDGE('',*,*,#531,.F.);
#671=ORIENTED_EDGE('',*,*,#526,.T.);
#672=ORIENTED_EDGE('',*,*,#520,.T.);
#673=ORIENTED_EDGE('',*,*,#532,.T.);
#674=ORIENTED_EDGE('',*,*,#516,.T.);
#675=ORIENTED_EDGE('',*,*,#506,.T.);
#676=ORIENTED_EDGE('',*,*,#515,.T.);
#677=ORIENTED_EDGE('',*,*,#533,.T.);
#678=ORIENTED_EDGE('',*,*,#534,.T.);
#679=ORIENTED_EDGE('',*,*,#535,.T.);
#680=ORIENTED_EDGE('',*,*,#536,.F.);
#681=ORIENTED_EDGE('',*,*,#537,.F.);
#682=ORIENTED_EDGE('',*,*,#538,.T.);
#683=ORIENTED_EDGE('',*,*,#539,.T.);
#684=ORIENTED_EDGE('',*,*,#540,.T.);
#685=ORIENTED_EDGE('',*,*,#541,.T.);
#686=ORIENTED_EDGE('',*,*,#542,.T.);
#687=ORIENTED_EDGE('',*,*,#543,.F.);
#688=ORIENTED_EDGE('',*,*,#544,.F.);
#689=ORIENTED_EDGE('',*,*,#545,.T.);
#690=ORIENTED_EDGE('',*,*,#546,.T.);
#691=ORIENTED_EDGE('',*,*,#547,.T.);
#692=ORIENTED_EDGE('',*,*,#548,.T.);
#693=ORIENTED_EDGE('',*,*,#549,.T.);
#694=ORIENTED_EDGE('',*,*,#550,.T.);
#695=ORIENTED_EDGE('',*,*,#527,.T.);
#696=ORIENTED_EDGE('',*,*,#531,.T.);
#697=ORIENTED_EDGE('',*,*,#500,.T.);
#698=ORIENTED_EDGE('',*,*,#551,.T.);
#699=ORIENTED_EDGE('',*,*,#552,.T.);
#700=ORIENTED_EDGE('',*,*,#553,.T.);
#701=ORIENTED_EDGE('',*,*,#554,.T.);
#702=ORIENTED_EDGE('',*,*,#555,.T.);
#703=ORIENTED_EDGE('',*,*,#556,.T.);
#704=ORIENTED_EDGE('',*,*,#557,.T.);
#705=ORIENTED_EDGE('',*,*,#558,.T.);
#706=ORIENTED_EDGE('',*,*,#559,.T.);
#707=ORIENTED_EDGE('',*,*,#560,.T.);
#708=ORIENTED_EDGE('',*,*,#561,.T.);
#709=ORIENTED_EDGE('',*,*,#562,.T.);
#710=ORIENTED_EDGE('',*,*,#563,.T.);
#711=ORIENTED_EDGE('',*,*,#564,.F.);
#712=ORIENTED_EDGE('',*,*,#565,.F.);
#713=ORIENTED_EDGE('',*,*,#562,.F.);
#714=ORIENTED_EDGE('',*,*,#566,.T.);
#715=ORIENTED_EDGE('',*,*,#567,.F.);
#716=ORIENTED_EDGE('',*,*,#566,.F.);
#717=ORIENTED_EDGE('',*,*,#561,.F.);
#718=ORIENTED_EDGE('',*,*,#568,.T.);
#719=ORIENTED_EDGE('',*,*,#569,.F.);
#720=ORIENTED_EDGE('',*,*,#568,.F.);
#721=ORIENTED_EDGE('',*,*,#560,.F.);
#722=ORIENTED_EDGE('',*,*,#570,.T.);
#723=ORIENTED_EDGE('',*,*,#571,.F.);
#724=ORIENTED_EDGE('',*,*,#570,.F.);
#725=ORIENTED_EDGE('',*,*,#563,.F.);
#726=ORIENTED_EDGE('',*,*,#565,.T.);
#727=ORIENTED_EDGE('',*,*,#572,.F.);
#728=ORIENTED_EDGE('',*,*,#573,.F.);
#729=ORIENTED_EDGE('',*,*,#553,.F.);
#730=ORIENTED_EDGE('',*,*,#574,.T.);
#731=ORIENTED_EDGE('',*,*,#575,.F.);
#732=ORIENTED_EDGE('',*,*,#574,.F.);
#733=ORIENTED_EDGE('',*,*,#552,.F.);
#734=ORIENTED_EDGE('',*,*,#576,.T.);
#735=ORIENTED_EDGE('',*,*,#577,.F.);
#736=ORIENTED_EDGE('',*,*,#576,.F.);
#737=ORIENTED_EDGE('',*,*,#551,.F.);
#738=ORIENTED_EDGE('',*,*,#578,.T.);
#739=ORIENTED_EDGE('',*,*,#579,.F.);
#740=ORIENTED_EDGE('',*,*,#578,.F.);
#741=ORIENTED_EDGE('',*,*,#554,.F.);
#742=ORIENTED_EDGE('',*,*,#573,.T.);
#743=ORIENTED_EDGE('',*,*,#523,.T.);
#744=ORIENTED_EDGE('',*,*,#580,.T.);
#745=ORIENTED_EDGE('',*,*,#517,.T.);
#746=ORIENTED_EDGE('',*,*,#532,.F.);
#747=ORIENTED_EDGE('',*,*,#530,.F.);
#748=ORIENTED_EDGE('',*,*,#519,.T.);
#749=ORIENTED_EDGE('',*,*,#558,.F.);
#750=ORIENTED_EDGE('',*,*,#581,.F.);
#751=ORIENTED_EDGE('',*,*,#582,.F.);
#752=ORIENTED_EDGE('',*,*,#583,.F.);
#753=ORIENTED_EDGE('',*,*,#583,.T.);
#754=ORIENTED_EDGE('',*,*,#584,.T.);
#755=ORIENTED_EDGE('',*,*,#585,.T.);
#756=ORIENTED_EDGE('',*,*,#559,.F.);
#757=ORIENTED_EDGE('',*,*,#546,.F.);
#758=ORIENTED_EDGE('',*,*,#586,.F.);
#759=ORIENTED_EDGE('',*,*,#587,.F.);
#760=ORIENTED_EDGE('',*,*,#588,.F.);
#761=ORIENTED_EDGE('',*,*,#588,.T.);
#762=ORIENTED_EDGE('',*,*,#589,.T.);
#763=ORIENTED_EDGE('',*,*,#590,.T.);
#764=ORIENTED_EDGE('',*,*,#547,.F.);
#765=ORIENTED_EDGE('',*,*,#540,.F.);
#766=ORIENTED_EDGE('',*,*,#591,.F.);
#767=ORIENTED_EDGE('',*,*,#592,.F.);
#768=ORIENTED_EDGE('',*,*,#593,.F.);
#769=ORIENTED_EDGE('',*,*,#593,.T.);
#770=ORIENTED_EDGE('',*,*,#594,.T.);
#771=ORIENTED_EDGE('',*,*,#595,.T.);
#772=ORIENTED_EDGE('',*,*,#541,.F.);
#773=ORIENTED_EDGE('',*,*,#533,.F.);
#774=ORIENTED_EDGE('',*,*,#514,.F.);
#775=ORIENTED_EDGE('',*,*,#596,.F.);
#776=ORIENTED_EDGE('',*,*,#597,.F.);
#777=ORIENTED_EDGE('',*,*,#597,.T.);
#778=ORIENTED_EDGE('',*,*,#598,.T.);
#779=ORIENTED_EDGE('',*,*,#599,.T.);
#780=ORIENTED_EDGE('',*,*,#534,.F.);
#781=ORIENTED_EDGE('',*,*,#595,.F.);
#782=ORIENTED_EDGE('',*,*,#600,.T.);
#783=ORIENTED_EDGE('',*,*,#601,.F.);
#784=ORIENTED_EDGE('',*,*,#542,.F.);
#785=ORIENTED_EDGE('',*,*,#602,.T.);
#786=ORIENTED_EDGE('',*,*,#544,.T.);
#787=ORIENTED_EDGE('',*,*,#603,.F.);
#788=ORIENTED_EDGE('',*,*,#604,.F.);
#789=ORIENTED_EDGE('',*,*,#605,.T.);
#790=ORIENTED_EDGE('',*,*,#603,.T.);
#791=ORIENTED_EDGE('',*,*,#543,.T.);
#792=ORIENTED_EDGE('',*,*,#601,.T.);
#793=ORIENTED_EDGE('',*,*,#599,.F.);
#794=ORIENTED_EDGE('',*,*,#606,.T.);
#795=ORIENTED_EDGE('',*,*,#607,.F.);
#796=ORIENTED_EDGE('',*,*,#535,.F.);
#797=ORIENTED_EDGE('',*,*,#608,.T.);
#798=ORIENTED_EDGE('',*,*,#537,.T.);
#799=ORIENTED_EDGE('',*,*,#609,.F.);
#800=ORIENTED_EDGE('',*,*,#610,.F.);
#801=ORIENTED_EDGE('',*,*,#611,.T.);
#802=ORIENTED_EDGE('',*,*,#609,.T.);
#803=ORIENTED_EDGE('',*,*,#536,.T.);
#804=ORIENTED_EDGE('',*,*,#607,.T.);
#805=ORIENTED_EDGE('',*,*,#511,.T.);
#806=ORIENTED_EDGE('',*,*,#518,.F.);
#807=ORIENTED_EDGE('',*,*,#580,.F.);
#808=ORIENTED_EDGE('',*,*,#525,.T.);
#809=ORIENTED_EDGE('',*,*,#529,.F.);
#810=ORIENTED_EDGE('',*,*,#612,.F.);
#811=ORIENTED_EDGE('',*,*,#613,.F.);
#812=ORIENTED_EDGE('',*,*,#614,.F.);
#813=ORIENTED_EDGE('',*,*,#589,.F.);
#814=ORIENTED_EDGE('',*,*,#587,.T.);
#815=ORIENTED_EDGE('',*,*,#615,.F.);
#816=ORIENTED_EDGE('',*,*,#604,.T.);
#817=ORIENTED_EDGE('',*,*,#605,.F.);
#818=ORIENTED_EDGE('',*,*,#600,.F.);
#819=ORIENTED_EDGE('',*,*,#594,.F.);
#820=ORIENTED_EDGE('',*,*,#592,.T.);
#821=ORIENTED_EDGE('',*,*,#616,.F.);
#822=ORIENTED_EDGE('',*,*,#617,.F.);
#823=ORIENTED_EDGE('',*,*,#610,.T.);
#824=ORIENTED_EDGE('',*,*,#611,.F.);
#825=ORIENTED_EDGE('',*,*,#606,.F.);
#826=ORIENTED_EDGE('',*,*,#598,.F.);
#827=ORIENTED_EDGE('',*,*,#596,.T.);
#828=ORIENTED_EDGE('',*,*,#513,.F.);
#829=ORIENTED_EDGE('',*,*,#569,.T.);
#830=ORIENTED_EDGE('',*,*,#571,.T.);
#831=ORIENTED_EDGE('',*,*,#564,.T.);
#832=ORIENTED_EDGE('',*,*,#567,.T.);
#833=ORIENTED_EDGE('',*,*,#618,.F.);
#834=ORIENTED_EDGE('',*,*,#584,.F.);
#835=ORIENTED_EDGE('',*,*,#582,.T.);
#836=ORIENTED_EDGE('',*,*,#619,.F.);
#837=ORIENTED_EDGE('',*,*,#620,.F.);
#838=ORIENTED_EDGE('',*,*,#577,.T.);
#839=ORIENTED_EDGE('',*,*,#579,.T.);
#840=ORIENTED_EDGE('',*,*,#572,.T.);
#841=ORIENTED_EDGE('',*,*,#575,.T.);
#842=ORIENTED_EDGE('',*,*,#618,.T.);
#843=ORIENTED_EDGE('',*,*,#621,.T.);
#844=ORIENTED_EDGE('',*,*,#555,.F.);
#845=ORIENTED_EDGE('',*,*,#585,.F.);
#846=ORIENTED_EDGE('',*,*,#581,.T.);
#847=ORIENTED_EDGE('',*,*,#557,.F.);
#848=ORIENTED_EDGE('',*,*,#622,.F.);
#849=ORIENTED_EDGE('',*,*,#619,.T.);
#850=ORIENTED_EDGE('',*,*,#620,.T.);
#851=ORIENTED_EDGE('',*,*,#622,.T.);
#852=ORIENTED_EDGE('',*,*,#556,.F.);
#853=ORIENTED_EDGE('',*,*,#621,.F.);
#854=ORIENTED_EDGE('',*,*,#612,.T.);
#855=ORIENTED_EDGE('',*,*,#528,.T.);
#856=ORIENTED_EDGE('',*,*,#550,.F.);
#857=ORIENTED_EDGE('',*,*,#623,.F.);
#858=ORIENTED_EDGE('',*,*,#613,.T.);
#859=ORIENTED_EDGE('',*,*,#623,.T.);
#860=ORIENTED_EDGE('',*,*,#549,.F.);
#861=ORIENTED_EDGE('',*,*,#624,.F.);
#862=ORIENTED_EDGE('',*,*,#614,.T.);
#863=ORIENTED_EDGE('',*,*,#624,.T.);
#864=ORIENTED_EDGE('',*,*,#548,.F.);
#865=ORIENTED_EDGE('',*,*,#590,.F.);
#866=ORIENTED_EDGE('',*,*,#586,.T.);
#867=ORIENTED_EDGE('',*,*,#545,.F.);
#868=ORIENTED_EDGE('',*,*,#602,.F.);
#869=ORIENTED_EDGE('',*,*,#615,.T.);
#870=ORIENTED_EDGE('',*,*,#591,.T.);
#871=ORIENTED_EDGE('',*,*,#539,.F.);
#872=ORIENTED_EDGE('',*,*,#625,.F.);
#873=ORIENTED_EDGE('',*,*,#616,.T.);
#874=ORIENTED_EDGE('',*,*,#617,.T.);
#875=ORIENTED_EDGE('',*,*,#625,.T.);
#876=ORIENTED_EDGE('',*,*,#538,.F.);
#877=ORIENTED_EDGE('',*,*,#608,.F.);
#878=CYLINDRICAL_SURFACE('',#938,1.5);
#879=ADVANCED_FACE('',(#70),#878,.F.);
#880=ADVANCED_FACE('',(#71),#27,.F.);
#881=ADVANCED_FACE('',(#72),#28,.F.);
#882=ADVANCED_FACE('',(#73),#29,.F.);
#883=ADVANCED_FACE('',(#74),#30,.T.);
#884=ADVANCED_FACE('',(#75),#31,.T.);
#885=ADVANCED_FACE('',(#76,#19),#32,.T.);
#886=ADVANCED_FACE('',(#77),#33,.F.);
#887=ADVANCED_FACE('',(#78),#34,.T.);
#888=ADVANCED_FACE('',(#79),#35,.T.);
#889=ADVANCED_FACE('',(#80,#20,#21,#22,#23),#36,.T.);
#890=ADVANCED_FACE('',(#81),#37,.F.);
#891=ADVANCED_FACE('',(#82),#38,.F.);
#892=ADVANCED_FACE('',(#83),#39,.F.);
#893=ADVANCED_FACE('',(#84),#40,.F.);
#894=ADVANCED_FACE('',(#85),#41,.F.);
#895=ADVANCED_FACE('',(#86),#42,.F.);
#896=ADVANCED_FACE('',(#87),#43,.F.);
#897=ADVANCED_FACE('',(#88),#44,.F.);
#898=ADVANCED_FACE('',(#89),#45,.T.);
#899=ADVANCED_FACE('',(#90),#46,.T.);
#900=ADVANCED_FACE('',(#91),#47,.T.);
#901=ADVANCED_FACE('',(#92),#48,.T.);
#902=ADVANCED_FACE('',(#93),#49,.T.);
#903=ADVANCED_FACE('',(#94),#50,.T.);
#904=ADVANCED_FACE('',(#95),#51,.T.);
#905=ADVANCED_FACE('',(#96),#52,.T.);
#906=ADVANCED_FACE('',(#97),#53,.T.);
#907=ADVANCED_FACE('',(#98),#54,.T.);
#908=ADVANCED_FACE('',(#99),#55,.T.);
#909=ADVANCED_FACE('',(#100),#56,.T.);
#910=ADVANCED_FACE('',(#101),#57,.T.);
#911=ADVANCED_FACE('',(#102),#58,.T.);
#912=ADVANCED_FACE('',(#103),#59,.T.);
#913=ADVANCED_FACE('',(#104,#24,#25,#26),#60,.F.);
#914=ADVANCED_FACE('',(#105),#61,.T.);
#915=ADVANCED_FACE('',(#106),#62,.T.);
#916=ADVANCED_FACE('',(#107),#63,.T.);
#917=ADVANCED_FACE('',(#108),#64,.T.);
#918=ADVANCED_FACE('',(#109),#65,.T.);
#919=ADVANCED_FACE('',(#110),#66,.T.);
#920=ADVANCED_FACE('',(#111),#67,.T.);
#921=ADVANCED_FACE('',(#112),#68,.T.);
#922=ADVANCED_FACE('',(#113),#69,.T.);
#923=CLOSED_SHELL('',(#879,#880,#881,#882,#883,#884,#885,#886,#887,#888,
#889,#890,#891,#892,#893,#894,#895,#896,#897,#898,#899,#900,#901,#902,#903,
#904,#905,#906,#907,#908,#909,#910,#911,#912,#913,#914,#915,#916,#917,#918,
#919,#920,#921,#922));
#924=DERIVED_UNIT_ELEMENT(#926,1.);
#925=DERIVED_UNIT_ELEMENT(#1471,-3.);
#926=(
MASS_UNIT()
NAMED_UNIT(*)
SI_UNIT(.KILO.,.GRAM.)
);
#927=DERIVED_UNIT((#924,#925));
#928=MEASURE_REPRESENTATION_ITEM('density measure',
POSITIVE_RATIO_MEASURE(7850.),#927);
#929=PROPERTY_DEFINITION_REPRESENTATION(#934,#931);
#930=PROPERTY_DEFINITION_REPRESENTATION(#935,#932);
#931=REPRESENTATION('material name',(#933),#1468);
#932=REPRESENTATION('density',(#928),#1468);
#933=DESCRIPTIVE_REPRESENTATION_ITEM('Steel','Steel');
#934=PROPERTY_DEFINITION('material property','material name',#1483);
#935=PROPERTY_DEFINITION('material property','density of part',#1483);
#936=AXIS2_PLACEMENT_3D('',#1207,#985,#986);
#937=AXIS2_PLACEMENT_3D('',#1208,#987,#988);
#938=AXIS2_PLACEMENT_3D('',#1209,#989,#990);
#939=AXIS2_PLACEMENT_3D('',#1211,#991,#992);
#940=AXIS2_PLACEMENT_3D('',#1214,#994,#995);
#941=AXIS2_PLACEMENT_3D('',#1215,#996,#997);
#942=AXIS2_PLACEMENT_3D('',#1224,#1002,#1003);
#943=AXIS2_PLACEMENT_3D('',#1230,#1007,#1008);
#944=AXIS2_PLACEMENT_3D('',#1236,#1012,#1013);
#945=AXIS2_PLACEMENT_3D('',#1242,#1017,#1018);
#946=AXIS2_PLACEMENT_3D('',#1248,#1022,#1023);
#947=AXIS2_PLACEMENT_3D('',#1257,#1028,#1029);
#948=AXIS2_PLACEMENT_3D('',#1263,#1033,#1034);
#949=AXIS2_PLACEMENT_3D('',#1271,#1039,#1040);
#950=AXIS2_PLACEMENT_3D('',#1275,#1043,#1044);
#951=AXIS2_PLACEMENT_3D('',#1338,#1077,#1078);
#952=AXIS2_PLACEMENT_3D('',#1344,#1082,#1083);
#953=AXIS2_PLACEMENT_3D('',#1348,#1086,#1087);
#954=AXIS2_PLACEMENT_3D('',#1352,#1090,#1091);
#955=AXIS2_PLACEMENT_3D('',#1354,#1093,#1094);
#956=AXIS2_PLACEMENT_3D('',#1360,#1098,#1099);
#957=AXIS2_PLACEMENT_3D('',#1364,#1102,#1103);
#958=AXIS2_PLACEMENT_3D('',#1368,#1106,#1107);
#959=AXIS2_PLACEMENT_3D('',#1370,#1109,#1110);
#960=AXIS2_PLACEMENT_3D('',#1372,#1112,#1113);
#961=AXIS2_PLACEMENT_3D('',#1378,#1117,#1118);
#962=AXIS2_PLACEMENT_3D('',#1382,#1121,#1122);
#963=AXIS2_PLACEMENT_3D('',#1388,#1126,#1127);
#964=AXIS2_PLACEMENT_3D('',#1392,#1130,#1131);
#965=AXIS2_PLACEMENT_3D('',#1398,#1135,#1136);
#966=AXIS2_PLACEMENT_3D('',#1402,#1139,#1140);
#967=AXIS2_PLACEMENT_3D('',#1406,#1143,#1144);
#968=AXIS2_PLACEMENT_3D('',#1410,#1147,#1148);
#969=AXIS2_PLACEMENT_3D('',#1414,#1151,#1152);
#970=AXIS2_PLACEMENT_3D('',#1420,#1156,#1157);
#971=AXIS2_PLACEMENT_3D('',#1422,#1159,#1160);
#972=AXIS2_PLACEMENT_3D('',#1426,#1163,#1164);
#973=AXIS2_PLACEMENT_3D('',#1432,#1168,#1169);
#974=AXIS2_PLACEMENT_3D('',#1434,#1171,#1172);
#975=AXIS2_PLACEMENT_3D('',#1449,#1182,#1183);
#976=AXIS2_PLACEMENT_3D('',#1451,#1185,#1186);
#977=AXIS2_PLACEMENT_3D('',#1453,#1188,#1189);
#978=AXIS2_PLACEMENT_3D('',#1454,#1190,#1191);
#979=AXIS2_PLACEMENT_3D('',#1456,#1193,#1194);
#980=AXIS2_PLACEMENT_3D('',#1458,#1196,#1197);
#981=AXIS2_PLACEMENT_3D('',#1459,#1198,#1199);
#982=AXIS2_PLACEMENT_3D('',#1460,#1200,#1201);
#983=AXIS2_PLACEMENT_3D('',#1462,#1203,#1204);
#984=AXIS2_PLACEMENT_3D('',#1463,#1205,#1206);
#985=DIRECTION('axis',(0.,0.,1.));
#986=DIRECTION('refdir',(1.,0.,0.));
#987=DIRECTION('axis',(0.,0.,1.));
#988=DIRECTION('refdir',(1.,0.,0.));
#989=DIRECTION('center_axis',(0.,1.,0.));
#990=DIRECTION('ref_axis',(1.,0.,0.));
#991=DIRECTION('center_axis',(0.,1.,0.));
#992=DIRECTION('ref_axis',(1.,0.,0.));
#993=DIRECTION('',(0.,1.,0.));
#994=DIRECTION('center_axis',(0.,-1.,0.));
#995=DIRECTION('ref_axis',(1.,0.,0.));
#996=DIRECTION('center_axis',(1.,8.13801582215203E-45,2.28425496810317E-30));
#997=DIRECTION('ref_axis',(2.28425496810317E-30,0.,-1.));
#998=DIRECTION('',(0.,-1.,0.));
#999=DIRECTION('',(0.,0.,1.));
#1000=DIRECTION('',(0.,1.,0.));
#1001=DIRECTION('',(0.,0.,-1.));
#1002=DIRECTION('center_axis',(0.,-1.,0.));
#1003=DIRECTION('ref_axis',(-1.,0.,0.));
#1004=DIRECTION('',(-0.597228478733536,0.,-0.802071159056119));
#1005=DIRECTION('',(0.,0.,-1.));
#1006=DIRECTION('',(-0.597224152691061,0.,-0.802074380243157));
#1007=DIRECTION('center_axis',(1.,0.,0.));
#1008=DIRECTION('ref_axis',(0.,-1.,0.));
#1009=DIRECTION('',(0.,-1.,0.));
#1010=DIRECTION('',(0.,0.,1.));
#1011=DIRECTION('',(0.,1.,0.));
#1012=DIRECTION('center_axis',(0.802074380243157,0.,-0.597224152691061));
#1013=DIRECTION('ref_axis',(0.597224152691061,0.,0.802074380243157));
#1014=DIRECTION('',(0.597224152691061,0.,0.802074380243157));
#1015=DIRECTION('',(0.,-1.,0.));
#1016=DIRECTION('',(0.597224152691061,0.,0.802074380243157));
#1017=DIRECTION('center_axis',(-0.802071159056119,0.,0.597228478733536));
#1018=DIRECTION('ref_axis',(-0.597228478733536,0.,-0.802071159056119));
#1019=DIRECTION('',(-0.597228478733536,0.,-0.802071159056119));
#1020=DIRECTION('',(0.,-1.,0.));
#1021=DIRECTION('',(-0.597228478733536,0.,-0.802071159056119));
#1022=DIRECTION('center_axis',(0.,1.,0.));
#1023=DIRECTION('ref_axis',(1.,0.,0.));
#1024=DIRECTION('',(1.,0.,0.));
#1025=DIRECTION('',(0.,0.,-1.));
#1026=DIRECTION('',(-1.,0.,0.));
#1027=DIRECTION('',(0.,0.,-1.));
#1028=DIRECTION('center_axis',(1.,0.,0.));
#1029=DIRECTION('ref_axis',(0.,-1.,0.));
#1030=DIRECTION('',(0.,1.,0.));
#1031=DIRECTION('',(0.,-1.,0.));
#1032=DIRECTION('',(0.,0.,1.));
#1033=DIRECTION('center_axis',(0.,0.,1.));
#1034=DIRECTION('ref_axis',(-1.,0.,0.));
#1035=DIRECTION('',(0.,1.,0.));
#1036=DIRECTION('',(-1.,0.,0.));
#1037=DIRECTION('',(0.,-1.,0.));
#1038=DIRECTION('',(-1.,0.,0.));
#1039=DIRECTION('center_axis',(-1.,0.,0.));
#1040=DIRECTION('ref_axis',(0.,1.,0.));
#1041=DIRECTION('',(0.,-1.,0.));
#1042=DIRECTION('',(0.,0.,-1.));
#1043=DIRECTION('center_axis',(0.,-1.,0.));
#1044=DIRECTION('ref_axis',(0.,0.,-1.));
#1045=DIRECTION('',(1.,0.,0.));
#1046=DIRECTION('',(1.,0.,0.));
#1047=DIRECTION('',(0.,0.,-1.));
#1048=DIRECTION('',(2.17764119465613E-5,0.,-0.999999999762894));
#1049=DIRECTION('',(-0.999999999762894,0.,-2.17764119472836E-5));
#1050=DIRECTION('',(2.17764119465613E-5,0.,-0.999999999762894));
#1051=DIRECTION('',(0.999999985733972,0.,-0.000168914347272834));
#1052=DIRECTION('',(0.59722415269106,0.,0.802074380243158));
#1053=DIRECTION('',(1.,0.,-6.40136941449655E-16));
#1054=DIRECTION('',(0.,0.,-1.));
#1055=DIRECTION('',(2.17764119483377E-5,0.,-0.999999999762894));
#1056=DIRECTION('',(-0.999999999762894,0.,-2.17764119472837E-5));
#1057=DIRECTION('',(2.17764119483377E-5,0.,-0.999999999762894));
#1058=DIRECTION('',(0.000168914347272698,0.,0.999999985733971));
#1059=DIRECTION('',(1.,0.,-6.40136941449655E-16));
#1060=DIRECTION('',(0.514491526029907,0.,-0.857495463336931));
#1061=DIRECTION('',(1.,0.,0.));
#1062=DIRECTION('',(-0.514495786732745,0.,0.857492906929412));
#1063=DIRECTION('',(-0.514495376113558,0.,0.857493153300811));
#1064=DIRECTION('',(-1.,0.,0.));
#1065=DIRECTION('',(0.,0.,1.));
#1066=DIRECTION('',(1.,0.,0.));
#1067=DIRECTION('',(0.,0.,-1.));
#1068=DIRECTION('',(-0.597228478733536,0.,-0.802071159056119));
#1069=DIRECTION('',(-1.,0.,0.));
#1070=DIRECTION('',(0.000168914347272461,0.,0.999999985733971));
#1071=DIRECTION('',(0.662286031224649,0.,0.749251101330324));
#1072=DIRECTION('',(1.,0.,0.));
#1073=DIRECTION('',(0.,0.,1.));
#1074=DIRECTION('',(1.,0.,0.));
#1075=DIRECTION('',(0.,0.,-1.));
#1076=DIRECTION('',(-1.,0.,0.));
#1077=DIRECTION('center_axis',(1.,0.,0.));
#1078=DIRECTION('ref_axis',(0.,0.,-1.));
#1079=DIRECTION('',(0.,0.,1.));
#1080=DIRECTION('',(0.,1.,0.));
#1081=DIRECTION('',(0.,1.,0.));
#1082=DIRECTION('center_axis',(0.,0.,1.));
#1083=DIRECTION('ref_axis',(1.,0.,0.));
#1084=DIRECTION('',(-1.,0.,0.));
#1085=DIRECTION('',(0.,1.,0.));
#1086=DIRECTION('center_axis',(-1.,0.,0.));
#1087=DIRECTION('ref_axis',(0.,0.,1.));
#1088=DIRECTION('',(0.,0.,-1.));
#1089=DIRECTION('',(0.,1.,0.));
#1090=DIRECTION('center_axis',(0.,0.,-1.));
#1091=DIRECTION('ref_axis',(-1.,0.,0.));
#1092=DIRECTION('',(1.,0.,0.));
#1093=DIRECTION('center_axis',(0.,0.,1.));
#1094=DIRECTION('ref_axis',(1.,0.,0.));
#1095=DIRECTION('',(-1.,0.,0.));
#1096=DIRECTION('',(0.,1.,0.));
#1097=DIRECTION('',(0.,1.,0.));
#1098=DIRECTION('center_axis',(-1.,0.,0.));
#1099=DIRECTION('ref_axis',(0.,0.,1.));
#1100=DIRECTION('',(0.,0.,-1.));
#1101=DIRECTION('',(0.,1.,0.));
#1102=DIRECTION('center_axis',(0.,0.,-1.));
#1103=DIRECTION('ref_axis',(-1.,0.,0.));
#1104=DIRECTION('',(1.,0.,0.));
#1105=DIRECTION('',(0.,1.,0.));
#1106=DIRECTION('center_axis',(1.,0.,0.));
#1107=DIRECTION('ref_axis',(0.,0.,-1.));
#1108=DIRECTION('',(0.,0.,1.));
#1109=DIRECTION('center_axis',(0.,0.,-1.));
#1110=DIRECTION('ref_axis',(1.,0.,0.));
#1111=DIRECTION('',(1.,0.,0.));
#1112=DIRECTION('center_axis',(0.749251101330324,0.,-0.662286031224649));
#1113=DIRECTION('ref_axis',(-0.662286031224649,0.,-0.749251101330324));
#1114=DIRECTION('',(0.,-1.,0.));
#1115=DIRECTION('',(-0.662286031224649,0.,-0.749251101330324));
#1116=DIRECTION('',(0.,1.,0.));
#1117=DIRECTION('center_axis',(0.,0.,-1.));
#1118=DIRECTION('ref_axis',(1.,0.,0.));
#1119=DIRECTION('',(1.,0.,0.));
#1120=DIRECTION('',(0.,-1.,0.));
#1121=DIRECTION('center_axis',(-6.40136941449655E-16,0.,-1.));
#1122=DIRECTION('ref_axis',(-1.,0.,6.40136941449655E-16));
#1123=DIRECTION('',(0.,-1.,0.));
#1124=DIRECTION('',(-1.,0.,6.40136941449655E-16));
#1125=DIRECTION('',(0.,1.,0.));
#1126=DIRECTION('center_axis',(-0.857495463336931,0.,-0.514491526029907));
#1127=DIRECTION('ref_axis',(0.514491526029907,0.,-0.857495463336931));
#1128=DIRECTION('',(0.514491526029907,0.,-0.857495463336931));
#1129=DIRECTION('',(0.,-1.,0.));
#1130=DIRECTION('center_axis',(-6.40136941449655E-16,0.,-1.));
#1131=DIRECTION('ref_axis',(-1.,0.,6.40136941449655E-16));
#1132=DIRECTION('',(0.,-1.,0.));
#1133=DIRECTION('',(-1.,0.,6.40136941449655E-16));
#1134=DIRECTION('',(0.,1.,0.));
#1135=DIRECTION('center_axis',(-1.,0.,0.));
#1136=DIRECTION('ref_axis',(0.,0.,-1.));
#1137=DIRECTION('',(0.,0.,-1.));
#1138=DIRECTION('',(0.,-1.,0.));
#1139=DIRECTION('center_axis',(0.,0.,-1.));
#1140=DIRECTION('ref_axis',(-1.,0.,0.));
#1141=DIRECTION('',(-1.,0.,0.));
#1142=DIRECTION('',(0.,1.,0.));
#1143=DIRECTION('center_axis',(-1.,0.,0.));
#1144=DIRECTION('ref_axis',(0.,0.,-1.));
#1145=DIRECTION('',(0.,0.,-1.));
#1146=DIRECTION('',(0.,-1.,0.));
#1147=DIRECTION('center_axis',(-0.999999999762894,0.,-2.17764119483377E-5));
#1148=DIRECTION('ref_axis',(0.,1.,0.));
#1149=DIRECTION('',(2.17764119483377E-5,0.,-0.999999999762894));
#1150=DIRECTION('',(0.,1.,0.));
#1151=DIRECTION('center_axis',(0.999999999762894,0.,2.17764119483377E-5));
#1152=DIRECTION('ref_axis',(0.,-1.,0.));
#1153=DIRECTION('',(0.,-1.,0.));
#1154=DIRECTION('',(0.,-1.,0.));
#1155=DIRECTION('',(2.17764119483377E-5,0.,-0.999999999762894));
#1156=DIRECTION('center_axis',(2.17764119483377E-5,0.,-0.999999999762894));
#1157=DIRECTION('ref_axis',(-0.999999999762894,0.,-2.17764119483377E-5));
#1158=DIRECTION('',(0.999999999762894,0.,2.17764119472837E-5));
#1159=DIRECTION('center_axis',(-0.999999999762894,0.,-2.17764119465613E-5));
#1160=DIRECTION('ref_axis',(0.,1.,0.));
#1161=DIRECTION('',(2.17764119465613E-5,0.,-0.999999999762894));
#1162=DIRECTION('',(0.,1.,0.));
#1163=DIRECTION('center_axis',(0.999999999762894,0.,2.17764119465613E-5));
#1164=DIRECTION('ref_axis',(0.,-1.,0.));
#1165=DIRECTION('',(0.,-1.,0.));
#1166=DIRECTION('',(0.,-1.,0.));
#1167=DIRECTION('',(2.17764119465613E-5,0.,-0.999999999762894));
#1168=DIRECTION('center_axis',(2.17764119465613E-5,0.,-0.999999999762894));
#1169=DIRECTION('ref_axis',(-0.999999999762894,0.,-2.17764119465613E-5));
#1170=DIRECTION('',(0.999999999762894,0.,2.17764119472836E-5));
#1171=DIRECTION('center_axis',(0.,-1.,0.));
#1172=DIRECTION('ref_axis',(0.,0.,-1.));
#1173=DIRECTION('',(-0.514495376113558,0.,0.857493153300811));
#1174=DIRECTION('',(-0.514495786732745,0.,0.857492906929412));
#1175=DIRECTION('',(1.,0.,0.));
#1176=DIRECTION('',(0.000168914347272698,0.,0.999999985733971));
#1177=DIRECTION('',(0.59722415269106,0.,0.802074380243158));
#1178=DIRECTION('',(0.999999985733972,0.,-0.000168914347272834));
#1179=DIRECTION('',(-0.597228478733536,0.,-0.802071159056119));
#1180=DIRECTION('',(0.000168914347272461,0.,0.999999985733971));
#1181=DIRECTION('',(-1.,0.,0.));
#1182=DIRECTION('center_axis',(-0.802071159056119,0.,0.597228478733536));
#1183=DIRECTION('ref_axis',(-0.597228478733536,0.,-0.802071159056119));
#1184=DIRECTION('',(0.,-1.,0.));
#1185=DIRECTION('center_axis',(0.999999985733972,0.,-0.000168914347272461));
#1186=DIRECTION('ref_axis',(0.000168914347272461,0.,0.999999985733971));
#1187=DIRECTION('',(0.,-1.,0.));
#1188=DIRECTION('center_axis',(0.,0.,1.));
#1189=DIRECTION('ref_axis',(-1.,0.,0.));
#1190=DIRECTION('center_axis',(0.857493153300811,0.,0.514495376113558));
#1191=DIRECTION('ref_axis',(-0.514495376113558,0.,0.857493153300811));
#1192=DIRECTION('',(0.,-1.,0.));
#1193=DIRECTION('center_axis',(0.857492906929413,0.,0.514495786732745));
#1194=DIRECTION('ref_axis',(-0.514495786732745,0.,0.857492906929412));
#1195=DIRECTION('',(0.,-1.,0.));
#1196=DIRECTION('center_axis',(0.,0.,-1.));
#1197=DIRECTION('ref_axis',(1.,0.,0.));
#1198=DIRECTION('center_axis',(0.999999985733972,0.,-0.000168914347272698));
#1199=DIRECTION('ref_axis',(0.000168914347272698,0.,0.999999985733971));
#1200=DIRECTION('center_axis',(0.802074380243158,0.,-0.59722415269106));
#1201=DIRECTION('ref_axis',(0.59722415269106,0.,0.802074380243158));
#1202=DIRECTION('',(0.,-1.,0.));
#1203=DIRECTION('center_axis',(-0.000168914347272834,0.,-0.999999985733972));
#1204=DIRECTION('ref_axis',(0.999999985733972,0.,-0.000168914347272834));
#1205=DIRECTION('',(0.,0.,1.));
#1206=DIRECTION('',(1.,0.,0.));
#1207=CARTESIAN_POINT('',(0.,0.,0.));
#1208=CARTESIAN_POINT('',(0.,0.,0.));
#1209=CARTESIAN_POINT('Origin',(83.3333333333333,-30.,82.1666684084485));
#1210=CARTESIAN_POINT('',(81.8333333333333,-30.,82.1666684084485));
#1211=CARTESIAN_POINT('Origin',(83.3333333333333,-30.,82.1666684084485));
#1212=CARTESIAN_POINT('',(81.8333333333333,-27.5000001862645,82.1666684084485));
#1213=CARTESIAN_POINT('',(81.8333333333333,-30.,82.1666684084485));
#1214=CARTESIAN_POINT('Origin',(83.3333333333333,-27.5000001862645,82.1666684084485));
#1215=CARTESIAN_POINT('Origin',(75.8333333333333,-28.7500000931323,9.73099937583421));
#1216=CARTESIAN_POINT('',(75.8333333333333,-27.5000001862645,13.0888746242948));
#1217=CARTESIAN_POINT('',(75.8333333333333,-30.,13.0888746242948));
#1218=CARTESIAN_POINT('',(75.8333333333333,-15.,13.0888746242948));
#1219=CARTESIAN_POINT('',(75.8333333333333,-27.5000001862645,6.37312412737362));
#1220=CARTESIAN_POINT('',(75.8333333333333,-27.5000001862645,86.3333367721936));
#1221=CARTESIAN_POINT('',(75.8333333333333,-30.,6.37312412737363));
#1222=CARTESIAN_POINT('',(75.8333333333333,-15.,6.37312412737363));
#1223=CARTESIAN_POINT('',(75.8333333333333,-30.,63.4166726257992));
#1224=CARTESIAN_POINT('Origin',(90.8333333333333,-27.5000001862645,86.3333367721936));
#1225=CARTESIAN_POINT('',(90.8333333333333,-27.5000001862645,33.2337066513182));
#1226=CARTESIAN_POINT('',(83.3333333333333,-27.5000001862645,23.1612906378065));
#1227=CARTESIAN_POINT('',(90.8333333333333,-27.5000001862645,26.5181829791226));
#1228=CARTESIAN_POINT('',(90.8333333333333,-27.5000001862645,86.3333367721936));
#1229=CARTESIAN_POINT('',(83.3333333333333,-27.5000001862645,16.4456535532481));
#1230=CARTESIAN_POINT('Origin',(90.8333333333333,-25.000000372529,86.3333367721936));
#1231=CARTESIAN_POINT('',(90.8333333333333,-25.000000372529,33.2337066513182));
#1232=CARTESIAN_POINT('',(90.8333333333333,-12.5000001862645,33.2337066513182));
#1233=CARTESIAN_POINT('',(90.8333333333333,-25.000000372529,26.5181829791226));
#1234=CARTESIAN_POINT('',(90.8333333333333,-25.,63.4166726257992));
#1235=CARTESIAN_POINT('',(90.8333333333333,-12.5000001862645,26.5181829791226));
#1236=CARTESIAN_POINT('Origin',(73.3211715228776,0.,2.99928095959045));
#1237=CARTESIAN_POINT('',(124.252310211887,-25.,71.4000000447035));
#1238=CARTESIAN_POINT('',(80.9676134004432,-25.,13.2684824015929));
#1239=CARTESIAN_POINT('',(124.252310211887,-30.,71.4000000447035));
#1240=CARTESIAN_POINT('',(124.252310211887,-15.,71.4000000447035));
#1241=CARTESIAN_POINT('',(73.3211715228776,-30.,2.99928095959045));
#1242=CARTESIAN_POINT('Origin',(124.166666666667,0.,78.0000000447035));
#1243=CARTESIAN_POINT('',(124.166666666667,-30.,78.0000000447035));
#1244=CARTESIAN_POINT('',(83.3333333333333,-30.,23.1612906378065));
#1245=CARTESIAN_POINT('',(124.166666666667,-25.,78.0000000447035));
#1246=CARTESIAN_POINT('',(124.166666666667,0.,78.0000000447035));
#1247=CARTESIAN_POINT('',(104.781872994917,-25.,51.9664392183103));
#1248=CARTESIAN_POINT('Origin',(75.8333333333333,-27.5000001862645,86.3333367721936));
#1249=CARTESIAN_POINT('',(75.8333333333333,-27.5000001862645,78.0000000447035));
#1250=CARTESIAN_POINT('',(90.8333333333333,-27.5000001862645,78.0000000447035));
#1251=CARTESIAN_POINT('',(79.5835867412853,-27.5000001862645,78.0000000447035));
#1252=CARTESIAN_POINT('',(75.8333333333333,-27.5000001862645,86.3333367721936));
#1253=CARTESIAN_POINT('',(75.8333333333333,-27.5000001862645,86.3333367721936));
#1254=CARTESIAN_POINT('',(90.8333333333333,-27.5000001862645,86.3333367721936));
#1255=CARTESIAN_POINT('',(90.8333333333333,-27.5000001862645,86.3333367721936));
#1256=CARTESIAN_POINT('',(90.8333333333333,-27.5000001862645,86.3333367721936));
#1257=CARTESIAN_POINT('Origin',(90.8333333333333,-25.000000372529,86.3333367721936));
#1258=CARTESIAN_POINT('',(90.8333333333333,-25.000000372529,78.0000000447035));
#1259=CARTESIAN_POINT('',(90.8333333333333,-12.5000001862645,78.0000000447035));
#1260=CARTESIAN_POINT('',(90.8333333333333,-25.000000372529,86.3333367721936));
#1261=CARTESIAN_POINT('',(90.8333333333333,-12.5000001862645,86.3333367721936));
#1262=CARTESIAN_POINT('',(90.8333333333333,-25.,63.4166726257992));
#1263=CARTESIAN_POINT('Origin',(200.000002978872,0.,86.3333367721936));
#1264=CARTESIAN_POINT('',(75.8333333333333,-30.,86.3333367721936));
#1265=CARTESIAN_POINT('',(75.8333333333333,-30.,86.3333367721936));
#1266=CARTESIAN_POINT('',(200.000002978872,-30.,86.3333367721936));
#1267=CARTESIAN_POINT('',(-200.000002980232,-30.,86.3333367721936));
#1268=CARTESIAN_POINT('',(200.000002978872,-25.,86.3333367721936));
#1269=CARTESIAN_POINT('',(200.000002978872,0.,86.3333367721936));
#1270=CARTESIAN_POINT('',(132.916794860079,-25.,86.3333367721936));
#1271=CARTESIAN_POINT('Origin',(75.8333333333333,-30.,86.3333367721936));
#1272=CARTESIAN_POINT('',(75.8333333333333,-30.,78.0000000447035));
#1273=CARTESIAN_POINT('',(75.8333333333333,-29.3750000465661,78.0000000447035));
#1274=CARTESIAN_POINT('',(75.8333333333333,-30.,86.3333367721936));
#1275=CARTESIAN_POINT('Origin',(65.8335867412853,-30.,40.5000084794048));
#1276=CARTESIAN_POINT('',(200.,-30.,78.0000000447035));
#1277=CARTESIAN_POINT('',(129.166666666667,-30.,71.4000000447035));
#1278=CARTESIAN_POINT('',(124.252310211887,-30.,71.4000000447035));
#1279=CARTESIAN_POINT('',(129.166666666667,-30.,3.00001691410609));
#1280=CARTESIAN_POINT('',(129.166666666667,-30.,78.0000000447035));
#1281=CARTESIAN_POINT('',(129.166884430786,-30.,-6.99998308352285));
#1282=CARTESIAN_POINT('',(129.166666666667,-30.,3.00001691410609));
#1283=CARTESIAN_POINT('',(134.15472269166,-30.,-6.99987446630213));
#1284=CARTESIAN_POINT('',(129.166884430786,-30.,-6.99998308352285));
#1285=CARTESIAN_POINT('',(134.154504927541,-30.,3.00012553132682));
#1286=CARTESIAN_POINT('',(134.154504927541,-30.,3.00012553132682));
#1287=CARTESIAN_POINT('',(139.154504856211,-30.,2.99928095959045));
#1288=CARTESIAN_POINT('',(134.154504927541,-30.,3.00012553132682));
#1289=CARTESIAN_POINT('',(190.085643545221,-30.,71.4000000447035));
#1290=CARTESIAN_POINT('',(195.,-30.,78.0000000447035));
#1291=CARTESIAN_POINT('',(195.,-30.,71.4000000447035));
#1292=CARTESIAN_POINT('',(190.085643545221,-30.,71.4000000447035));
#1293=CARTESIAN_POINT('',(195.,-30.,3.00001691410609));
#1294=CARTESIAN_POINT('',(195.,-30.,78.0000000447035));
#1295=CARTESIAN_POINT('',(195.000217764119,-30.,-6.99998308352285));
#1296=CARTESIAN_POINT('',(195.,-30.,3.00001691410609));
#1297=CARTESIAN_POINT('',(199.988056024994,-30.,-6.99987446630213));
#1298=CARTESIAN_POINT('',(195.000217764119,-30.,-6.99998308352285));
#1299=CARTESIAN_POINT('',(199.987838260874,-30.,3.00012553132682));
#1300=CARTESIAN_POINT('',(199.987838260874,-30.,3.00012553132682));
#1301=CARTESIAN_POINT('',(199.999391981196,-30.,71.4000000447035));
#1302=CARTESIAN_POINT('',(199.987838260874,-30.,3.00012553132682));
#1303=CARTESIAN_POINT('',(203.96046254393,-30.,71.4000000447035));
#1304=CARTESIAN_POINT('',(190.085643545221,-30.,71.4000000447035));
#1305=CARTESIAN_POINT('',(245.00000372529,-30.,3.00000004470348));
#1306=CARTESIAN_POINT('',(245.00000372529,-30.,3.00000004470348));
#1307=CARTESIAN_POINT('',(250.00000372529,-30.,3.00000004470348));
#1308=CARTESIAN_POINT('',(250.00000372529,-30.,3.00000004470348));
#1309=CARTESIAN_POINT('',(205.000506744574,-30.,77.9991554729671));
#1310=CARTESIAN_POINT('',(205.000506744574,-30.,77.9991554729671));
#1311=CARTESIAN_POINT('',(202.000003010035,-30.,83.0000000447035));
#1312=CARTESIAN_POINT('',(134.160302039696,-30.,78.0000000447035));
#1313=CARTESIAN_POINT('',(129.166666666667,-30.,78.0000000447035));
#1314=CARTESIAN_POINT('',(99.9969443904908,-30.,78.0000000447035));
#1315=CARTESIAN_POINT('',(129.166666666667,-30.,83.0000000447035));
#1316=CARTESIAN_POINT('',(129.166666666667,-30.,59.2500042620541));
#1317=CARTESIAN_POINT('',(134.160302039696,-30.,83.0000000447035));
#1318=CARTESIAN_POINT('',(97.500126703976,-30.,83.0000000447035));
#1319=CARTESIAN_POINT('',(134.160302039696,-30.,61.7500042620541));
#1320=CARTESIAN_POINT('',(190.,-30.,78.0000000447035));
#1321=CARTESIAN_POINT('',(139.366666494558,-30.,10.0000001490116));
#1322=CARTESIAN_POINT('',(134.154504927541,-30.,3.00012553132682));
#1323=CARTESIAN_POINT('',(134.15568730681,-30.,10.0000001490116));
#1324=CARTESIAN_POINT('',(134.15568730681,-30.,10.0000001490116));
#1325=CARTESIAN_POINT('',(134.166058647863,-30.,71.4000000447035));
#1326=CARTESIAN_POINT('',(134.154504927541,-30.,3.00012553132682));
#1327=CARTESIAN_POINT('',(140.000002086163,-30.,78.0000011622906));
#1328=CARTESIAN_POINT('',(134.166058647863,-30.,71.4000000447035));
#1329=CARTESIAN_POINT('',(200.,-30.,78.0000000447035));
#1330=CARTESIAN_POINT('',(195.,-30.,78.0000000447035));
#1331=CARTESIAN_POINT('',(195.,-30.,83.0000000447035));
#1332=CARTESIAN_POINT('',(195.,-30.,59.2500042620541));
#1333=CARTESIAN_POINT('',(199.999999997516,-30.,83.0000000447035));
#1334=CARTESIAN_POINT('',(130.416793370643,-30.,83.0000000447035));
#1335=CARTESIAN_POINT('',(199.999999997516,-30.,78.0000000447035));
#1336=CARTESIAN_POINT('',(199.999999997516,-30.,61.7500042620541));
#1337=CARTESIAN_POINT('',(132.916793369401,-30.,78.0000000447035));
#1338=CARTESIAN_POINT('Origin',(199.999999997516,-30.,83.0000000447035));
#1339=CARTESIAN_POINT('',(199.999999997516,-25.,78.0000000447035));
#1340=CARTESIAN_POINT('',(199.999999997516,-25.,83.0000000447035));
#1341=CARTESIAN_POINT('',(199.999999997516,-25.,61.7500042620541));
#1342=CARTESIAN_POINT('',(199.999999997516,-30.,78.0000000447035));
#1343=CARTESIAN_POINT('',(199.999999997516,-30.,83.0000000447035));
#1344=CARTESIAN_POINT('Origin',(195.,-30.,83.0000000447035));
#1345=CARTESIAN_POINT('',(195.,-25.,83.0000000447035));
#1346=CARTESIAN_POINT('',(130.416793370643,-25.,83.0000000447035));
#1347=CARTESIAN_POINT('',(195.,-30.,83.0000000447035));
#1348=CARTESIAN_POINT('Origin',(195.,-30.,78.0000000447035));
#1349=CARTESIAN_POINT('',(195.,-25.,78.0000000447035));
#1350=CARTESIAN_POINT('',(195.,-25.,59.2500042620541));
#1351=CARTESIAN_POINT('',(195.,-30.,78.0000000447035));
#1352=CARTESIAN_POINT('Origin',(199.999999997516,-30.,78.0000000447035));
#1353=CARTESIAN_POINT('',(132.916793369401,-25.,78.0000000447035));
#1354=CARTESIAN_POINT('Origin',(129.166666666667,-30.,83.0000000447035));
#1355=CARTESIAN_POINT('',(134.160302039696,-25.,83.0000000447035));
#1356=CARTESIAN_POINT('',(129.166666666667,-25.,83.0000000447035));
#1357=CARTESIAN_POINT('',(97.500126703976,-25.,83.0000000447035));
#1358=CARTESIAN_POINT('',(134.160302039696,-30.,83.0000000447035));
#1359=CARTESIAN_POINT('',(129.166666666667,-30.,83.0000000447035));
#1360=CARTESIAN_POINT('Origin',(129.166666666667,-30.,78.0000000447035));
#1361=CARTESIAN_POINT('',(129.166666666667,-25.,78.0000000447035));
#1362=CARTESIAN_POINT('',(129.166666666667,-25.,59.2500042620541));
#1363=CARTESIAN_POINT('',(129.166666666667,-30.,78.0000000447035));
#1364=CARTESIAN_POINT('Origin',(134.160302039696,-30.,78.0000000447035));
#1365=CARTESIAN_POINT('',(134.160302039696,-25.,78.0000000447035));
#1366=CARTESIAN_POINT('',(99.9969443904908,-25.,78.0000000447035));
#1367=CARTESIAN_POINT('',(134.160302039696,-30.,78.0000000447035));
#1368=CARTESIAN_POINT('Origin',(134.160302039696,-30.,83.0000000447035));
#1369=CARTESIAN_POINT('',(134.160302039696,-25.,61.7500042620541));
#1370=CARTESIAN_POINT('Origin',(68.3338401492373,0.,78.0000000447035));
#1371=CARTESIAN_POINT('',(67.0837134452613,-25.,78.0000000447035));
#1372=CARTESIAN_POINT('Origin',(140.000002086163,-30.,78.0000011622906));
#1373=CARTESIAN_POINT('',(134.166058647863,-25.,71.4000000447035));
#1374=CARTESIAN_POINT('',(134.166058647863,-15.,71.4000000447035));
#1375=CARTESIAN_POINT('',(140.000002086163,-25.,78.0000011622906));
#1376=CARTESIAN_POINT('',(134.166058647863,-25.,71.4000000447035));
#1377=CARTESIAN_POINT('',(140.000001098293,-15.,78.0000000447035));
#1378=CARTESIAN_POINT('Origin',(134.167173482571,0.,78.0000000447035));
#1379=CARTESIAN_POINT('',(190.,-25.,78.0000000447035));
#1380=CARTESIAN_POINT('',(100.000380111928,-25.,78.0000000447035));
#1381=CARTESIAN_POINT('',(190.,0.,78.0000000447035));
#1382=CARTESIAN_POINT('Origin',(203.96046254393,-30.,71.4000000447035));
#1383=CARTESIAN_POINT('',(199.999391981196,-25.,71.4000000447035));
#1384=CARTESIAN_POINT('',(199.999391981196,-15.,71.4000000447035));
#1385=CARTESIAN_POINT('',(203.96046254393,-25.,71.4000000447035));
#1386=CARTESIAN_POINT('',(190.085643545221,-25.,71.4000000447035));
#1387=CARTESIAN_POINT('',(203.96046254393,-15.,71.4000000447035));
#1388=CARTESIAN_POINT('Origin',(200.000506815904,0.,78.0000000447035));
#1389=CARTESIAN_POINT('',(245.00000372529,-25.,3.00000004470348));
#1390=CARTESIAN_POINT('',(190.515425724876,-25.,93.8086452671057));
#1391=CARTESIAN_POINT('',(245.00000372529,0.,3.00000004470348));
#1392=CARTESIAN_POINT('Origin',(195.,-30.,71.4000000447035));
#1393=CARTESIAN_POINT('',(190.085643545221,-25.,71.4000000447035));
#1394=CARTESIAN_POINT('',(190.085643545221,-15.,71.4000000447035));
#1395=CARTESIAN_POINT('',(195.,-25.,71.4000000447035));
#1396=CARTESIAN_POINT('',(190.085643545221,-25.,71.4000000447035));
#1397=CARTESIAN_POINT('',(195.,-15.,71.4000000447035));
#1398=CARTESIAN_POINT('Origin',(195.,0.,78.0000000447035));
#1399=CARTESIAN_POINT('',(195.,-25.,3.00001691410609));
#1400=CARTESIAN_POINT('',(195.,-25.,59.2500042620541));
#1401=CARTESIAN_POINT('',(195.,0.,3.00001691410609));
#1402=CARTESIAN_POINT('Origin',(129.166666666667,-30.,71.4000000447035));
#1403=CARTESIAN_POINT('',(129.166666666667,-25.,71.4000000447035));
#1404=CARTESIAN_POINT('',(124.252310211887,-25.,71.4000000447035));
#1405=CARTESIAN_POINT('',(129.166666666667,-15.,71.4000000447035));
#1406=CARTESIAN_POINT('Origin',(129.166666666667,0.,78.0000000447035));
#1407=CARTESIAN_POINT('',(129.166666666667,-25.,3.00001691410609));
#1408=CARTESIAN_POINT('',(129.166666666667,-25.,59.2500042620541));
#1409=CARTESIAN_POINT('',(129.166666666667,0.,3.00001691410609));
#1410=CARTESIAN_POINT('Origin',(195.,-30.,3.00001691410609));
#1411=CARTESIAN_POINT('',(195.000217764119,-25.,-6.99998308352285));
#1412=CARTESIAN_POINT('',(195.,-25.,3.00001691410609));
#1413=CARTESIAN_POINT('',(195.000217764119,0.,-6.99998308352285));
#1414=CARTESIAN_POINT('Origin',(199.987838260874,-25.,3.00012553132682));
#1415=CARTESIAN_POINT('',(199.987838260874,-25.,3.00012553132682));
#1416=CARTESIAN_POINT('',(199.987838260874,0.,3.00012553132682));
#1417=CARTESIAN_POINT('',(199.988056024994,-25.,-6.99987446630213));
#1418=CARTESIAN_POINT('',(199.988056024994,0.,-6.99987446630213));
#1419=CARTESIAN_POINT('',(199.987838260874,-25.,3.00012553132682));
#1420=CARTESIAN_POINT('Origin',(195.000217764119,0.,-6.99998308352285));
#1421=CARTESIAN_POINT('',(130.41741947302,-25.,-7.00138946514347));
#1422=CARTESIAN_POINT('Origin',(129.166666666667,-30.,3.00001691410609));
#1423=CARTESIAN_POINT('',(129.166884430786,-25.,-6.99998308352285));
#1424=CARTESIAN_POINT('',(129.166666666667,-25.,3.00001691410609));
#1425=CARTESIAN_POINT('',(129.166884430786,0.,-6.99998308352285));
#1426=CARTESIAN_POINT('Origin',(134.154504927541,-25.,3.00012553132682));
#1427=CARTESIAN_POINT('',(134.154504927541,-25.,3.00012553132682));
#1428=CARTESIAN_POINT('',(134.154504927541,0.,3.00012553132682));
#1429=CARTESIAN_POINT('',(134.15472269166,-25.,-6.99987446630213));
#1430=CARTESIAN_POINT('',(134.15472269166,0.,-6.99987446630213));
#1431=CARTESIAN_POINT('',(134.154504927541,-25.,3.00012553132682));
#1432=CARTESIAN_POINT('Origin',(129.166884430786,0.,-6.99998308352285));
#1433=CARTESIAN_POINT('',(97.5007527907442,-25.,-7.00067265825038));
#1434=CARTESIAN_POINT('Origin',(65.8335867412853,-25.,40.5000084794048));
#1435=CARTESIAN_POINT('',(205.000506744574,-25.,77.9991554729671));
#1436=CARTESIAN_POINT('',(194.85324948416,-25.,94.9112678641705));
#1437=CARTESIAN_POINT('',(250.00000372529,-25.,3.00000004470348));
#1438=CARTESIAN_POINT('',(217.352972799013,-25.,57.4117137525354));
#1439=CARTESIAN_POINT('',(155.416795233288,-25.,3.00000004470348));
#1440=CARTESIAN_POINT('',(199.991003481106,-25.,21.7387361816384));
#1441=CARTESIAN_POINT('',(139.154504856211,-25.,2.99928095959045));
#1442=CARTESIAN_POINT('',(135.060339068757,-25.,-2.49919975621467));
#1443=CARTESIAN_POINT('',(99.990879675001,-25.,3.00589625786915));
#1444=CARTESIAN_POINT('',(139.366666494558,-25.,10.0000001490116));
#1445=CARTESIAN_POINT('',(158.874428574492,-25.,36.1987061705723));
#1446=CARTESIAN_POINT('',(134.15568730681,-25.,10.0000001490116));
#1447=CARTESIAN_POINT('',(134.158262276588,-25.,25.2442335876659));
#1448=CARTESIAN_POINT('',(102.600126617922,-25.,10.0000001490116));
#1449=CARTESIAN_POINT('Origin',(190.,0.,78.0000000447035));
#1450=CARTESIAN_POINT('',(139.366666494558,0.,10.0000001490116));
#1451=CARTESIAN_POINT('Origin',(134.15568730681,0.,10.0000001490116));
#1452=CARTESIAN_POINT('',(134.15568730681,0.,10.0000001490116));
#1453=CARTESIAN_POINT('Origin',(139.366666494558,0.,10.0000001490116));
#1454=CARTESIAN_POINT('Origin',(205.000506744574,0.,77.9991554729671));
#1455=CARTESIAN_POINT('',(205.000506744574,0.,77.9991554729671));
#1456=CARTESIAN_POINT('Origin',(250.00000372529,0.,3.00000004470349));
#1457=CARTESIAN_POINT('',(250.00000372529,0.,3.00000004470348));
#1458=CARTESIAN_POINT('Origin',(245.00000372529,0.,3.00000004470348));
#1459=CARTESIAN_POINT('Origin',(199.987838260874,0.,3.00012553132682));
#1460=CARTESIAN_POINT('Origin',(139.154504856211,0.,2.99928095959046));
#1461=CARTESIAN_POINT('',(139.154504856211,0.,2.99928095959045));
#1462=CARTESIAN_POINT('Origin',(134.154504927541,0.,3.00012553132682));
#1463=CARTESIAN_POINT('',(0.,0.,0.));
#1464=UNCERTAINTY_MEASURE_WITH_UNIT(LENGTH_MEASURE(0.01),#1470,
'DISTANCE_ACCURACY_VALUE',
'Maximum model space distance between geometric entities at asserted c
onnectivities');
#1465=UNCERTAINTY_MEASURE_WITH_UNIT(LENGTH_MEASURE(0.01),#1470,
'DISTANCE_ACCURACY_VALUE',
'Maximum model space distance between geometric entities at asserted c
onnectivities');
#1466=UNCERTAINTY_MEASURE_WITH_UNIT(LENGTH_MEASURE(0.01),#1470,
'DISTANCE_ACCURACY_VALUE',
'Maximum model space distance between geometric entities at asserted c
onnectivities');
#1467=(
GEOMETRIC_REPRESENTATION_CONTEXT(3)
GLOBAL_UNCERTAINTY_ASSIGNED_CONTEXT((#1464))
GLOBAL_UNIT_ASSIGNED_CONTEXT((#1470,#1472,#1473))
REPRESENTATION_CONTEXT('','3D')
);
#1468=(
GEOMETRIC_REPRESENTATION_CONTEXT(3)
GLOBAL_UNCERTAINTY_ASSIGNED_CONTEXT((#1465))
GLOBAL_UNIT_ASSIGNED_CONTEXT((#1470,#1472,#1473))
REPRESENTATION_CONTEXT('','3D')
);
#1469=(
GEOMETRIC_REPRESENTATION_CONTEXT(3)
GLOBAL_UNCERTAINTY_ASSIGNED_CONTEXT((#1466))
GLOBAL_UNIT_ASSIGNED_CONTEXT((#1470,#1472,#1473))
REPRESENTATION_CONTEXT('','3D')
);
#1470=(
LENGTH_UNIT()
NAMED_UNIT(*)
SI_UNIT(.MILLI.,.METRE.)
);
#1471=(
LENGTH_UNIT()
NAMED_UNIT(*)
SI_UNIT($,.METRE.)
);
#1472=(
NAMED_UNIT(*)
PLANE_ANGLE_UNIT()
SI_UNIT($,.RADIAN.)
);
#1473=(
NAMED_UNIT(*)
SI_UNIT($,.STERADIAN.)
SOLID_ANGLE_UNIT()
);
#1474=SHAPE_DEFINITION_REPRESENTATION(#1476,#1479);
#1475=SHAPE_DEFINITION_REPRESENTATION(#1477,#1480);
#1476=PRODUCT_DEFINITION_SHAPE('',$,#1482);
#1477=PRODUCT_DEFINITION_SHAPE('',$,#1483);
#1478=PRODUCT_DEFINITION_SHAPE($,$,#14);
#1479=SHAPE_REPRESENTATION('',(#936,#984),#1467);
#1480=SHAPE_REPRESENTATION('',(#937),#1468);
#1481=PRODUCT_DEFINITION_CONTEXT('part definition',#1489,'design');
#1482=PRODUCT_DEFINITION('Bridge','Bridge v23',#1484,#1481);
#1483=PRODUCT_DEFINITION('Truss 1','Truss 1',#1485,#1481);
#1484=PRODUCT_DEFINITION_FORMATION('',$,#1491);
#1485=PRODUCT_DEFINITION_FORMATION('',$,#1492);
#1486=PRODUCT_RELATED_PRODUCT_CATEGORY('Bridge v23','Bridge v23',(#1491));
#1487=PRODUCT_RELATED_PRODUCT_CATEGORY('Truss 1','Truss 1',(#1492));
#1488=APPLICATION_PROTOCOL_DEFINITION('international standard',
'automotive_design',2009,#1489);
#1489=APPLICATION_CONTEXT(
'Core Data for Automotive Mechanical Design Process');
#1490=PRODUCT_CONTEXT('part definition',#1489,'mechanical');
#1491=PRODUCT('Bridge','Bridge v23',$,(#1490));
#1492=PRODUCT('Truss 1','Truss 1',$,(#1490));
#1493=PRESENTATION_STYLE_ASSIGNMENT((#1494));
#1494=SURFACE_STYLE_USAGE(.BOTH.,#1495);
#1495=SURFACE_SIDE_STYLE('',(#1496));
#1496=SURFACE_STYLE_FILL_AREA(#1497);
#1497=FILL_AREA_STYLE('Steel - Satin',(#1498));
#1498=FILL_AREA_STYLE_COLOUR('Steel - Satin',#1499);
#1499=COLOUR_RGB('Steel - Satin',0.627450980392157,0.627450980392157,0.627450980392157);
ENDSEC;
END-ISO-10303-21;
